M48
; DRILL file {KiCad (5.1.5-0-10_14)} date Thursday, August 12, 2021 at 08:41:46 PM
; FORMAT={-:-/ absolute / inch / decimal}
; #@! TF.CreationDate,2021-08-12T20:41:46-06:00
; #@! TF.GenerationSoftware,Kicad,Pcbnew,(5.1.5-0-10_14)
; #@! TF.FileFunction,Plated,1,2,PTH
FMAT,2
INCH
T1C0.0118
T2C0.0394
%
G90
G05
T1
X-0.1693Y0.0984
X-0.1693Y-0.1299
X-0.1693Y-0.1614
X-0.1693Y-0.1929
X-0.1654Y-0.0984
X-0.1535Y0.0709
X-0.1496Y-0.0709
X-0.126Y0.0512
X-0.122Y-0.0512
X0.1299Y0.0591
X0.1299Y-0.0591
X0.1654Y0.0591
X0.1654Y-0.0591
X0.2008Y0.0591
X0.2008Y-0.0591
X-0.095Y0.165
X-0.095Y0.125
X-0.095Y0.08
X-0.095Y0.045
X-0.09Y-0.045
X-0.05Y0.08
X-0.045Y-0.045
X0.0Y0.08
X0.0Y0.04
X0.0Y0.0
X0.0Y-0.045
X0.045Y-0.045
X0.05Y0.08
X0.085Y-0.045
X0.095Y0.165
X0.095Y0.125
X0.095Y0.08
X0.095Y0.045
T2
X-0.1654Y0.1772
T0
M30
