%TF.GenerationSoftware,KiCad,Pcbnew,(6.0.5-0)*%
%TF.CreationDate,2022-11-03T10:05:23-06:00*%
%TF.ProjectId,mega_led_mapper_shield,6d656761-5f6c-4656-945f-6d6170706572,rev?*%
%TF.SameCoordinates,Original*%
%TF.FileFunction,Paste,Top*%
%TF.FilePolarity,Positive*%
%FSLAX46Y46*%
G04 Gerber Fmt 4.6, Leading zero omitted, Abs format (unit mm)*
G04 Created by KiCad (PCBNEW (6.0.5-0)) date 2022-11-03 10:05:23*
%MOMM*%
%LPD*%
G01*
G04 APERTURE LIST*
G04 Aperture macros list*
%AMRoundRect*
0 Rectangle with rounded corners*
0 $1 Rounding radius*
0 $2 $3 $4 $5 $6 $7 $8 $9 X,Y pos of 4 corners*
0 Add a 4 corners polygon primitive as box body*
4,1,4,$2,$3,$4,$5,$6,$7,$8,$9,$2,$3,0*
0 Add four circle primitives for the rounded corners*
1,1,$1+$1,$2,$3*
1,1,$1+$1,$4,$5*
1,1,$1+$1,$6,$7*
1,1,$1+$1,$8,$9*
0 Add four rect primitives between the rounded corners*
20,1,$1+$1,$2,$3,$4,$5,0*
20,1,$1+$1,$4,$5,$6,$7,0*
20,1,$1+$1,$6,$7,$8,$9,0*
20,1,$1+$1,$8,$9,$2,$3,0*%
G04 Aperture macros list end*
%ADD10RoundRect,0.250000X-0.350000X-0.450000X0.350000X-0.450000X0.350000X0.450000X-0.350000X0.450000X0*%
%ADD11RoundRect,0.250000X0.450000X-0.350000X0.450000X0.350000X-0.450000X0.350000X-0.450000X-0.350000X0*%
G04 APERTURE END LIST*
D10*
%TO.C,R47*%
X77740000Y-29210000D03*
X79740000Y-29210000D03*
%TD*%
%TO.C,R24*%
X72660000Y0D03*
X74660000Y0D03*
%TD*%
D11*
%TO.C,R58*%
X33020000Y-32750000D03*
X33020000Y-30750000D03*
%TD*%
D10*
%TO.C,R36*%
X72660000Y-15240000D03*
X74660000Y-15240000D03*
%TD*%
%TO.C,R28*%
X72660000Y-5080000D03*
X74660000Y-5080000D03*
%TD*%
%TO.C,R43*%
X77740000Y-24130000D03*
X79740000Y-24130000D03*
%TD*%
%TO.C,R20*%
X72660000Y5080000D03*
X74660000Y5080000D03*
%TD*%
D11*
%TO.C,R54*%
X27940000Y-32750000D03*
X27940000Y-30750000D03*
%TD*%
D10*
%TO.C,R48*%
X72660000Y-30480000D03*
X74660000Y-30480000D03*
%TD*%
%TO.C,R22*%
X72660000Y2540000D03*
X74660000Y2540000D03*
%TD*%
%TO.C,R17*%
X77740000Y8890000D03*
X79740000Y8890000D03*
%TD*%
%TO.C,R39*%
X77740000Y-19050000D03*
X79740000Y-19050000D03*
%TD*%
D11*
%TO.C,R2*%
X6350000Y16780000D03*
X6350000Y18780000D03*
%TD*%
%TO.C,R6*%
X3810000Y16780000D03*
X3810000Y18780000D03*
%TD*%
D10*
%TO.C,R31*%
X77740000Y-8890000D03*
X79740000Y-8890000D03*
%TD*%
D11*
%TO.C,R5*%
X17780000Y16780000D03*
X17780000Y18780000D03*
%TD*%
D10*
%TO.C,R21*%
X77740000Y3810000D03*
X79740000Y3810000D03*
%TD*%
D11*
%TO.C,R4*%
X-1270000Y16780000D03*
X-1270000Y18780000D03*
%TD*%
D10*
%TO.C,R25*%
X77740000Y-1270000D03*
X79740000Y-1270000D03*
%TD*%
D11*
%TO.C,R57*%
X10160000Y-32750000D03*
X10160000Y-30750000D03*
%TD*%
%TO.C,R1*%
X1270000Y16780000D03*
X1270000Y18780000D03*
%TD*%
%TO.C,R7*%
X8890000Y16780000D03*
X8890000Y18780000D03*
%TD*%
D10*
%TO.C,R27*%
X77740000Y-3810000D03*
X79740000Y-3810000D03*
%TD*%
%TO.C,R18*%
X72660000Y7620000D03*
X74660000Y7620000D03*
%TD*%
D11*
%TO.C,R51*%
X17780000Y-32750000D03*
X17780000Y-30750000D03*
%TD*%
D10*
%TO.C,R44*%
X72660000Y-25400000D03*
X74660000Y-25400000D03*
%TD*%
%TO.C,R35*%
X77740000Y-13970000D03*
X79740000Y-13970000D03*
%TD*%
%TO.C,R34*%
X72660000Y-12700000D03*
X74660000Y-12700000D03*
%TD*%
D11*
%TO.C,R8*%
X15240000Y16780000D03*
X15240000Y18780000D03*
%TD*%
%TO.C,R11*%
X48260000Y16780000D03*
X48260000Y18780000D03*
%TD*%
%TO.C,R16*%
X55880000Y16780000D03*
X55880000Y18780000D03*
%TD*%
D10*
%TO.C,R45*%
X79740000Y-26670000D03*
X77740000Y-26670000D03*
%TD*%
%TO.C,R23*%
X77740000Y1270000D03*
X79740000Y1270000D03*
%TD*%
%TO.C,R40*%
X72660000Y-20320000D03*
X74660000Y-20320000D03*
%TD*%
D11*
%TO.C,R10*%
X43180000Y16780000D03*
X43180000Y18780000D03*
%TD*%
D10*
%TO.C,R46*%
X72660000Y-27940000D03*
X74660000Y-27940000D03*
%TD*%
%TO.C,R41*%
X77740000Y-21590000D03*
X79740000Y-21590000D03*
%TD*%
D11*
%TO.C,R52*%
X25400000Y-32750000D03*
X25400000Y-30750000D03*
%TD*%
D10*
%TO.C,R42*%
X72660000Y-22860000D03*
X74660000Y-22860000D03*
%TD*%
D11*
%TO.C,R50*%
X22860000Y-32750000D03*
X22860000Y-30750000D03*
%TD*%
D10*
%TO.C,R26*%
X72660000Y-2540000D03*
X74660000Y-2540000D03*
%TD*%
D11*
%TO.C,R49*%
X20320000Y-32750000D03*
X20320000Y-30750000D03*
%TD*%
%TO.C,R56*%
X30480000Y-32750000D03*
X30480000Y-30750000D03*
%TD*%
%TO.C,R9*%
X38100000Y16780000D03*
X38100000Y18780000D03*
%TD*%
%TO.C,R15*%
X50800000Y16780000D03*
X50800000Y18780000D03*
%TD*%
D10*
%TO.C,R30*%
X72660000Y-7620000D03*
X74660000Y-7620000D03*
%TD*%
D11*
%TO.C,R12*%
X53340000Y16780000D03*
X53340000Y18780000D03*
%TD*%
D10*
%TO.C,R33*%
X77740000Y-11430000D03*
X79740000Y-11430000D03*
%TD*%
%TO.C,R32*%
X72660000Y-10160000D03*
X74660000Y-10160000D03*
%TD*%
%TO.C,R19*%
X77740000Y6350000D03*
X79740000Y6350000D03*
%TD*%
D11*
%TO.C,R14*%
X45720000Y16780000D03*
X45720000Y18780000D03*
%TD*%
%TO.C,R13*%
X40640000Y16780000D03*
X40640000Y18780000D03*
%TD*%
D10*
%TO.C,R37*%
X77740000Y-16510000D03*
X79740000Y-16510000D03*
%TD*%
D11*
%TO.C,R55*%
X12700000Y-32750000D03*
X12700000Y-30750000D03*
%TD*%
%TO.C,R53*%
X15240000Y-32750000D03*
X15240000Y-30750000D03*
%TD*%
D10*
%TO.C,R38*%
X72660000Y-17780000D03*
X74660000Y-17780000D03*
%TD*%
D11*
%TO.C,R3*%
X11430000Y16780000D03*
X11430000Y18780000D03*
%TD*%
D10*
%TO.C,R29*%
X77740000Y-6350000D03*
X79740000Y-6350000D03*
%TD*%
M02*
