M48
; DRILL file {KiCad (6.0.5-0)} date Thursday, November 03, 2022 at 10:05:28 AM
; FORMAT={-:-/ absolute / metric / decimal}
; #@! TF.CreationDate,2022-11-03T10:05:28-06:00
; #@! TF.GenerationSoftware,Kicad,Pcbnew,(6.0.5-0)
; #@! TF.FileFunction,Plated,1,2,PTH
FMAT,2
METRIC
; #@! TA.AperFunction,Plated,PTH,ViaDrill
T1C0.400
; #@! TA.AperFunction,Plated,PTH,ComponentDrill
T2C1.000
; #@! TA.AperFunction,Plated,PTH,ComponentDrill
T3C3.200
; #@! TA.AperFunction,Plated,PTH,ComponentDrill
T4C3.200
%
G90
G05
T1
X8.382Y-30.734
X12.7Y-28.956
X15.236Y-27.944
X15.748Y-14.224
X17.78Y-26.924
X20.32Y-29.464
X22.86Y-29.464
X25.4Y-24.384
X25.4Y-29.464
X27.94Y-11.684
X27.94Y-29.464
X28.448Y-1.016
X30.48Y-29.464
X33.02Y-29.464
X35.56Y-14.224
T2
X-6.695Y10.16
X-4.155Y10.16
X-1.615Y10.16
X0.925Y10.16
X3.465Y10.16
X6.005Y10.16
X8.545Y10.16
X11.085Y10.16
X15.24Y10.16
X17.78Y10.16
X20.32Y10.16
X20.32Y-38.1
X22.86Y10.16
X22.86Y-38.1
X25.4Y10.16
X25.4Y-38.1
X27.94Y10.16
X27.94Y-38.1
X30.48Y10.16
X30.48Y-38.1
X33.02Y10.16
X33.02Y-38.1
X35.56Y-38.1
X38.1Y10.16
X38.1Y-38.1
X40.64Y10.16
X43.18Y10.16
X45.72Y10.16
X48.26Y10.16
X50.8Y10.16
X53.34Y10.16
X55.88Y10.16
X63.398Y7.595
X63.398Y5.055
X63.398Y2.515
X63.398Y-0.025
X63.398Y-2.565
X63.398Y-5.105
X63.398Y-7.645
X63.398Y-10.185
X63.398Y-12.725
X63.398Y-15.265
X63.398Y-17.805
X63.398Y-20.345
X63.398Y-22.885
X63.398Y-25.425
X63.398Y-27.965
X63.398Y-30.505
X65.938Y7.595
X65.938Y5.055
X65.938Y2.515
X65.938Y-0.025
X65.938Y-2.565
X65.938Y-5.105
X65.938Y-7.645
X65.938Y-10.185
X65.938Y-12.725
X65.938Y-15.265
X65.938Y-17.805
X65.938Y-20.345
X65.938Y-22.885
X65.938Y-25.425
X65.938Y-27.965
X65.938Y-30.505
X86.355Y-2.535
X86.355Y-5.075
X86.355Y-7.615
X86.355Y-10.155
X86.355Y-12.695
X86.355Y-15.235
X86.355Y-17.775
X86.355Y-20.315
X86.355Y-22.855
X86.355Y-25.395
X86.355Y-27.935
X86.355Y-30.475
X86.36Y55.88
X86.36Y53.34
X86.36Y50.8
X86.36Y48.26
X86.36Y45.72
X86.36Y43.18
X86.36Y40.64
X86.36Y38.1
X86.36Y35.56
X86.36Y33.02
X86.36Y30.48
X86.36Y27.94
X88.895Y-2.535
X88.895Y-5.075
X88.895Y-7.615
X88.895Y-10.155
X88.895Y-12.695
X88.895Y-15.235
X88.895Y-17.775
X88.895Y-20.315
X88.895Y-22.855
X88.895Y-25.395
X88.895Y-27.935
X88.895Y-30.475
X88.9Y55.88
X88.9Y53.34
X88.9Y50.8
X88.9Y48.26
X88.9Y45.72
X88.9Y43.18
X88.9Y40.64
X88.9Y38.1
X88.9Y35.56
X88.9Y33.02
X88.9Y30.48
X88.9Y27.94
X98.56Y59.297
X98.56Y56.527
X98.56Y53.757
X98.56Y50.987
X98.56Y48.217
X98.56Y45.447
X98.56Y42.677
X98.56Y39.907
X98.56Y37.137
X98.56Y34.367
X98.56Y31.597
X98.56Y28.827
X98.56Y26.057
X98.56Y1.893
X98.56Y-0.877
X98.56Y-3.647
X98.56Y-6.417
X98.56Y-9.187
X98.56Y-11.957
X98.56Y-14.727
X98.56Y-17.497
X98.56Y-20.267
X98.56Y-23.037
X98.56Y-25.807
X98.56Y-28.577
X98.56Y-31.347
X101.4Y57.912
X101.4Y55.142
X101.4Y52.372
X101.4Y49.602
X101.4Y46.832
X101.4Y44.062
X101.4Y41.292
X101.4Y38.522
X101.4Y35.752
X101.4Y32.982
X101.4Y30.212
X101.4Y27.442
X101.4Y0.508
X101.4Y-2.262
X101.4Y-5.032
X101.4Y-7.802
X101.4Y-10.572
X101.4Y-13.342
X101.4Y-16.112
X101.4Y-18.882
X101.4Y-21.652
X101.4Y-24.422
X101.4Y-27.192
X101.4Y-29.962
T3
X98.86Y66.227
X98.86Y19.127
X98.86Y8.823
X98.86Y-38.277
T4
X-2.54Y63.5
X66.04Y-38.1
X86.36Y63.5
X86.36Y-38.1
T0
M30
