M48
; DRILL file {KiCad (5.1.5-0-10_14)} date Friday, December 03, 2021 at 01:10:11 PM
; FORMAT={-:-/ absolute / inch / decimal}
; #@! TF.CreationDate,2021-12-03T13:10:11-07:00
; #@! TF.GenerationSoftware,Kicad,Pcbnew,(5.1.5-0-10_14)
; #@! TF.FileFunction,Plated,1,4,PTH
FMAT,2
INCH
T1C0.0118
T2C0.0118
T3C0.0394
T4C0.0400
T5C0.0960
T6C0.1285
%
G90
G05
T1
X-0.45Y-1.7236
X-0.44Y-0.025
X-0.4083Y-1.7236
X-0.4Y-0.0264
X-0.3667Y-1.7236
X-0.3591Y-0.0264
X-0.325Y-1.7236
X-0.3182Y-0.0264
X-0.2833Y-1.7236
X-0.2773Y-0.0264
X-0.2417Y-1.7236
X-0.2364Y-0.0264
X-0.2Y-1.7236
X-0.1955Y-0.0264
X-0.1852Y-0.4014
X-0.1852Y-0.4486
X-0.1823Y-0.3014
X-0.1819Y-0.3486
X-0.1667Y-1.5064
X-0.1667Y-1.5536
X-0.1666Y-0.5014
X-0.1666Y-0.5486
X-0.1666Y-0.6014
X-0.1666Y-0.6486
X-0.1666Y-0.8014
X-0.1666Y-0.8486
X-0.1666Y-0.9014
X-0.1666Y-0.9486
X-0.1666Y-1.0014
X-0.1666Y-1.0486
X-0.1666Y-1.1014
X-0.1666Y-1.1486
X-0.1666Y-1.2014
X-0.1666Y-1.2486
X-0.1666Y-1.3014
X-0.1666Y-1.3486
X-0.1666Y-1.4014
X-0.1666Y-1.4486
X-0.1663Y-0.7014
X-0.1663Y-0.7486
X-0.1583Y-1.7236
X-0.1545Y-0.0264
X-0.1405Y-0.4014
X-0.1405Y-0.4486
X-0.1397Y-0.3014
X-0.1388Y-0.3486
X-0.125Y-1.5064
X-0.125Y-1.5536
X-0.125Y-0.5014
X-0.125Y-0.5486
X-0.125Y-0.6014
X-0.125Y-0.6486
X-0.125Y-0.8014
X-0.125Y-0.8486
X-0.125Y-0.9014
X-0.125Y-0.9486
X-0.125Y-1.0014
X-0.125Y-1.0486
X-0.125Y-1.1014
X-0.125Y-1.1486
X-0.125Y-1.2014
X-0.125Y-1.2486
X-0.125Y-1.3014
X-0.125Y-1.3486
X-0.125Y-1.4014
X-0.125Y-1.4486
X-0.1244Y-0.7014
X-0.1244Y-0.7486
X-0.1167Y-1.7236
X-0.1136Y-0.0264
X-0.097Y-0.3014
X-0.0957Y-0.3486
X-0.0957Y-0.4014
X-0.0957Y-0.4486
X-0.0833Y-1.5064
X-0.0833Y-1.5536
X-0.0833Y-0.5014
X-0.0833Y-0.5486
X-0.0833Y-0.6014
X-0.0833Y-0.6486
X-0.0833Y-0.8014
X-0.0833Y-0.8486
X-0.0833Y-0.9014
X-0.0833Y-0.9486
X-0.0833Y-1.0014
X-0.0833Y-1.0486
X-0.0833Y-1.1014
X-0.0833Y-1.1486
X-0.0833Y-1.2014
X-0.0833Y-1.2486
X-0.0833Y-1.3014
X-0.0833Y-1.3486
X-0.0833Y-1.4014
X-0.0833Y-1.4486
X-0.0825Y-0.7014
X-0.0825Y-0.7486
X-0.075Y-1.7236
X-0.0727Y-0.0264
X-0.0544Y-0.3014
X-0.0526Y-0.3486
X-0.0509Y-0.4014
X-0.0509Y-0.4486
X-0.0417Y-1.5064
X-0.0417Y-1.5536
X-0.0416Y-0.5014
X-0.0416Y-0.5486
X-0.0416Y-0.6014
X-0.0416Y-0.6486
X-0.0416Y-0.8014
X-0.0416Y-0.8486
X-0.0416Y-0.9014
X-0.0416Y-0.9486
X-0.0416Y-1.0014
X-0.0416Y-1.0486
X-0.0416Y-1.1014
X-0.0416Y-1.1486
X-0.0416Y-1.2014
X-0.0416Y-1.2486
X-0.0416Y-1.3014
X-0.0416Y-1.3486
X-0.0416Y-1.4014
X-0.0416Y-1.4486
X-0.0406Y-0.7014
X-0.0406Y-0.7486
X-0.0333Y-1.7236
X-0.0318Y-0.0264
X-0.0117Y-0.3014
X-0.0095Y-0.3486
X-0.0061Y-0.4014
X-0.0061Y-0.4486
X0.0Y-1.5064
X0.0Y-1.5536
X0.0Y-0.5014
X0.0Y-0.5486
X0.0Y-0.6014
X0.0Y-0.6486
X0.0Y-0.8014
X0.0Y-0.8486
X0.0Y-0.9014
X0.0Y-0.9486
X0.0Y-1.0014
X0.0Y-1.0486
X0.0Y-1.1014
X0.0Y-1.1486
X0.0Y-1.2014
X0.0Y-1.2486
X0.0Y-1.3014
X0.0Y-1.3486
X0.0Y-1.4014
X0.0Y-1.4486
X0.0013Y-0.7014
X0.0013Y-0.7486
X0.0083Y-1.7236
X0.0091Y-0.0264
X0.031Y-0.3014
X0.0336Y-0.3486
X0.0386Y-0.4014
X0.0386Y-0.4486
X0.0417Y-1.5064
X0.0417Y-1.5536
X0.0417Y-0.5014
X0.0417Y-0.5486
X0.0417Y-0.6014
X0.0417Y-0.6486
X0.0417Y-0.8014
X0.0417Y-0.8486
X0.0417Y-0.9014
X0.0417Y-0.9486
X0.0417Y-1.0014
X0.0417Y-1.0486
X0.0417Y-1.1014
X0.0417Y-1.1486
X0.0417Y-1.2014
X0.0417Y-1.2486
X0.0417Y-1.3014
X0.0417Y-1.3486
X0.0417Y-1.4014
X0.0417Y-1.4486
X0.0431Y-0.7014
X0.0431Y-0.7486
X0.0736Y-0.3014
X0.0767Y-0.3486
X0.08Y-0.485
X0.0833Y-1.5064
X0.0833Y-1.5536
X0.0834Y-0.4486
X0.0834Y-0.5486
X0.0834Y-0.6486
X0.0834Y-0.8486
X0.0834Y-0.9486
X0.0834Y-1.0486
X0.0834Y-1.1486
X0.0834Y-1.2486
X0.0834Y-1.3486
X0.0834Y-1.4486
X0.085Y-0.7486
X0.09Y-0.265
X0.125Y-1.5064
X0.125Y-1.5536
X0.1315Y-0.24
X0.1667Y-1.5064
X0.1667Y-1.5536
X0.171Y-0.2514
X0.2083Y-1.5536
X0.325Y-1.3416
X0.325Y-1.4084
X0.3584Y-1.375
X1.05Y-1.37
T2
X-0.4736Y-0.0315
X-0.4736Y-0.0715
X-0.4736Y-0.1111
X-0.4736Y-0.1508
X-0.4736Y-0.1904
X-0.4736Y-0.2301
X-0.4736Y-0.2697
X-0.4736Y-0.3094
X-0.4736Y-0.349
X-0.4736Y-0.3886
X-0.4736Y-0.4283
X-0.4736Y-0.4679
X-0.4736Y-0.5076
X-0.4736Y-0.5472
X-0.4736Y-0.5869
X-0.4736Y-0.6265
X-0.4736Y-0.6662
X-0.4736Y-0.7058
X-0.4736Y-0.7455
X-0.4736Y-0.7851
X-0.4736Y-0.8247
X-0.4736Y-0.8644
X-0.4736Y-0.904
X-0.4736Y-0.9437
X-0.4736Y-0.9833
X-0.4736Y-1.023
X-0.4736Y-1.0626
X-0.4736Y-1.1023
X-0.4736Y-1.1419
X-0.4736Y-1.1816
X-0.4736Y-1.2212
X-0.4736Y-1.2608
X-0.4736Y-1.3005
X-0.4736Y-1.3401
X-0.4736Y-1.3798
X-0.4736Y-1.4194
X-0.4736Y-1.4591
X-0.4736Y-1.4987
X-0.4736Y-1.5384
X-0.4736Y-1.578
X-0.4736Y-1.6177
X-0.4736Y-1.6573
X-0.4736Y-1.697
X0.0495Y-1.7236
X0.0707Y-0.0264
X0.0891Y-1.7236
X0.1104Y-0.0264
X0.1288Y-1.7236
X0.15Y-0.0264
X0.1684Y-1.7236
X0.2Y-0.0264
X0.2081Y-1.7236
X0.2408Y-0.0264
X0.2477Y-1.7236
X0.2816Y-0.0264
X0.2874Y-1.7236
X0.3118Y-0.3702
X0.315Y-0.7514
X0.3166Y-0.6514
X0.3166Y-0.8514
X0.3166Y-0.9514
X0.3167Y-0.3083
X0.3224Y-0.0264
X0.327Y-1.7236
X0.33Y-1.2514
X0.33Y-1.2986
X0.3315Y-1.0514
X0.3315Y-1.0986
X0.3326Y-1.2014
X0.3328Y-0.5009
X0.3328Y-0.5481
X0.3402Y-0.3986
X0.3477Y-0.3393
X0.3555Y-0.7514
X0.3555Y-0.7986
X0.357Y-0.6514
X0.357Y-0.6986
X0.357Y-0.8514
X0.357Y-0.8986
X0.357Y-0.9514
X0.357Y-0.9986
X0.3632Y-0.0264
X0.365Y-0.5986
X0.3667Y-1.7236
X0.3687Y-0.4271
X0.37Y-1.2514
X0.37Y-1.2986
X0.3722Y-1.0514
X0.3722Y-1.0986
X0.3739Y-1.2014
X0.3741Y-0.5009
X0.3741Y-0.5481
X0.3788Y-0.3704
X0.396Y-0.7514
X0.396Y-0.7986
X0.3974Y-0.6514
X0.3974Y-0.6986
X0.3974Y-0.8514
X0.3974Y-0.8986
X0.3974Y-0.9514
X0.3974Y-0.9986
X0.401Y-0.4486
X0.4039Y-0.0264
X0.405Y-0.5986
X0.4063Y-1.7236
X0.4098Y-0.4014
X0.41Y-1.2514
X0.41Y-1.2986
X0.413Y-1.0514
X0.413Y-1.0986
X0.4147Y-1.3486
X0.4153Y-1.2014
X0.4155Y-0.5009
X0.4155Y-0.5481
X0.4365Y-0.7514
X0.4365Y-0.7986
X0.4379Y-0.6514
X0.4379Y-0.6986
X0.4379Y-0.8514
X0.4379Y-0.8986
X0.4379Y-0.9514
X0.4379Y-0.9986
X0.4412Y-0.4486
X0.4447Y-0.0264
X0.445Y-0.5986
X0.4459Y-1.7236
X0.45Y-1.2514
X0.45Y-1.2986
X0.4523Y-0.4014
X0.4537Y-1.0514
X0.4537Y-1.0986
X0.4544Y-1.3486
X0.4566Y-1.2014
X0.4569Y-0.5009
X0.4569Y-0.5481
X0.477Y-0.7514
X0.477Y-0.7986
X0.4783Y-0.6514
X0.4783Y-0.6986
X0.4783Y-0.8514
X0.4783Y-0.8986
X0.4783Y-0.9514
X0.4783Y-0.9986
X0.4815Y-0.4486
X0.485Y-0.5986
X0.4855Y-0.0264
X0.4856Y-1.7236
X0.49Y-1.2514
X0.49Y-1.2986
X0.4945Y-1.0514
X0.4945Y-1.0986
X0.4979Y-1.2014
X0.4983Y-0.5009
X0.4983Y-0.5481
X0.5175Y-0.7514
X0.5175Y-0.7986
X0.5187Y-0.6514
X0.5187Y-0.6986
X0.5187Y-0.8514
X0.5187Y-0.8986
X0.5187Y-0.9514
X0.5187Y-0.9986
X0.5217Y-0.4486
X0.525Y-0.5986
X0.5252Y-1.7236
X0.5263Y-0.0264
X0.53Y-1.2514
X0.53Y-1.2986
X0.5353Y-1.0514
X0.5353Y-1.0986
X0.5392Y-1.2014
X0.5396Y-0.5009
X0.5396Y-0.5481
X0.558Y-0.7514
X0.558Y-0.7986
X0.5591Y-0.6514
X0.5591Y-0.6986
X0.5591Y-0.8514
X0.5591Y-0.8986
X0.5591Y-0.9514
X0.5591Y-0.9986
X0.562Y-0.4486
X0.5649Y-1.7236
X0.565Y-0.5986
X0.5671Y-0.0264
X0.57Y-1.2514
X0.57Y-1.2986
X0.576Y-1.0514
X0.576Y-1.0986
X0.5805Y-1.2014
X0.581Y-0.5009
X0.581Y-0.5481
X0.5985Y-0.7514
X0.5985Y-0.7986
X0.5995Y-0.6514
X0.5995Y-0.6986
X0.5995Y-0.8514
X0.5995Y-0.8986
X0.5995Y-0.9514
X0.5995Y-0.9986
X0.6022Y-0.4486
X0.6045Y-1.7236
X0.605Y-0.5986
X0.6079Y-0.0264
X0.61Y-1.2514
X0.61Y-1.2986
X0.6168Y-1.0514
X0.6168Y-1.0986
X0.6218Y-1.2014
X0.6224Y-0.5009
X0.6224Y-0.5481
X0.639Y-0.7514
X0.639Y-0.7986
X0.64Y-0.6514
X0.64Y-0.6986
X0.64Y-0.8514
X0.64Y-0.8986
X0.64Y-0.9514
X0.64Y-0.9986
X0.6424Y-0.4486
X0.6442Y-1.7236
X0.645Y-0.5986
X0.6487Y-0.0264
X0.65Y-1.2514
X0.65Y-1.2986
X0.6529Y-1.3486
X0.6575Y-1.0514
X0.6575Y-1.0986
X0.6632Y-1.2014
X0.6638Y-0.5009
X0.6638Y-0.5481
X0.665Y-0.4014
X0.6795Y-0.7514
X0.6795Y-0.7986
X0.6804Y-0.6514
X0.6804Y-0.6986
X0.6804Y-0.8514
X0.6804Y-0.9
X0.6804Y-0.9514
X0.6804Y-0.9986
X0.6827Y-0.4486
X0.6838Y-1.7236
X0.685Y-0.5986
X0.6895Y-0.0264
X0.69Y-1.2514
X0.69Y-1.2986
X0.6926Y-1.3486
X0.6983Y-1.0514
X0.6983Y-1.0986
X0.7045Y-1.2014
X0.7052Y-0.5009
X0.7052Y-0.5481
X0.7075Y-0.4014
X0.72Y-0.7514
X0.72Y-0.7986
X0.7208Y-0.6514
X0.7208Y-0.6986
X0.7208Y-0.8514
X0.7208Y-0.8986
X0.7208Y-0.9514
X0.7208Y-0.9986
X0.7229Y-0.4486
X0.7235Y-1.7236
X0.725Y-0.5986
X0.73Y-1.2514
X0.73Y-1.2986
X0.7303Y-0.0264
X0.7324Y-1.3486
X0.739Y-1.0514
X0.739Y-1.0986
X0.7458Y-1.2014
X0.7465Y-0.5009
X0.7465Y-0.5481
X0.7501Y-0.4014
X0.7605Y-0.7514
X0.7605Y-0.7986
X0.7612Y-0.6514
X0.7612Y-0.6986
X0.7612Y-0.8514
X0.7612Y-0.8986
X0.7612Y-0.9514
X0.7612Y-0.9986
X0.7631Y-1.7236
X0.7632Y-0.4486
X0.765Y-0.5986
X0.77Y-1.2514
X0.77Y-1.2986
X0.771Y-0.0264
X0.7721Y-1.3486
X0.7797Y-1.0514
X0.7797Y-1.0986
X0.7871Y-1.2014
X0.7879Y-0.5009
X0.7879Y-0.5481
X0.801Y-0.7514
X0.801Y-0.7986
X0.8016Y-0.6514
X0.8016Y-0.6986
X0.8016Y-0.8514
X0.8016Y-0.8986
X0.8016Y-0.9514
X0.8016Y-0.9986
X0.8028Y-1.7236
X0.8034Y-0.4486
X0.805Y-0.5986
X0.81Y-1.2514
X0.81Y-1.2986
X0.8118Y-0.0264
X0.8205Y-1.0514
X0.8205Y-1.0986
X0.8284Y-1.2014
X0.8293Y-0.5009
X0.8293Y-0.5481
X0.8415Y-0.7514
X0.8415Y-0.7986
X0.8421Y-0.6514
X0.8421Y-0.6986
X0.8421Y-0.8514
X0.8421Y-0.8986
X0.8421Y-0.9514
X0.8421Y-0.9986
X0.8424Y-1.7236
X0.8436Y-0.4486
X0.845Y-0.5986
X0.85Y-1.2514
X0.85Y-1.2986
X0.8526Y-0.0264
X0.8612Y-1.0514
X0.8612Y-1.0986
X0.8697Y-1.2014
X0.8707Y-0.5009
X0.8707Y-0.5481
X0.882Y-0.7514
X0.882Y-0.7986
X0.8821Y-1.7236
X0.8825Y-0.6514
X0.8825Y-0.6986
X0.8825Y-0.8514
X0.8825Y-0.8986
X0.8825Y-0.9514
X0.8825Y-0.9986
X0.8839Y-0.4486
X0.885Y-0.5986
X0.89Y-1.2514
X0.89Y-1.2986
X0.8934Y-0.0264
X0.902Y-1.0514
X0.902Y-1.0986
X0.9111Y-1.2014
X0.912Y-0.5009
X0.912Y-0.5481
X0.9217Y-1.7236
X0.9225Y-0.7514
X0.9225Y-0.7986
X0.9229Y-0.6514
X0.9229Y-0.6986
X0.9229Y-0.8514
X0.9229Y-0.8986
X0.9229Y-0.9514
X0.9229Y-0.9986
X0.9241Y-0.4486
X0.925Y-0.5986
X0.93Y-1.2514
X0.93Y-1.2986
X0.9309Y-1.3486
X0.9342Y-0.0264
X0.9427Y-1.0514
X0.9427Y-1.0986
X0.9524Y-1.2014
X0.9534Y-0.5009
X0.9534Y-0.5481
X0.9579Y-0.4305
X0.9613Y-1.7236
X0.963Y-0.7514
X0.963Y-0.7986
X0.9633Y-0.6514
X0.9633Y-0.6986
X0.9633Y-0.8514
X0.9633Y-0.8986
X0.9633Y-0.9514
X0.9633Y-0.9986
X0.965Y-0.5986
X0.97Y-1.2514
X0.97Y-1.2986
X0.9706Y-1.3486
X0.975Y-0.0264
X0.9835Y-1.0514
X0.9835Y-1.0986
X0.9863Y-0.4021
X0.9937Y-1.2014
X0.9948Y-0.5009
X0.9948Y-0.5481
X1.001Y-1.7236
X1.0035Y-0.7514
X1.0035Y-0.7986
X1.0037Y-0.6514
X1.0037Y-0.6986
X1.0037Y-0.8514
X1.0037Y-0.8986
X1.0037Y-0.9514
X1.0037Y-0.9986
X1.005Y-0.5986
X1.0088Y-0.3128
X1.01Y-1.2514
X1.01Y-1.2986
X1.0103Y-1.3486
X1.0148Y-0.3736
X1.0158Y-0.0264
X1.0242Y-1.0514
X1.0242Y-1.0986
X1.0362Y-0.5481
X1.0383Y-0.2833
X1.0406Y-1.7236
X1.0432Y-0.3452
X1.044Y-0.7514
X1.044Y-0.7986
X1.0442Y-0.6514
X1.0442Y-0.6986
X1.0442Y-0.8514
X1.0442Y-0.8986
X1.0442Y-0.9514
X1.0442Y-0.9986
X1.045Y-0.5986
X1.05Y-1.3014
X1.0566Y-0.0264
X1.065Y-1.0986
X1.0803Y-1.7236
X1.0974Y-0.0264
X1.1199Y-1.7236
X1.1381Y-0.0264
X1.1596Y-1.7236
X1.1789Y-0.0264
X1.1992Y-1.7236
X1.2197Y-0.0264
X1.2389Y-1.7236
X1.2605Y-0.0264
X1.2785Y-1.7236
X1.3013Y-0.0264
X1.3164Y-1.717
X1.3236Y-0.0538
X1.3236Y-0.0935
X1.3236Y-0.1331
X1.3236Y-0.1728
X1.3236Y-0.2124
X1.3236Y-0.2521
X1.3236Y-0.2917
X1.3236Y-0.3314
X1.3236Y-0.371
X1.3236Y-0.4106
X1.3236Y-0.4503
X1.3236Y-0.4899
X1.3236Y-0.5296
X1.3236Y-0.5692
X1.3236Y-0.6089
X1.3236Y-0.6485
X1.3236Y-0.6882
X1.3236Y-0.7278
X1.3236Y-0.7675
X1.3236Y-0.8071
X1.3236Y-0.8467
X1.3236Y-0.8864
X1.3236Y-0.926
X1.3236Y-0.9657
X1.3236Y-1.0053
X1.3236Y-1.045
X1.3236Y-1.0846
X1.3236Y-1.1243
X1.3236Y-1.1639
X1.3236Y-1.2036
X1.3236Y-1.2432
X1.3236Y-1.2829
X1.3236Y-1.3225
X1.3236Y-1.3621
X1.3236Y-1.4018
X1.3236Y-1.4414
X1.3236Y-1.4811
X1.3236Y-1.5207
X1.3236Y-1.5604
X1.3236Y-1.6
X1.3236Y-1.6397
X1.3236Y-1.6793
T3
X1.125Y-0.3
X1.125Y-0.4
X1.125Y-0.5
X1.125Y-0.6
X1.125Y-0.7
X1.125Y-0.8
X1.125Y-0.9
X1.125Y-1.0
X1.125Y-1.1
X1.125Y-1.2
X1.125Y-1.3
X1.125Y-1.4
X1.225Y-0.3
X1.225Y-0.4
X1.225Y-0.5
X1.225Y-0.6
X1.225Y-0.7
X1.225Y-0.8
X1.225Y-0.9
X1.225Y-1.0
X1.225Y-1.1
X1.225Y-1.2
X1.225Y-1.3
X1.225Y-1.4
T4
X-0.35Y-0.326
X-0.35Y-0.426
X-0.35Y-0.526
X-0.35Y-0.626
X-0.35Y-0.726
X-0.35Y-0.826
X-0.35Y-0.926
X-0.35Y-1.026
X-0.35Y-1.126
X-0.35Y-1.226
X-0.35Y-1.326
X-0.35Y-1.426
X-0.25Y-0.276
X-0.25Y-0.376
X-0.25Y-0.476
X-0.25Y-0.576
X-0.25Y-0.676
X-0.25Y-0.776
X-0.25Y-0.876
X-0.25Y-0.976
X-0.25Y-1.076
X-0.25Y-1.176
X-0.25Y-1.276
X-0.25Y-1.376
X-0.25Y-1.476
X0.15Y-0.325
X0.15Y-0.425
X0.15Y-0.525
X0.15Y-0.625
X0.15Y-0.725
X0.15Y-0.825
X0.15Y-0.925
X0.15Y-1.025
X0.15Y-1.125
X0.15Y-1.225
X0.15Y-1.325
X0.15Y-1.425
X0.25Y-0.275
X0.25Y-0.375
X0.25Y-0.475
X0.25Y-0.575
X0.25Y-0.675
X0.25Y-0.775
X0.25Y-0.875
X0.25Y-0.975
X0.25Y-1.075
X0.25Y-1.175
X0.25Y-1.275
X0.25Y-1.375
X0.25Y-1.475
T5
X-0.3Y-0.126
X-0.3Y-1.626
X0.2Y-0.125
X0.2Y-1.625
T6
X0.55Y-0.275
X0.55Y-1.475
X0.85Y-0.275
X0.85Y-1.475
T0
M30
