G04 #@! TF.GenerationSoftware,KiCad,Pcbnew,(5.1.5-0-10_14)*
G04 #@! TF.CreationDate,2021-12-03T13:10:08-07:00*
G04 #@! TF.ProjectId,UVhash_lower,55566861-7368-45f6-9c6f-7765722e6b69,rev?*
G04 #@! TF.SameCoordinates,Original*
G04 #@! TF.FileFunction,Soldermask,Top*
G04 #@! TF.FilePolarity,Negative*
%FSLAX46Y46*%
G04 Gerber Fmt 4.6, Leading zero omitted, Abs format (unit mm)*
G04 Created by KiCad (PCBNEW (5.1.5-0-10_14)) date 2021-12-03 13:10:08*
%MOMM*%
%LPD*%
G04 APERTURE LIST*
%ADD10C,0.100000*%
%ADD11C,0.120000*%
%ADD12C,3.175000*%
G04 APERTURE END LIST*
D10*
G36*
X27559000Y-16002000D02*
G01*
X26416000Y-15875000D01*
X26543000Y-16764000D01*
X26162000Y-16256000D01*
X25781000Y-17018000D01*
X25781000Y-16002000D01*
X24511000Y-16637000D01*
X25527000Y-15621000D01*
X24384000Y-15621000D01*
X25654000Y-15113000D01*
X26289000Y-15113000D01*
X27559000Y-16002000D01*
G37*
X27559000Y-16002000D02*
X26416000Y-15875000D01*
X26543000Y-16764000D01*
X26162000Y-16256000D01*
X25781000Y-17018000D01*
X25781000Y-16002000D01*
X24511000Y-16637000D01*
X25527000Y-15621000D01*
X24384000Y-15621000D01*
X25654000Y-15113000D01*
X26289000Y-15113000D01*
X27559000Y-16002000D01*
D11*
X26035000Y-15240000D02*
X18796000Y-29464000D01*
D12*
X23177500Y-37465000D02*
G75*
G03X23177500Y-37465000I-1587500J0D01*
G01*
X15557500Y-37465000D02*
G75*
G03X15557500Y-37465000I-1587500J0D01*
G01*
X23177500Y-6985000D02*
G75*
G03X23177500Y-6985000I-1587500J0D01*
G01*
X15557500Y-6985000D02*
G75*
G03X15557500Y-6985000I-1587500J0D01*
G01*
D10*
G36*
X-7249228Y-39638407D02*
G01*
X-7123545Y-39663407D01*
X-6813801Y-39791707D01*
X-6535038Y-39977970D01*
X-6297970Y-40215038D01*
X-6111707Y-40493801D01*
X-5993762Y-40778546D01*
X-5983407Y-40803546D01*
X-5922972Y-41107368D01*
X-5918000Y-41132368D01*
X-5918000Y-41467632D01*
X-5983407Y-41796455D01*
X-6111707Y-42106199D01*
X-6297970Y-42384962D01*
X-6535038Y-42622030D01*
X-6813801Y-42808293D01*
X-7123545Y-42936593D01*
X-7233153Y-42958395D01*
X-7452366Y-43002000D01*
X-7787634Y-43002000D01*
X-8006847Y-42958395D01*
X-8116455Y-42936593D01*
X-8426199Y-42808293D01*
X-8704962Y-42622030D01*
X-8942030Y-42384962D01*
X-9128293Y-42106199D01*
X-9256593Y-41796455D01*
X-9322000Y-41467632D01*
X-9322000Y-41132368D01*
X-9317027Y-41107368D01*
X-9256593Y-40803546D01*
X-9246238Y-40778546D01*
X-9128293Y-40493801D01*
X-8942030Y-40215038D01*
X-8704962Y-39977970D01*
X-8426199Y-39791707D01*
X-8116455Y-39663407D01*
X-7990772Y-39638407D01*
X-7787634Y-39598000D01*
X-7452366Y-39598000D01*
X-7249228Y-39638407D01*
G37*
G36*
X5466847Y-39616605D02*
G01*
X5576455Y-39638407D01*
X5886199Y-39766707D01*
X6164962Y-39952970D01*
X6402030Y-40190038D01*
X6588293Y-40468801D01*
X6716593Y-40778545D01*
X6716593Y-40778546D01*
X6782000Y-41107366D01*
X6782000Y-41442634D01*
X6777027Y-41467634D01*
X6716593Y-41771455D01*
X6588293Y-42081199D01*
X6402030Y-42359962D01*
X6164962Y-42597030D01*
X5886199Y-42783293D01*
X5576455Y-42911593D01*
X5466847Y-42933395D01*
X5247634Y-42977000D01*
X4912366Y-42977000D01*
X4693153Y-42933395D01*
X4583545Y-42911593D01*
X4273801Y-42783293D01*
X3995038Y-42597030D01*
X3757970Y-42359962D01*
X3571707Y-42081199D01*
X3443407Y-41771455D01*
X3382973Y-41467634D01*
X3378000Y-41442634D01*
X3378000Y-41107366D01*
X3443407Y-40778546D01*
X3443407Y-40778545D01*
X3571707Y-40468801D01*
X3757970Y-40190038D01*
X3995038Y-39952970D01*
X4273801Y-39766707D01*
X4583545Y-39638407D01*
X4693153Y-39616605D01*
X4912366Y-39573000D01*
X5247634Y-39573000D01*
X5466847Y-39616605D01*
G37*
G36*
X-6075813Y-36586123D02*
G01*
X-5945123Y-36640257D01*
X-5904743Y-36656983D01*
X-5827242Y-36708768D01*
X-5750786Y-36759854D01*
X-5619854Y-36890786D01*
X-5580192Y-36950145D01*
X-5528158Y-37028018D01*
X-5516982Y-37044745D01*
X-5446123Y-37215813D01*
X-5410000Y-37397417D01*
X-5410000Y-37582583D01*
X-5446123Y-37764187D01*
X-5516982Y-37935255D01*
X-5516983Y-37935257D01*
X-5619855Y-38089215D01*
X-5750785Y-38220145D01*
X-5904743Y-38323017D01*
X-5904744Y-38323018D01*
X-5904745Y-38323018D01*
X-6075813Y-38393877D01*
X-6257417Y-38430000D01*
X-6442583Y-38430000D01*
X-6624187Y-38393877D01*
X-6795255Y-38323018D01*
X-6795256Y-38323018D01*
X-6795257Y-38323017D01*
X-6949215Y-38220145D01*
X-7080145Y-38089215D01*
X-7183017Y-37935257D01*
X-7183018Y-37935255D01*
X-7253877Y-37764187D01*
X-7290000Y-37582583D01*
X-7290000Y-37397417D01*
X-7253877Y-37215813D01*
X-7183018Y-37044745D01*
X-7171841Y-37028018D01*
X-7119808Y-36950145D01*
X-7080146Y-36890786D01*
X-6949214Y-36759854D01*
X-6872758Y-36708768D01*
X-6795257Y-36656983D01*
X-6754877Y-36640257D01*
X-6624187Y-36586123D01*
X-6442583Y-36550000D01*
X-6257417Y-36550000D01*
X-6075813Y-36586123D01*
G37*
G36*
X6624187Y-36561123D02*
G01*
X6795255Y-36631982D01*
X6795257Y-36631983D01*
X6949215Y-36734855D01*
X7080145Y-36865785D01*
X7136514Y-36950146D01*
X7183018Y-37019745D01*
X7253877Y-37190813D01*
X7290000Y-37372417D01*
X7290000Y-37557583D01*
X7253877Y-37739187D01*
X7243521Y-37764188D01*
X7183017Y-37910257D01*
X7080145Y-38064215D01*
X6949215Y-38195145D01*
X6795257Y-38298017D01*
X6795256Y-38298018D01*
X6795255Y-38298018D01*
X6624187Y-38368877D01*
X6442583Y-38405000D01*
X6257417Y-38405000D01*
X6075813Y-38368877D01*
X5904745Y-38298018D01*
X5904744Y-38298018D01*
X5904743Y-38298017D01*
X5750785Y-38195145D01*
X5619855Y-38064215D01*
X5516983Y-37910257D01*
X5456479Y-37764188D01*
X5446123Y-37739187D01*
X5410000Y-37557583D01*
X5410000Y-37372417D01*
X5446123Y-37190813D01*
X5516982Y-37019745D01*
X5563487Y-36950146D01*
X5619855Y-36865785D01*
X5750785Y-36734855D01*
X5904743Y-36631983D01*
X5904745Y-36631982D01*
X6075813Y-36561123D01*
X6257417Y-36525000D01*
X6442583Y-36525000D01*
X6624187Y-36561123D01*
G37*
G36*
X-8615813Y-35316123D02*
G01*
X-8485123Y-35370257D01*
X-8444743Y-35386983D01*
X-8367242Y-35438768D01*
X-8290786Y-35489854D01*
X-8159854Y-35620786D01*
X-8120192Y-35680145D01*
X-8068158Y-35758018D01*
X-8056982Y-35774745D01*
X-7986123Y-35945813D01*
X-7950000Y-36127417D01*
X-7950000Y-36312583D01*
X-7986123Y-36494187D01*
X-8053555Y-36656982D01*
X-8056983Y-36665257D01*
X-8159855Y-36819215D01*
X-8290785Y-36950145D01*
X-8444743Y-37053017D01*
X-8444744Y-37053018D01*
X-8444745Y-37053018D01*
X-8615813Y-37123877D01*
X-8797417Y-37160000D01*
X-8982583Y-37160000D01*
X-9164187Y-37123877D01*
X-9335255Y-37053018D01*
X-9335256Y-37053018D01*
X-9335257Y-37053017D01*
X-9489215Y-36950145D01*
X-9620145Y-36819215D01*
X-9723017Y-36665257D01*
X-9726445Y-36656982D01*
X-9793877Y-36494187D01*
X-9830000Y-36312583D01*
X-9830000Y-36127417D01*
X-9793877Y-35945813D01*
X-9723018Y-35774745D01*
X-9711841Y-35758018D01*
X-9659808Y-35680145D01*
X-9620146Y-35620786D01*
X-9489214Y-35489854D01*
X-9412758Y-35438768D01*
X-9335257Y-35386983D01*
X-9294877Y-35370257D01*
X-9164187Y-35316123D01*
X-8982583Y-35280000D01*
X-8797417Y-35280000D01*
X-8615813Y-35316123D01*
G37*
G36*
X4084187Y-35291123D02*
G01*
X4255255Y-35361982D01*
X4255257Y-35361983D01*
X4409215Y-35464855D01*
X4540145Y-35595785D01*
X4596514Y-35680146D01*
X4643018Y-35749745D01*
X4713877Y-35920813D01*
X4750000Y-36102417D01*
X4750000Y-36287583D01*
X4713877Y-36469187D01*
X4675795Y-36561124D01*
X4643017Y-36640257D01*
X4631841Y-36656983D01*
X4563105Y-36759854D01*
X4540145Y-36794215D01*
X4409215Y-36925145D01*
X4255257Y-37028017D01*
X4255256Y-37028018D01*
X4255255Y-37028018D01*
X4084187Y-37098877D01*
X3902583Y-37135000D01*
X3717417Y-37135000D01*
X3535813Y-37098877D01*
X3364745Y-37028018D01*
X3364744Y-37028018D01*
X3364743Y-37028017D01*
X3210785Y-36925145D01*
X3079855Y-36794215D01*
X3056896Y-36759854D01*
X2988159Y-36656983D01*
X2976983Y-36640257D01*
X2944205Y-36561124D01*
X2906123Y-36469187D01*
X2870000Y-36287583D01*
X2870000Y-36102417D01*
X2906123Y-35920813D01*
X2976982Y-35749745D01*
X3023487Y-35680146D01*
X3079855Y-35595785D01*
X3210785Y-35464855D01*
X3364743Y-35361983D01*
X3364745Y-35361982D01*
X3535813Y-35291123D01*
X3717417Y-35255000D01*
X3902583Y-35255000D01*
X4084187Y-35291123D01*
G37*
G36*
X28688512Y-34663927D02*
G01*
X28837812Y-34693624D01*
X29001784Y-34761544D01*
X29149354Y-34860147D01*
X29274853Y-34985646D01*
X29373456Y-35133216D01*
X29441376Y-35297188D01*
X29476000Y-35471259D01*
X29476000Y-35648741D01*
X29441376Y-35822812D01*
X29373456Y-35986784D01*
X29274853Y-36134354D01*
X29149354Y-36259853D01*
X29001784Y-36358456D01*
X28837812Y-36426376D01*
X28688512Y-36456073D01*
X28663742Y-36461000D01*
X28486258Y-36461000D01*
X28461488Y-36456073D01*
X28312188Y-36426376D01*
X28148216Y-36358456D01*
X28000646Y-36259853D01*
X27875147Y-36134354D01*
X27776544Y-35986784D01*
X27708624Y-35822812D01*
X27674000Y-35648741D01*
X27674000Y-35471259D01*
X27708624Y-35297188D01*
X27776544Y-35133216D01*
X27875147Y-34985646D01*
X28000646Y-34860147D01*
X28148216Y-34761544D01*
X28312188Y-34693624D01*
X28461488Y-34663927D01*
X28486258Y-34659000D01*
X28663742Y-34659000D01*
X28688512Y-34663927D01*
G37*
G36*
X31228512Y-34663927D02*
G01*
X31377812Y-34693624D01*
X31541784Y-34761544D01*
X31689354Y-34860147D01*
X31814853Y-34985646D01*
X31913456Y-35133216D01*
X31981376Y-35297188D01*
X32016000Y-35471259D01*
X32016000Y-35648741D01*
X31981376Y-35822812D01*
X31913456Y-35986784D01*
X31814853Y-36134354D01*
X31689354Y-36259853D01*
X31541784Y-36358456D01*
X31377812Y-36426376D01*
X31228512Y-36456073D01*
X31203742Y-36461000D01*
X31026258Y-36461000D01*
X31001488Y-36456073D01*
X30852188Y-36426376D01*
X30688216Y-36358456D01*
X30540646Y-36259853D01*
X30415147Y-36134354D01*
X30316544Y-35986784D01*
X30248624Y-35822812D01*
X30214000Y-35648741D01*
X30214000Y-35471259D01*
X30248624Y-35297188D01*
X30316544Y-35133216D01*
X30415147Y-34985646D01*
X30540646Y-34860147D01*
X30688216Y-34761544D01*
X30852188Y-34693624D01*
X31001488Y-34663927D01*
X31026258Y-34659000D01*
X31203742Y-34659000D01*
X31228512Y-34663927D01*
G37*
G36*
X-6075813Y-34046123D02*
G01*
X-5945123Y-34100257D01*
X-5904743Y-34116983D01*
X-5827242Y-34168768D01*
X-5750786Y-34219854D01*
X-5619854Y-34350786D01*
X-5580192Y-34410145D01*
X-5528158Y-34488018D01*
X-5516982Y-34504745D01*
X-5446123Y-34675813D01*
X-5410000Y-34857417D01*
X-5410000Y-35042583D01*
X-5446123Y-35224187D01*
X-5513555Y-35386982D01*
X-5516983Y-35395257D01*
X-5619855Y-35549215D01*
X-5750785Y-35680145D01*
X-5904743Y-35783017D01*
X-5904744Y-35783018D01*
X-5904745Y-35783018D01*
X-6075813Y-35853877D01*
X-6257417Y-35890000D01*
X-6442583Y-35890000D01*
X-6624187Y-35853877D01*
X-6795255Y-35783018D01*
X-6795256Y-35783018D01*
X-6795257Y-35783017D01*
X-6949215Y-35680145D01*
X-7080145Y-35549215D01*
X-7183017Y-35395257D01*
X-7186445Y-35386982D01*
X-7253877Y-35224187D01*
X-7290000Y-35042583D01*
X-7290000Y-34857417D01*
X-7253877Y-34675813D01*
X-7183018Y-34504745D01*
X-7171841Y-34488018D01*
X-7119808Y-34410145D01*
X-7080146Y-34350786D01*
X-6949214Y-34219854D01*
X-6872758Y-34168768D01*
X-6795257Y-34116983D01*
X-6754877Y-34100257D01*
X-6624187Y-34046123D01*
X-6442583Y-34010000D01*
X-6257417Y-34010000D01*
X-6075813Y-34046123D01*
G37*
G36*
X6624187Y-34021123D02*
G01*
X6795255Y-34091982D01*
X6795257Y-34091983D01*
X6949215Y-34194855D01*
X7080145Y-34325785D01*
X7136514Y-34410146D01*
X7183018Y-34479745D01*
X7253877Y-34650813D01*
X7290000Y-34832417D01*
X7290000Y-35017583D01*
X7253877Y-35199187D01*
X7215795Y-35291124D01*
X7183017Y-35370257D01*
X7171841Y-35386983D01*
X7103105Y-35489854D01*
X7080145Y-35524215D01*
X6949215Y-35655145D01*
X6795257Y-35758017D01*
X6795256Y-35758018D01*
X6795255Y-35758018D01*
X6624187Y-35828877D01*
X6442583Y-35865000D01*
X6257417Y-35865000D01*
X6075813Y-35828877D01*
X5904745Y-35758018D01*
X5904744Y-35758018D01*
X5904743Y-35758017D01*
X5750785Y-35655145D01*
X5619855Y-35524215D01*
X5596896Y-35489854D01*
X5528159Y-35386983D01*
X5516983Y-35370257D01*
X5484205Y-35291124D01*
X5446123Y-35199187D01*
X5410000Y-35017583D01*
X5410000Y-34832417D01*
X5446123Y-34650813D01*
X5516982Y-34479745D01*
X5563487Y-34410146D01*
X5619855Y-34325785D01*
X5750785Y-34194855D01*
X5904743Y-34091983D01*
X5904745Y-34091982D01*
X6075813Y-34021123D01*
X6257417Y-33985000D01*
X6442583Y-33985000D01*
X6624187Y-34021123D01*
G37*
G36*
X-8615813Y-32776123D02*
G01*
X-8485123Y-32830257D01*
X-8444743Y-32846983D01*
X-8367242Y-32898768D01*
X-8290786Y-32949854D01*
X-8159854Y-33080786D01*
X-8120192Y-33140145D01*
X-8068158Y-33218018D01*
X-8056982Y-33234745D01*
X-7986123Y-33405813D01*
X-7950000Y-33587417D01*
X-7950000Y-33772583D01*
X-7986123Y-33954187D01*
X-8053555Y-34116982D01*
X-8056983Y-34125257D01*
X-8159855Y-34279215D01*
X-8290785Y-34410145D01*
X-8444743Y-34513017D01*
X-8444744Y-34513018D01*
X-8444745Y-34513018D01*
X-8615813Y-34583877D01*
X-8797417Y-34620000D01*
X-8982583Y-34620000D01*
X-9164187Y-34583877D01*
X-9335255Y-34513018D01*
X-9335256Y-34513018D01*
X-9335257Y-34513017D01*
X-9489215Y-34410145D01*
X-9620145Y-34279215D01*
X-9723017Y-34125257D01*
X-9726445Y-34116982D01*
X-9793877Y-33954187D01*
X-9830000Y-33772583D01*
X-9830000Y-33587417D01*
X-9793877Y-33405813D01*
X-9723018Y-33234745D01*
X-9711841Y-33218018D01*
X-9659808Y-33140145D01*
X-9620146Y-33080786D01*
X-9489214Y-32949854D01*
X-9412758Y-32898768D01*
X-9335257Y-32846983D01*
X-9294877Y-32830257D01*
X-9164187Y-32776123D01*
X-8982583Y-32740000D01*
X-8797417Y-32740000D01*
X-8615813Y-32776123D01*
G37*
G36*
X4084187Y-32751123D02*
G01*
X4255255Y-32821982D01*
X4255257Y-32821983D01*
X4409215Y-32924855D01*
X4540145Y-33055785D01*
X4596514Y-33140146D01*
X4643018Y-33209745D01*
X4713877Y-33380813D01*
X4750000Y-33562417D01*
X4750000Y-33747583D01*
X4713877Y-33929187D01*
X4675795Y-34021124D01*
X4643017Y-34100257D01*
X4631841Y-34116983D01*
X4563105Y-34219854D01*
X4540145Y-34254215D01*
X4409215Y-34385145D01*
X4255257Y-34488017D01*
X4255256Y-34488018D01*
X4255255Y-34488018D01*
X4084187Y-34558877D01*
X3902583Y-34595000D01*
X3717417Y-34595000D01*
X3535813Y-34558877D01*
X3364745Y-34488018D01*
X3364744Y-34488018D01*
X3364743Y-34488017D01*
X3210785Y-34385145D01*
X3079855Y-34254215D01*
X3056896Y-34219854D01*
X2988159Y-34116983D01*
X2976983Y-34100257D01*
X2944205Y-34021124D01*
X2906123Y-33929187D01*
X2870000Y-33747583D01*
X2870000Y-33562417D01*
X2906123Y-33380813D01*
X2976982Y-33209745D01*
X3023487Y-33140146D01*
X3079855Y-33055785D01*
X3210785Y-32924855D01*
X3364743Y-32821983D01*
X3364745Y-32821982D01*
X3535813Y-32751123D01*
X3717417Y-32715000D01*
X3902583Y-32715000D01*
X4084187Y-32751123D01*
G37*
G36*
X28688512Y-32123927D02*
G01*
X28837812Y-32153624D01*
X29001784Y-32221544D01*
X29149354Y-32320147D01*
X29274853Y-32445646D01*
X29373456Y-32593216D01*
X29441376Y-32757188D01*
X29476000Y-32931259D01*
X29476000Y-33108741D01*
X29441376Y-33282812D01*
X29373456Y-33446784D01*
X29274853Y-33594354D01*
X29149354Y-33719853D01*
X29001784Y-33818456D01*
X28837812Y-33886376D01*
X28688512Y-33916073D01*
X28663742Y-33921000D01*
X28486258Y-33921000D01*
X28461488Y-33916073D01*
X28312188Y-33886376D01*
X28148216Y-33818456D01*
X28000646Y-33719853D01*
X27875147Y-33594354D01*
X27776544Y-33446784D01*
X27708624Y-33282812D01*
X27674000Y-33108741D01*
X27674000Y-32931259D01*
X27708624Y-32757188D01*
X27776544Y-32593216D01*
X27875147Y-32445646D01*
X28000646Y-32320147D01*
X28148216Y-32221544D01*
X28312188Y-32153624D01*
X28461488Y-32123927D01*
X28486258Y-32119000D01*
X28663742Y-32119000D01*
X28688512Y-32123927D01*
G37*
G36*
X31228512Y-32123927D02*
G01*
X31377812Y-32153624D01*
X31541784Y-32221544D01*
X31689354Y-32320147D01*
X31814853Y-32445646D01*
X31913456Y-32593216D01*
X31981376Y-32757188D01*
X32016000Y-32931259D01*
X32016000Y-33108741D01*
X31981376Y-33282812D01*
X31913456Y-33446784D01*
X31814853Y-33594354D01*
X31689354Y-33719853D01*
X31541784Y-33818456D01*
X31377812Y-33886376D01*
X31228512Y-33916073D01*
X31203742Y-33921000D01*
X31026258Y-33921000D01*
X31001488Y-33916073D01*
X30852188Y-33886376D01*
X30688216Y-33818456D01*
X30540646Y-33719853D01*
X30415147Y-33594354D01*
X30316544Y-33446784D01*
X30248624Y-33282812D01*
X30214000Y-33108741D01*
X30214000Y-32931259D01*
X30248624Y-32757188D01*
X30316544Y-32593216D01*
X30415147Y-32445646D01*
X30540646Y-32320147D01*
X30688216Y-32221544D01*
X30852188Y-32153624D01*
X31001488Y-32123927D01*
X31026258Y-32119000D01*
X31203742Y-32119000D01*
X31228512Y-32123927D01*
G37*
G36*
X-6075813Y-31506123D02*
G01*
X-5945123Y-31560257D01*
X-5904743Y-31576983D01*
X-5827242Y-31628768D01*
X-5750786Y-31679854D01*
X-5619854Y-31810786D01*
X-5580192Y-31870145D01*
X-5528158Y-31948018D01*
X-5516982Y-31964745D01*
X-5446123Y-32135813D01*
X-5410000Y-32317417D01*
X-5410000Y-32502583D01*
X-5446123Y-32684187D01*
X-5513555Y-32846982D01*
X-5516983Y-32855257D01*
X-5619855Y-33009215D01*
X-5750785Y-33140145D01*
X-5904743Y-33243017D01*
X-5904744Y-33243018D01*
X-5904745Y-33243018D01*
X-6075813Y-33313877D01*
X-6257417Y-33350000D01*
X-6442583Y-33350000D01*
X-6624187Y-33313877D01*
X-6795255Y-33243018D01*
X-6795256Y-33243018D01*
X-6795257Y-33243017D01*
X-6949215Y-33140145D01*
X-7080145Y-33009215D01*
X-7183017Y-32855257D01*
X-7186445Y-32846982D01*
X-7253877Y-32684187D01*
X-7290000Y-32502583D01*
X-7290000Y-32317417D01*
X-7253877Y-32135813D01*
X-7183018Y-31964745D01*
X-7171841Y-31948018D01*
X-7119808Y-31870145D01*
X-7080146Y-31810786D01*
X-6949214Y-31679854D01*
X-6872758Y-31628768D01*
X-6795257Y-31576983D01*
X-6754877Y-31560257D01*
X-6624187Y-31506123D01*
X-6442583Y-31470000D01*
X-6257417Y-31470000D01*
X-6075813Y-31506123D01*
G37*
G36*
X6624187Y-31481123D02*
G01*
X6795255Y-31551982D01*
X6795257Y-31551983D01*
X6949215Y-31654855D01*
X7080145Y-31785785D01*
X7136514Y-31870146D01*
X7183018Y-31939745D01*
X7253877Y-32110813D01*
X7290000Y-32292417D01*
X7290000Y-32477583D01*
X7253877Y-32659187D01*
X7215795Y-32751124D01*
X7183017Y-32830257D01*
X7171841Y-32846983D01*
X7103105Y-32949854D01*
X7080145Y-32984215D01*
X6949215Y-33115145D01*
X6795257Y-33218017D01*
X6795256Y-33218018D01*
X6795255Y-33218018D01*
X6624187Y-33288877D01*
X6442583Y-33325000D01*
X6257417Y-33325000D01*
X6075813Y-33288877D01*
X5904745Y-33218018D01*
X5904744Y-33218018D01*
X5904743Y-33218017D01*
X5750785Y-33115145D01*
X5619855Y-32984215D01*
X5596896Y-32949854D01*
X5528159Y-32846983D01*
X5516983Y-32830257D01*
X5484205Y-32751124D01*
X5446123Y-32659187D01*
X5410000Y-32477583D01*
X5410000Y-32292417D01*
X5446123Y-32110813D01*
X5516982Y-31939745D01*
X5563487Y-31870146D01*
X5619855Y-31785785D01*
X5750785Y-31654855D01*
X5904743Y-31551983D01*
X5904745Y-31551982D01*
X6075813Y-31481123D01*
X6257417Y-31445000D01*
X6442583Y-31445000D01*
X6624187Y-31481123D01*
G37*
G36*
X-8615813Y-30236123D02*
G01*
X-8485123Y-30290257D01*
X-8444743Y-30306983D01*
X-8367242Y-30358768D01*
X-8290786Y-30409854D01*
X-8159854Y-30540786D01*
X-8120192Y-30600145D01*
X-8068158Y-30678018D01*
X-8056982Y-30694745D01*
X-7986123Y-30865813D01*
X-7950000Y-31047417D01*
X-7950000Y-31232583D01*
X-7986123Y-31414187D01*
X-8053555Y-31576982D01*
X-8056983Y-31585257D01*
X-8159855Y-31739215D01*
X-8290785Y-31870145D01*
X-8444743Y-31973017D01*
X-8444744Y-31973018D01*
X-8444745Y-31973018D01*
X-8615813Y-32043877D01*
X-8797417Y-32080000D01*
X-8982583Y-32080000D01*
X-9164187Y-32043877D01*
X-9335255Y-31973018D01*
X-9335256Y-31973018D01*
X-9335257Y-31973017D01*
X-9489215Y-31870145D01*
X-9620145Y-31739215D01*
X-9723017Y-31585257D01*
X-9726445Y-31576982D01*
X-9793877Y-31414187D01*
X-9830000Y-31232583D01*
X-9830000Y-31047417D01*
X-9793877Y-30865813D01*
X-9723018Y-30694745D01*
X-9711841Y-30678018D01*
X-9659808Y-30600145D01*
X-9620146Y-30540786D01*
X-9489214Y-30409854D01*
X-9412758Y-30358768D01*
X-9335257Y-30306983D01*
X-9294877Y-30290257D01*
X-9164187Y-30236123D01*
X-8982583Y-30200000D01*
X-8797417Y-30200000D01*
X-8615813Y-30236123D01*
G37*
G36*
X4084187Y-30211123D02*
G01*
X4255255Y-30281982D01*
X4255257Y-30281983D01*
X4409215Y-30384855D01*
X4540145Y-30515785D01*
X4596514Y-30600146D01*
X4643018Y-30669745D01*
X4713877Y-30840813D01*
X4750000Y-31022417D01*
X4750000Y-31207583D01*
X4713877Y-31389187D01*
X4675795Y-31481124D01*
X4643017Y-31560257D01*
X4631841Y-31576983D01*
X4563105Y-31679854D01*
X4540145Y-31714215D01*
X4409215Y-31845145D01*
X4255257Y-31948017D01*
X4255256Y-31948018D01*
X4255255Y-31948018D01*
X4084187Y-32018877D01*
X3902583Y-32055000D01*
X3717417Y-32055000D01*
X3535813Y-32018877D01*
X3364745Y-31948018D01*
X3364744Y-31948018D01*
X3364743Y-31948017D01*
X3210785Y-31845145D01*
X3079855Y-31714215D01*
X3056896Y-31679854D01*
X2988159Y-31576983D01*
X2976983Y-31560257D01*
X2944205Y-31481124D01*
X2906123Y-31389187D01*
X2870000Y-31207583D01*
X2870000Y-31022417D01*
X2906123Y-30840813D01*
X2976982Y-30669745D01*
X3023487Y-30600146D01*
X3079855Y-30515785D01*
X3210785Y-30384855D01*
X3364743Y-30281983D01*
X3364745Y-30281982D01*
X3535813Y-30211123D01*
X3717417Y-30175000D01*
X3902583Y-30175000D01*
X4084187Y-30211123D01*
G37*
G36*
X28688512Y-29583927D02*
G01*
X28837812Y-29613624D01*
X29001784Y-29681544D01*
X29149354Y-29780147D01*
X29274853Y-29905646D01*
X29373456Y-30053216D01*
X29441376Y-30217188D01*
X29476000Y-30391259D01*
X29476000Y-30568741D01*
X29441376Y-30742812D01*
X29373456Y-30906784D01*
X29274853Y-31054354D01*
X29149354Y-31179853D01*
X29001784Y-31278456D01*
X28837812Y-31346376D01*
X28688512Y-31376073D01*
X28663742Y-31381000D01*
X28486258Y-31381000D01*
X28461488Y-31376073D01*
X28312188Y-31346376D01*
X28148216Y-31278456D01*
X28000646Y-31179853D01*
X27875147Y-31054354D01*
X27776544Y-30906784D01*
X27708624Y-30742812D01*
X27674000Y-30568741D01*
X27674000Y-30391259D01*
X27708624Y-30217188D01*
X27776544Y-30053216D01*
X27875147Y-29905646D01*
X28000646Y-29780147D01*
X28148216Y-29681544D01*
X28312188Y-29613624D01*
X28461488Y-29583927D01*
X28486258Y-29579000D01*
X28663742Y-29579000D01*
X28688512Y-29583927D01*
G37*
G36*
X31228512Y-29583927D02*
G01*
X31377812Y-29613624D01*
X31541784Y-29681544D01*
X31689354Y-29780147D01*
X31814853Y-29905646D01*
X31913456Y-30053216D01*
X31981376Y-30217188D01*
X32016000Y-30391259D01*
X32016000Y-30568741D01*
X31981376Y-30742812D01*
X31913456Y-30906784D01*
X31814853Y-31054354D01*
X31689354Y-31179853D01*
X31541784Y-31278456D01*
X31377812Y-31346376D01*
X31228512Y-31376073D01*
X31203742Y-31381000D01*
X31026258Y-31381000D01*
X31001488Y-31376073D01*
X30852188Y-31346376D01*
X30688216Y-31278456D01*
X30540646Y-31179853D01*
X30415147Y-31054354D01*
X30316544Y-30906784D01*
X30248624Y-30742812D01*
X30214000Y-30568741D01*
X30214000Y-30391259D01*
X30248624Y-30217188D01*
X30316544Y-30053216D01*
X30415147Y-29905646D01*
X30540646Y-29780147D01*
X30688216Y-29681544D01*
X30852188Y-29613624D01*
X31001488Y-29583927D01*
X31026258Y-29579000D01*
X31203742Y-29579000D01*
X31228512Y-29583927D01*
G37*
G36*
X-6075813Y-28966123D02*
G01*
X-5945123Y-29020257D01*
X-5904743Y-29036983D01*
X-5827242Y-29088768D01*
X-5750786Y-29139854D01*
X-5619854Y-29270786D01*
X-5580192Y-29330145D01*
X-5528158Y-29408018D01*
X-5516982Y-29424745D01*
X-5446123Y-29595813D01*
X-5410000Y-29777417D01*
X-5410000Y-29962583D01*
X-5446123Y-30144187D01*
X-5513555Y-30306982D01*
X-5516983Y-30315257D01*
X-5619855Y-30469215D01*
X-5750785Y-30600145D01*
X-5904743Y-30703017D01*
X-5904744Y-30703018D01*
X-5904745Y-30703018D01*
X-6075813Y-30773877D01*
X-6257417Y-30810000D01*
X-6442583Y-30810000D01*
X-6624187Y-30773877D01*
X-6795255Y-30703018D01*
X-6795256Y-30703018D01*
X-6795257Y-30703017D01*
X-6949215Y-30600145D01*
X-7080145Y-30469215D01*
X-7183017Y-30315257D01*
X-7186445Y-30306982D01*
X-7253877Y-30144187D01*
X-7290000Y-29962583D01*
X-7290000Y-29777417D01*
X-7253877Y-29595813D01*
X-7183018Y-29424745D01*
X-7171841Y-29408018D01*
X-7119808Y-29330145D01*
X-7080146Y-29270786D01*
X-6949214Y-29139854D01*
X-6872758Y-29088768D01*
X-6795257Y-29036983D01*
X-6754877Y-29020257D01*
X-6624187Y-28966123D01*
X-6442583Y-28930000D01*
X-6257417Y-28930000D01*
X-6075813Y-28966123D01*
G37*
G36*
X6624187Y-28941123D02*
G01*
X6795255Y-29011982D01*
X6795257Y-29011983D01*
X6949215Y-29114855D01*
X7080145Y-29245785D01*
X7136514Y-29330146D01*
X7183018Y-29399745D01*
X7253877Y-29570813D01*
X7290000Y-29752417D01*
X7290000Y-29937583D01*
X7253877Y-30119187D01*
X7215795Y-30211124D01*
X7183017Y-30290257D01*
X7171841Y-30306983D01*
X7103105Y-30409854D01*
X7080145Y-30444215D01*
X6949215Y-30575145D01*
X6795257Y-30678017D01*
X6795256Y-30678018D01*
X6795255Y-30678018D01*
X6624187Y-30748877D01*
X6442583Y-30785000D01*
X6257417Y-30785000D01*
X6075813Y-30748877D01*
X5904745Y-30678018D01*
X5904744Y-30678018D01*
X5904743Y-30678017D01*
X5750785Y-30575145D01*
X5619855Y-30444215D01*
X5596896Y-30409854D01*
X5528159Y-30306983D01*
X5516983Y-30290257D01*
X5484205Y-30211124D01*
X5446123Y-30119187D01*
X5410000Y-29937583D01*
X5410000Y-29752417D01*
X5446123Y-29570813D01*
X5516982Y-29399745D01*
X5563487Y-29330146D01*
X5619855Y-29245785D01*
X5750785Y-29114855D01*
X5904743Y-29011983D01*
X5904745Y-29011982D01*
X6075813Y-28941123D01*
X6257417Y-28905000D01*
X6442583Y-28905000D01*
X6624187Y-28941123D01*
G37*
G36*
X-8615813Y-27696123D02*
G01*
X-8485123Y-27750257D01*
X-8444743Y-27766983D01*
X-8367242Y-27818768D01*
X-8290786Y-27869854D01*
X-8159854Y-28000786D01*
X-8120192Y-28060145D01*
X-8068158Y-28138018D01*
X-8056982Y-28154745D01*
X-7986123Y-28325813D01*
X-7950000Y-28507417D01*
X-7950000Y-28692583D01*
X-7986123Y-28874187D01*
X-8053555Y-29036982D01*
X-8056983Y-29045257D01*
X-8159855Y-29199215D01*
X-8290785Y-29330145D01*
X-8444743Y-29433017D01*
X-8444744Y-29433018D01*
X-8444745Y-29433018D01*
X-8615813Y-29503877D01*
X-8797417Y-29540000D01*
X-8982583Y-29540000D01*
X-9164187Y-29503877D01*
X-9335255Y-29433018D01*
X-9335256Y-29433018D01*
X-9335257Y-29433017D01*
X-9489215Y-29330145D01*
X-9620145Y-29199215D01*
X-9723017Y-29045257D01*
X-9726445Y-29036982D01*
X-9793877Y-28874187D01*
X-9830000Y-28692583D01*
X-9830000Y-28507417D01*
X-9793877Y-28325813D01*
X-9723018Y-28154745D01*
X-9711841Y-28138018D01*
X-9659808Y-28060145D01*
X-9620146Y-28000786D01*
X-9489214Y-27869854D01*
X-9412758Y-27818768D01*
X-9335257Y-27766983D01*
X-9294877Y-27750257D01*
X-9164187Y-27696123D01*
X-8982583Y-27660000D01*
X-8797417Y-27660000D01*
X-8615813Y-27696123D01*
G37*
G36*
X4084187Y-27671123D02*
G01*
X4255255Y-27741982D01*
X4255257Y-27741983D01*
X4409215Y-27844855D01*
X4540145Y-27975785D01*
X4596514Y-28060146D01*
X4643018Y-28129745D01*
X4713877Y-28300813D01*
X4750000Y-28482417D01*
X4750000Y-28667583D01*
X4713877Y-28849187D01*
X4675795Y-28941124D01*
X4643017Y-29020257D01*
X4631841Y-29036983D01*
X4563105Y-29139854D01*
X4540145Y-29174215D01*
X4409215Y-29305145D01*
X4255257Y-29408017D01*
X4255256Y-29408018D01*
X4255255Y-29408018D01*
X4084187Y-29478877D01*
X3902583Y-29515000D01*
X3717417Y-29515000D01*
X3535813Y-29478877D01*
X3364745Y-29408018D01*
X3364744Y-29408018D01*
X3364743Y-29408017D01*
X3210785Y-29305145D01*
X3079855Y-29174215D01*
X3056896Y-29139854D01*
X2988159Y-29036983D01*
X2976983Y-29020257D01*
X2944205Y-28941124D01*
X2906123Y-28849187D01*
X2870000Y-28667583D01*
X2870000Y-28482417D01*
X2906123Y-28300813D01*
X2976982Y-28129745D01*
X3023487Y-28060146D01*
X3079855Y-27975785D01*
X3210785Y-27844855D01*
X3364743Y-27741983D01*
X3364745Y-27741982D01*
X3535813Y-27671123D01*
X3717417Y-27635000D01*
X3902583Y-27635000D01*
X4084187Y-27671123D01*
G37*
G36*
X28688512Y-27043927D02*
G01*
X28837812Y-27073624D01*
X29001784Y-27141544D01*
X29149354Y-27240147D01*
X29274853Y-27365646D01*
X29373456Y-27513216D01*
X29441376Y-27677188D01*
X29476000Y-27851259D01*
X29476000Y-28028741D01*
X29441376Y-28202812D01*
X29373456Y-28366784D01*
X29274853Y-28514354D01*
X29149354Y-28639853D01*
X29001784Y-28738456D01*
X28837812Y-28806376D01*
X28688512Y-28836073D01*
X28663742Y-28841000D01*
X28486258Y-28841000D01*
X28461488Y-28836073D01*
X28312188Y-28806376D01*
X28148216Y-28738456D01*
X28000646Y-28639853D01*
X27875147Y-28514354D01*
X27776544Y-28366784D01*
X27708624Y-28202812D01*
X27674000Y-28028741D01*
X27674000Y-27851259D01*
X27708624Y-27677188D01*
X27776544Y-27513216D01*
X27875147Y-27365646D01*
X28000646Y-27240147D01*
X28148216Y-27141544D01*
X28312188Y-27073624D01*
X28461488Y-27043927D01*
X28486258Y-27039000D01*
X28663742Y-27039000D01*
X28688512Y-27043927D01*
G37*
G36*
X31228512Y-27043927D02*
G01*
X31377812Y-27073624D01*
X31541784Y-27141544D01*
X31689354Y-27240147D01*
X31814853Y-27365646D01*
X31913456Y-27513216D01*
X31981376Y-27677188D01*
X32016000Y-27851259D01*
X32016000Y-28028741D01*
X31981376Y-28202812D01*
X31913456Y-28366784D01*
X31814853Y-28514354D01*
X31689354Y-28639853D01*
X31541784Y-28738456D01*
X31377812Y-28806376D01*
X31228512Y-28836073D01*
X31203742Y-28841000D01*
X31026258Y-28841000D01*
X31001488Y-28836073D01*
X30852188Y-28806376D01*
X30688216Y-28738456D01*
X30540646Y-28639853D01*
X30415147Y-28514354D01*
X30316544Y-28366784D01*
X30248624Y-28202812D01*
X30214000Y-28028741D01*
X30214000Y-27851259D01*
X30248624Y-27677188D01*
X30316544Y-27513216D01*
X30415147Y-27365646D01*
X30540646Y-27240147D01*
X30688216Y-27141544D01*
X30852188Y-27073624D01*
X31001488Y-27043927D01*
X31026258Y-27039000D01*
X31203742Y-27039000D01*
X31228512Y-27043927D01*
G37*
G36*
X-6075813Y-26426123D02*
G01*
X-5945123Y-26480257D01*
X-5904743Y-26496983D01*
X-5827242Y-26548768D01*
X-5750786Y-26599854D01*
X-5619854Y-26730786D01*
X-5580192Y-26790145D01*
X-5528158Y-26868018D01*
X-5516982Y-26884745D01*
X-5446123Y-27055813D01*
X-5410000Y-27237417D01*
X-5410000Y-27422583D01*
X-5446123Y-27604187D01*
X-5513555Y-27766982D01*
X-5516983Y-27775257D01*
X-5619855Y-27929215D01*
X-5750785Y-28060145D01*
X-5904743Y-28163017D01*
X-5904744Y-28163018D01*
X-5904745Y-28163018D01*
X-6075813Y-28233877D01*
X-6257417Y-28270000D01*
X-6442583Y-28270000D01*
X-6624187Y-28233877D01*
X-6795255Y-28163018D01*
X-6795256Y-28163018D01*
X-6795257Y-28163017D01*
X-6949215Y-28060145D01*
X-7080145Y-27929215D01*
X-7183017Y-27775257D01*
X-7186445Y-27766982D01*
X-7253877Y-27604187D01*
X-7290000Y-27422583D01*
X-7290000Y-27237417D01*
X-7253877Y-27055813D01*
X-7183018Y-26884745D01*
X-7171841Y-26868018D01*
X-7119808Y-26790145D01*
X-7080146Y-26730786D01*
X-6949214Y-26599854D01*
X-6872758Y-26548768D01*
X-6795257Y-26496983D01*
X-6754877Y-26480257D01*
X-6624187Y-26426123D01*
X-6442583Y-26390000D01*
X-6257417Y-26390000D01*
X-6075813Y-26426123D01*
G37*
G36*
X6624187Y-26401123D02*
G01*
X6795255Y-26471982D01*
X6795257Y-26471983D01*
X6949215Y-26574855D01*
X7080145Y-26705785D01*
X7136514Y-26790146D01*
X7183018Y-26859745D01*
X7253877Y-27030813D01*
X7290000Y-27212417D01*
X7290000Y-27397583D01*
X7253877Y-27579187D01*
X7215795Y-27671124D01*
X7183017Y-27750257D01*
X7171841Y-27766983D01*
X7103105Y-27869854D01*
X7080145Y-27904215D01*
X6949215Y-28035145D01*
X6795257Y-28138017D01*
X6795256Y-28138018D01*
X6795255Y-28138018D01*
X6624187Y-28208877D01*
X6442583Y-28245000D01*
X6257417Y-28245000D01*
X6075813Y-28208877D01*
X5904745Y-28138018D01*
X5904744Y-28138018D01*
X5904743Y-28138017D01*
X5750785Y-28035145D01*
X5619855Y-27904215D01*
X5596896Y-27869854D01*
X5528159Y-27766983D01*
X5516983Y-27750257D01*
X5484205Y-27671124D01*
X5446123Y-27579187D01*
X5410000Y-27397583D01*
X5410000Y-27212417D01*
X5446123Y-27030813D01*
X5516982Y-26859745D01*
X5563487Y-26790146D01*
X5619855Y-26705785D01*
X5750785Y-26574855D01*
X5904743Y-26471983D01*
X5904745Y-26471982D01*
X6075813Y-26401123D01*
X6257417Y-26365000D01*
X6442583Y-26365000D01*
X6624187Y-26401123D01*
G37*
G36*
X-8615813Y-25156123D02*
G01*
X-8485123Y-25210257D01*
X-8444743Y-25226983D01*
X-8367242Y-25278768D01*
X-8290786Y-25329854D01*
X-8159854Y-25460786D01*
X-8120192Y-25520145D01*
X-8068158Y-25598018D01*
X-8056982Y-25614745D01*
X-7986123Y-25785813D01*
X-7950000Y-25967417D01*
X-7950000Y-26152583D01*
X-7986123Y-26334187D01*
X-8053555Y-26496982D01*
X-8056983Y-26505257D01*
X-8159855Y-26659215D01*
X-8290785Y-26790145D01*
X-8444743Y-26893017D01*
X-8444744Y-26893018D01*
X-8444745Y-26893018D01*
X-8615813Y-26963877D01*
X-8797417Y-27000000D01*
X-8982583Y-27000000D01*
X-9164187Y-26963877D01*
X-9335255Y-26893018D01*
X-9335256Y-26893018D01*
X-9335257Y-26893017D01*
X-9489215Y-26790145D01*
X-9620145Y-26659215D01*
X-9723017Y-26505257D01*
X-9726445Y-26496982D01*
X-9793877Y-26334187D01*
X-9830000Y-26152583D01*
X-9830000Y-25967417D01*
X-9793877Y-25785813D01*
X-9723018Y-25614745D01*
X-9711841Y-25598018D01*
X-9659808Y-25520145D01*
X-9620146Y-25460786D01*
X-9489214Y-25329854D01*
X-9412758Y-25278768D01*
X-9335257Y-25226983D01*
X-9294877Y-25210257D01*
X-9164187Y-25156123D01*
X-8982583Y-25120000D01*
X-8797417Y-25120000D01*
X-8615813Y-25156123D01*
G37*
G36*
X4084187Y-25131123D02*
G01*
X4255255Y-25201982D01*
X4255257Y-25201983D01*
X4409215Y-25304855D01*
X4540145Y-25435785D01*
X4596514Y-25520146D01*
X4643018Y-25589745D01*
X4713877Y-25760813D01*
X4750000Y-25942417D01*
X4750000Y-26127583D01*
X4713877Y-26309187D01*
X4675795Y-26401124D01*
X4643017Y-26480257D01*
X4631841Y-26496983D01*
X4563105Y-26599854D01*
X4540145Y-26634215D01*
X4409215Y-26765145D01*
X4255257Y-26868017D01*
X4255256Y-26868018D01*
X4255255Y-26868018D01*
X4084187Y-26938877D01*
X3902583Y-26975000D01*
X3717417Y-26975000D01*
X3535813Y-26938877D01*
X3364745Y-26868018D01*
X3364744Y-26868018D01*
X3364743Y-26868017D01*
X3210785Y-26765145D01*
X3079855Y-26634215D01*
X3056896Y-26599854D01*
X2988159Y-26496983D01*
X2976983Y-26480257D01*
X2944205Y-26401124D01*
X2906123Y-26309187D01*
X2870000Y-26127583D01*
X2870000Y-25942417D01*
X2906123Y-25760813D01*
X2976982Y-25589745D01*
X3023487Y-25520146D01*
X3079855Y-25435785D01*
X3210785Y-25304855D01*
X3364743Y-25201983D01*
X3364745Y-25201982D01*
X3535813Y-25131123D01*
X3717417Y-25095000D01*
X3902583Y-25095000D01*
X4084187Y-25131123D01*
G37*
G36*
X31228512Y-24503927D02*
G01*
X31377812Y-24533624D01*
X31541784Y-24601544D01*
X31689354Y-24700147D01*
X31814853Y-24825646D01*
X31913456Y-24973216D01*
X31981376Y-25137188D01*
X32016000Y-25311259D01*
X32016000Y-25488741D01*
X31981376Y-25662812D01*
X31913456Y-25826784D01*
X31814853Y-25974354D01*
X31689354Y-26099853D01*
X31541784Y-26198456D01*
X31377812Y-26266376D01*
X31228512Y-26296073D01*
X31203742Y-26301000D01*
X31026258Y-26301000D01*
X31001488Y-26296073D01*
X30852188Y-26266376D01*
X30688216Y-26198456D01*
X30540646Y-26099853D01*
X30415147Y-25974354D01*
X30316544Y-25826784D01*
X30248624Y-25662812D01*
X30214000Y-25488741D01*
X30214000Y-25311259D01*
X30248624Y-25137188D01*
X30316544Y-24973216D01*
X30415147Y-24825646D01*
X30540646Y-24700147D01*
X30688216Y-24601544D01*
X30852188Y-24533624D01*
X31001488Y-24503927D01*
X31026258Y-24499000D01*
X31203742Y-24499000D01*
X31228512Y-24503927D01*
G37*
G36*
X28688512Y-24503927D02*
G01*
X28837812Y-24533624D01*
X29001784Y-24601544D01*
X29149354Y-24700147D01*
X29274853Y-24825646D01*
X29373456Y-24973216D01*
X29441376Y-25137188D01*
X29476000Y-25311259D01*
X29476000Y-25488741D01*
X29441376Y-25662812D01*
X29373456Y-25826784D01*
X29274853Y-25974354D01*
X29149354Y-26099853D01*
X29001784Y-26198456D01*
X28837812Y-26266376D01*
X28688512Y-26296073D01*
X28663742Y-26301000D01*
X28486258Y-26301000D01*
X28461488Y-26296073D01*
X28312188Y-26266376D01*
X28148216Y-26198456D01*
X28000646Y-26099853D01*
X27875147Y-25974354D01*
X27776544Y-25826784D01*
X27708624Y-25662812D01*
X27674000Y-25488741D01*
X27674000Y-25311259D01*
X27708624Y-25137188D01*
X27776544Y-24973216D01*
X27875147Y-24825646D01*
X28000646Y-24700147D01*
X28148216Y-24601544D01*
X28312188Y-24533624D01*
X28461488Y-24503927D01*
X28486258Y-24499000D01*
X28663742Y-24499000D01*
X28688512Y-24503927D01*
G37*
G36*
X-6075813Y-23886123D02*
G01*
X-5945123Y-23940257D01*
X-5904743Y-23956983D01*
X-5827242Y-24008768D01*
X-5750786Y-24059854D01*
X-5619854Y-24190786D01*
X-5580192Y-24250145D01*
X-5528158Y-24328018D01*
X-5516982Y-24344745D01*
X-5446123Y-24515813D01*
X-5410000Y-24697417D01*
X-5410000Y-24882583D01*
X-5446123Y-25064187D01*
X-5513555Y-25226982D01*
X-5516983Y-25235257D01*
X-5619855Y-25389215D01*
X-5750785Y-25520145D01*
X-5904743Y-25623017D01*
X-5904744Y-25623018D01*
X-5904745Y-25623018D01*
X-6075813Y-25693877D01*
X-6257417Y-25730000D01*
X-6442583Y-25730000D01*
X-6624187Y-25693877D01*
X-6795255Y-25623018D01*
X-6795256Y-25623018D01*
X-6795257Y-25623017D01*
X-6949215Y-25520145D01*
X-7080145Y-25389215D01*
X-7183017Y-25235257D01*
X-7186445Y-25226982D01*
X-7253877Y-25064187D01*
X-7290000Y-24882583D01*
X-7290000Y-24697417D01*
X-7253877Y-24515813D01*
X-7183018Y-24344745D01*
X-7171841Y-24328018D01*
X-7119808Y-24250145D01*
X-7080146Y-24190786D01*
X-6949214Y-24059854D01*
X-6872758Y-24008768D01*
X-6795257Y-23956983D01*
X-6754877Y-23940257D01*
X-6624187Y-23886123D01*
X-6442583Y-23850000D01*
X-6257417Y-23850000D01*
X-6075813Y-23886123D01*
G37*
G36*
X6624187Y-23861123D02*
G01*
X6795255Y-23931982D01*
X6795257Y-23931983D01*
X6949215Y-24034855D01*
X7080145Y-24165785D01*
X7136514Y-24250146D01*
X7183018Y-24319745D01*
X7253877Y-24490813D01*
X7290000Y-24672417D01*
X7290000Y-24857583D01*
X7253877Y-25039187D01*
X7215795Y-25131124D01*
X7183017Y-25210257D01*
X7171841Y-25226983D01*
X7103105Y-25329854D01*
X7080145Y-25364215D01*
X6949215Y-25495145D01*
X6795257Y-25598017D01*
X6795256Y-25598018D01*
X6795255Y-25598018D01*
X6624187Y-25668877D01*
X6442583Y-25705000D01*
X6257417Y-25705000D01*
X6075813Y-25668877D01*
X5904745Y-25598018D01*
X5904744Y-25598018D01*
X5904743Y-25598017D01*
X5750785Y-25495145D01*
X5619855Y-25364215D01*
X5596896Y-25329854D01*
X5528159Y-25226983D01*
X5516983Y-25210257D01*
X5484205Y-25131124D01*
X5446123Y-25039187D01*
X5410000Y-24857583D01*
X5410000Y-24672417D01*
X5446123Y-24490813D01*
X5516982Y-24319745D01*
X5563487Y-24250146D01*
X5619855Y-24165785D01*
X5750785Y-24034855D01*
X5904743Y-23931983D01*
X5904745Y-23931982D01*
X6075813Y-23861123D01*
X6257417Y-23825000D01*
X6442583Y-23825000D01*
X6624187Y-23861123D01*
G37*
G36*
X-8615813Y-22616123D02*
G01*
X-8485123Y-22670257D01*
X-8444743Y-22686983D01*
X-8367242Y-22738768D01*
X-8290786Y-22789854D01*
X-8159854Y-22920786D01*
X-8120192Y-22980145D01*
X-8068158Y-23058018D01*
X-8056982Y-23074745D01*
X-7986123Y-23245813D01*
X-7950000Y-23427417D01*
X-7950000Y-23612583D01*
X-7986123Y-23794187D01*
X-8053555Y-23956982D01*
X-8056983Y-23965257D01*
X-8159855Y-24119215D01*
X-8290785Y-24250145D01*
X-8444743Y-24353017D01*
X-8444744Y-24353018D01*
X-8444745Y-24353018D01*
X-8615813Y-24423877D01*
X-8797417Y-24460000D01*
X-8982583Y-24460000D01*
X-9164187Y-24423877D01*
X-9335255Y-24353018D01*
X-9335256Y-24353018D01*
X-9335257Y-24353017D01*
X-9489215Y-24250145D01*
X-9620145Y-24119215D01*
X-9723017Y-23965257D01*
X-9726445Y-23956982D01*
X-9793877Y-23794187D01*
X-9830000Y-23612583D01*
X-9830000Y-23427417D01*
X-9793877Y-23245813D01*
X-9723018Y-23074745D01*
X-9711841Y-23058018D01*
X-9659808Y-22980145D01*
X-9620146Y-22920786D01*
X-9489214Y-22789854D01*
X-9412758Y-22738768D01*
X-9335257Y-22686983D01*
X-9294877Y-22670257D01*
X-9164187Y-22616123D01*
X-8982583Y-22580000D01*
X-8797417Y-22580000D01*
X-8615813Y-22616123D01*
G37*
G36*
X4084187Y-22591123D02*
G01*
X4255255Y-22661982D01*
X4255257Y-22661983D01*
X4409215Y-22764855D01*
X4540145Y-22895785D01*
X4596514Y-22980146D01*
X4643018Y-23049745D01*
X4713877Y-23220813D01*
X4750000Y-23402417D01*
X4750000Y-23587583D01*
X4713877Y-23769187D01*
X4675795Y-23861124D01*
X4643017Y-23940257D01*
X4631841Y-23956983D01*
X4563105Y-24059854D01*
X4540145Y-24094215D01*
X4409215Y-24225145D01*
X4255257Y-24328017D01*
X4255256Y-24328018D01*
X4255255Y-24328018D01*
X4084187Y-24398877D01*
X3902583Y-24435000D01*
X3717417Y-24435000D01*
X3535813Y-24398877D01*
X3364745Y-24328018D01*
X3364744Y-24328018D01*
X3364743Y-24328017D01*
X3210785Y-24225145D01*
X3079855Y-24094215D01*
X3056896Y-24059854D01*
X2988159Y-23956983D01*
X2976983Y-23940257D01*
X2944205Y-23861124D01*
X2906123Y-23769187D01*
X2870000Y-23587583D01*
X2870000Y-23402417D01*
X2906123Y-23220813D01*
X2976982Y-23049745D01*
X3023487Y-22980146D01*
X3079855Y-22895785D01*
X3210785Y-22764855D01*
X3364743Y-22661983D01*
X3364745Y-22661982D01*
X3535813Y-22591123D01*
X3717417Y-22555000D01*
X3902583Y-22555000D01*
X4084187Y-22591123D01*
G37*
G36*
X31228512Y-21963927D02*
G01*
X31377812Y-21993624D01*
X31541784Y-22061544D01*
X31689354Y-22160147D01*
X31814853Y-22285646D01*
X31913456Y-22433216D01*
X31981376Y-22597188D01*
X32016000Y-22771259D01*
X32016000Y-22948741D01*
X31981376Y-23122812D01*
X31913456Y-23286784D01*
X31814853Y-23434354D01*
X31689354Y-23559853D01*
X31541784Y-23658456D01*
X31377812Y-23726376D01*
X31228512Y-23756073D01*
X31203742Y-23761000D01*
X31026258Y-23761000D01*
X31001488Y-23756073D01*
X30852188Y-23726376D01*
X30688216Y-23658456D01*
X30540646Y-23559853D01*
X30415147Y-23434354D01*
X30316544Y-23286784D01*
X30248624Y-23122812D01*
X30214000Y-22948741D01*
X30214000Y-22771259D01*
X30248624Y-22597188D01*
X30316544Y-22433216D01*
X30415147Y-22285646D01*
X30540646Y-22160147D01*
X30688216Y-22061544D01*
X30852188Y-21993624D01*
X31001488Y-21963927D01*
X31026258Y-21959000D01*
X31203742Y-21959000D01*
X31228512Y-21963927D01*
G37*
G36*
X28688512Y-21963927D02*
G01*
X28837812Y-21993624D01*
X29001784Y-22061544D01*
X29149354Y-22160147D01*
X29274853Y-22285646D01*
X29373456Y-22433216D01*
X29441376Y-22597188D01*
X29476000Y-22771259D01*
X29476000Y-22948741D01*
X29441376Y-23122812D01*
X29373456Y-23286784D01*
X29274853Y-23434354D01*
X29149354Y-23559853D01*
X29001784Y-23658456D01*
X28837812Y-23726376D01*
X28688512Y-23756073D01*
X28663742Y-23761000D01*
X28486258Y-23761000D01*
X28461488Y-23756073D01*
X28312188Y-23726376D01*
X28148216Y-23658456D01*
X28000646Y-23559853D01*
X27875147Y-23434354D01*
X27776544Y-23286784D01*
X27708624Y-23122812D01*
X27674000Y-22948741D01*
X27674000Y-22771259D01*
X27708624Y-22597188D01*
X27776544Y-22433216D01*
X27875147Y-22285646D01*
X28000646Y-22160147D01*
X28148216Y-22061544D01*
X28312188Y-21993624D01*
X28461488Y-21963927D01*
X28486258Y-21959000D01*
X28663742Y-21959000D01*
X28688512Y-21963927D01*
G37*
G36*
X-6075813Y-21346123D02*
G01*
X-5945123Y-21400257D01*
X-5904743Y-21416983D01*
X-5827242Y-21468768D01*
X-5750786Y-21519854D01*
X-5619854Y-21650786D01*
X-5580192Y-21710145D01*
X-5528158Y-21788018D01*
X-5516982Y-21804745D01*
X-5446123Y-21975813D01*
X-5410000Y-22157417D01*
X-5410000Y-22342583D01*
X-5446123Y-22524187D01*
X-5513555Y-22686982D01*
X-5516983Y-22695257D01*
X-5619855Y-22849215D01*
X-5750785Y-22980145D01*
X-5904743Y-23083017D01*
X-5904744Y-23083018D01*
X-5904745Y-23083018D01*
X-6075813Y-23153877D01*
X-6257417Y-23190000D01*
X-6442583Y-23190000D01*
X-6624187Y-23153877D01*
X-6795255Y-23083018D01*
X-6795256Y-23083018D01*
X-6795257Y-23083017D01*
X-6949215Y-22980145D01*
X-7080145Y-22849215D01*
X-7183017Y-22695257D01*
X-7186445Y-22686982D01*
X-7253877Y-22524187D01*
X-7290000Y-22342583D01*
X-7290000Y-22157417D01*
X-7253877Y-21975813D01*
X-7183018Y-21804745D01*
X-7171841Y-21788018D01*
X-7119808Y-21710145D01*
X-7080146Y-21650786D01*
X-6949214Y-21519854D01*
X-6872758Y-21468768D01*
X-6795257Y-21416983D01*
X-6754877Y-21400257D01*
X-6624187Y-21346123D01*
X-6442583Y-21310000D01*
X-6257417Y-21310000D01*
X-6075813Y-21346123D01*
G37*
G36*
X6624187Y-21321123D02*
G01*
X6795255Y-21391982D01*
X6795257Y-21391983D01*
X6949215Y-21494855D01*
X7080145Y-21625785D01*
X7136514Y-21710146D01*
X7183018Y-21779745D01*
X7253877Y-21950813D01*
X7290000Y-22132417D01*
X7290000Y-22317583D01*
X7253877Y-22499187D01*
X7215795Y-22591124D01*
X7183017Y-22670257D01*
X7171841Y-22686983D01*
X7103105Y-22789854D01*
X7080145Y-22824215D01*
X6949215Y-22955145D01*
X6795257Y-23058017D01*
X6795256Y-23058018D01*
X6795255Y-23058018D01*
X6624187Y-23128877D01*
X6442583Y-23165000D01*
X6257417Y-23165000D01*
X6075813Y-23128877D01*
X5904745Y-23058018D01*
X5904744Y-23058018D01*
X5904743Y-23058017D01*
X5750785Y-22955145D01*
X5619855Y-22824215D01*
X5596896Y-22789854D01*
X5528159Y-22686983D01*
X5516983Y-22670257D01*
X5484205Y-22591124D01*
X5446123Y-22499187D01*
X5410000Y-22317583D01*
X5410000Y-22132417D01*
X5446123Y-21950813D01*
X5516982Y-21779745D01*
X5563487Y-21710146D01*
X5619855Y-21625785D01*
X5750785Y-21494855D01*
X5904743Y-21391983D01*
X5904745Y-21391982D01*
X6075813Y-21321123D01*
X6257417Y-21285000D01*
X6442583Y-21285000D01*
X6624187Y-21321123D01*
G37*
G36*
X-8615813Y-20076123D02*
G01*
X-8485123Y-20130257D01*
X-8444743Y-20146983D01*
X-8367242Y-20198768D01*
X-8290786Y-20249854D01*
X-8159854Y-20380786D01*
X-8120192Y-20440145D01*
X-8068158Y-20518018D01*
X-8056982Y-20534745D01*
X-7986123Y-20705813D01*
X-7950000Y-20887417D01*
X-7950000Y-21072583D01*
X-7986123Y-21254187D01*
X-8053555Y-21416982D01*
X-8056983Y-21425257D01*
X-8159855Y-21579215D01*
X-8290785Y-21710145D01*
X-8444743Y-21813017D01*
X-8444744Y-21813018D01*
X-8444745Y-21813018D01*
X-8615813Y-21883877D01*
X-8797417Y-21920000D01*
X-8982583Y-21920000D01*
X-9164187Y-21883877D01*
X-9335255Y-21813018D01*
X-9335256Y-21813018D01*
X-9335257Y-21813017D01*
X-9489215Y-21710145D01*
X-9620145Y-21579215D01*
X-9723017Y-21425257D01*
X-9726445Y-21416982D01*
X-9793877Y-21254187D01*
X-9830000Y-21072583D01*
X-9830000Y-20887417D01*
X-9793877Y-20705813D01*
X-9723018Y-20534745D01*
X-9711841Y-20518018D01*
X-9659808Y-20440145D01*
X-9620146Y-20380786D01*
X-9489214Y-20249854D01*
X-9412758Y-20198768D01*
X-9335257Y-20146983D01*
X-9294877Y-20130257D01*
X-9164187Y-20076123D01*
X-8982583Y-20040000D01*
X-8797417Y-20040000D01*
X-8615813Y-20076123D01*
G37*
G36*
X4084187Y-20051123D02*
G01*
X4255255Y-20121982D01*
X4255257Y-20121983D01*
X4409215Y-20224855D01*
X4540145Y-20355785D01*
X4596514Y-20440146D01*
X4643018Y-20509745D01*
X4713877Y-20680813D01*
X4750000Y-20862417D01*
X4750000Y-21047583D01*
X4713877Y-21229187D01*
X4675795Y-21321124D01*
X4643017Y-21400257D01*
X4631841Y-21416983D01*
X4563105Y-21519854D01*
X4540145Y-21554215D01*
X4409215Y-21685145D01*
X4255257Y-21788017D01*
X4255256Y-21788018D01*
X4255255Y-21788018D01*
X4084187Y-21858877D01*
X3902583Y-21895000D01*
X3717417Y-21895000D01*
X3535813Y-21858877D01*
X3364745Y-21788018D01*
X3364744Y-21788018D01*
X3364743Y-21788017D01*
X3210785Y-21685145D01*
X3079855Y-21554215D01*
X3056896Y-21519854D01*
X2988159Y-21416983D01*
X2976983Y-21400257D01*
X2944205Y-21321124D01*
X2906123Y-21229187D01*
X2870000Y-21047583D01*
X2870000Y-20862417D01*
X2906123Y-20680813D01*
X2976982Y-20509745D01*
X3023487Y-20440146D01*
X3079855Y-20355785D01*
X3210785Y-20224855D01*
X3364743Y-20121983D01*
X3364745Y-20121982D01*
X3535813Y-20051123D01*
X3717417Y-20015000D01*
X3902583Y-20015000D01*
X4084187Y-20051123D01*
G37*
G36*
X28688512Y-19423927D02*
G01*
X28837812Y-19453624D01*
X29001784Y-19521544D01*
X29149354Y-19620147D01*
X29274853Y-19745646D01*
X29373456Y-19893216D01*
X29441376Y-20057188D01*
X29476000Y-20231259D01*
X29476000Y-20408741D01*
X29441376Y-20582812D01*
X29373456Y-20746784D01*
X29274853Y-20894354D01*
X29149354Y-21019853D01*
X29001784Y-21118456D01*
X28837812Y-21186376D01*
X28688512Y-21216073D01*
X28663742Y-21221000D01*
X28486258Y-21221000D01*
X28461488Y-21216073D01*
X28312188Y-21186376D01*
X28148216Y-21118456D01*
X28000646Y-21019853D01*
X27875147Y-20894354D01*
X27776544Y-20746784D01*
X27708624Y-20582812D01*
X27674000Y-20408741D01*
X27674000Y-20231259D01*
X27708624Y-20057188D01*
X27776544Y-19893216D01*
X27875147Y-19745646D01*
X28000646Y-19620147D01*
X28148216Y-19521544D01*
X28312188Y-19453624D01*
X28461488Y-19423927D01*
X28486258Y-19419000D01*
X28663742Y-19419000D01*
X28688512Y-19423927D01*
G37*
G36*
X31228512Y-19423927D02*
G01*
X31377812Y-19453624D01*
X31541784Y-19521544D01*
X31689354Y-19620147D01*
X31814853Y-19745646D01*
X31913456Y-19893216D01*
X31981376Y-20057188D01*
X32016000Y-20231259D01*
X32016000Y-20408741D01*
X31981376Y-20582812D01*
X31913456Y-20746784D01*
X31814853Y-20894354D01*
X31689354Y-21019853D01*
X31541784Y-21118456D01*
X31377812Y-21186376D01*
X31228512Y-21216073D01*
X31203742Y-21221000D01*
X31026258Y-21221000D01*
X31001488Y-21216073D01*
X30852188Y-21186376D01*
X30688216Y-21118456D01*
X30540646Y-21019853D01*
X30415147Y-20894354D01*
X30316544Y-20746784D01*
X30248624Y-20582812D01*
X30214000Y-20408741D01*
X30214000Y-20231259D01*
X30248624Y-20057188D01*
X30316544Y-19893216D01*
X30415147Y-19745646D01*
X30540646Y-19620147D01*
X30688216Y-19521544D01*
X30852188Y-19453624D01*
X31001488Y-19423927D01*
X31026258Y-19419000D01*
X31203742Y-19419000D01*
X31228512Y-19423927D01*
G37*
G36*
X-6075813Y-18806123D02*
G01*
X-5945123Y-18860257D01*
X-5904743Y-18876983D01*
X-5827242Y-18928768D01*
X-5750786Y-18979854D01*
X-5619854Y-19110786D01*
X-5580192Y-19170145D01*
X-5528158Y-19248018D01*
X-5516982Y-19264745D01*
X-5446123Y-19435813D01*
X-5410000Y-19617417D01*
X-5410000Y-19802583D01*
X-5446123Y-19984187D01*
X-5513555Y-20146982D01*
X-5516983Y-20155257D01*
X-5619855Y-20309215D01*
X-5750785Y-20440145D01*
X-5904743Y-20543017D01*
X-5904744Y-20543018D01*
X-5904745Y-20543018D01*
X-6075813Y-20613877D01*
X-6257417Y-20650000D01*
X-6442583Y-20650000D01*
X-6624187Y-20613877D01*
X-6795255Y-20543018D01*
X-6795256Y-20543018D01*
X-6795257Y-20543017D01*
X-6949215Y-20440145D01*
X-7080145Y-20309215D01*
X-7183017Y-20155257D01*
X-7186445Y-20146982D01*
X-7253877Y-19984187D01*
X-7290000Y-19802583D01*
X-7290000Y-19617417D01*
X-7253877Y-19435813D01*
X-7183018Y-19264745D01*
X-7171841Y-19248018D01*
X-7119808Y-19170145D01*
X-7080146Y-19110786D01*
X-6949214Y-18979854D01*
X-6872758Y-18928768D01*
X-6795257Y-18876983D01*
X-6754877Y-18860257D01*
X-6624187Y-18806123D01*
X-6442583Y-18770000D01*
X-6257417Y-18770000D01*
X-6075813Y-18806123D01*
G37*
G36*
X6624187Y-18781123D02*
G01*
X6795255Y-18851982D01*
X6795257Y-18851983D01*
X6949215Y-18954855D01*
X7080145Y-19085785D01*
X7136514Y-19170146D01*
X7183018Y-19239745D01*
X7253877Y-19410813D01*
X7290000Y-19592417D01*
X7290000Y-19777583D01*
X7253877Y-19959187D01*
X7215795Y-20051124D01*
X7183017Y-20130257D01*
X7171841Y-20146983D01*
X7103105Y-20249854D01*
X7080145Y-20284215D01*
X6949215Y-20415145D01*
X6795257Y-20518017D01*
X6795256Y-20518018D01*
X6795255Y-20518018D01*
X6624187Y-20588877D01*
X6442583Y-20625000D01*
X6257417Y-20625000D01*
X6075813Y-20588877D01*
X5904745Y-20518018D01*
X5904744Y-20518018D01*
X5904743Y-20518017D01*
X5750785Y-20415145D01*
X5619855Y-20284215D01*
X5596896Y-20249854D01*
X5528159Y-20146983D01*
X5516983Y-20130257D01*
X5484205Y-20051124D01*
X5446123Y-19959187D01*
X5410000Y-19777583D01*
X5410000Y-19592417D01*
X5446123Y-19410813D01*
X5516982Y-19239745D01*
X5563487Y-19170146D01*
X5619855Y-19085785D01*
X5750785Y-18954855D01*
X5904743Y-18851983D01*
X5904745Y-18851982D01*
X6075813Y-18781123D01*
X6257417Y-18745000D01*
X6442583Y-18745000D01*
X6624187Y-18781123D01*
G37*
G36*
X-8615813Y-17536123D02*
G01*
X-8485123Y-17590257D01*
X-8444743Y-17606983D01*
X-8367242Y-17658768D01*
X-8290786Y-17709854D01*
X-8159854Y-17840786D01*
X-8120192Y-17900145D01*
X-8068158Y-17978018D01*
X-8056982Y-17994745D01*
X-7986123Y-18165813D01*
X-7950000Y-18347417D01*
X-7950000Y-18532583D01*
X-7986123Y-18714187D01*
X-8053555Y-18876982D01*
X-8056983Y-18885257D01*
X-8159855Y-19039215D01*
X-8290785Y-19170145D01*
X-8444743Y-19273017D01*
X-8444744Y-19273018D01*
X-8444745Y-19273018D01*
X-8615813Y-19343877D01*
X-8797417Y-19380000D01*
X-8982583Y-19380000D01*
X-9164187Y-19343877D01*
X-9335255Y-19273018D01*
X-9335256Y-19273018D01*
X-9335257Y-19273017D01*
X-9489215Y-19170145D01*
X-9620145Y-19039215D01*
X-9723017Y-18885257D01*
X-9726445Y-18876982D01*
X-9793877Y-18714187D01*
X-9830000Y-18532583D01*
X-9830000Y-18347417D01*
X-9793877Y-18165813D01*
X-9723018Y-17994745D01*
X-9711841Y-17978018D01*
X-9659808Y-17900145D01*
X-9620146Y-17840786D01*
X-9489214Y-17709854D01*
X-9412758Y-17658768D01*
X-9335257Y-17606983D01*
X-9294877Y-17590257D01*
X-9164187Y-17536123D01*
X-8982583Y-17500000D01*
X-8797417Y-17500000D01*
X-8615813Y-17536123D01*
G37*
G36*
X4084187Y-17511123D02*
G01*
X4255255Y-17581982D01*
X4255257Y-17581983D01*
X4409215Y-17684855D01*
X4540145Y-17815785D01*
X4596514Y-17900146D01*
X4643018Y-17969745D01*
X4713877Y-18140813D01*
X4750000Y-18322417D01*
X4750000Y-18507583D01*
X4713877Y-18689187D01*
X4675795Y-18781124D01*
X4643017Y-18860257D01*
X4631841Y-18876983D01*
X4563105Y-18979854D01*
X4540145Y-19014215D01*
X4409215Y-19145145D01*
X4255257Y-19248017D01*
X4255256Y-19248018D01*
X4255255Y-19248018D01*
X4084187Y-19318877D01*
X3902583Y-19355000D01*
X3717417Y-19355000D01*
X3535813Y-19318877D01*
X3364745Y-19248018D01*
X3364744Y-19248018D01*
X3364743Y-19248017D01*
X3210785Y-19145145D01*
X3079855Y-19014215D01*
X3056896Y-18979854D01*
X2988159Y-18876983D01*
X2976983Y-18860257D01*
X2944205Y-18781124D01*
X2906123Y-18689187D01*
X2870000Y-18507583D01*
X2870000Y-18322417D01*
X2906123Y-18140813D01*
X2976982Y-17969745D01*
X3023487Y-17900146D01*
X3079855Y-17815785D01*
X3210785Y-17684855D01*
X3364743Y-17581983D01*
X3364745Y-17581982D01*
X3535813Y-17511123D01*
X3717417Y-17475000D01*
X3902583Y-17475000D01*
X4084187Y-17511123D01*
G37*
G36*
X28688512Y-16883927D02*
G01*
X28837812Y-16913624D01*
X29001784Y-16981544D01*
X29149354Y-17080147D01*
X29274853Y-17205646D01*
X29373456Y-17353216D01*
X29441376Y-17517188D01*
X29476000Y-17691259D01*
X29476000Y-17868741D01*
X29441376Y-18042812D01*
X29373456Y-18206784D01*
X29274853Y-18354354D01*
X29149354Y-18479853D01*
X29001784Y-18578456D01*
X28837812Y-18646376D01*
X28688512Y-18676073D01*
X28663742Y-18681000D01*
X28486258Y-18681000D01*
X28461488Y-18676073D01*
X28312188Y-18646376D01*
X28148216Y-18578456D01*
X28000646Y-18479853D01*
X27875147Y-18354354D01*
X27776544Y-18206784D01*
X27708624Y-18042812D01*
X27674000Y-17868741D01*
X27674000Y-17691259D01*
X27708624Y-17517188D01*
X27776544Y-17353216D01*
X27875147Y-17205646D01*
X28000646Y-17080147D01*
X28148216Y-16981544D01*
X28312188Y-16913624D01*
X28461488Y-16883927D01*
X28486258Y-16879000D01*
X28663742Y-16879000D01*
X28688512Y-16883927D01*
G37*
G36*
X31228512Y-16883927D02*
G01*
X31377812Y-16913624D01*
X31541784Y-16981544D01*
X31689354Y-17080147D01*
X31814853Y-17205646D01*
X31913456Y-17353216D01*
X31981376Y-17517188D01*
X32016000Y-17691259D01*
X32016000Y-17868741D01*
X31981376Y-18042812D01*
X31913456Y-18206784D01*
X31814853Y-18354354D01*
X31689354Y-18479853D01*
X31541784Y-18578456D01*
X31377812Y-18646376D01*
X31228512Y-18676073D01*
X31203742Y-18681000D01*
X31026258Y-18681000D01*
X31001488Y-18676073D01*
X30852188Y-18646376D01*
X30688216Y-18578456D01*
X30540646Y-18479853D01*
X30415147Y-18354354D01*
X30316544Y-18206784D01*
X30248624Y-18042812D01*
X30214000Y-17868741D01*
X30214000Y-17691259D01*
X30248624Y-17517188D01*
X30316544Y-17353216D01*
X30415147Y-17205646D01*
X30540646Y-17080147D01*
X30688216Y-16981544D01*
X30852188Y-16913624D01*
X31001488Y-16883927D01*
X31026258Y-16879000D01*
X31203742Y-16879000D01*
X31228512Y-16883927D01*
G37*
G36*
X-6075813Y-16266123D02*
G01*
X-5945123Y-16320257D01*
X-5904743Y-16336983D01*
X-5827242Y-16388768D01*
X-5750786Y-16439854D01*
X-5619854Y-16570786D01*
X-5580192Y-16630145D01*
X-5528158Y-16708018D01*
X-5516982Y-16724745D01*
X-5446123Y-16895813D01*
X-5410000Y-17077417D01*
X-5410000Y-17262583D01*
X-5446123Y-17444187D01*
X-5513555Y-17606982D01*
X-5516983Y-17615257D01*
X-5619855Y-17769215D01*
X-5750785Y-17900145D01*
X-5904743Y-18003017D01*
X-5904744Y-18003018D01*
X-5904745Y-18003018D01*
X-6075813Y-18073877D01*
X-6257417Y-18110000D01*
X-6442583Y-18110000D01*
X-6624187Y-18073877D01*
X-6795255Y-18003018D01*
X-6795256Y-18003018D01*
X-6795257Y-18003017D01*
X-6949215Y-17900145D01*
X-7080145Y-17769215D01*
X-7183017Y-17615257D01*
X-7186445Y-17606982D01*
X-7253877Y-17444187D01*
X-7290000Y-17262583D01*
X-7290000Y-17077417D01*
X-7253877Y-16895813D01*
X-7183018Y-16724745D01*
X-7171841Y-16708018D01*
X-7119808Y-16630145D01*
X-7080146Y-16570786D01*
X-6949214Y-16439854D01*
X-6872758Y-16388768D01*
X-6795257Y-16336983D01*
X-6754877Y-16320257D01*
X-6624187Y-16266123D01*
X-6442583Y-16230000D01*
X-6257417Y-16230000D01*
X-6075813Y-16266123D01*
G37*
G36*
X6624187Y-16241123D02*
G01*
X6795255Y-16311982D01*
X6795257Y-16311983D01*
X6949215Y-16414855D01*
X7080145Y-16545785D01*
X7136514Y-16630146D01*
X7183018Y-16699745D01*
X7253877Y-16870813D01*
X7290000Y-17052417D01*
X7290000Y-17237583D01*
X7253877Y-17419187D01*
X7215795Y-17511124D01*
X7183017Y-17590257D01*
X7171841Y-17606983D01*
X7103105Y-17709854D01*
X7080145Y-17744215D01*
X6949215Y-17875145D01*
X6795257Y-17978017D01*
X6795256Y-17978018D01*
X6795255Y-17978018D01*
X6624187Y-18048877D01*
X6442583Y-18085000D01*
X6257417Y-18085000D01*
X6075813Y-18048877D01*
X5904745Y-17978018D01*
X5904744Y-17978018D01*
X5904743Y-17978017D01*
X5750785Y-17875145D01*
X5619855Y-17744215D01*
X5596896Y-17709854D01*
X5528159Y-17606983D01*
X5516983Y-17590257D01*
X5484205Y-17511124D01*
X5446123Y-17419187D01*
X5410000Y-17237583D01*
X5410000Y-17052417D01*
X5446123Y-16870813D01*
X5516982Y-16699745D01*
X5563487Y-16630146D01*
X5619855Y-16545785D01*
X5750785Y-16414855D01*
X5904743Y-16311983D01*
X5904745Y-16311982D01*
X6075813Y-16241123D01*
X6257417Y-16205000D01*
X6442583Y-16205000D01*
X6624187Y-16241123D01*
G37*
G36*
X-8615813Y-14996123D02*
G01*
X-8485123Y-15050257D01*
X-8444743Y-15066983D01*
X-8367242Y-15118768D01*
X-8290786Y-15169854D01*
X-8159854Y-15300786D01*
X-8120192Y-15360145D01*
X-8068158Y-15438018D01*
X-8056982Y-15454745D01*
X-7986123Y-15625813D01*
X-7950000Y-15807417D01*
X-7950000Y-15992583D01*
X-7986123Y-16174187D01*
X-8053555Y-16336982D01*
X-8056983Y-16345257D01*
X-8159855Y-16499215D01*
X-8290785Y-16630145D01*
X-8444743Y-16733017D01*
X-8444744Y-16733018D01*
X-8444745Y-16733018D01*
X-8615813Y-16803877D01*
X-8797417Y-16840000D01*
X-8982583Y-16840000D01*
X-9164187Y-16803877D01*
X-9335255Y-16733018D01*
X-9335256Y-16733018D01*
X-9335257Y-16733017D01*
X-9489215Y-16630145D01*
X-9620145Y-16499215D01*
X-9723017Y-16345257D01*
X-9726445Y-16336982D01*
X-9793877Y-16174187D01*
X-9830000Y-15992583D01*
X-9830000Y-15807417D01*
X-9793877Y-15625813D01*
X-9723018Y-15454745D01*
X-9711841Y-15438018D01*
X-9659808Y-15360145D01*
X-9620146Y-15300786D01*
X-9489214Y-15169854D01*
X-9412758Y-15118768D01*
X-9335257Y-15066983D01*
X-9294877Y-15050257D01*
X-9164187Y-14996123D01*
X-8982583Y-14960000D01*
X-8797417Y-14960000D01*
X-8615813Y-14996123D01*
G37*
G36*
X4084187Y-14971123D02*
G01*
X4255255Y-15041982D01*
X4255257Y-15041983D01*
X4409215Y-15144855D01*
X4540145Y-15275785D01*
X4596514Y-15360146D01*
X4643018Y-15429745D01*
X4713877Y-15600813D01*
X4750000Y-15782417D01*
X4750000Y-15967583D01*
X4713877Y-16149187D01*
X4675795Y-16241124D01*
X4643017Y-16320257D01*
X4631841Y-16336983D01*
X4563105Y-16439854D01*
X4540145Y-16474215D01*
X4409215Y-16605145D01*
X4255257Y-16708017D01*
X4255256Y-16708018D01*
X4255255Y-16708018D01*
X4084187Y-16778877D01*
X3902583Y-16815000D01*
X3717417Y-16815000D01*
X3535813Y-16778877D01*
X3364745Y-16708018D01*
X3364744Y-16708018D01*
X3364743Y-16708017D01*
X3210785Y-16605145D01*
X3079855Y-16474215D01*
X3056896Y-16439854D01*
X2988159Y-16336983D01*
X2976983Y-16320257D01*
X2944205Y-16241124D01*
X2906123Y-16149187D01*
X2870000Y-15967583D01*
X2870000Y-15782417D01*
X2906123Y-15600813D01*
X2976982Y-15429745D01*
X3023487Y-15360146D01*
X3079855Y-15275785D01*
X3210785Y-15144855D01*
X3364743Y-15041983D01*
X3364745Y-15041982D01*
X3535813Y-14971123D01*
X3717417Y-14935000D01*
X3902583Y-14935000D01*
X4084187Y-14971123D01*
G37*
G36*
X31228512Y-14343927D02*
G01*
X31377812Y-14373624D01*
X31541784Y-14441544D01*
X31689354Y-14540147D01*
X31814853Y-14665646D01*
X31913456Y-14813216D01*
X31981376Y-14977188D01*
X32016000Y-15151259D01*
X32016000Y-15328741D01*
X31981376Y-15502812D01*
X31913456Y-15666784D01*
X31814853Y-15814354D01*
X31689354Y-15939853D01*
X31541784Y-16038456D01*
X31377812Y-16106376D01*
X31228512Y-16136073D01*
X31203742Y-16141000D01*
X31026258Y-16141000D01*
X31001488Y-16136073D01*
X30852188Y-16106376D01*
X30688216Y-16038456D01*
X30540646Y-15939853D01*
X30415147Y-15814354D01*
X30316544Y-15666784D01*
X30248624Y-15502812D01*
X30214000Y-15328741D01*
X30214000Y-15151259D01*
X30248624Y-14977188D01*
X30316544Y-14813216D01*
X30415147Y-14665646D01*
X30540646Y-14540147D01*
X30688216Y-14441544D01*
X30852188Y-14373624D01*
X31001488Y-14343927D01*
X31026258Y-14339000D01*
X31203742Y-14339000D01*
X31228512Y-14343927D01*
G37*
G36*
X28688512Y-14343927D02*
G01*
X28837812Y-14373624D01*
X29001784Y-14441544D01*
X29149354Y-14540147D01*
X29274853Y-14665646D01*
X29373456Y-14813216D01*
X29441376Y-14977188D01*
X29476000Y-15151259D01*
X29476000Y-15328741D01*
X29441376Y-15502812D01*
X29373456Y-15666784D01*
X29274853Y-15814354D01*
X29149354Y-15939853D01*
X29001784Y-16038456D01*
X28837812Y-16106376D01*
X28688512Y-16136073D01*
X28663742Y-16141000D01*
X28486258Y-16141000D01*
X28461488Y-16136073D01*
X28312188Y-16106376D01*
X28148216Y-16038456D01*
X28000646Y-15939853D01*
X27875147Y-15814354D01*
X27776544Y-15666784D01*
X27708624Y-15502812D01*
X27674000Y-15328741D01*
X27674000Y-15151259D01*
X27708624Y-14977188D01*
X27776544Y-14813216D01*
X27875147Y-14665646D01*
X28000646Y-14540147D01*
X28148216Y-14441544D01*
X28312188Y-14373624D01*
X28461488Y-14343927D01*
X28486258Y-14339000D01*
X28663742Y-14339000D01*
X28688512Y-14343927D01*
G37*
G36*
X-6075813Y-13726123D02*
G01*
X-5945123Y-13780257D01*
X-5904743Y-13796983D01*
X-5827242Y-13848768D01*
X-5750786Y-13899854D01*
X-5619854Y-14030786D01*
X-5580192Y-14090145D01*
X-5528158Y-14168018D01*
X-5516982Y-14184745D01*
X-5446123Y-14355813D01*
X-5410000Y-14537417D01*
X-5410000Y-14722583D01*
X-5446123Y-14904187D01*
X-5513555Y-15066982D01*
X-5516983Y-15075257D01*
X-5619855Y-15229215D01*
X-5750785Y-15360145D01*
X-5904743Y-15463017D01*
X-5904744Y-15463018D01*
X-5904745Y-15463018D01*
X-6075813Y-15533877D01*
X-6257417Y-15570000D01*
X-6442583Y-15570000D01*
X-6624187Y-15533877D01*
X-6795255Y-15463018D01*
X-6795256Y-15463018D01*
X-6795257Y-15463017D01*
X-6949215Y-15360145D01*
X-7080145Y-15229215D01*
X-7183017Y-15075257D01*
X-7186445Y-15066982D01*
X-7253877Y-14904187D01*
X-7290000Y-14722583D01*
X-7290000Y-14537417D01*
X-7253877Y-14355813D01*
X-7183018Y-14184745D01*
X-7171841Y-14168018D01*
X-7119808Y-14090145D01*
X-7080146Y-14030786D01*
X-6949214Y-13899854D01*
X-6872758Y-13848768D01*
X-6795257Y-13796983D01*
X-6754877Y-13780257D01*
X-6624187Y-13726123D01*
X-6442583Y-13690000D01*
X-6257417Y-13690000D01*
X-6075813Y-13726123D01*
G37*
G36*
X6624187Y-13701123D02*
G01*
X6795255Y-13771982D01*
X6795257Y-13771983D01*
X6949215Y-13874855D01*
X7080145Y-14005785D01*
X7136514Y-14090146D01*
X7183018Y-14159745D01*
X7253877Y-14330813D01*
X7290000Y-14512417D01*
X7290000Y-14697583D01*
X7253877Y-14879187D01*
X7215795Y-14971124D01*
X7183017Y-15050257D01*
X7171841Y-15066983D01*
X7103105Y-15169854D01*
X7080145Y-15204215D01*
X6949215Y-15335145D01*
X6795257Y-15438017D01*
X6795256Y-15438018D01*
X6795255Y-15438018D01*
X6624187Y-15508877D01*
X6442583Y-15545000D01*
X6257417Y-15545000D01*
X6075813Y-15508877D01*
X5904745Y-15438018D01*
X5904744Y-15438018D01*
X5904743Y-15438017D01*
X5750785Y-15335145D01*
X5619855Y-15204215D01*
X5596896Y-15169854D01*
X5528159Y-15066983D01*
X5516983Y-15050257D01*
X5484205Y-14971124D01*
X5446123Y-14879187D01*
X5410000Y-14697583D01*
X5410000Y-14512417D01*
X5446123Y-14330813D01*
X5516982Y-14159745D01*
X5563487Y-14090146D01*
X5619855Y-14005785D01*
X5750785Y-13874855D01*
X5904743Y-13771983D01*
X5904745Y-13771982D01*
X6075813Y-13701123D01*
X6257417Y-13665000D01*
X6442583Y-13665000D01*
X6624187Y-13701123D01*
G37*
G36*
X-8615813Y-12456123D02*
G01*
X-8485123Y-12510257D01*
X-8444743Y-12526983D01*
X-8367242Y-12578768D01*
X-8290786Y-12629854D01*
X-8159854Y-12760786D01*
X-8120192Y-12820145D01*
X-8068158Y-12898018D01*
X-8056982Y-12914745D01*
X-7986123Y-13085813D01*
X-7950000Y-13267417D01*
X-7950000Y-13452583D01*
X-7986123Y-13634187D01*
X-8053555Y-13796982D01*
X-8056983Y-13805257D01*
X-8159855Y-13959215D01*
X-8290785Y-14090145D01*
X-8444743Y-14193017D01*
X-8444744Y-14193018D01*
X-8444745Y-14193018D01*
X-8615813Y-14263877D01*
X-8797417Y-14300000D01*
X-8982583Y-14300000D01*
X-9164187Y-14263877D01*
X-9335255Y-14193018D01*
X-9335256Y-14193018D01*
X-9335257Y-14193017D01*
X-9489215Y-14090145D01*
X-9620145Y-13959215D01*
X-9723017Y-13805257D01*
X-9726445Y-13796982D01*
X-9793877Y-13634187D01*
X-9830000Y-13452583D01*
X-9830000Y-13267417D01*
X-9793877Y-13085813D01*
X-9723018Y-12914745D01*
X-9711841Y-12898018D01*
X-9659808Y-12820145D01*
X-9620146Y-12760786D01*
X-9489214Y-12629854D01*
X-9412758Y-12578768D01*
X-9335257Y-12526983D01*
X-9294877Y-12510257D01*
X-9164187Y-12456123D01*
X-8982583Y-12420000D01*
X-8797417Y-12420000D01*
X-8615813Y-12456123D01*
G37*
G36*
X4084187Y-12431123D02*
G01*
X4255255Y-12501982D01*
X4255257Y-12501983D01*
X4409215Y-12604855D01*
X4540145Y-12735785D01*
X4596514Y-12820146D01*
X4643018Y-12889745D01*
X4713877Y-13060813D01*
X4750000Y-13242417D01*
X4750000Y-13427583D01*
X4713877Y-13609187D01*
X4675795Y-13701124D01*
X4643017Y-13780257D01*
X4631841Y-13796983D01*
X4563105Y-13899854D01*
X4540145Y-13934215D01*
X4409215Y-14065145D01*
X4255257Y-14168017D01*
X4255256Y-14168018D01*
X4255255Y-14168018D01*
X4084187Y-14238877D01*
X3902583Y-14275000D01*
X3717417Y-14275000D01*
X3535813Y-14238877D01*
X3364745Y-14168018D01*
X3364744Y-14168018D01*
X3364743Y-14168017D01*
X3210785Y-14065145D01*
X3079855Y-13934215D01*
X3056896Y-13899854D01*
X2988159Y-13796983D01*
X2976983Y-13780257D01*
X2944205Y-13701124D01*
X2906123Y-13609187D01*
X2870000Y-13427583D01*
X2870000Y-13242417D01*
X2906123Y-13060813D01*
X2976982Y-12889745D01*
X3023487Y-12820146D01*
X3079855Y-12735785D01*
X3210785Y-12604855D01*
X3364743Y-12501983D01*
X3364745Y-12501982D01*
X3535813Y-12431123D01*
X3717417Y-12395000D01*
X3902583Y-12395000D01*
X4084187Y-12431123D01*
G37*
G36*
X31228512Y-11803927D02*
G01*
X31377812Y-11833624D01*
X31541784Y-11901544D01*
X31689354Y-12000147D01*
X31814853Y-12125646D01*
X31913456Y-12273216D01*
X31981376Y-12437188D01*
X32016000Y-12611259D01*
X32016000Y-12788741D01*
X31981376Y-12962812D01*
X31913456Y-13126784D01*
X31814853Y-13274354D01*
X31689354Y-13399853D01*
X31541784Y-13498456D01*
X31377812Y-13566376D01*
X31228512Y-13596073D01*
X31203742Y-13601000D01*
X31026258Y-13601000D01*
X31001488Y-13596073D01*
X30852188Y-13566376D01*
X30688216Y-13498456D01*
X30540646Y-13399853D01*
X30415147Y-13274354D01*
X30316544Y-13126784D01*
X30248624Y-12962812D01*
X30214000Y-12788741D01*
X30214000Y-12611259D01*
X30248624Y-12437188D01*
X30316544Y-12273216D01*
X30415147Y-12125646D01*
X30540646Y-12000147D01*
X30688216Y-11901544D01*
X30852188Y-11833624D01*
X31001488Y-11803927D01*
X31026258Y-11799000D01*
X31203742Y-11799000D01*
X31228512Y-11803927D01*
G37*
G36*
X28688512Y-11803927D02*
G01*
X28837812Y-11833624D01*
X29001784Y-11901544D01*
X29149354Y-12000147D01*
X29274853Y-12125646D01*
X29373456Y-12273216D01*
X29441376Y-12437188D01*
X29476000Y-12611259D01*
X29476000Y-12788741D01*
X29441376Y-12962812D01*
X29373456Y-13126784D01*
X29274853Y-13274354D01*
X29149354Y-13399853D01*
X29001784Y-13498456D01*
X28837812Y-13566376D01*
X28688512Y-13596073D01*
X28663742Y-13601000D01*
X28486258Y-13601000D01*
X28461488Y-13596073D01*
X28312188Y-13566376D01*
X28148216Y-13498456D01*
X28000646Y-13399853D01*
X27875147Y-13274354D01*
X27776544Y-13126784D01*
X27708624Y-12962812D01*
X27674000Y-12788741D01*
X27674000Y-12611259D01*
X27708624Y-12437188D01*
X27776544Y-12273216D01*
X27875147Y-12125646D01*
X28000646Y-12000147D01*
X28148216Y-11901544D01*
X28312188Y-11833624D01*
X28461488Y-11803927D01*
X28486258Y-11799000D01*
X28663742Y-11799000D01*
X28688512Y-11803927D01*
G37*
G36*
X-6075813Y-11186123D02*
G01*
X-5945123Y-11240257D01*
X-5904743Y-11256983D01*
X-5827242Y-11308768D01*
X-5750786Y-11359854D01*
X-5619854Y-11490786D01*
X-5580192Y-11550145D01*
X-5528158Y-11628018D01*
X-5516982Y-11644745D01*
X-5446123Y-11815813D01*
X-5410000Y-11997417D01*
X-5410000Y-12182583D01*
X-5446123Y-12364187D01*
X-5513555Y-12526982D01*
X-5516983Y-12535257D01*
X-5619855Y-12689215D01*
X-5750785Y-12820145D01*
X-5904743Y-12923017D01*
X-5904744Y-12923018D01*
X-5904745Y-12923018D01*
X-6075813Y-12993877D01*
X-6257417Y-13030000D01*
X-6442583Y-13030000D01*
X-6624187Y-12993877D01*
X-6795255Y-12923018D01*
X-6795256Y-12923018D01*
X-6795257Y-12923017D01*
X-6949215Y-12820145D01*
X-7080145Y-12689215D01*
X-7183017Y-12535257D01*
X-7186445Y-12526982D01*
X-7253877Y-12364187D01*
X-7290000Y-12182583D01*
X-7290000Y-11997417D01*
X-7253877Y-11815813D01*
X-7183018Y-11644745D01*
X-7171841Y-11628018D01*
X-7119808Y-11550145D01*
X-7080146Y-11490786D01*
X-6949214Y-11359854D01*
X-6872758Y-11308768D01*
X-6795257Y-11256983D01*
X-6754877Y-11240257D01*
X-6624187Y-11186123D01*
X-6442583Y-11150000D01*
X-6257417Y-11150000D01*
X-6075813Y-11186123D01*
G37*
G36*
X6624187Y-11161123D02*
G01*
X6795255Y-11231982D01*
X6795257Y-11231983D01*
X6949215Y-11334855D01*
X7080145Y-11465785D01*
X7136514Y-11550146D01*
X7183018Y-11619745D01*
X7253877Y-11790813D01*
X7290000Y-11972417D01*
X7290000Y-12157583D01*
X7253877Y-12339187D01*
X7215795Y-12431124D01*
X7183017Y-12510257D01*
X7171841Y-12526983D01*
X7103105Y-12629854D01*
X7080145Y-12664215D01*
X6949215Y-12795145D01*
X6795257Y-12898017D01*
X6795256Y-12898018D01*
X6795255Y-12898018D01*
X6624187Y-12968877D01*
X6442583Y-13005000D01*
X6257417Y-13005000D01*
X6075813Y-12968877D01*
X5904745Y-12898018D01*
X5904744Y-12898018D01*
X5904743Y-12898017D01*
X5750785Y-12795145D01*
X5619855Y-12664215D01*
X5596896Y-12629854D01*
X5528159Y-12526983D01*
X5516983Y-12510257D01*
X5484205Y-12431124D01*
X5446123Y-12339187D01*
X5410000Y-12157583D01*
X5410000Y-11972417D01*
X5446123Y-11790813D01*
X5516982Y-11619745D01*
X5563487Y-11550146D01*
X5619855Y-11465785D01*
X5750785Y-11334855D01*
X5904743Y-11231983D01*
X5904745Y-11231982D01*
X6075813Y-11161123D01*
X6257417Y-11125000D01*
X6442583Y-11125000D01*
X6624187Y-11161123D01*
G37*
G36*
X-8615813Y-9916123D02*
G01*
X-8485123Y-9970257D01*
X-8444743Y-9986983D01*
X-8367242Y-10038768D01*
X-8290786Y-10089854D01*
X-8159854Y-10220786D01*
X-8120192Y-10280145D01*
X-8068158Y-10358018D01*
X-8056982Y-10374745D01*
X-7986123Y-10545813D01*
X-7950000Y-10727417D01*
X-7950000Y-10912583D01*
X-7986123Y-11094187D01*
X-8053555Y-11256982D01*
X-8056983Y-11265257D01*
X-8159855Y-11419215D01*
X-8290785Y-11550145D01*
X-8444743Y-11653017D01*
X-8444744Y-11653018D01*
X-8444745Y-11653018D01*
X-8615813Y-11723877D01*
X-8797417Y-11760000D01*
X-8982583Y-11760000D01*
X-9164187Y-11723877D01*
X-9335255Y-11653018D01*
X-9335256Y-11653018D01*
X-9335257Y-11653017D01*
X-9489215Y-11550145D01*
X-9620145Y-11419215D01*
X-9723017Y-11265257D01*
X-9726445Y-11256982D01*
X-9793877Y-11094187D01*
X-9830000Y-10912583D01*
X-9830000Y-10727417D01*
X-9793877Y-10545813D01*
X-9723018Y-10374745D01*
X-9711841Y-10358018D01*
X-9659808Y-10280145D01*
X-9620146Y-10220786D01*
X-9489214Y-10089854D01*
X-9412758Y-10038768D01*
X-9335257Y-9986983D01*
X-9294877Y-9970257D01*
X-9164187Y-9916123D01*
X-8982583Y-9880000D01*
X-8797417Y-9880000D01*
X-8615813Y-9916123D01*
G37*
G36*
X4084187Y-9891123D02*
G01*
X4255255Y-9961982D01*
X4255257Y-9961983D01*
X4409215Y-10064855D01*
X4540145Y-10195785D01*
X4596514Y-10280146D01*
X4643018Y-10349745D01*
X4713877Y-10520813D01*
X4750000Y-10702417D01*
X4750000Y-10887583D01*
X4713877Y-11069187D01*
X4675795Y-11161124D01*
X4643017Y-11240257D01*
X4631841Y-11256983D01*
X4563105Y-11359854D01*
X4540145Y-11394215D01*
X4409215Y-11525145D01*
X4255257Y-11628017D01*
X4255256Y-11628018D01*
X4255255Y-11628018D01*
X4084187Y-11698877D01*
X3902583Y-11735000D01*
X3717417Y-11735000D01*
X3535813Y-11698877D01*
X3364745Y-11628018D01*
X3364744Y-11628018D01*
X3364743Y-11628017D01*
X3210785Y-11525145D01*
X3079855Y-11394215D01*
X3056896Y-11359854D01*
X2988159Y-11256983D01*
X2976983Y-11240257D01*
X2944205Y-11161124D01*
X2906123Y-11069187D01*
X2870000Y-10887583D01*
X2870000Y-10702417D01*
X2906123Y-10520813D01*
X2976982Y-10349745D01*
X3023487Y-10280146D01*
X3079855Y-10195785D01*
X3210785Y-10064855D01*
X3364743Y-9961983D01*
X3364745Y-9961982D01*
X3535813Y-9891123D01*
X3717417Y-9855000D01*
X3902583Y-9855000D01*
X4084187Y-9891123D01*
G37*
G36*
X31228512Y-9263927D02*
G01*
X31377812Y-9293624D01*
X31541784Y-9361544D01*
X31689354Y-9460147D01*
X31814853Y-9585646D01*
X31913456Y-9733216D01*
X31981376Y-9897188D01*
X32016000Y-10071259D01*
X32016000Y-10248741D01*
X31981376Y-10422812D01*
X31913456Y-10586784D01*
X31814853Y-10734354D01*
X31689354Y-10859853D01*
X31541784Y-10958456D01*
X31377812Y-11026376D01*
X31228512Y-11056073D01*
X31203742Y-11061000D01*
X31026258Y-11061000D01*
X31001488Y-11056073D01*
X30852188Y-11026376D01*
X30688216Y-10958456D01*
X30540646Y-10859853D01*
X30415147Y-10734354D01*
X30316544Y-10586784D01*
X30248624Y-10422812D01*
X30214000Y-10248741D01*
X30214000Y-10071259D01*
X30248624Y-9897188D01*
X30316544Y-9733216D01*
X30415147Y-9585646D01*
X30540646Y-9460147D01*
X30688216Y-9361544D01*
X30852188Y-9293624D01*
X31001488Y-9263927D01*
X31026258Y-9259000D01*
X31203742Y-9259000D01*
X31228512Y-9263927D01*
G37*
G36*
X28688512Y-9263927D02*
G01*
X28837812Y-9293624D01*
X29001784Y-9361544D01*
X29149354Y-9460147D01*
X29274853Y-9585646D01*
X29373456Y-9733216D01*
X29441376Y-9897188D01*
X29476000Y-10071259D01*
X29476000Y-10248741D01*
X29441376Y-10422812D01*
X29373456Y-10586784D01*
X29274853Y-10734354D01*
X29149354Y-10859853D01*
X29001784Y-10958456D01*
X28837812Y-11026376D01*
X28688512Y-11056073D01*
X28663742Y-11061000D01*
X28486258Y-11061000D01*
X28461488Y-11056073D01*
X28312188Y-11026376D01*
X28148216Y-10958456D01*
X28000646Y-10859853D01*
X27875147Y-10734354D01*
X27776544Y-10586784D01*
X27708624Y-10422812D01*
X27674000Y-10248741D01*
X27674000Y-10071259D01*
X27708624Y-9897188D01*
X27776544Y-9733216D01*
X27875147Y-9585646D01*
X28000646Y-9460147D01*
X28148216Y-9361544D01*
X28312188Y-9293624D01*
X28461488Y-9263927D01*
X28486258Y-9259000D01*
X28663742Y-9259000D01*
X28688512Y-9263927D01*
G37*
G36*
X-6075813Y-8646123D02*
G01*
X-5945123Y-8700257D01*
X-5904743Y-8716983D01*
X-5827242Y-8768768D01*
X-5750786Y-8819854D01*
X-5619854Y-8950786D01*
X-5580192Y-9010145D01*
X-5528158Y-9088018D01*
X-5516982Y-9104745D01*
X-5446123Y-9275813D01*
X-5410000Y-9457417D01*
X-5410000Y-9642583D01*
X-5446123Y-9824187D01*
X-5513555Y-9986982D01*
X-5516983Y-9995257D01*
X-5619855Y-10149215D01*
X-5750785Y-10280145D01*
X-5904743Y-10383017D01*
X-5904744Y-10383018D01*
X-5904745Y-10383018D01*
X-6075813Y-10453877D01*
X-6257417Y-10490000D01*
X-6442583Y-10490000D01*
X-6624187Y-10453877D01*
X-6795255Y-10383018D01*
X-6795256Y-10383018D01*
X-6795257Y-10383017D01*
X-6949215Y-10280145D01*
X-7080145Y-10149215D01*
X-7183017Y-9995257D01*
X-7186445Y-9986982D01*
X-7253877Y-9824187D01*
X-7290000Y-9642583D01*
X-7290000Y-9457417D01*
X-7253877Y-9275813D01*
X-7183018Y-9104745D01*
X-7171841Y-9088018D01*
X-7119808Y-9010145D01*
X-7080146Y-8950786D01*
X-6949214Y-8819854D01*
X-6872758Y-8768768D01*
X-6795257Y-8716983D01*
X-6754877Y-8700257D01*
X-6624187Y-8646123D01*
X-6442583Y-8610000D01*
X-6257417Y-8610000D01*
X-6075813Y-8646123D01*
G37*
G36*
X6624187Y-8621123D02*
G01*
X6795255Y-8691982D01*
X6795257Y-8691983D01*
X6949215Y-8794855D01*
X7080145Y-8925785D01*
X7136514Y-9010146D01*
X7183018Y-9079745D01*
X7253877Y-9250813D01*
X7290000Y-9432417D01*
X7290000Y-9617583D01*
X7253877Y-9799187D01*
X7215795Y-9891124D01*
X7183017Y-9970257D01*
X7171841Y-9986983D01*
X7103105Y-10089854D01*
X7080145Y-10124215D01*
X6949215Y-10255145D01*
X6795257Y-10358017D01*
X6795256Y-10358018D01*
X6795255Y-10358018D01*
X6624187Y-10428877D01*
X6442583Y-10465000D01*
X6257417Y-10465000D01*
X6075813Y-10428877D01*
X5904745Y-10358018D01*
X5904744Y-10358018D01*
X5904743Y-10358017D01*
X5750785Y-10255145D01*
X5619855Y-10124215D01*
X5596896Y-10089854D01*
X5528159Y-9986983D01*
X5516983Y-9970257D01*
X5484205Y-9891124D01*
X5446123Y-9799187D01*
X5410000Y-9617583D01*
X5410000Y-9432417D01*
X5446123Y-9250813D01*
X5516982Y-9079745D01*
X5563487Y-9010146D01*
X5619855Y-8925785D01*
X5750785Y-8794855D01*
X5904743Y-8691983D01*
X5904745Y-8691982D01*
X6075813Y-8621123D01*
X6257417Y-8585000D01*
X6442583Y-8585000D01*
X6624187Y-8621123D01*
G37*
G36*
X-8615813Y-7376123D02*
G01*
X-8505098Y-7421983D01*
X-8444743Y-7446983D01*
X-8367242Y-7498768D01*
X-8290786Y-7549854D01*
X-8159854Y-7680786D01*
X-8056982Y-7834745D01*
X-7986123Y-8005813D01*
X-7950000Y-8187417D01*
X-7950000Y-8372583D01*
X-7986123Y-8554187D01*
X-8053555Y-8716982D01*
X-8056983Y-8725257D01*
X-8159855Y-8879215D01*
X-8290785Y-9010145D01*
X-8444743Y-9113017D01*
X-8444744Y-9113018D01*
X-8444745Y-9113018D01*
X-8615813Y-9183877D01*
X-8797417Y-9220000D01*
X-8982583Y-9220000D01*
X-9164187Y-9183877D01*
X-9335255Y-9113018D01*
X-9335256Y-9113018D01*
X-9335257Y-9113017D01*
X-9489215Y-9010145D01*
X-9620145Y-8879215D01*
X-9723017Y-8725257D01*
X-9726445Y-8716982D01*
X-9793877Y-8554187D01*
X-9830000Y-8372583D01*
X-9830000Y-8187417D01*
X-9793877Y-8005813D01*
X-9723018Y-7834745D01*
X-9620146Y-7680786D01*
X-9489214Y-7549854D01*
X-9412758Y-7498768D01*
X-9335257Y-7446983D01*
X-9274902Y-7421983D01*
X-9164187Y-7376123D01*
X-8982583Y-7340000D01*
X-8797417Y-7340000D01*
X-8615813Y-7376123D01*
G37*
G36*
X4084187Y-7351123D02*
G01*
X4255255Y-7421982D01*
X4255257Y-7421983D01*
X4292670Y-7446982D01*
X4409214Y-7524854D01*
X4540146Y-7655786D01*
X4643018Y-7809745D01*
X4713877Y-7980813D01*
X4750000Y-8162417D01*
X4750000Y-8347583D01*
X4713877Y-8529187D01*
X4675795Y-8621124D01*
X4643017Y-8700257D01*
X4631841Y-8716983D01*
X4563105Y-8819854D01*
X4540145Y-8854215D01*
X4409215Y-8985145D01*
X4255257Y-9088017D01*
X4255256Y-9088018D01*
X4255255Y-9088018D01*
X4084187Y-9158877D01*
X3902583Y-9195000D01*
X3717417Y-9195000D01*
X3535813Y-9158877D01*
X3364745Y-9088018D01*
X3364744Y-9088018D01*
X3364743Y-9088017D01*
X3210785Y-8985145D01*
X3079855Y-8854215D01*
X3056896Y-8819854D01*
X2988159Y-8716983D01*
X2976983Y-8700257D01*
X2944205Y-8621124D01*
X2906123Y-8529187D01*
X2870000Y-8347583D01*
X2870000Y-8162417D01*
X2906123Y-7980813D01*
X2976982Y-7809745D01*
X3079854Y-7655786D01*
X3210786Y-7524854D01*
X3327330Y-7446982D01*
X3364743Y-7421983D01*
X3364745Y-7421982D01*
X3535813Y-7351123D01*
X3717417Y-7315000D01*
X3902583Y-7315000D01*
X4084187Y-7351123D01*
G37*
G36*
X32016000Y-8521000D02*
G01*
X30214000Y-8521000D01*
X30214000Y-6719000D01*
X32016000Y-6719000D01*
X32016000Y-8521000D01*
G37*
G36*
X28688512Y-6723927D02*
G01*
X28837812Y-6753624D01*
X29001784Y-6821544D01*
X29149354Y-6920147D01*
X29274853Y-7045646D01*
X29373456Y-7193216D01*
X29441376Y-7357188D01*
X29476000Y-7531259D01*
X29476000Y-7708741D01*
X29441376Y-7882812D01*
X29373456Y-8046784D01*
X29274853Y-8194354D01*
X29149354Y-8319853D01*
X29001784Y-8418456D01*
X28837812Y-8486376D01*
X28688512Y-8516073D01*
X28663742Y-8521000D01*
X28486258Y-8521000D01*
X28461488Y-8516073D01*
X28312188Y-8486376D01*
X28148216Y-8418456D01*
X28000646Y-8319853D01*
X27875147Y-8194354D01*
X27776544Y-8046784D01*
X27708624Y-7882812D01*
X27674000Y-7708741D01*
X27674000Y-7531259D01*
X27708624Y-7357188D01*
X27776544Y-7193216D01*
X27875147Y-7045646D01*
X28000646Y-6920147D01*
X28148216Y-6821544D01*
X28312188Y-6753624D01*
X28461488Y-6723927D01*
X28486258Y-6719000D01*
X28663742Y-6719000D01*
X28688512Y-6723927D01*
G37*
G36*
X-5410000Y-7950000D02*
G01*
X-7290000Y-7950000D01*
X-7290000Y-6070000D01*
X-5410000Y-6070000D01*
X-5410000Y-7950000D01*
G37*
G36*
X7290000Y-7925000D02*
G01*
X5410000Y-7925000D01*
X5410000Y-6045000D01*
X7290000Y-6045000D01*
X7290000Y-7925000D01*
G37*
G36*
X-7249228Y-1538407D02*
G01*
X-7123545Y-1563407D01*
X-6813801Y-1691707D01*
X-6535038Y-1877970D01*
X-6297970Y-2115038D01*
X-6111707Y-2393801D01*
X-5993762Y-2678546D01*
X-5983407Y-2703546D01*
X-5922972Y-3007368D01*
X-5918000Y-3032368D01*
X-5918000Y-3367632D01*
X-5983407Y-3696455D01*
X-6111707Y-4006199D01*
X-6297970Y-4284962D01*
X-6535038Y-4522030D01*
X-6813801Y-4708293D01*
X-7123545Y-4836593D01*
X-7233153Y-4858395D01*
X-7452366Y-4902000D01*
X-7787634Y-4902000D01*
X-8006847Y-4858395D01*
X-8116455Y-4836593D01*
X-8426199Y-4708293D01*
X-8704962Y-4522030D01*
X-8942030Y-4284962D01*
X-9128293Y-4006199D01*
X-9256593Y-3696455D01*
X-9322000Y-3367632D01*
X-9322000Y-3032368D01*
X-9317027Y-3007368D01*
X-9256593Y-2703546D01*
X-9246238Y-2678546D01*
X-9128293Y-2393801D01*
X-8942030Y-2115038D01*
X-8704962Y-1877970D01*
X-8426199Y-1691707D01*
X-8116455Y-1563407D01*
X-7990772Y-1538407D01*
X-7787634Y-1498000D01*
X-7452366Y-1498000D01*
X-7249228Y-1538407D01*
G37*
G36*
X5466847Y-1516605D02*
G01*
X5576455Y-1538407D01*
X5886199Y-1666707D01*
X6164962Y-1852970D01*
X6402030Y-2090038D01*
X6588293Y-2368801D01*
X6716593Y-2678545D01*
X6716593Y-2678546D01*
X6782000Y-3007366D01*
X6782000Y-3342634D01*
X6777027Y-3367634D01*
X6716593Y-3671455D01*
X6588293Y-3981199D01*
X6402030Y-4259962D01*
X6164962Y-4497030D01*
X5886199Y-4683293D01*
X5576455Y-4811593D01*
X5466847Y-4833395D01*
X5247634Y-4877000D01*
X4912366Y-4877000D01*
X4693153Y-4833395D01*
X4583545Y-4811593D01*
X4273801Y-4683293D01*
X3995038Y-4497030D01*
X3757970Y-4259962D01*
X3571707Y-3981199D01*
X3443407Y-3671455D01*
X3382973Y-3367634D01*
X3378000Y-3342634D01*
X3378000Y-3007366D01*
X3443407Y-2678546D01*
X3443407Y-2678545D01*
X3571707Y-2368801D01*
X3757970Y-2090038D01*
X3995038Y-1852970D01*
X4273801Y-1666707D01*
X4583545Y-1538407D01*
X4693153Y-1516605D01*
X4912366Y-1473000D01*
X5247634Y-1473000D01*
X5466847Y-1516605D01*
G37*
M02*
