G04 #@! TF.GenerationSoftware,KiCad,Pcbnew,(5.1.5-0-10_14)*
G04 #@! TF.CreationDate,2021-12-03T13:10:08-07:00*
G04 #@! TF.ProjectId,UVhash_lower,55566861-7368-45f6-9c6f-7765722e6b69,rev?*
G04 #@! TF.SameCoordinates,Original*
G04 #@! TF.FileFunction,Legend,Bot*
G04 #@! TF.FilePolarity,Positive*
%FSLAX46Y46*%
G04 Gerber Fmt 4.6, Leading zero omitted, Abs format (unit mm)*
G04 Created by KiCad (PCBNEW (5.1.5-0-10_14)) date 2021-12-03 13:10:08*
%MOMM*%
%LPD*%
G04 APERTURE LIST*
%ADD10C,0.300000*%
%ADD11C,0.150000*%
G04 APERTURE END LIST*
D10*
X-10473571Y-38110000D02*
X-10473571Y-37538571D01*
X-11473571Y-37895714D02*
X-10187857Y-37895714D01*
X-10045000Y-37824285D01*
X-9973571Y-37681428D01*
X-9973571Y-37538571D01*
X-11402142Y-36467142D02*
X-11473571Y-36610000D01*
X-11473571Y-36895714D01*
X-11402142Y-37038571D01*
X-11259285Y-37110000D01*
X-10687857Y-37110000D01*
X-10545000Y-37038571D01*
X-10473571Y-36895714D01*
X-10473571Y-36610000D01*
X-10545000Y-36467142D01*
X-10687857Y-36395714D01*
X-10830714Y-36395714D01*
X-10973571Y-37110000D01*
X-11473571Y-35752857D02*
X-10473571Y-35752857D01*
X-10616428Y-35752857D02*
X-10545000Y-35681428D01*
X-10473571Y-35538571D01*
X-10473571Y-35324285D01*
X-10545000Y-35181428D01*
X-10687857Y-35110000D01*
X-11473571Y-35110000D01*
X-10687857Y-35110000D02*
X-10545000Y-35038571D01*
X-10473571Y-34895714D01*
X-10473571Y-34681428D01*
X-10545000Y-34538571D01*
X-10687857Y-34467142D01*
X-11473571Y-34467142D01*
X-11473571Y-33110000D02*
X-10687857Y-33110000D01*
X-10545000Y-33181428D01*
X-10473571Y-33324285D01*
X-10473571Y-33610000D01*
X-10545000Y-33752857D01*
X-11402142Y-33110000D02*
X-11473571Y-33252857D01*
X-11473571Y-33610000D01*
X-11402142Y-33752857D01*
X-11259285Y-33824285D01*
X-11116428Y-33824285D01*
X-10973571Y-33752857D01*
X-10902142Y-33610000D01*
X-10902142Y-33252857D01*
X-10830714Y-33110000D01*
X-11473571Y-32181428D02*
X-11402142Y-32324285D01*
X-11259285Y-32395714D01*
X-9973571Y-32395714D01*
X-11402142Y-31038571D02*
X-11473571Y-31181428D01*
X-11473571Y-31467142D01*
X-11402142Y-31609999D01*
X-11259285Y-31681428D01*
X-10687857Y-31681428D01*
X-10545000Y-31609999D01*
X-10473571Y-31467142D01*
X-10473571Y-31181428D01*
X-10545000Y-31038571D01*
X-10687857Y-30967142D01*
X-10830714Y-30967142D01*
X-10973571Y-31681428D01*
X-11402142Y-28538571D02*
X-11473571Y-28681428D01*
X-11473571Y-28967142D01*
X-11402142Y-29109999D01*
X-11330714Y-29181428D01*
X-11187857Y-29252857D01*
X-10759285Y-29252857D01*
X-10616428Y-29181428D01*
X-10545000Y-29109999D01*
X-10473571Y-28967142D01*
X-10473571Y-28681428D01*
X-10545000Y-28538571D01*
X-11473571Y-27681428D02*
X-11402142Y-27824285D01*
X-11330714Y-27895714D01*
X-11187857Y-27967142D01*
X-10759285Y-27967142D01*
X-10616428Y-27895714D01*
X-10545000Y-27824285D01*
X-10473571Y-27681428D01*
X-10473571Y-27467142D01*
X-10545000Y-27324285D01*
X-10616428Y-27252857D01*
X-10759285Y-27181428D01*
X-11187857Y-27181428D01*
X-11330714Y-27252857D01*
X-11402142Y-27324285D01*
X-11473571Y-27467142D01*
X-11473571Y-27681428D01*
X-10473571Y-26538571D02*
X-11473571Y-26538571D01*
X-10616428Y-26538571D02*
X-10545000Y-26467142D01*
X-10473571Y-26324285D01*
X-10473571Y-26109999D01*
X-10545000Y-25967142D01*
X-10687857Y-25895714D01*
X-11473571Y-25895714D01*
X-10473571Y-25181428D02*
X-11473571Y-25181428D01*
X-10616428Y-25181428D02*
X-10545000Y-25109999D01*
X-10473571Y-24967142D01*
X-10473571Y-24752857D01*
X-10545000Y-24609999D01*
X-10687857Y-24538571D01*
X-11473571Y-24538571D01*
X-11402142Y-23252857D02*
X-11473571Y-23395714D01*
X-11473571Y-23681428D01*
X-11402142Y-23824285D01*
X-11259285Y-23895714D01*
X-10687857Y-23895714D01*
X-10545000Y-23824285D01*
X-10473571Y-23681428D01*
X-10473571Y-23395714D01*
X-10545000Y-23252857D01*
X-10687857Y-23181428D01*
X-10830714Y-23181428D01*
X-10973571Y-23895714D01*
X-11402142Y-21895714D02*
X-11473571Y-22038571D01*
X-11473571Y-22324285D01*
X-11402142Y-22467142D01*
X-11330714Y-22538571D01*
X-11187857Y-22609999D01*
X-10759285Y-22609999D01*
X-10616428Y-22538571D01*
X-10545000Y-22467142D01*
X-10473571Y-22324285D01*
X-10473571Y-22038571D01*
X-10545000Y-21895714D01*
X-10473571Y-21467142D02*
X-10473571Y-20895714D01*
X-9973571Y-21252857D02*
X-11259285Y-21252857D01*
X-11402142Y-21181428D01*
X-11473571Y-21038571D01*
X-11473571Y-20895714D01*
X-11473571Y-20181428D02*
X-11402142Y-20324285D01*
X-11330714Y-20395714D01*
X-11187857Y-20467142D01*
X-10759285Y-20467142D01*
X-10616428Y-20395714D01*
X-10545000Y-20324285D01*
X-10473571Y-20181428D01*
X-10473571Y-19967142D01*
X-10545000Y-19824285D01*
X-10616428Y-19752857D01*
X-10759285Y-19681428D01*
X-11187857Y-19681428D01*
X-11330714Y-19752857D01*
X-11402142Y-19824285D01*
X-11473571Y-19967142D01*
X-11473571Y-20181428D01*
X-11473571Y-19038571D02*
X-10473571Y-19038571D01*
X-10759285Y-19038571D02*
X-10616428Y-18967142D01*
X-10545000Y-18895714D01*
X-10473571Y-18752857D01*
X-10473571Y-18609999D01*
X-10473571Y-17181428D02*
X-10473571Y-16609999D01*
X-9973571Y-16967142D02*
X-11259285Y-16967142D01*
X-11402142Y-16895714D01*
X-11473571Y-16752857D01*
X-11473571Y-16609999D01*
X-11473571Y-16109999D02*
X-9973571Y-16109999D01*
X-11473571Y-15467142D02*
X-10687857Y-15467142D01*
X-10545000Y-15538571D01*
X-10473571Y-15681428D01*
X-10473571Y-15895714D01*
X-10545000Y-16038571D01*
X-10616428Y-16109999D01*
X-11473571Y-14752857D02*
X-10473571Y-14752857D01*
X-9973571Y-14752857D02*
X-10045000Y-14824285D01*
X-10116428Y-14752857D01*
X-10045000Y-14681428D01*
X-9973571Y-14752857D01*
X-10116428Y-14752857D01*
X-11402142Y-14109999D02*
X-11473571Y-13967142D01*
X-11473571Y-13681428D01*
X-11402142Y-13538571D01*
X-11259285Y-13467142D01*
X-11187857Y-13467142D01*
X-11045000Y-13538571D01*
X-10973571Y-13681428D01*
X-10973571Y-13895714D01*
X-10902142Y-14038571D01*
X-10759285Y-14109999D01*
X-10687857Y-14109999D01*
X-10545000Y-14038571D01*
X-10473571Y-13895714D01*
X-10473571Y-13681428D01*
X-10545000Y-13538571D01*
X-11402142Y-11752857D02*
X-11473571Y-11609999D01*
X-11473571Y-11324285D01*
X-11402142Y-11181428D01*
X-11259285Y-11109999D01*
X-11187857Y-11109999D01*
X-11045000Y-11181428D01*
X-10973571Y-11324285D01*
X-10973571Y-11538571D01*
X-10902142Y-11681428D01*
X-10759285Y-11752857D01*
X-10687857Y-11752857D01*
X-10545000Y-11681428D01*
X-10473571Y-11538571D01*
X-10473571Y-11324285D01*
X-10545000Y-11181428D01*
X-11473571Y-10467142D02*
X-10473571Y-10467142D01*
X-9973571Y-10467142D02*
X-10045000Y-10538571D01*
X-10116428Y-10467142D01*
X-10045000Y-10395714D01*
X-9973571Y-10467142D01*
X-10116428Y-10467142D01*
X-11473571Y-9109999D02*
X-9973571Y-9109999D01*
X-11402142Y-9109999D02*
X-11473571Y-9252857D01*
X-11473571Y-9538571D01*
X-11402142Y-9681428D01*
X-11330714Y-9752857D01*
X-11187857Y-9824285D01*
X-10759285Y-9824285D01*
X-10616428Y-9752857D01*
X-10545000Y-9681428D01*
X-10473571Y-9538571D01*
X-10473571Y-9252857D01*
X-10545000Y-9109999D01*
X-11402142Y-7824285D02*
X-11473571Y-7967142D01*
X-11473571Y-8252857D01*
X-11402142Y-8395714D01*
X-11259285Y-8467142D01*
X-10687857Y-8467142D01*
X-10545000Y-8395714D01*
X-10473571Y-8252857D01*
X-10473571Y-7967142D01*
X-10545000Y-7824285D01*
X-10687857Y-7752857D01*
X-10830714Y-7752857D01*
X-10973571Y-8467142D01*
D11*
X24796447Y-36561590D02*
X24873857Y-36639000D01*
X25028676Y-36716409D01*
X25415723Y-36716409D01*
X25570542Y-36639000D01*
X25647952Y-36561590D01*
X25725361Y-36406771D01*
X25725361Y-36251952D01*
X25647952Y-36019723D01*
X24719038Y-35090809D01*
X25725361Y-35090809D01*
X27196142Y-36716409D02*
X26422047Y-36716409D01*
X26344638Y-35942314D01*
X26422047Y-36019723D01*
X26576866Y-36097133D01*
X26963914Y-36097133D01*
X27118733Y-36019723D01*
X27196142Y-35942314D01*
X27273552Y-35787495D01*
X27273552Y-35400447D01*
X27196142Y-35245628D01*
X27118733Y-35168219D01*
X26963914Y-35090809D01*
X26576866Y-35090809D01*
X26422047Y-35168219D01*
X26344638Y-35245628D01*
X24796447Y-33973190D02*
X24873857Y-34050600D01*
X25028676Y-34128009D01*
X25415723Y-34128009D01*
X25570542Y-34050600D01*
X25647952Y-33973190D01*
X25725361Y-33818371D01*
X25725361Y-33663552D01*
X25647952Y-33431323D01*
X24719038Y-32502409D01*
X25725361Y-32502409D01*
X27118733Y-33586142D02*
X27118733Y-32502409D01*
X26731685Y-34205419D02*
X26344638Y-33044276D01*
X27350961Y-33044276D01*
X24796447Y-31384790D02*
X24873857Y-31462200D01*
X25028676Y-31539609D01*
X25415723Y-31539609D01*
X25570542Y-31462200D01*
X25647952Y-31384790D01*
X25725361Y-31229971D01*
X25725361Y-31075152D01*
X25647952Y-30842923D01*
X24719038Y-29914009D01*
X25725361Y-29914009D01*
X26267228Y-31539609D02*
X27273552Y-31539609D01*
X26731685Y-30920333D01*
X26963914Y-30920333D01*
X27118733Y-30842923D01*
X27196142Y-30765514D01*
X27273552Y-30610695D01*
X27273552Y-30223647D01*
X27196142Y-30068828D01*
X27118733Y-29991419D01*
X26963914Y-29914009D01*
X26499457Y-29914009D01*
X26344638Y-29991419D01*
X26267228Y-30068828D01*
X24796447Y-28796390D02*
X24873857Y-28873800D01*
X25028676Y-28951209D01*
X25415723Y-28951209D01*
X25570542Y-28873800D01*
X25647952Y-28796390D01*
X25725361Y-28641571D01*
X25725361Y-28486752D01*
X25647952Y-28254523D01*
X24719038Y-27325609D01*
X25725361Y-27325609D01*
X26344638Y-28796390D02*
X26422047Y-28873800D01*
X26576866Y-28951209D01*
X26963914Y-28951209D01*
X27118733Y-28873800D01*
X27196142Y-28796390D01*
X27273552Y-28641571D01*
X27273552Y-28486752D01*
X27196142Y-28254523D01*
X26267228Y-27325609D01*
X27273552Y-27325609D01*
X24796447Y-26207990D02*
X24873857Y-26285400D01*
X25028676Y-26362809D01*
X25415723Y-26362809D01*
X25570542Y-26285400D01*
X25647952Y-26207990D01*
X25725361Y-26053171D01*
X25725361Y-25898352D01*
X25647952Y-25666123D01*
X24719038Y-24737209D01*
X25725361Y-24737209D01*
X27273552Y-24737209D02*
X26344638Y-24737209D01*
X26809095Y-24737209D02*
X26809095Y-26362809D01*
X26654276Y-26130580D01*
X26499457Y-25975761D01*
X26344638Y-25898352D01*
X24796447Y-23619590D02*
X24873857Y-23697000D01*
X25028676Y-23774409D01*
X25415723Y-23774409D01*
X25570542Y-23697000D01*
X25647952Y-23619590D01*
X25725361Y-23464771D01*
X25725361Y-23309952D01*
X25647952Y-23077723D01*
X24719038Y-22148809D01*
X25725361Y-22148809D01*
X26731685Y-23774409D02*
X26886504Y-23774409D01*
X27041323Y-23697000D01*
X27118733Y-23619590D01*
X27196142Y-23464771D01*
X27273552Y-23155133D01*
X27273552Y-22768085D01*
X27196142Y-22458447D01*
X27118733Y-22303628D01*
X27041323Y-22226219D01*
X26886504Y-22148809D01*
X26731685Y-22148809D01*
X26576866Y-22226219D01*
X26499457Y-22303628D01*
X26422047Y-22458447D01*
X26344638Y-22768085D01*
X26344638Y-23155133D01*
X26422047Y-23464771D01*
X26499457Y-23619590D01*
X26576866Y-23697000D01*
X26731685Y-23774409D01*
X25725361Y-19560409D02*
X24796447Y-19560409D01*
X25260904Y-19560409D02*
X25260904Y-21186009D01*
X25106085Y-20953780D01*
X24951266Y-20798961D01*
X24796447Y-20721552D01*
X26499457Y-19560409D02*
X26809095Y-19560409D01*
X26963914Y-19637819D01*
X27041323Y-19715228D01*
X27196142Y-19947457D01*
X27273552Y-20257095D01*
X27273552Y-20876371D01*
X27196142Y-21031190D01*
X27118733Y-21108600D01*
X26963914Y-21186009D01*
X26654276Y-21186009D01*
X26499457Y-21108600D01*
X26422047Y-21031190D01*
X26344638Y-20876371D01*
X26344638Y-20489323D01*
X26422047Y-20334504D01*
X26499457Y-20257095D01*
X26654276Y-20179685D01*
X26963914Y-20179685D01*
X27118733Y-20257095D01*
X27196142Y-20334504D01*
X27273552Y-20489323D01*
X25725361Y-16972009D02*
X24796447Y-16972009D01*
X25260904Y-16972009D02*
X25260904Y-18597609D01*
X25106085Y-18365380D01*
X24951266Y-18210561D01*
X24796447Y-18133152D01*
X26654276Y-17900923D02*
X26499457Y-17978333D01*
X26422047Y-18055742D01*
X26344638Y-18210561D01*
X26344638Y-18287971D01*
X26422047Y-18442790D01*
X26499457Y-18520200D01*
X26654276Y-18597609D01*
X26963914Y-18597609D01*
X27118733Y-18520200D01*
X27196142Y-18442790D01*
X27273552Y-18287971D01*
X27273552Y-18210561D01*
X27196142Y-18055742D01*
X27118733Y-17978333D01*
X26963914Y-17900923D01*
X26654276Y-17900923D01*
X26499457Y-17823514D01*
X26422047Y-17746104D01*
X26344638Y-17591285D01*
X26344638Y-17281647D01*
X26422047Y-17126828D01*
X26499457Y-17049419D01*
X26654276Y-16972009D01*
X26963914Y-16972009D01*
X27118733Y-17049419D01*
X27196142Y-17126828D01*
X27273552Y-17281647D01*
X27273552Y-17591285D01*
X27196142Y-17746104D01*
X27118733Y-17823514D01*
X26963914Y-17900923D01*
X25725361Y-14383609D02*
X24796447Y-14383609D01*
X25260904Y-14383609D02*
X25260904Y-16009209D01*
X25106085Y-15776980D01*
X24951266Y-15622161D01*
X24796447Y-15544752D01*
X26267228Y-16009209D02*
X27350961Y-16009209D01*
X26654276Y-14383609D01*
X25725361Y-11795209D02*
X24796447Y-11795209D01*
X25260904Y-11795209D02*
X25260904Y-13420809D01*
X25106085Y-13188580D01*
X24951266Y-13033761D01*
X24796447Y-12956352D01*
X27118733Y-13420809D02*
X26809095Y-13420809D01*
X26654276Y-13343400D01*
X26576866Y-13265990D01*
X26422047Y-13033761D01*
X26344638Y-12724123D01*
X26344638Y-12104847D01*
X26422047Y-11950028D01*
X26499457Y-11872619D01*
X26654276Y-11795209D01*
X26963914Y-11795209D01*
X27118733Y-11872619D01*
X27196142Y-11950028D01*
X27273552Y-12104847D01*
X27273552Y-12491895D01*
X27196142Y-12646714D01*
X27118733Y-12724123D01*
X26963914Y-12801533D01*
X26654276Y-12801533D01*
X26499457Y-12724123D01*
X26422047Y-12646714D01*
X26344638Y-12491895D01*
X25725361Y-9206809D02*
X24796447Y-9206809D01*
X25260904Y-9206809D02*
X25260904Y-10832409D01*
X25106085Y-10600180D01*
X24951266Y-10445361D01*
X24796447Y-10367952D01*
X27196142Y-10832409D02*
X26422047Y-10832409D01*
X26344638Y-10058314D01*
X26422047Y-10135723D01*
X26576866Y-10213133D01*
X26963914Y-10213133D01*
X27118733Y-10135723D01*
X27196142Y-10058314D01*
X27273552Y-9903495D01*
X27273552Y-9516447D01*
X27196142Y-9361628D01*
X27118733Y-9284219D01*
X26963914Y-9206809D01*
X26576866Y-9206809D01*
X26422047Y-9284219D01*
X26344638Y-9361628D01*
X25725361Y-6618409D02*
X24796447Y-6618409D01*
X25260904Y-6618409D02*
X25260904Y-8244009D01*
X25106085Y-8011780D01*
X24951266Y-7856961D01*
X24796447Y-7779552D01*
X27118733Y-7702142D02*
X27118733Y-6618409D01*
X26731685Y-8321419D02*
X26344638Y-7160276D01*
X27350961Y-7160276D01*
X32705523Y-35288869D02*
X31762095Y-35288869D01*
X32233809Y-35288869D02*
X32233809Y-36939869D01*
X32076571Y-36704011D01*
X31919333Y-36546773D01*
X31762095Y-36468154D01*
X33334476Y-36782630D02*
X33413095Y-36861250D01*
X33570333Y-36939869D01*
X33963428Y-36939869D01*
X34120666Y-36861250D01*
X34199285Y-36782630D01*
X34277904Y-36625392D01*
X34277904Y-36468154D01*
X34199285Y-36232297D01*
X33255857Y-35288869D01*
X34277904Y-35288869D01*
X32705523Y-32662369D02*
X31762095Y-32662369D01*
X32233809Y-32662369D02*
X32233809Y-34313369D01*
X32076571Y-34077511D01*
X31919333Y-33920273D01*
X31762095Y-33841654D01*
X34277904Y-32662369D02*
X33334476Y-32662369D01*
X33806190Y-32662369D02*
X33806190Y-34313369D01*
X33648952Y-34077511D01*
X33491714Y-33920273D01*
X33334476Y-33841654D01*
X32705523Y-30035869D02*
X31762095Y-30035869D01*
X32233809Y-30035869D02*
X32233809Y-31686869D01*
X32076571Y-31451011D01*
X31919333Y-31293773D01*
X31762095Y-31215154D01*
X33727571Y-31686869D02*
X33884809Y-31686869D01*
X34042047Y-31608250D01*
X34120666Y-31529630D01*
X34199285Y-31372392D01*
X34277904Y-31057916D01*
X34277904Y-30664821D01*
X34199285Y-30350345D01*
X34120666Y-30193107D01*
X34042047Y-30114488D01*
X33884809Y-30035869D01*
X33727571Y-30035869D01*
X33570333Y-30114488D01*
X33491714Y-30193107D01*
X33413095Y-30350345D01*
X33334476Y-30664821D01*
X33334476Y-31057916D01*
X33413095Y-31372392D01*
X33491714Y-31529630D01*
X33570333Y-31608250D01*
X33727571Y-31686869D01*
X32705523Y-27409369D02*
X33020000Y-27409369D01*
X33177238Y-27487988D01*
X33255857Y-27566607D01*
X33413095Y-27802464D01*
X33491714Y-28116940D01*
X33491714Y-28745892D01*
X33413095Y-28903130D01*
X33334476Y-28981750D01*
X33177238Y-29060369D01*
X32862761Y-29060369D01*
X32705523Y-28981750D01*
X32626904Y-28903130D01*
X32548285Y-28745892D01*
X32548285Y-28352797D01*
X32626904Y-28195559D01*
X32705523Y-28116940D01*
X32862761Y-28038321D01*
X33177238Y-28038321D01*
X33334476Y-28116940D01*
X33413095Y-28195559D01*
X33491714Y-28352797D01*
X32862761Y-25726297D02*
X32705523Y-25804916D01*
X32626904Y-25883535D01*
X32548285Y-26040773D01*
X32548285Y-26119392D01*
X32626904Y-26276630D01*
X32705523Y-26355250D01*
X32862761Y-26433869D01*
X33177238Y-26433869D01*
X33334476Y-26355250D01*
X33413095Y-26276630D01*
X33491714Y-26119392D01*
X33491714Y-26040773D01*
X33413095Y-25883535D01*
X33334476Y-25804916D01*
X33177238Y-25726297D01*
X32862761Y-25726297D01*
X32705523Y-25647678D01*
X32626904Y-25569059D01*
X32548285Y-25411821D01*
X32548285Y-25097345D01*
X32626904Y-24940107D01*
X32705523Y-24861488D01*
X32862761Y-24782869D01*
X33177238Y-24782869D01*
X33334476Y-24861488D01*
X33413095Y-24940107D01*
X33491714Y-25097345D01*
X33491714Y-25411821D01*
X33413095Y-25569059D01*
X33334476Y-25647678D01*
X33177238Y-25726297D01*
X32469666Y-23807369D02*
X33570333Y-23807369D01*
X32862761Y-22156369D01*
X33334476Y-21180869D02*
X33020000Y-21180869D01*
X32862761Y-21102250D01*
X32784142Y-21023630D01*
X32626904Y-20787773D01*
X32548285Y-20473297D01*
X32548285Y-19844345D01*
X32626904Y-19687107D01*
X32705523Y-19608488D01*
X32862761Y-19529869D01*
X33177238Y-19529869D01*
X33334476Y-19608488D01*
X33413095Y-19687107D01*
X33491714Y-19844345D01*
X33491714Y-20237440D01*
X33413095Y-20394678D01*
X33334476Y-20473297D01*
X33177238Y-20551916D01*
X32862761Y-20551916D01*
X32705523Y-20473297D01*
X32626904Y-20394678D01*
X32548285Y-20237440D01*
X33413095Y-18554369D02*
X32626904Y-18554369D01*
X32548285Y-17768178D01*
X32626904Y-17846797D01*
X32784142Y-17925416D01*
X33177238Y-17925416D01*
X33334476Y-17846797D01*
X33413095Y-17768178D01*
X33491714Y-17610940D01*
X33491714Y-17217845D01*
X33413095Y-17060607D01*
X33334476Y-16981988D01*
X33177238Y-16903369D01*
X32784142Y-16903369D01*
X32626904Y-16981988D01*
X32548285Y-17060607D01*
X33334476Y-15377535D02*
X33334476Y-14276869D01*
X32941380Y-16006488D02*
X32548285Y-14827202D01*
X33570333Y-14827202D01*
X32469666Y-13301369D02*
X33491714Y-13301369D01*
X32941380Y-12672416D01*
X33177238Y-12672416D01*
X33334476Y-12593797D01*
X33413095Y-12515178D01*
X33491714Y-12357940D01*
X33491714Y-11964845D01*
X33413095Y-11807607D01*
X33334476Y-11728988D01*
X33177238Y-11650369D01*
X32705523Y-11650369D01*
X32548285Y-11728988D01*
X32469666Y-11807607D01*
X32548285Y-10517630D02*
X32626904Y-10596250D01*
X32784142Y-10674869D01*
X33177238Y-10674869D01*
X33334476Y-10596250D01*
X33413095Y-10517630D01*
X33491714Y-10360392D01*
X33491714Y-10203154D01*
X33413095Y-9967297D01*
X32469666Y-9023869D01*
X33491714Y-9023869D01*
X33491714Y-6397369D02*
X32548285Y-6397369D01*
X33020000Y-6397369D02*
X33020000Y-8048369D01*
X32862761Y-7812511D01*
X32705523Y-7655273D01*
X32548285Y-7576654D01*
D10*
X2226428Y-38110000D02*
X2226428Y-37538571D01*
X1226428Y-37895714D02*
X2512142Y-37895714D01*
X2655000Y-37824285D01*
X2726428Y-37681428D01*
X2726428Y-37538571D01*
X1297857Y-36467142D02*
X1226428Y-36610000D01*
X1226428Y-36895714D01*
X1297857Y-37038571D01*
X1440714Y-37110000D01*
X2012142Y-37110000D01*
X2155000Y-37038571D01*
X2226428Y-36895714D01*
X2226428Y-36610000D01*
X2155000Y-36467142D01*
X2012142Y-36395714D01*
X1869285Y-36395714D01*
X1726428Y-37110000D01*
X1226428Y-35752857D02*
X2226428Y-35752857D01*
X2083571Y-35752857D02*
X2155000Y-35681428D01*
X2226428Y-35538571D01*
X2226428Y-35324285D01*
X2155000Y-35181428D01*
X2012142Y-35110000D01*
X1226428Y-35110000D01*
X2012142Y-35110000D02*
X2155000Y-35038571D01*
X2226428Y-34895714D01*
X2226428Y-34681428D01*
X2155000Y-34538571D01*
X2012142Y-34467142D01*
X1226428Y-34467142D01*
X1226428Y-33110000D02*
X2012142Y-33110000D01*
X2155000Y-33181428D01*
X2226428Y-33324285D01*
X2226428Y-33610000D01*
X2155000Y-33752857D01*
X1297857Y-33110000D02*
X1226428Y-33252857D01*
X1226428Y-33610000D01*
X1297857Y-33752857D01*
X1440714Y-33824285D01*
X1583571Y-33824285D01*
X1726428Y-33752857D01*
X1797857Y-33610000D01*
X1797857Y-33252857D01*
X1869285Y-33110000D01*
X1226428Y-32181428D02*
X1297857Y-32324285D01*
X1440714Y-32395714D01*
X2726428Y-32395714D01*
X1297857Y-31038571D02*
X1226428Y-31181428D01*
X1226428Y-31467142D01*
X1297857Y-31609999D01*
X1440714Y-31681428D01*
X2012142Y-31681428D01*
X2155000Y-31609999D01*
X2226428Y-31467142D01*
X2226428Y-31181428D01*
X2155000Y-31038571D01*
X2012142Y-30967142D01*
X1869285Y-30967142D01*
X1726428Y-31681428D01*
X1297857Y-28538571D02*
X1226428Y-28681428D01*
X1226428Y-28967142D01*
X1297857Y-29109999D01*
X1369285Y-29181428D01*
X1512142Y-29252857D01*
X1940714Y-29252857D01*
X2083571Y-29181428D01*
X2155000Y-29109999D01*
X2226428Y-28967142D01*
X2226428Y-28681428D01*
X2155000Y-28538571D01*
X1226428Y-27681428D02*
X1297857Y-27824285D01*
X1369285Y-27895714D01*
X1512142Y-27967142D01*
X1940714Y-27967142D01*
X2083571Y-27895714D01*
X2155000Y-27824285D01*
X2226428Y-27681428D01*
X2226428Y-27467142D01*
X2155000Y-27324285D01*
X2083571Y-27252857D01*
X1940714Y-27181428D01*
X1512142Y-27181428D01*
X1369285Y-27252857D01*
X1297857Y-27324285D01*
X1226428Y-27467142D01*
X1226428Y-27681428D01*
X2226428Y-26538571D02*
X1226428Y-26538571D01*
X2083571Y-26538571D02*
X2155000Y-26467142D01*
X2226428Y-26324285D01*
X2226428Y-26109999D01*
X2155000Y-25967142D01*
X2012142Y-25895714D01*
X1226428Y-25895714D01*
X2226428Y-25181428D02*
X1226428Y-25181428D01*
X2083571Y-25181428D02*
X2155000Y-25109999D01*
X2226428Y-24967142D01*
X2226428Y-24752857D01*
X2155000Y-24609999D01*
X2012142Y-24538571D01*
X1226428Y-24538571D01*
X1297857Y-23252857D02*
X1226428Y-23395714D01*
X1226428Y-23681428D01*
X1297857Y-23824285D01*
X1440714Y-23895714D01*
X2012142Y-23895714D01*
X2155000Y-23824285D01*
X2226428Y-23681428D01*
X2226428Y-23395714D01*
X2155000Y-23252857D01*
X2012142Y-23181428D01*
X1869285Y-23181428D01*
X1726428Y-23895714D01*
X1297857Y-21895714D02*
X1226428Y-22038571D01*
X1226428Y-22324285D01*
X1297857Y-22467142D01*
X1369285Y-22538571D01*
X1512142Y-22609999D01*
X1940714Y-22609999D01*
X2083571Y-22538571D01*
X2155000Y-22467142D01*
X2226428Y-22324285D01*
X2226428Y-22038571D01*
X2155000Y-21895714D01*
X2226428Y-21467142D02*
X2226428Y-20895714D01*
X2726428Y-21252857D02*
X1440714Y-21252857D01*
X1297857Y-21181428D01*
X1226428Y-21038571D01*
X1226428Y-20895714D01*
X1226428Y-20181428D02*
X1297857Y-20324285D01*
X1369285Y-20395714D01*
X1512142Y-20467142D01*
X1940714Y-20467142D01*
X2083571Y-20395714D01*
X2155000Y-20324285D01*
X2226428Y-20181428D01*
X2226428Y-19967142D01*
X2155000Y-19824285D01*
X2083571Y-19752857D01*
X1940714Y-19681428D01*
X1512142Y-19681428D01*
X1369285Y-19752857D01*
X1297857Y-19824285D01*
X1226428Y-19967142D01*
X1226428Y-20181428D01*
X1226428Y-19038571D02*
X2226428Y-19038571D01*
X1940714Y-19038571D02*
X2083571Y-18967142D01*
X2155000Y-18895714D01*
X2226428Y-18752857D01*
X2226428Y-18609999D01*
X2226428Y-17181428D02*
X2226428Y-16609999D01*
X2726428Y-16967142D02*
X1440714Y-16967142D01*
X1297857Y-16895714D01*
X1226428Y-16752857D01*
X1226428Y-16609999D01*
X1226428Y-16109999D02*
X2726428Y-16109999D01*
X1226428Y-15467142D02*
X2012142Y-15467142D01*
X2154999Y-15538571D01*
X2226428Y-15681428D01*
X2226428Y-15895714D01*
X2154999Y-16038571D01*
X2083571Y-16109999D01*
X1226428Y-14752857D02*
X2226428Y-14752857D01*
X2726428Y-14752857D02*
X2654999Y-14824285D01*
X2583571Y-14752857D01*
X2654999Y-14681428D01*
X2726428Y-14752857D01*
X2583571Y-14752857D01*
X1297857Y-14109999D02*
X1226428Y-13967142D01*
X1226428Y-13681428D01*
X1297857Y-13538571D01*
X1440714Y-13467142D01*
X1512142Y-13467142D01*
X1654999Y-13538571D01*
X1726428Y-13681428D01*
X1726428Y-13895714D01*
X1797857Y-14038571D01*
X1940714Y-14109999D01*
X2012142Y-14109999D01*
X2154999Y-14038571D01*
X2226428Y-13895714D01*
X2226428Y-13681428D01*
X2154999Y-13538571D01*
X1297857Y-11752857D02*
X1226428Y-11609999D01*
X1226428Y-11324285D01*
X1297857Y-11181428D01*
X1440714Y-11109999D01*
X1512142Y-11109999D01*
X1654999Y-11181428D01*
X1726428Y-11324285D01*
X1726428Y-11538571D01*
X1797857Y-11681428D01*
X1940714Y-11752857D01*
X2012142Y-11752857D01*
X2154999Y-11681428D01*
X2226428Y-11538571D01*
X2226428Y-11324285D01*
X2154999Y-11181428D01*
X1226428Y-10467142D02*
X2226428Y-10467142D01*
X2726428Y-10467142D02*
X2654999Y-10538571D01*
X2583571Y-10467142D01*
X2654999Y-10395714D01*
X2726428Y-10467142D01*
X2583571Y-10467142D01*
X1226428Y-9109999D02*
X2726428Y-9109999D01*
X1297857Y-9109999D02*
X1226428Y-9252857D01*
X1226428Y-9538571D01*
X1297857Y-9681428D01*
X1369285Y-9752857D01*
X1512142Y-9824285D01*
X1940714Y-9824285D01*
X2083571Y-9752857D01*
X2154999Y-9681428D01*
X2226428Y-9538571D01*
X2226428Y-9252857D01*
X2154999Y-9109999D01*
X1297857Y-7824285D02*
X1226428Y-7967142D01*
X1226428Y-8252857D01*
X1297857Y-8395714D01*
X1440714Y-8467142D01*
X2012142Y-8467142D01*
X2154999Y-8395714D01*
X2226428Y-8252857D01*
X2226428Y-7967142D01*
X2154999Y-7824285D01*
X2012142Y-7752857D01*
X1869285Y-7752857D01*
X1726428Y-8467142D01*
M02*
