G04 #@! TF.GenerationSoftware,KiCad,Pcbnew,(5.1.5-0-10_14)*
G04 #@! TF.CreationDate,2021-12-03T13:10:08-07:00*
G04 #@! TF.ProjectId,UVhash_lower,55566861-7368-45f6-9c6f-7765722e6b69,rev?*
G04 #@! TF.SameCoordinates,Original*
G04 #@! TF.FileFunction,Copper,L4,Bot*
G04 #@! TF.FilePolarity,Positive*
%FSLAX46Y46*%
G04 Gerber Fmt 4.6, Leading zero omitted, Abs format (unit mm)*
G04 Created by KiCad (PCBNEW (5.1.5-0-10_14)) date 2021-12-03 13:10:08*
%MOMM*%
%LPD*%
G04 APERTURE LIST*
%ADD10C,1.778000*%
%ADD11R,1.778000X1.778000*%
%ADD12C,3.302000*%
%ADD13R,1.700000X1.700000*%
%ADD14O,1.700000X1.700000*%
%ADD15C,0.599440*%
%ADD16C,0.600000*%
%ADD17C,6.350000*%
%ADD18C,0.254000*%
G04 APERTURE END LIST*
D10*
X-6350000Y-22250000D03*
X-6350000Y-24790000D03*
X-6350000Y-27330000D03*
X-6350000Y-29870000D03*
X-6350000Y-32410000D03*
X-6350000Y-34950000D03*
X-6350000Y-37490000D03*
X-6350000Y-19710000D03*
X-6350000Y-17170000D03*
X-6350000Y-14630000D03*
X-6350000Y-12090000D03*
X-6350000Y-9550000D03*
D11*
X-6350000Y-7010000D03*
D10*
X-8890000Y-23520000D03*
X-8890000Y-26060000D03*
X-8890000Y-28600000D03*
X-8890000Y-31140000D03*
X-8890000Y-33680000D03*
X-8890000Y-36220000D03*
X-8890000Y-20980000D03*
X-8890000Y-18440000D03*
X-8890000Y-15900000D03*
X-8890000Y-13360000D03*
X-8890000Y-10820000D03*
X-8890000Y-8280000D03*
D12*
X-7620000Y-41300000D03*
X-7620000Y-3200000D03*
D10*
X6350000Y-22225000D03*
X6350000Y-24765000D03*
X6350000Y-27305000D03*
X6350000Y-29845000D03*
X6350000Y-32385000D03*
X6350000Y-34925000D03*
X6350000Y-37465000D03*
X6350000Y-19685000D03*
X6350000Y-17145000D03*
X6350000Y-14605000D03*
X6350000Y-12065000D03*
X6350000Y-9525000D03*
D11*
X6350000Y-6985000D03*
D10*
X3810000Y-23495000D03*
X3810000Y-26035000D03*
X3810000Y-28575000D03*
X3810000Y-31115000D03*
X3810000Y-33655000D03*
X3810000Y-36195000D03*
X3810000Y-20955000D03*
X3810000Y-18415000D03*
X3810000Y-15875000D03*
X3810000Y-13335000D03*
X3810000Y-10795000D03*
X3810000Y-8255000D03*
D12*
X5080000Y-41275000D03*
X5080000Y-3175000D03*
D13*
X31115000Y-7620000D03*
D14*
X28575000Y-7620000D03*
X31115000Y-10160000D03*
X28575000Y-10160000D03*
X31115000Y-12700000D03*
X28575000Y-12700000D03*
X31115000Y-15240000D03*
X28575000Y-15240000D03*
X31115000Y-17780000D03*
X28575000Y-17780000D03*
X31115000Y-20320000D03*
X28575000Y-20320000D03*
X31115000Y-22860000D03*
X28575000Y-22860000D03*
X31115000Y-25400000D03*
X28575000Y-25400000D03*
X31115000Y-27940000D03*
X28575000Y-27940000D03*
X31115000Y-30480000D03*
X28575000Y-30480000D03*
X31115000Y-33020000D03*
X28575000Y-33020000D03*
X31115000Y-35560000D03*
X28575000Y-35560000D03*
D15*
X2286000Y-6731000D03*
X-4232910Y-29175000D03*
X-3174365Y-29175000D03*
X-2115821Y-29175000D03*
X-1057276Y-29175000D03*
X1268Y-29175000D03*
X1059813Y-29175000D03*
X2118358Y-29175000D03*
X1059813Y-27975000D03*
X1268Y-27975000D03*
X-1057276Y-27975000D03*
X-2115821Y-27975000D03*
X-3174365Y-27975000D03*
X-4232910Y-27975000D03*
X-4232910Y-31715000D03*
X-3174365Y-31715000D03*
X-2115821Y-31715000D03*
X-1057276Y-31715000D03*
X1268Y-31715000D03*
X1059813Y-31715000D03*
X2118358Y-31715000D03*
X1059813Y-30515000D03*
X1268Y-30515000D03*
X-1057276Y-30515000D03*
X-2115821Y-30515000D03*
X-3174365Y-30515000D03*
X-4232910Y-30515000D03*
X-4232910Y-34255000D03*
X-3174365Y-34255000D03*
X-2115821Y-34255000D03*
X-1057276Y-34255000D03*
X1268Y-34255000D03*
X1059813Y-34255000D03*
X2118358Y-34255000D03*
X1059813Y-33055000D03*
X1268Y-33055000D03*
X-1057276Y-33055000D03*
X-2115821Y-33055000D03*
X-3174365Y-33055000D03*
X-4232910Y-33055000D03*
X-4232910Y-36795000D03*
X-3174365Y-36795000D03*
X-2115821Y-36795000D03*
X-1057276Y-36795000D03*
X1268Y-36795000D03*
X1059813Y-36795000D03*
X2118358Y-36795000D03*
X1059813Y-35595000D03*
X1268Y-35595000D03*
X-1057276Y-35595000D03*
X-2115821Y-35595000D03*
X-3174365Y-35595000D03*
X-4232910Y-35595000D03*
X-4233333Y-39462000D03*
X-3175000Y-39462000D03*
X-2116666Y-39462000D03*
X-1058333Y-39462000D03*
X0Y-39462000D03*
X1058333Y-39462000D03*
X2116666Y-39462000D03*
X3175000Y-39462000D03*
X4233333Y-39462000D03*
X5291666Y-39462000D03*
X4233333Y-38262000D03*
X3175000Y-38262000D03*
X2116666Y-38262000D03*
X1058333Y-38262000D03*
X0Y-38262000D03*
X-1058333Y-38262000D03*
X-2116666Y-38262000D03*
X-3175000Y-38262000D03*
X-4233333Y-38262000D03*
X-4232910Y-24095000D03*
X-3174365Y-24095000D03*
X-2115821Y-24095000D03*
X-1057276Y-24095000D03*
X1268Y-24095000D03*
X1059813Y-24095000D03*
X2118358Y-24095000D03*
X1059813Y-22895000D03*
X1268Y-22895000D03*
X-1057276Y-22895000D03*
X-2115821Y-22895000D03*
X-3174365Y-22895000D03*
X-4232910Y-22895000D03*
X-4232910Y-26635000D03*
X-3174365Y-26635000D03*
X-2115821Y-26635000D03*
X-1057276Y-26635000D03*
X1268Y-26635000D03*
X1059813Y-26635000D03*
X2118358Y-26635000D03*
X1059813Y-25435000D03*
X1268Y-25435000D03*
X-1057276Y-25435000D03*
X-2115821Y-25435000D03*
X-3174365Y-25435000D03*
X-4232910Y-25435000D03*
X-4232910Y-21555000D03*
X-3174365Y-21555000D03*
X-2115821Y-21555000D03*
X-1057276Y-21555000D03*
X1268Y-21555000D03*
X1059813Y-21555000D03*
X2118358Y-21555000D03*
X1059813Y-20355000D03*
X1268Y-20355000D03*
X-1057276Y-20355000D03*
X-2115821Y-20355000D03*
X-3174365Y-20355000D03*
X-4232910Y-20355000D03*
X-4222750Y-19015000D03*
X-3159125Y-19015000D03*
X-2095500Y-19015000D03*
X-1031875Y-19015000D03*
X31750Y-19015000D03*
X1095375Y-19015000D03*
X2159000Y-19015000D03*
X1095375Y-17815000D03*
X31750Y-17815000D03*
X-1031875Y-17815000D03*
X-2095500Y-17815000D03*
X-3159125Y-17815000D03*
X-4222750Y-17815000D03*
X-4232910Y-16475000D03*
X-3174365Y-16475000D03*
X-2115821Y-16475000D03*
X-1057276Y-16475000D03*
X1268Y-16475000D03*
X1059813Y-16475000D03*
X2118358Y-16475000D03*
X1059813Y-15275000D03*
X1268Y-15275000D03*
X-1057276Y-15275000D03*
X-2115821Y-15275000D03*
X-3174365Y-15275000D03*
X-4232910Y-15275000D03*
X-4232910Y-13935000D03*
X-3174365Y-13935000D03*
X-2115821Y-13935000D03*
X-1057276Y-13935000D03*
X1268Y-13935000D03*
X1059813Y-13935000D03*
X2118358Y-13935000D03*
X1059813Y-12735000D03*
X1268Y-12735000D03*
X-1057276Y-12735000D03*
X-2115821Y-12735000D03*
X-3174365Y-12735000D03*
X-4232910Y-12735000D03*
X2032000Y-12319000D03*
X-4704806Y-11395000D03*
X-3567612Y-11395000D03*
X-2430418Y-11395000D03*
X-1293224Y-11395000D03*
X-156030Y-11395000D03*
X981164Y-11395000D03*
X2118358Y-11395000D03*
X981164Y-10195000D03*
X-156030Y-10195000D03*
X-1293224Y-10195000D03*
X-2430418Y-10195000D03*
X-3567612Y-10195000D03*
X-4704806Y-10195000D03*
X-4620319Y-8855000D03*
X-3525639Y-8855000D03*
X-2430959Y-8855000D03*
X-1336279Y-8855000D03*
X-241599Y-8855000D03*
X853080Y-8855000D03*
X1947760Y-8855000D03*
X4344033Y-6385000D03*
X786282Y-7655000D03*
X-297264Y-7655000D03*
X-1380811Y-7655000D03*
X-2464358Y-7655000D03*
X-3547905Y-7655000D03*
X-4631452Y-7655000D03*
X3341099Y-6096000D03*
X1869830Y-7655000D03*
X-10371666Y-43780000D03*
X-9313333Y-43780000D03*
X-8255000Y-43780000D03*
X-7196666Y-43780000D03*
X-6138333Y-43780000D03*
X-5080000Y-43780000D03*
X-4021666Y-43780000D03*
X-2963333Y-43780000D03*
X-1905000Y-43780000D03*
X-846666Y-43780000D03*
X211666Y-43780000D03*
X-11430000Y-43780000D03*
D16*
X-12030000Y-799523D03*
D15*
X-11176000Y-635000D03*
X230909Y-670000D03*
X-808181Y-670000D03*
X-1847272Y-670000D03*
X-2886363Y-670000D03*
X-3925454Y-670000D03*
X-4964545Y-670000D03*
X-6003636Y-670000D03*
X-7042727Y-670000D03*
X-8081818Y-670000D03*
X-9120909Y-670000D03*
X-10160000Y-670000D03*
X26670000Y-34798000D03*
X8255930Y-35772597D03*
X9102597Y-34925930D03*
X8254069Y-34077402D03*
D16*
X2802999Y-670000D03*
X1795999Y-670000D03*
X-12030000Y-1815523D03*
X-12030000Y-2822523D03*
X-12030000Y-3829524D03*
X-12030000Y-4836524D03*
X-12030000Y-5843525D03*
X-12030000Y-6850525D03*
X-12030000Y-7857525D03*
X-12030000Y-8864526D03*
X-12030000Y-9871526D03*
X-12030000Y-10878527D03*
X-12030000Y-11885527D03*
X-12030000Y-12892527D03*
X-12030000Y-13899528D03*
X-12030000Y-14906528D03*
X-12030000Y-15913529D03*
X-12030000Y-16920529D03*
X-12030000Y-17927529D03*
X-12030000Y-18934530D03*
X-12030000Y-19941530D03*
X-12030000Y-20948531D03*
X-12030000Y-21955531D03*
X-12030000Y-22962532D03*
X-12030000Y-23969532D03*
X-12030000Y-24976532D03*
X-12030000Y-25983533D03*
X-12030000Y-26990533D03*
X-12030000Y-27997534D03*
X-12030000Y-29004534D03*
X-12030000Y-30011534D03*
X-12030000Y-31018535D03*
X-12030000Y-32025535D03*
X-12030000Y-33032536D03*
X-12030000Y-34039536D03*
X-12030000Y-35046536D03*
X-12030000Y-36053537D03*
X-12030000Y-37060537D03*
X-12030000Y-38067538D03*
X-12030000Y-39074538D03*
X-12030000Y-40081538D03*
X-12030000Y-41088539D03*
X-12030000Y-42095539D03*
X-12030000Y-43102540D03*
X1257063Y-43779860D03*
X2264062Y-43780000D03*
X3271063Y-43780000D03*
X4278063Y-43780000D03*
X5285064Y-43780000D03*
X6292064Y-43780000D03*
X7299064Y-43780000D03*
X8306065Y-43780000D03*
X9313065Y-43780000D03*
X10320066Y-43780000D03*
X11327066Y-43780000D03*
X12334066Y-43780000D03*
X13341067Y-43780000D03*
X14348067Y-43780000D03*
X15355068Y-43780000D03*
X16362068Y-43780000D03*
X17369068Y-43780000D03*
X18376069Y-43780000D03*
X19383069Y-43780000D03*
X20390070Y-43780000D03*
X21397070Y-43780000D03*
X22404070Y-43780000D03*
X23411071Y-43780000D03*
X24418071Y-43780000D03*
X25425072Y-43780000D03*
X26432072Y-43780000D03*
X27439072Y-43780000D03*
X28446073Y-43780000D03*
X29453073Y-43780000D03*
X30460074Y-43780000D03*
X31467074Y-43780000D03*
X32474074Y-43780000D03*
X33437016Y-43611389D03*
X33620000Y-42654402D03*
X33620000Y-41647401D03*
X33620000Y-40640401D03*
X33620000Y-39633401D03*
X33620000Y-38626400D03*
X33620000Y-37619400D03*
X33620000Y-36612399D03*
X33620000Y-35605399D03*
X33620000Y-34598399D03*
X33620000Y-33591398D03*
X33620000Y-32584398D03*
X33620000Y-31577397D03*
X33620000Y-30570397D03*
X33620000Y-29563397D03*
X33620000Y-28556396D03*
X33620000Y-27549396D03*
X33620000Y-26542395D03*
X33620000Y-25535395D03*
X33620000Y-24528395D03*
X33620000Y-23521394D03*
X33620000Y-22514394D03*
X33620000Y-21507393D03*
X33620000Y-20500393D03*
X33620000Y-19493392D03*
X33620000Y-18486392D03*
X33620000Y-17479392D03*
X33620000Y-16472391D03*
X33620000Y-15465391D03*
X33620000Y-14458390D03*
X33620000Y-13451390D03*
X33620000Y-12444390D03*
X33620000Y-11437389D03*
X33620000Y-10430389D03*
X33620000Y-9423388D03*
X33620000Y-8416388D03*
X33620000Y-7409388D03*
X33620000Y-6402387D03*
X33620000Y-5395387D03*
X33620000Y-4388386D03*
X33620000Y-3381386D03*
X33620000Y-2374386D03*
X33620000Y-1367385D03*
X32016837Y-670000D03*
X30980805Y-670000D03*
X29944772Y-670000D03*
X28908740Y-670000D03*
X27872708Y-670000D03*
X26836676Y-670000D03*
X25800644Y-670000D03*
X24764611Y-670000D03*
X23728579Y-670000D03*
X22692547Y-670000D03*
X21656515Y-670000D03*
X20620483Y-670000D03*
X19584450Y-670000D03*
X18548418Y-670000D03*
X17512386Y-670000D03*
X16476354Y-670000D03*
X15440322Y-670000D03*
X14404289Y-670000D03*
X13368257Y-670000D03*
X12332225Y-670000D03*
X11296193Y-670000D03*
X10260161Y-670000D03*
X9224128Y-670000D03*
X8188096Y-670000D03*
X7152064Y-670000D03*
X6116032Y-670000D03*
X3810000Y-670000D03*
X33052847Y-670900D03*
X5080000Y-670000D03*
X9271000Y-15205000D03*
X10287000Y-15205000D03*
X11303000Y-15205000D03*
X12319000Y-15205000D03*
X13335000Y-15205000D03*
X14351000Y-15205000D03*
X15367000Y-15205000D03*
X16383000Y-15205000D03*
X17399000Y-15205000D03*
X18415000Y-15205000D03*
X19431000Y-15205000D03*
X20447000Y-15205000D03*
X21463000Y-15205000D03*
X22479000Y-15205000D03*
X23495000Y-15205000D03*
X24511000Y-15205000D03*
X25527000Y-15205000D03*
X26543000Y-15205000D03*
X9068309Y-17745000D03*
X10094977Y-17745000D03*
X11121645Y-17745000D03*
X12148313Y-17745000D03*
X13174981Y-17745000D03*
X14201649Y-17745000D03*
X15228317Y-17745000D03*
X16254985Y-17745000D03*
X17281653Y-17745000D03*
X18308321Y-17745000D03*
X19334988Y-17745000D03*
X20361656Y-17745000D03*
X21388324Y-17745000D03*
X22414992Y-17745000D03*
X23441660Y-17745000D03*
X24468328Y-17745000D03*
X25494996Y-17745000D03*
X26521664Y-17745000D03*
X26521664Y-16545000D03*
X25494996Y-16545000D03*
X24468328Y-16545000D03*
X23441660Y-16545000D03*
X22414992Y-16545000D03*
X21388324Y-16545000D03*
X20361656Y-16545000D03*
X19334988Y-16545000D03*
X18308321Y-16545000D03*
X17281653Y-16545000D03*
X16254985Y-16545000D03*
X15228317Y-16545000D03*
X14201649Y-16545000D03*
X13174981Y-16545000D03*
X12148313Y-16545000D03*
X11121645Y-16545000D03*
X10094977Y-16545000D03*
X9068309Y-16545000D03*
X8041642Y-16545000D03*
X9029700Y-20285000D03*
X10058400Y-20285000D03*
X11087100Y-20285000D03*
X12115800Y-20285000D03*
X13144500Y-20285000D03*
X14173200Y-20285000D03*
X15201900Y-20285000D03*
X16230600Y-20285000D03*
X17259300Y-20285000D03*
X18288000Y-20285000D03*
X19316700Y-20285000D03*
X20345400Y-20285000D03*
X21374100Y-20285000D03*
X22402800Y-20285000D03*
X23431500Y-20285000D03*
X24460200Y-20285000D03*
X25488900Y-20285000D03*
X26517600Y-20285000D03*
X26517600Y-19085000D03*
X25488900Y-19085000D03*
X24460200Y-19085000D03*
X23431500Y-19085000D03*
X22402800Y-19085000D03*
X21374100Y-19085000D03*
X20345400Y-19085000D03*
X19316700Y-19085000D03*
X18288000Y-19085000D03*
X17259300Y-19085000D03*
X16230600Y-19085000D03*
X15201900Y-19085000D03*
X14173200Y-19085000D03*
X13144500Y-19085000D03*
X12115800Y-19085000D03*
X11087100Y-19085000D03*
X10058400Y-19085000D03*
X9029700Y-19085000D03*
X8001000Y-19085000D03*
X9068309Y-22825000D03*
X10094977Y-22825000D03*
X11121645Y-22825000D03*
X12148313Y-22825000D03*
X13174981Y-22825000D03*
X14201649Y-22825000D03*
X15228317Y-22825000D03*
X16254985Y-22825000D03*
X17281653Y-22860000D03*
X18308321Y-22825000D03*
X19334988Y-22825000D03*
X20361656Y-22825000D03*
X21388324Y-22825000D03*
X22414992Y-22825000D03*
X23441660Y-22825000D03*
X24468328Y-22825000D03*
X25494996Y-22825000D03*
X26521664Y-22825000D03*
X26521664Y-21625000D03*
X25494996Y-21625000D03*
X24468328Y-21625000D03*
X23441660Y-21625000D03*
X22414992Y-21625000D03*
X21388324Y-21625000D03*
X20361656Y-21625000D03*
X19334988Y-21625000D03*
X18308321Y-21625000D03*
X17281653Y-21625000D03*
X16254985Y-21625000D03*
X15228317Y-21625000D03*
X14201649Y-21625000D03*
X13174981Y-21625000D03*
X12148313Y-21625000D03*
X11121645Y-21625000D03*
X10094977Y-21625000D03*
X9068309Y-21625000D03*
X8041642Y-21625000D03*
X9068309Y-25365000D03*
X10094977Y-25365000D03*
X11121645Y-25365000D03*
X12148313Y-25365000D03*
X13174981Y-25365000D03*
X14201649Y-25365000D03*
X15228317Y-25365000D03*
X16254985Y-25365000D03*
X17281653Y-25365000D03*
X18308321Y-25365000D03*
X19334988Y-25365000D03*
X20361656Y-25365000D03*
X21388324Y-25365000D03*
X22414992Y-25365000D03*
X23441660Y-25365000D03*
X24468328Y-25365000D03*
X25494996Y-25365000D03*
X26521664Y-25365000D03*
X26521664Y-24165000D03*
X25494996Y-24165000D03*
X24468328Y-24165000D03*
X23441660Y-24165000D03*
X22414992Y-24165000D03*
X21388324Y-24165000D03*
X20361656Y-24165000D03*
X19334988Y-24165000D03*
X18308321Y-24165000D03*
X17281653Y-24165000D03*
X16254985Y-24165000D03*
X15228317Y-24165000D03*
X14201649Y-24165000D03*
X13174981Y-24165000D03*
X12148313Y-24165000D03*
X11121645Y-24165000D03*
X10094977Y-24165000D03*
X9068309Y-24165000D03*
X8041642Y-24165000D03*
X25239578Y-30515000D03*
X24190157Y-30515000D03*
X23140736Y-30515000D03*
X22091315Y-30515000D03*
X21041894Y-30515000D03*
X19992473Y-30515000D03*
X18943052Y-30515000D03*
X17893631Y-30515000D03*
X16844210Y-30515000D03*
X15794789Y-30515000D03*
X14745368Y-30515000D03*
X13695947Y-30515000D03*
X12646526Y-30515000D03*
X11597105Y-30515000D03*
X10547684Y-30515000D03*
X9498263Y-30515000D03*
X8448842Y-30515000D03*
X8420100Y-27905000D03*
X9455150Y-27905000D03*
X10490200Y-27905000D03*
X11525250Y-27905000D03*
X12560300Y-27905000D03*
X13595350Y-27905000D03*
X14630400Y-27905000D03*
X15665450Y-27905000D03*
X16700500Y-27905000D03*
X17735550Y-27905000D03*
X18770600Y-27905000D03*
X19805650Y-27905000D03*
X20840700Y-27905000D03*
X21875750Y-27905000D03*
X22910800Y-27905000D03*
X23945850Y-27905000D03*
X24980900Y-27905000D03*
X26015950Y-27905000D03*
X27051000Y-27905000D03*
X26015950Y-26705000D03*
X24980900Y-26705000D03*
X23945850Y-26705000D03*
X22910800Y-26705000D03*
X21875750Y-26705000D03*
X20840700Y-26705000D03*
X19805650Y-26705000D03*
X18770600Y-26705000D03*
X17735550Y-26705000D03*
X16700500Y-26705000D03*
X15665450Y-26705000D03*
X14630400Y-26705000D03*
X13595350Y-26705000D03*
X12560300Y-26705000D03*
X11525250Y-26705000D03*
X10490200Y-26705000D03*
X9455150Y-26705000D03*
X8420100Y-26705000D03*
X10533529Y-34255000D03*
X11542058Y-34255000D03*
X16584705Y-34255000D03*
X17593235Y-34255000D03*
X18601764Y-34255000D03*
X19610294Y-34255000D03*
X23644411Y-34255000D03*
X24652941Y-34255000D03*
X25661470Y-34255000D03*
X26670000Y-33055000D03*
X8382000Y-32985000D03*
X9398000Y-32985000D03*
X10414000Y-32985000D03*
X11430000Y-32985000D03*
X12446000Y-32985000D03*
X13462000Y-32985000D03*
X14478000Y-32985000D03*
X15494000Y-32985000D03*
X16510000Y-32985000D03*
X17526000Y-32985000D03*
X18542000Y-32985000D03*
X19558000Y-32985000D03*
X20574000Y-32985000D03*
X21590000Y-32985000D03*
X22606000Y-32985000D03*
X23622000Y-32985000D03*
X24638000Y-32985000D03*
X25654000Y-31785000D03*
X24638000Y-31785000D03*
X23622000Y-31785000D03*
X22606000Y-31785000D03*
X21590000Y-31785000D03*
X20574000Y-31785000D03*
X19558000Y-31785000D03*
X18542000Y-31785000D03*
X17526000Y-31785000D03*
X16510000Y-31785000D03*
X15494000Y-31785000D03*
X14478000Y-31785000D03*
X13462000Y-31785000D03*
X12446000Y-31785000D03*
X11430000Y-31785000D03*
X10414000Y-31785000D03*
X9398000Y-31785000D03*
X8382000Y-31785000D03*
X8451983Y-13922235D03*
X9502975Y-13922235D03*
X10553966Y-13922235D03*
X11604958Y-13922235D03*
X12655950Y-13922235D03*
X13706942Y-13922235D03*
X14757933Y-13922235D03*
X15808925Y-13922235D03*
X16859917Y-13922235D03*
X17910909Y-13922235D03*
X18961900Y-13922235D03*
X20012892Y-13922235D03*
X21063884Y-13922235D03*
X22114876Y-13922235D03*
X23165867Y-13922235D03*
X24216859Y-13922235D03*
X25267851Y-13922235D03*
X26318843Y-13922235D03*
X25267851Y-12722235D03*
X24216859Y-12722235D03*
X23165867Y-12722235D03*
X22114876Y-12722235D03*
X21063884Y-12722235D03*
X20012892Y-12722235D03*
X18961900Y-12722235D03*
X17910909Y-12722235D03*
X16859917Y-12722235D03*
X15808925Y-12722235D03*
X14757933Y-12722235D03*
X13706942Y-12722235D03*
X12655950Y-12722235D03*
X11604958Y-12722235D03*
X10553966Y-12722235D03*
X9502975Y-12722235D03*
X8451983Y-12722235D03*
X25622920Y-7945552D03*
X19051824Y-10195000D03*
X17971412Y-10195000D03*
X16891000Y-10195000D03*
X11488940Y-10195000D03*
X9620440Y-9406912D03*
X8832352Y-8618824D03*
X26372736Y-7195736D03*
X10408528Y-10195000D03*
X8044264Y-7830736D03*
X7918486Y-9402014D03*
X8641236Y-10124764D03*
X9363986Y-10847514D03*
X10185150Y-11395000D03*
X11207274Y-11395000D03*
X12229397Y-11395000D03*
X13251520Y-11395000D03*
X14273643Y-11395000D03*
X15295766Y-11395000D03*
X16317889Y-11395000D03*
X17340012Y-11395000D03*
X18362135Y-11395000D03*
X19384259Y-11395000D03*
X20406382Y-11395000D03*
X21428505Y-11395000D03*
X22450628Y-11395000D03*
X23472751Y-11395000D03*
X24330263Y-10935264D03*
X25053013Y-10212514D03*
X25775763Y-9489764D03*
X26498513Y-8767014D03*
D17*
X21590000Y-6985000D03*
X13970000Y-37465000D03*
X21590000Y-37465000D03*
X13970000Y-6985000D03*
D16*
X25654000Y-32985000D03*
D18*
G36*
X34265000Y-43790000D02*
G01*
X-12040000Y-43790000D01*
X-12040000Y-8129899D01*
X-10414000Y-8129899D01*
X-10414000Y-8430101D01*
X-10355434Y-8724534D01*
X-10240551Y-9001885D01*
X-10073768Y-9251493D01*
X-9861493Y-9463768D01*
X-9732438Y-9550000D01*
X-9861493Y-9636232D01*
X-10073768Y-9848507D01*
X-10240551Y-10098115D01*
X-10355434Y-10375466D01*
X-10414000Y-10669899D01*
X-10414000Y-10970101D01*
X-10355434Y-11264534D01*
X-10240551Y-11541885D01*
X-10073768Y-11791493D01*
X-9861493Y-12003768D01*
X-9732438Y-12090000D01*
X-9861493Y-12176232D01*
X-10073768Y-12388507D01*
X-10240551Y-12638115D01*
X-10355434Y-12915466D01*
X-10414000Y-13209899D01*
X-10414000Y-13510101D01*
X-10355434Y-13804534D01*
X-10240551Y-14081885D01*
X-10073768Y-14331493D01*
X-9861493Y-14543768D01*
X-9732438Y-14630000D01*
X-9861493Y-14716232D01*
X-10073768Y-14928507D01*
X-10240551Y-15178115D01*
X-10355434Y-15455466D01*
X-10414000Y-15749899D01*
X-10414000Y-16050101D01*
X-10355434Y-16344534D01*
X-10240551Y-16621885D01*
X-10073768Y-16871493D01*
X-9861493Y-17083768D01*
X-9732438Y-17170000D01*
X-9861493Y-17256232D01*
X-10073768Y-17468507D01*
X-10240551Y-17718115D01*
X-10355434Y-17995466D01*
X-10414000Y-18289899D01*
X-10414000Y-18590101D01*
X-10355434Y-18884534D01*
X-10240551Y-19161885D01*
X-10073768Y-19411493D01*
X-9861493Y-19623768D01*
X-9732438Y-19710000D01*
X-9861493Y-19796232D01*
X-10073768Y-20008507D01*
X-10240551Y-20258115D01*
X-10355434Y-20535466D01*
X-10414000Y-20829899D01*
X-10414000Y-21130101D01*
X-10355434Y-21424534D01*
X-10240551Y-21701885D01*
X-10073768Y-21951493D01*
X-9861493Y-22163768D01*
X-9732438Y-22250000D01*
X-9861493Y-22336232D01*
X-10073768Y-22548507D01*
X-10240551Y-22798115D01*
X-10355434Y-23075466D01*
X-10414000Y-23369899D01*
X-10414000Y-23670101D01*
X-10355434Y-23964534D01*
X-10240551Y-24241885D01*
X-10073768Y-24491493D01*
X-9861493Y-24703768D01*
X-9732438Y-24790000D01*
X-9861493Y-24876232D01*
X-10073768Y-25088507D01*
X-10240551Y-25338115D01*
X-10355434Y-25615466D01*
X-10414000Y-25909899D01*
X-10414000Y-26210101D01*
X-10355434Y-26504534D01*
X-10240551Y-26781885D01*
X-10073768Y-27031493D01*
X-9861493Y-27243768D01*
X-9732438Y-27330000D01*
X-9861493Y-27416232D01*
X-10073768Y-27628507D01*
X-10240551Y-27878115D01*
X-10355434Y-28155466D01*
X-10414000Y-28449899D01*
X-10414000Y-28750101D01*
X-10355434Y-29044534D01*
X-10240551Y-29321885D01*
X-10073768Y-29571493D01*
X-9861493Y-29783768D01*
X-9732438Y-29870000D01*
X-9861493Y-29956232D01*
X-10073768Y-30168507D01*
X-10240551Y-30418115D01*
X-10355434Y-30695466D01*
X-10414000Y-30989899D01*
X-10414000Y-31290101D01*
X-10355434Y-31584534D01*
X-10240551Y-31861885D01*
X-10073768Y-32111493D01*
X-9861493Y-32323768D01*
X-9732438Y-32410000D01*
X-9861493Y-32496232D01*
X-10073768Y-32708507D01*
X-10240551Y-32958115D01*
X-10355434Y-33235466D01*
X-10414000Y-33529899D01*
X-10414000Y-33830101D01*
X-10355434Y-34124534D01*
X-10240551Y-34401885D01*
X-10073768Y-34651493D01*
X-9861493Y-34863768D01*
X-9732438Y-34950000D01*
X-9861493Y-35036232D01*
X-10073768Y-35248507D01*
X-10240551Y-35498115D01*
X-10355434Y-35775466D01*
X-10414000Y-36069899D01*
X-10414000Y-36370101D01*
X-10355434Y-36664534D01*
X-10240551Y-36941885D01*
X-10073768Y-37191493D01*
X-9861493Y-37403768D01*
X-9611885Y-37570551D01*
X-9334534Y-37685434D01*
X-9040101Y-37744000D01*
X-8739899Y-37744000D01*
X-8445466Y-37685434D01*
X-8168115Y-37570551D01*
X-7918507Y-37403768D01*
X-7874000Y-37359261D01*
X-7874000Y-37640101D01*
X-7815434Y-37934534D01*
X-7700551Y-38211885D01*
X-7533768Y-38461493D01*
X-7321493Y-38673768D01*
X-7071885Y-38840551D01*
X-6794534Y-38955434D01*
X-6500101Y-39014000D01*
X-6199899Y-39014000D01*
X-5905466Y-38955434D01*
X-5628115Y-38840551D01*
X-5378507Y-38673768D01*
X-5166232Y-38461493D01*
X-4999449Y-38211885D01*
X-4884566Y-37934534D01*
X-4826000Y-37640101D01*
X-4826000Y-37339899D01*
X-4884566Y-37045466D01*
X-4999449Y-36768115D01*
X-5166232Y-36518507D01*
X-5378507Y-36306232D01*
X-5507562Y-36220000D01*
X-5378507Y-36133768D01*
X-5166232Y-35921493D01*
X-4999449Y-35671885D01*
X-4884566Y-35394534D01*
X-4826000Y-35100101D01*
X-4826000Y-34799899D01*
X-4884566Y-34505466D01*
X-4999449Y-34228115D01*
X-5166232Y-33978507D01*
X-5378507Y-33766232D01*
X-5507562Y-33680000D01*
X-5378507Y-33593768D01*
X-5166232Y-33381493D01*
X-4999449Y-33131885D01*
X-4884566Y-32854534D01*
X-4826000Y-32560101D01*
X-4826000Y-32259899D01*
X-4884566Y-31965466D01*
X-4999449Y-31688115D01*
X-5166232Y-31438507D01*
X-5378507Y-31226232D01*
X-5507562Y-31140000D01*
X-5378507Y-31053768D01*
X-5166232Y-30841493D01*
X-4999449Y-30591885D01*
X-4884566Y-30314534D01*
X-4826000Y-30020101D01*
X-4826000Y-29719899D01*
X-4884566Y-29425466D01*
X-4999449Y-29148115D01*
X-5166232Y-28898507D01*
X-5378507Y-28686232D01*
X-5507562Y-28600000D01*
X-5378507Y-28513768D01*
X-5166232Y-28301493D01*
X-4999449Y-28051885D01*
X-4884566Y-27774534D01*
X-4826000Y-27480101D01*
X-4826000Y-27179899D01*
X-4884566Y-26885466D01*
X-4999449Y-26608115D01*
X-5166232Y-26358507D01*
X-5378507Y-26146232D01*
X-5507562Y-26060000D01*
X-5378507Y-25973768D01*
X-5166232Y-25761493D01*
X-4999449Y-25511885D01*
X-4884566Y-25234534D01*
X-4826000Y-24940101D01*
X-4826000Y-24639899D01*
X-4884566Y-24345466D01*
X-4999449Y-24068115D01*
X-5166232Y-23818507D01*
X-5378507Y-23606232D01*
X-5507562Y-23520000D01*
X-5378507Y-23433768D01*
X-5166232Y-23221493D01*
X-4999449Y-22971885D01*
X-4884566Y-22694534D01*
X-4826000Y-22400101D01*
X-4826000Y-22099899D01*
X-4884566Y-21805466D01*
X-4999449Y-21528115D01*
X-5166232Y-21278507D01*
X-5378507Y-21066232D01*
X-5507562Y-20980000D01*
X-5378507Y-20893768D01*
X-5166232Y-20681493D01*
X-4999449Y-20431885D01*
X-4884566Y-20154534D01*
X-4826000Y-19860101D01*
X-4826000Y-19559899D01*
X-4884566Y-19265466D01*
X-4999449Y-18988115D01*
X-5166232Y-18738507D01*
X-5378507Y-18526232D01*
X-5507562Y-18440000D01*
X-5378507Y-18353768D01*
X-5166232Y-18141493D01*
X-4999449Y-17891885D01*
X-4884566Y-17614534D01*
X-4826000Y-17320101D01*
X-4826000Y-17019899D01*
X-4884566Y-16725466D01*
X-4999449Y-16448115D01*
X-5166232Y-16198507D01*
X-5378507Y-15986232D01*
X-5507562Y-15900000D01*
X-5378507Y-15813768D01*
X-5166232Y-15601493D01*
X-4999449Y-15351885D01*
X-4884566Y-15074534D01*
X-4826000Y-14780101D01*
X-4826000Y-14479899D01*
X-4884566Y-14185466D01*
X-4999449Y-13908115D01*
X-5166232Y-13658507D01*
X-5378507Y-13446232D01*
X-5507562Y-13360000D01*
X-5378507Y-13273768D01*
X-5166232Y-13061493D01*
X-4999449Y-12811885D01*
X-4884566Y-12534534D01*
X-4826000Y-12240101D01*
X-4826000Y-11939899D01*
X-4884566Y-11645466D01*
X-4999449Y-11368115D01*
X-5166232Y-11118507D01*
X-5378507Y-10906232D01*
X-5507562Y-10820000D01*
X-5378507Y-10733768D01*
X-5166232Y-10521493D01*
X-4999449Y-10271885D01*
X-4884566Y-9994534D01*
X-4826000Y-9700101D01*
X-4826000Y-9399899D01*
X-4884566Y-9105466D01*
X-4999449Y-8828115D01*
X-5166232Y-8578507D01*
X-5247063Y-8497676D01*
X-5216820Y-8488502D01*
X-5106506Y-8429537D01*
X-5009815Y-8350185D01*
X-4930463Y-8253494D01*
X-4871498Y-8143180D01*
X-4835188Y-8023482D01*
X-4822928Y-7899000D01*
X-4822928Y-6638938D01*
X1351280Y-6638938D01*
X1351280Y-6823062D01*
X1387200Y-7003648D01*
X1457662Y-7173756D01*
X1559955Y-7326849D01*
X1690151Y-7457045D01*
X1843244Y-7559338D01*
X2013352Y-7629800D01*
X2193938Y-7665720D01*
X2378062Y-7665720D01*
X2406898Y-7659984D01*
X2344566Y-7810466D01*
X2286000Y-8104899D01*
X2286000Y-8405101D01*
X2344566Y-8699534D01*
X2459449Y-8976885D01*
X2626232Y-9226493D01*
X2838507Y-9438768D01*
X2967562Y-9525000D01*
X2838507Y-9611232D01*
X2626232Y-9823507D01*
X2459449Y-10073115D01*
X2344566Y-10350466D01*
X2286000Y-10644899D01*
X2286000Y-10945101D01*
X2344566Y-11239534D01*
X2459449Y-11516885D01*
X2626232Y-11766493D01*
X2838507Y-11978768D01*
X2967562Y-12065000D01*
X2838507Y-12151232D01*
X2626232Y-12363507D01*
X2459449Y-12613115D01*
X2344566Y-12890466D01*
X2286000Y-13184899D01*
X2286000Y-13485101D01*
X2344566Y-13779534D01*
X2459449Y-14056885D01*
X2626232Y-14306493D01*
X2838507Y-14518768D01*
X2967562Y-14605000D01*
X2838507Y-14691232D01*
X2626232Y-14903507D01*
X2459449Y-15153115D01*
X2344566Y-15430466D01*
X2286000Y-15724899D01*
X2286000Y-16025101D01*
X2344566Y-16319534D01*
X2459449Y-16596885D01*
X2626232Y-16846493D01*
X2838507Y-17058768D01*
X2967562Y-17145000D01*
X2838507Y-17231232D01*
X2626232Y-17443507D01*
X2459449Y-17693115D01*
X2344566Y-17970466D01*
X2286000Y-18264899D01*
X2286000Y-18565101D01*
X2344566Y-18859534D01*
X2459449Y-19136885D01*
X2626232Y-19386493D01*
X2838507Y-19598768D01*
X2967562Y-19685000D01*
X2838507Y-19771232D01*
X2626232Y-19983507D01*
X2459449Y-20233115D01*
X2344566Y-20510466D01*
X2286000Y-20804899D01*
X2286000Y-21105101D01*
X2344566Y-21399534D01*
X2459449Y-21676885D01*
X2626232Y-21926493D01*
X2838507Y-22138768D01*
X2967562Y-22225000D01*
X2838507Y-22311232D01*
X2626232Y-22523507D01*
X2459449Y-22773115D01*
X2344566Y-23050466D01*
X2286000Y-23344899D01*
X2286000Y-23645101D01*
X2344566Y-23939534D01*
X2459449Y-24216885D01*
X2626232Y-24466493D01*
X2838507Y-24678768D01*
X2967562Y-24765000D01*
X2838507Y-24851232D01*
X2626232Y-25063507D01*
X2459449Y-25313115D01*
X2344566Y-25590466D01*
X2286000Y-25884899D01*
X2286000Y-26185101D01*
X2344566Y-26479534D01*
X2459449Y-26756885D01*
X2626232Y-27006493D01*
X2838507Y-27218768D01*
X2967562Y-27305000D01*
X2838507Y-27391232D01*
X2626232Y-27603507D01*
X2459449Y-27853115D01*
X2344566Y-28130466D01*
X2286000Y-28424899D01*
X2286000Y-28725101D01*
X2344566Y-29019534D01*
X2459449Y-29296885D01*
X2626232Y-29546493D01*
X2838507Y-29758768D01*
X2967562Y-29845000D01*
X2838507Y-29931232D01*
X2626232Y-30143507D01*
X2459449Y-30393115D01*
X2344566Y-30670466D01*
X2286000Y-30964899D01*
X2286000Y-31265101D01*
X2344566Y-31559534D01*
X2459449Y-31836885D01*
X2626232Y-32086493D01*
X2838507Y-32298768D01*
X2967562Y-32385000D01*
X2838507Y-32471232D01*
X2626232Y-32683507D01*
X2459449Y-32933115D01*
X2344566Y-33210466D01*
X2286000Y-33504899D01*
X2286000Y-33805101D01*
X2344566Y-34099534D01*
X2459449Y-34376885D01*
X2626232Y-34626493D01*
X2838507Y-34838768D01*
X2967562Y-34925000D01*
X2838507Y-35011232D01*
X2626232Y-35223507D01*
X2459449Y-35473115D01*
X2344566Y-35750466D01*
X2286000Y-36044899D01*
X2286000Y-36345101D01*
X2344566Y-36639534D01*
X2459449Y-36916885D01*
X2626232Y-37166493D01*
X2838507Y-37378768D01*
X3088115Y-37545551D01*
X3365466Y-37660434D01*
X3659899Y-37719000D01*
X3960101Y-37719000D01*
X4254534Y-37660434D01*
X4531885Y-37545551D01*
X4781493Y-37378768D01*
X4826000Y-37334261D01*
X4826000Y-37615101D01*
X4884566Y-37909534D01*
X4999449Y-38186885D01*
X5166232Y-38436493D01*
X5378507Y-38648768D01*
X5628115Y-38815551D01*
X5905466Y-38930434D01*
X6199899Y-38989000D01*
X6500101Y-38989000D01*
X6794534Y-38930434D01*
X7071885Y-38815551D01*
X7321493Y-38648768D01*
X7533768Y-38436493D01*
X7700551Y-38186885D01*
X7815434Y-37909534D01*
X7874000Y-37615101D01*
X7874000Y-37314899D01*
X7815434Y-37020466D01*
X7700551Y-36743115D01*
X7533768Y-36493507D01*
X7321493Y-36281232D01*
X7192438Y-36195000D01*
X7321493Y-36108768D01*
X7533768Y-35896493D01*
X7700551Y-35646885D01*
X7815434Y-35369534D01*
X7874000Y-35075101D01*
X7874000Y-34774899D01*
X7815434Y-34480466D01*
X7700551Y-34203115D01*
X7533768Y-33953507D01*
X7321493Y-33741232D01*
X7192438Y-33655000D01*
X7321493Y-33568768D01*
X7533768Y-33356493D01*
X7700551Y-33106885D01*
X7815434Y-32829534D01*
X7874000Y-32535101D01*
X7874000Y-32234899D01*
X7815434Y-31940466D01*
X7700551Y-31663115D01*
X7533768Y-31413507D01*
X7321493Y-31201232D01*
X7192438Y-31115000D01*
X7321493Y-31028768D01*
X7533768Y-30816493D01*
X7700551Y-30566885D01*
X7815434Y-30289534D01*
X7874000Y-29995101D01*
X7874000Y-29694899D01*
X7815434Y-29400466D01*
X7700551Y-29123115D01*
X7533768Y-28873507D01*
X7321493Y-28661232D01*
X7192438Y-28575000D01*
X7321493Y-28488768D01*
X7533768Y-28276493D01*
X7700551Y-28026885D01*
X7815434Y-27749534D01*
X7874000Y-27455101D01*
X7874000Y-27154899D01*
X7815434Y-26860466D01*
X7700551Y-26583115D01*
X7533768Y-26333507D01*
X7321493Y-26121232D01*
X7192438Y-26035000D01*
X7321493Y-25948768D01*
X7533768Y-25736493D01*
X7700551Y-25486885D01*
X7815434Y-25209534D01*
X7874000Y-24915101D01*
X7874000Y-24614899D01*
X7815434Y-24320466D01*
X7700551Y-24043115D01*
X7533768Y-23793507D01*
X7321493Y-23581232D01*
X7192438Y-23495000D01*
X7321493Y-23408768D01*
X7533768Y-23196493D01*
X7700551Y-22946885D01*
X7815434Y-22669534D01*
X7874000Y-22375101D01*
X7874000Y-22074899D01*
X7815434Y-21780466D01*
X7700551Y-21503115D01*
X7533768Y-21253507D01*
X7321493Y-21041232D01*
X7192438Y-20955000D01*
X7321493Y-20868768D01*
X7533768Y-20656493D01*
X7700551Y-20406885D01*
X7815434Y-20129534D01*
X7874000Y-19835101D01*
X7874000Y-19534899D01*
X7815434Y-19240466D01*
X7700551Y-18963115D01*
X7533768Y-18713507D01*
X7321493Y-18501232D01*
X7192438Y-18415000D01*
X7321493Y-18328768D01*
X7533768Y-18116493D01*
X7700551Y-17866885D01*
X7815434Y-17589534D01*
X7874000Y-17295101D01*
X7874000Y-16994899D01*
X7815434Y-16700466D01*
X7700551Y-16423115D01*
X7533768Y-16173507D01*
X7321493Y-15961232D01*
X7192438Y-15875000D01*
X7321493Y-15788768D01*
X7533768Y-15576493D01*
X7700551Y-15326885D01*
X7815434Y-15049534D01*
X7874000Y-14755101D01*
X7874000Y-14454899D01*
X7815434Y-14160466D01*
X7700551Y-13883115D01*
X7533768Y-13633507D01*
X7321493Y-13421232D01*
X7192438Y-13335000D01*
X7321493Y-13248768D01*
X7533768Y-13036493D01*
X7700551Y-12786885D01*
X7815434Y-12509534D01*
X7874000Y-12215101D01*
X7874000Y-11914899D01*
X7815434Y-11620466D01*
X7700551Y-11343115D01*
X7533768Y-11093507D01*
X7321493Y-10881232D01*
X7192438Y-10795000D01*
X7321493Y-10708768D01*
X7533768Y-10496493D01*
X7700551Y-10246885D01*
X7815434Y-9969534D01*
X7874000Y-9675101D01*
X7874000Y-9374899D01*
X7815434Y-9080466D01*
X7700551Y-8803115D01*
X7533768Y-8553507D01*
X7452937Y-8472676D01*
X7483180Y-8463502D01*
X7593494Y-8404537D01*
X7690185Y-8325185D01*
X7769537Y-8228494D01*
X7828502Y-8118180D01*
X7864812Y-7998482D01*
X7877072Y-7874000D01*
X7877072Y-7473740D01*
X27090000Y-7473740D01*
X27090000Y-7766260D01*
X27147068Y-8053158D01*
X27259010Y-8323411D01*
X27421525Y-8566632D01*
X27628368Y-8773475D01*
X27802760Y-8890000D01*
X27628368Y-9006525D01*
X27421525Y-9213368D01*
X27259010Y-9456589D01*
X27147068Y-9726842D01*
X27090000Y-10013740D01*
X27090000Y-10306260D01*
X27147068Y-10593158D01*
X27259010Y-10863411D01*
X27421525Y-11106632D01*
X27628368Y-11313475D01*
X27802760Y-11430000D01*
X27628368Y-11546525D01*
X27421525Y-11753368D01*
X27259010Y-11996589D01*
X27147068Y-12266842D01*
X27090000Y-12553740D01*
X27090000Y-12846260D01*
X27147068Y-13133158D01*
X27259010Y-13403411D01*
X27421525Y-13646632D01*
X27628368Y-13853475D01*
X27802760Y-13970000D01*
X27628368Y-14086525D01*
X27421525Y-14293368D01*
X27259010Y-14536589D01*
X27147068Y-14806842D01*
X27090000Y-15093740D01*
X27090000Y-15386260D01*
X27147068Y-15673158D01*
X27259010Y-15943411D01*
X27421525Y-16186632D01*
X27628368Y-16393475D01*
X27802760Y-16510000D01*
X27628368Y-16626525D01*
X27421525Y-16833368D01*
X27259010Y-17076589D01*
X27147068Y-17346842D01*
X27090000Y-17633740D01*
X27090000Y-17926260D01*
X27147068Y-18213158D01*
X27259010Y-18483411D01*
X27421525Y-18726632D01*
X27628368Y-18933475D01*
X27802760Y-19050000D01*
X27628368Y-19166525D01*
X27421525Y-19373368D01*
X27259010Y-19616589D01*
X27147068Y-19886842D01*
X27090000Y-20173740D01*
X27090000Y-20466260D01*
X27147068Y-20753158D01*
X27259010Y-21023411D01*
X27421525Y-21266632D01*
X27628368Y-21473475D01*
X27802760Y-21590000D01*
X27628368Y-21706525D01*
X27421525Y-21913368D01*
X27259010Y-22156589D01*
X27147068Y-22426842D01*
X27090000Y-22713740D01*
X27090000Y-23006260D01*
X27147068Y-23293158D01*
X27259010Y-23563411D01*
X27421525Y-23806632D01*
X27628368Y-24013475D01*
X27802760Y-24130000D01*
X27628368Y-24246525D01*
X27421525Y-24453368D01*
X27259010Y-24696589D01*
X27147068Y-24966842D01*
X27090000Y-25253740D01*
X27090000Y-25546260D01*
X27147068Y-25833158D01*
X27259010Y-26103411D01*
X27421525Y-26346632D01*
X27628368Y-26553475D01*
X27802760Y-26670000D01*
X27628368Y-26786525D01*
X27421525Y-26993368D01*
X27259010Y-27236589D01*
X27147068Y-27506842D01*
X27090000Y-27793740D01*
X27090000Y-28086260D01*
X27147068Y-28373158D01*
X27259010Y-28643411D01*
X27421525Y-28886632D01*
X27628368Y-29093475D01*
X27802760Y-29210000D01*
X27628368Y-29326525D01*
X27421525Y-29533368D01*
X27259010Y-29776589D01*
X27147068Y-30046842D01*
X27090000Y-30333740D01*
X27090000Y-30626260D01*
X27147068Y-30913158D01*
X27259010Y-31183411D01*
X27421525Y-31426632D01*
X27628368Y-31633475D01*
X27802760Y-31750000D01*
X27628368Y-31866525D01*
X27421525Y-32073368D01*
X27259010Y-32316589D01*
X27147068Y-32586842D01*
X27090000Y-32873740D01*
X27090000Y-33166260D01*
X27147068Y-33453158D01*
X27259010Y-33723411D01*
X27421525Y-33966632D01*
X27628368Y-34173475D01*
X27802760Y-34290000D01*
X27628368Y-34406525D01*
X27421525Y-34613368D01*
X27259010Y-34856589D01*
X27147068Y-35126842D01*
X27090000Y-35413740D01*
X27090000Y-35706260D01*
X27147068Y-35993158D01*
X27259010Y-36263411D01*
X27421525Y-36506632D01*
X27628368Y-36713475D01*
X27871589Y-36875990D01*
X28141842Y-36987932D01*
X28428740Y-37045000D01*
X28721260Y-37045000D01*
X29008158Y-36987932D01*
X29278411Y-36875990D01*
X29521632Y-36713475D01*
X29728475Y-36506632D01*
X29845000Y-36332240D01*
X29961525Y-36506632D01*
X30168368Y-36713475D01*
X30411589Y-36875990D01*
X30681842Y-36987932D01*
X30968740Y-37045000D01*
X31261260Y-37045000D01*
X31548158Y-36987932D01*
X31818411Y-36875990D01*
X32061632Y-36713475D01*
X32268475Y-36506632D01*
X32430990Y-36263411D01*
X32542932Y-35993158D01*
X32600000Y-35706260D01*
X32600000Y-35413740D01*
X32542932Y-35126842D01*
X32430990Y-34856589D01*
X32268475Y-34613368D01*
X32061632Y-34406525D01*
X31887240Y-34290000D01*
X32061632Y-34173475D01*
X32268475Y-33966632D01*
X32430990Y-33723411D01*
X32542932Y-33453158D01*
X32600000Y-33166260D01*
X32600000Y-32873740D01*
X32542932Y-32586842D01*
X32430990Y-32316589D01*
X32268475Y-32073368D01*
X32061632Y-31866525D01*
X31887240Y-31750000D01*
X32061632Y-31633475D01*
X32268475Y-31426632D01*
X32430990Y-31183411D01*
X32542932Y-30913158D01*
X32600000Y-30626260D01*
X32600000Y-30333740D01*
X32542932Y-30046842D01*
X32430990Y-29776589D01*
X32268475Y-29533368D01*
X32061632Y-29326525D01*
X31887240Y-29210000D01*
X32061632Y-29093475D01*
X32268475Y-28886632D01*
X32430990Y-28643411D01*
X32542932Y-28373158D01*
X32600000Y-28086260D01*
X32600000Y-27793740D01*
X32542932Y-27506842D01*
X32430990Y-27236589D01*
X32268475Y-26993368D01*
X32061632Y-26786525D01*
X31887240Y-26670000D01*
X32061632Y-26553475D01*
X32268475Y-26346632D01*
X32430990Y-26103411D01*
X32542932Y-25833158D01*
X32600000Y-25546260D01*
X32600000Y-25253740D01*
X32542932Y-24966842D01*
X32430990Y-24696589D01*
X32268475Y-24453368D01*
X32061632Y-24246525D01*
X31887240Y-24130000D01*
X32061632Y-24013475D01*
X32268475Y-23806632D01*
X32430990Y-23563411D01*
X32542932Y-23293158D01*
X32600000Y-23006260D01*
X32600000Y-22713740D01*
X32542932Y-22426842D01*
X32430990Y-22156589D01*
X32268475Y-21913368D01*
X32061632Y-21706525D01*
X31887240Y-21590000D01*
X32061632Y-21473475D01*
X32268475Y-21266632D01*
X32430990Y-21023411D01*
X32542932Y-20753158D01*
X32600000Y-20466260D01*
X32600000Y-20173740D01*
X32542932Y-19886842D01*
X32430990Y-19616589D01*
X32268475Y-19373368D01*
X32061632Y-19166525D01*
X31887240Y-19050000D01*
X32061632Y-18933475D01*
X32268475Y-18726632D01*
X32430990Y-18483411D01*
X32542932Y-18213158D01*
X32600000Y-17926260D01*
X32600000Y-17633740D01*
X32542932Y-17346842D01*
X32430990Y-17076589D01*
X32268475Y-16833368D01*
X32061632Y-16626525D01*
X31887240Y-16510000D01*
X32061632Y-16393475D01*
X32268475Y-16186632D01*
X32430990Y-15943411D01*
X32542932Y-15673158D01*
X32600000Y-15386260D01*
X32600000Y-15093740D01*
X32542932Y-14806842D01*
X32430990Y-14536589D01*
X32268475Y-14293368D01*
X32061632Y-14086525D01*
X31887240Y-13970000D01*
X32061632Y-13853475D01*
X32268475Y-13646632D01*
X32430990Y-13403411D01*
X32542932Y-13133158D01*
X32600000Y-12846260D01*
X32600000Y-12553740D01*
X32542932Y-12266842D01*
X32430990Y-11996589D01*
X32268475Y-11753368D01*
X32061632Y-11546525D01*
X31887240Y-11430000D01*
X32061632Y-11313475D01*
X32268475Y-11106632D01*
X32430990Y-10863411D01*
X32542932Y-10593158D01*
X32600000Y-10306260D01*
X32600000Y-10013740D01*
X32542932Y-9726842D01*
X32430990Y-9456589D01*
X32268475Y-9213368D01*
X32136620Y-9081513D01*
X32209180Y-9059502D01*
X32319494Y-9000537D01*
X32416185Y-8921185D01*
X32495537Y-8824494D01*
X32554502Y-8714180D01*
X32590812Y-8594482D01*
X32603072Y-8470000D01*
X32603072Y-6770000D01*
X32590812Y-6645518D01*
X32554502Y-6525820D01*
X32495537Y-6415506D01*
X32416185Y-6318815D01*
X32319494Y-6239463D01*
X32209180Y-6180498D01*
X32089482Y-6144188D01*
X31965000Y-6131928D01*
X30265000Y-6131928D01*
X30140518Y-6144188D01*
X30020820Y-6180498D01*
X29910506Y-6239463D01*
X29813815Y-6318815D01*
X29734463Y-6415506D01*
X29675498Y-6525820D01*
X29653487Y-6598380D01*
X29521632Y-6466525D01*
X29278411Y-6304010D01*
X29008158Y-6192068D01*
X28721260Y-6135000D01*
X28428740Y-6135000D01*
X28141842Y-6192068D01*
X27871589Y-6304010D01*
X27628368Y-6466525D01*
X27421525Y-6673368D01*
X27259010Y-6916589D01*
X27147068Y-7186842D01*
X27090000Y-7473740D01*
X7877072Y-7473740D01*
X7877072Y-6096000D01*
X7864812Y-5971518D01*
X7828502Y-5851820D01*
X7769537Y-5741506D01*
X7690185Y-5644815D01*
X7593494Y-5565463D01*
X7483180Y-5506498D01*
X7363482Y-5470188D01*
X7239000Y-5457928D01*
X5461000Y-5457928D01*
X5336518Y-5470188D01*
X5216820Y-5506498D01*
X5106506Y-5565463D01*
X5009815Y-5644815D01*
X4930463Y-5741506D01*
X4871498Y-5851820D01*
X4835188Y-5971518D01*
X4822928Y-6096000D01*
X4822928Y-7112667D01*
X4781493Y-7071232D01*
X4531885Y-6904449D01*
X4254534Y-6789566D01*
X3960101Y-6731000D01*
X3659899Y-6731000D01*
X3365466Y-6789566D01*
X3214984Y-6851898D01*
X3220720Y-6823062D01*
X3220720Y-6638938D01*
X3184800Y-6458352D01*
X3114338Y-6288244D01*
X3012045Y-6135151D01*
X2881849Y-6004955D01*
X2728756Y-5902662D01*
X2558648Y-5832200D01*
X2378062Y-5796280D01*
X2193938Y-5796280D01*
X2013352Y-5832200D01*
X1843244Y-5902662D01*
X1690151Y-6004955D01*
X1559955Y-6135151D01*
X1457662Y-6288244D01*
X1387200Y-6458352D01*
X1351280Y-6638938D01*
X-4822928Y-6638938D01*
X-4822928Y-6121000D01*
X-4835188Y-5996518D01*
X-4871498Y-5876820D01*
X-4930463Y-5766506D01*
X-5009815Y-5669815D01*
X-5106506Y-5590463D01*
X-5216820Y-5531498D01*
X-5336518Y-5495188D01*
X-5461000Y-5482928D01*
X-7239000Y-5482928D01*
X-7363482Y-5495188D01*
X-7483180Y-5531498D01*
X-7593494Y-5590463D01*
X-7690185Y-5669815D01*
X-7769537Y-5766506D01*
X-7828502Y-5876820D01*
X-7864812Y-5996518D01*
X-7877072Y-6121000D01*
X-7877072Y-7137667D01*
X-7918507Y-7096232D01*
X-8168115Y-6929449D01*
X-8445466Y-6814566D01*
X-8739899Y-6756000D01*
X-9040101Y-6756000D01*
X-9334534Y-6814566D01*
X-9611885Y-6929449D01*
X-9861493Y-7096232D01*
X-10073768Y-7308507D01*
X-10240551Y-7558115D01*
X-10355434Y-7835466D01*
X-10414000Y-8129899D01*
X-12040000Y-8129899D01*
X-12040000Y-660000D01*
X34265001Y-660000D01*
X34265000Y-43790000D01*
G37*
X34265000Y-43790000D02*
X-12040000Y-43790000D01*
X-12040000Y-8129899D01*
X-10414000Y-8129899D01*
X-10414000Y-8430101D01*
X-10355434Y-8724534D01*
X-10240551Y-9001885D01*
X-10073768Y-9251493D01*
X-9861493Y-9463768D01*
X-9732438Y-9550000D01*
X-9861493Y-9636232D01*
X-10073768Y-9848507D01*
X-10240551Y-10098115D01*
X-10355434Y-10375466D01*
X-10414000Y-10669899D01*
X-10414000Y-10970101D01*
X-10355434Y-11264534D01*
X-10240551Y-11541885D01*
X-10073768Y-11791493D01*
X-9861493Y-12003768D01*
X-9732438Y-12090000D01*
X-9861493Y-12176232D01*
X-10073768Y-12388507D01*
X-10240551Y-12638115D01*
X-10355434Y-12915466D01*
X-10414000Y-13209899D01*
X-10414000Y-13510101D01*
X-10355434Y-13804534D01*
X-10240551Y-14081885D01*
X-10073768Y-14331493D01*
X-9861493Y-14543768D01*
X-9732438Y-14630000D01*
X-9861493Y-14716232D01*
X-10073768Y-14928507D01*
X-10240551Y-15178115D01*
X-10355434Y-15455466D01*
X-10414000Y-15749899D01*
X-10414000Y-16050101D01*
X-10355434Y-16344534D01*
X-10240551Y-16621885D01*
X-10073768Y-16871493D01*
X-9861493Y-17083768D01*
X-9732438Y-17170000D01*
X-9861493Y-17256232D01*
X-10073768Y-17468507D01*
X-10240551Y-17718115D01*
X-10355434Y-17995466D01*
X-10414000Y-18289899D01*
X-10414000Y-18590101D01*
X-10355434Y-18884534D01*
X-10240551Y-19161885D01*
X-10073768Y-19411493D01*
X-9861493Y-19623768D01*
X-9732438Y-19710000D01*
X-9861493Y-19796232D01*
X-10073768Y-20008507D01*
X-10240551Y-20258115D01*
X-10355434Y-20535466D01*
X-10414000Y-20829899D01*
X-10414000Y-21130101D01*
X-10355434Y-21424534D01*
X-10240551Y-21701885D01*
X-10073768Y-21951493D01*
X-9861493Y-22163768D01*
X-9732438Y-22250000D01*
X-9861493Y-22336232D01*
X-10073768Y-22548507D01*
X-10240551Y-22798115D01*
X-10355434Y-23075466D01*
X-10414000Y-23369899D01*
X-10414000Y-23670101D01*
X-10355434Y-23964534D01*
X-10240551Y-24241885D01*
X-10073768Y-24491493D01*
X-9861493Y-24703768D01*
X-9732438Y-24790000D01*
X-9861493Y-24876232D01*
X-10073768Y-25088507D01*
X-10240551Y-25338115D01*
X-10355434Y-25615466D01*
X-10414000Y-25909899D01*
X-10414000Y-26210101D01*
X-10355434Y-26504534D01*
X-10240551Y-26781885D01*
X-10073768Y-27031493D01*
X-9861493Y-27243768D01*
X-9732438Y-27330000D01*
X-9861493Y-27416232D01*
X-10073768Y-27628507D01*
X-10240551Y-27878115D01*
X-10355434Y-28155466D01*
X-10414000Y-28449899D01*
X-10414000Y-28750101D01*
X-10355434Y-29044534D01*
X-10240551Y-29321885D01*
X-10073768Y-29571493D01*
X-9861493Y-29783768D01*
X-9732438Y-29870000D01*
X-9861493Y-29956232D01*
X-10073768Y-30168507D01*
X-10240551Y-30418115D01*
X-10355434Y-30695466D01*
X-10414000Y-30989899D01*
X-10414000Y-31290101D01*
X-10355434Y-31584534D01*
X-10240551Y-31861885D01*
X-10073768Y-32111493D01*
X-9861493Y-32323768D01*
X-9732438Y-32410000D01*
X-9861493Y-32496232D01*
X-10073768Y-32708507D01*
X-10240551Y-32958115D01*
X-10355434Y-33235466D01*
X-10414000Y-33529899D01*
X-10414000Y-33830101D01*
X-10355434Y-34124534D01*
X-10240551Y-34401885D01*
X-10073768Y-34651493D01*
X-9861493Y-34863768D01*
X-9732438Y-34950000D01*
X-9861493Y-35036232D01*
X-10073768Y-35248507D01*
X-10240551Y-35498115D01*
X-10355434Y-35775466D01*
X-10414000Y-36069899D01*
X-10414000Y-36370101D01*
X-10355434Y-36664534D01*
X-10240551Y-36941885D01*
X-10073768Y-37191493D01*
X-9861493Y-37403768D01*
X-9611885Y-37570551D01*
X-9334534Y-37685434D01*
X-9040101Y-37744000D01*
X-8739899Y-37744000D01*
X-8445466Y-37685434D01*
X-8168115Y-37570551D01*
X-7918507Y-37403768D01*
X-7874000Y-37359261D01*
X-7874000Y-37640101D01*
X-7815434Y-37934534D01*
X-7700551Y-38211885D01*
X-7533768Y-38461493D01*
X-7321493Y-38673768D01*
X-7071885Y-38840551D01*
X-6794534Y-38955434D01*
X-6500101Y-39014000D01*
X-6199899Y-39014000D01*
X-5905466Y-38955434D01*
X-5628115Y-38840551D01*
X-5378507Y-38673768D01*
X-5166232Y-38461493D01*
X-4999449Y-38211885D01*
X-4884566Y-37934534D01*
X-4826000Y-37640101D01*
X-4826000Y-37339899D01*
X-4884566Y-37045466D01*
X-4999449Y-36768115D01*
X-5166232Y-36518507D01*
X-5378507Y-36306232D01*
X-5507562Y-36220000D01*
X-5378507Y-36133768D01*
X-5166232Y-35921493D01*
X-4999449Y-35671885D01*
X-4884566Y-35394534D01*
X-4826000Y-35100101D01*
X-4826000Y-34799899D01*
X-4884566Y-34505466D01*
X-4999449Y-34228115D01*
X-5166232Y-33978507D01*
X-5378507Y-33766232D01*
X-5507562Y-33680000D01*
X-5378507Y-33593768D01*
X-5166232Y-33381493D01*
X-4999449Y-33131885D01*
X-4884566Y-32854534D01*
X-4826000Y-32560101D01*
X-4826000Y-32259899D01*
X-4884566Y-31965466D01*
X-4999449Y-31688115D01*
X-5166232Y-31438507D01*
X-5378507Y-31226232D01*
X-5507562Y-31140000D01*
X-5378507Y-31053768D01*
X-5166232Y-30841493D01*
X-4999449Y-30591885D01*
X-4884566Y-30314534D01*
X-4826000Y-30020101D01*
X-4826000Y-29719899D01*
X-4884566Y-29425466D01*
X-4999449Y-29148115D01*
X-5166232Y-28898507D01*
X-5378507Y-28686232D01*
X-5507562Y-28600000D01*
X-5378507Y-28513768D01*
X-5166232Y-28301493D01*
X-4999449Y-28051885D01*
X-4884566Y-27774534D01*
X-4826000Y-27480101D01*
X-4826000Y-27179899D01*
X-4884566Y-26885466D01*
X-4999449Y-26608115D01*
X-5166232Y-26358507D01*
X-5378507Y-26146232D01*
X-5507562Y-26060000D01*
X-5378507Y-25973768D01*
X-5166232Y-25761493D01*
X-4999449Y-25511885D01*
X-4884566Y-25234534D01*
X-4826000Y-24940101D01*
X-4826000Y-24639899D01*
X-4884566Y-24345466D01*
X-4999449Y-24068115D01*
X-5166232Y-23818507D01*
X-5378507Y-23606232D01*
X-5507562Y-23520000D01*
X-5378507Y-23433768D01*
X-5166232Y-23221493D01*
X-4999449Y-22971885D01*
X-4884566Y-22694534D01*
X-4826000Y-22400101D01*
X-4826000Y-22099899D01*
X-4884566Y-21805466D01*
X-4999449Y-21528115D01*
X-5166232Y-21278507D01*
X-5378507Y-21066232D01*
X-5507562Y-20980000D01*
X-5378507Y-20893768D01*
X-5166232Y-20681493D01*
X-4999449Y-20431885D01*
X-4884566Y-20154534D01*
X-4826000Y-19860101D01*
X-4826000Y-19559899D01*
X-4884566Y-19265466D01*
X-4999449Y-18988115D01*
X-5166232Y-18738507D01*
X-5378507Y-18526232D01*
X-5507562Y-18440000D01*
X-5378507Y-18353768D01*
X-5166232Y-18141493D01*
X-4999449Y-17891885D01*
X-4884566Y-17614534D01*
X-4826000Y-17320101D01*
X-4826000Y-17019899D01*
X-4884566Y-16725466D01*
X-4999449Y-16448115D01*
X-5166232Y-16198507D01*
X-5378507Y-15986232D01*
X-5507562Y-15900000D01*
X-5378507Y-15813768D01*
X-5166232Y-15601493D01*
X-4999449Y-15351885D01*
X-4884566Y-15074534D01*
X-4826000Y-14780101D01*
X-4826000Y-14479899D01*
X-4884566Y-14185466D01*
X-4999449Y-13908115D01*
X-5166232Y-13658507D01*
X-5378507Y-13446232D01*
X-5507562Y-13360000D01*
X-5378507Y-13273768D01*
X-5166232Y-13061493D01*
X-4999449Y-12811885D01*
X-4884566Y-12534534D01*
X-4826000Y-12240101D01*
X-4826000Y-11939899D01*
X-4884566Y-11645466D01*
X-4999449Y-11368115D01*
X-5166232Y-11118507D01*
X-5378507Y-10906232D01*
X-5507562Y-10820000D01*
X-5378507Y-10733768D01*
X-5166232Y-10521493D01*
X-4999449Y-10271885D01*
X-4884566Y-9994534D01*
X-4826000Y-9700101D01*
X-4826000Y-9399899D01*
X-4884566Y-9105466D01*
X-4999449Y-8828115D01*
X-5166232Y-8578507D01*
X-5247063Y-8497676D01*
X-5216820Y-8488502D01*
X-5106506Y-8429537D01*
X-5009815Y-8350185D01*
X-4930463Y-8253494D01*
X-4871498Y-8143180D01*
X-4835188Y-8023482D01*
X-4822928Y-7899000D01*
X-4822928Y-6638938D01*
X1351280Y-6638938D01*
X1351280Y-6823062D01*
X1387200Y-7003648D01*
X1457662Y-7173756D01*
X1559955Y-7326849D01*
X1690151Y-7457045D01*
X1843244Y-7559338D01*
X2013352Y-7629800D01*
X2193938Y-7665720D01*
X2378062Y-7665720D01*
X2406898Y-7659984D01*
X2344566Y-7810466D01*
X2286000Y-8104899D01*
X2286000Y-8405101D01*
X2344566Y-8699534D01*
X2459449Y-8976885D01*
X2626232Y-9226493D01*
X2838507Y-9438768D01*
X2967562Y-9525000D01*
X2838507Y-9611232D01*
X2626232Y-9823507D01*
X2459449Y-10073115D01*
X2344566Y-10350466D01*
X2286000Y-10644899D01*
X2286000Y-10945101D01*
X2344566Y-11239534D01*
X2459449Y-11516885D01*
X2626232Y-11766493D01*
X2838507Y-11978768D01*
X2967562Y-12065000D01*
X2838507Y-12151232D01*
X2626232Y-12363507D01*
X2459449Y-12613115D01*
X2344566Y-12890466D01*
X2286000Y-13184899D01*
X2286000Y-13485101D01*
X2344566Y-13779534D01*
X2459449Y-14056885D01*
X2626232Y-14306493D01*
X2838507Y-14518768D01*
X2967562Y-14605000D01*
X2838507Y-14691232D01*
X2626232Y-14903507D01*
X2459449Y-15153115D01*
X2344566Y-15430466D01*
X2286000Y-15724899D01*
X2286000Y-16025101D01*
X2344566Y-16319534D01*
X2459449Y-16596885D01*
X2626232Y-16846493D01*
X2838507Y-17058768D01*
X2967562Y-17145000D01*
X2838507Y-17231232D01*
X2626232Y-17443507D01*
X2459449Y-17693115D01*
X2344566Y-17970466D01*
X2286000Y-18264899D01*
X2286000Y-18565101D01*
X2344566Y-18859534D01*
X2459449Y-19136885D01*
X2626232Y-19386493D01*
X2838507Y-19598768D01*
X2967562Y-19685000D01*
X2838507Y-19771232D01*
X2626232Y-19983507D01*
X2459449Y-20233115D01*
X2344566Y-20510466D01*
X2286000Y-20804899D01*
X2286000Y-21105101D01*
X2344566Y-21399534D01*
X2459449Y-21676885D01*
X2626232Y-21926493D01*
X2838507Y-22138768D01*
X2967562Y-22225000D01*
X2838507Y-22311232D01*
X2626232Y-22523507D01*
X2459449Y-22773115D01*
X2344566Y-23050466D01*
X2286000Y-23344899D01*
X2286000Y-23645101D01*
X2344566Y-23939534D01*
X2459449Y-24216885D01*
X2626232Y-24466493D01*
X2838507Y-24678768D01*
X2967562Y-24765000D01*
X2838507Y-24851232D01*
X2626232Y-25063507D01*
X2459449Y-25313115D01*
X2344566Y-25590466D01*
X2286000Y-25884899D01*
X2286000Y-26185101D01*
X2344566Y-26479534D01*
X2459449Y-26756885D01*
X2626232Y-27006493D01*
X2838507Y-27218768D01*
X2967562Y-27305000D01*
X2838507Y-27391232D01*
X2626232Y-27603507D01*
X2459449Y-27853115D01*
X2344566Y-28130466D01*
X2286000Y-28424899D01*
X2286000Y-28725101D01*
X2344566Y-29019534D01*
X2459449Y-29296885D01*
X2626232Y-29546493D01*
X2838507Y-29758768D01*
X2967562Y-29845000D01*
X2838507Y-29931232D01*
X2626232Y-30143507D01*
X2459449Y-30393115D01*
X2344566Y-30670466D01*
X2286000Y-30964899D01*
X2286000Y-31265101D01*
X2344566Y-31559534D01*
X2459449Y-31836885D01*
X2626232Y-32086493D01*
X2838507Y-32298768D01*
X2967562Y-32385000D01*
X2838507Y-32471232D01*
X2626232Y-32683507D01*
X2459449Y-32933115D01*
X2344566Y-33210466D01*
X2286000Y-33504899D01*
X2286000Y-33805101D01*
X2344566Y-34099534D01*
X2459449Y-34376885D01*
X2626232Y-34626493D01*
X2838507Y-34838768D01*
X2967562Y-34925000D01*
X2838507Y-35011232D01*
X2626232Y-35223507D01*
X2459449Y-35473115D01*
X2344566Y-35750466D01*
X2286000Y-36044899D01*
X2286000Y-36345101D01*
X2344566Y-36639534D01*
X2459449Y-36916885D01*
X2626232Y-37166493D01*
X2838507Y-37378768D01*
X3088115Y-37545551D01*
X3365466Y-37660434D01*
X3659899Y-37719000D01*
X3960101Y-37719000D01*
X4254534Y-37660434D01*
X4531885Y-37545551D01*
X4781493Y-37378768D01*
X4826000Y-37334261D01*
X4826000Y-37615101D01*
X4884566Y-37909534D01*
X4999449Y-38186885D01*
X5166232Y-38436493D01*
X5378507Y-38648768D01*
X5628115Y-38815551D01*
X5905466Y-38930434D01*
X6199899Y-38989000D01*
X6500101Y-38989000D01*
X6794534Y-38930434D01*
X7071885Y-38815551D01*
X7321493Y-38648768D01*
X7533768Y-38436493D01*
X7700551Y-38186885D01*
X7815434Y-37909534D01*
X7874000Y-37615101D01*
X7874000Y-37314899D01*
X7815434Y-37020466D01*
X7700551Y-36743115D01*
X7533768Y-36493507D01*
X7321493Y-36281232D01*
X7192438Y-36195000D01*
X7321493Y-36108768D01*
X7533768Y-35896493D01*
X7700551Y-35646885D01*
X7815434Y-35369534D01*
X7874000Y-35075101D01*
X7874000Y-34774899D01*
X7815434Y-34480466D01*
X7700551Y-34203115D01*
X7533768Y-33953507D01*
X7321493Y-33741232D01*
X7192438Y-33655000D01*
X7321493Y-33568768D01*
X7533768Y-33356493D01*
X7700551Y-33106885D01*
X7815434Y-32829534D01*
X7874000Y-32535101D01*
X7874000Y-32234899D01*
X7815434Y-31940466D01*
X7700551Y-31663115D01*
X7533768Y-31413507D01*
X7321493Y-31201232D01*
X7192438Y-31115000D01*
X7321493Y-31028768D01*
X7533768Y-30816493D01*
X7700551Y-30566885D01*
X7815434Y-30289534D01*
X7874000Y-29995101D01*
X7874000Y-29694899D01*
X7815434Y-29400466D01*
X7700551Y-29123115D01*
X7533768Y-28873507D01*
X7321493Y-28661232D01*
X7192438Y-28575000D01*
X7321493Y-28488768D01*
X7533768Y-28276493D01*
X7700551Y-28026885D01*
X7815434Y-27749534D01*
X7874000Y-27455101D01*
X7874000Y-27154899D01*
X7815434Y-26860466D01*
X7700551Y-26583115D01*
X7533768Y-26333507D01*
X7321493Y-26121232D01*
X7192438Y-26035000D01*
X7321493Y-25948768D01*
X7533768Y-25736493D01*
X7700551Y-25486885D01*
X7815434Y-25209534D01*
X7874000Y-24915101D01*
X7874000Y-24614899D01*
X7815434Y-24320466D01*
X7700551Y-24043115D01*
X7533768Y-23793507D01*
X7321493Y-23581232D01*
X7192438Y-23495000D01*
X7321493Y-23408768D01*
X7533768Y-23196493D01*
X7700551Y-22946885D01*
X7815434Y-22669534D01*
X7874000Y-22375101D01*
X7874000Y-22074899D01*
X7815434Y-21780466D01*
X7700551Y-21503115D01*
X7533768Y-21253507D01*
X7321493Y-21041232D01*
X7192438Y-20955000D01*
X7321493Y-20868768D01*
X7533768Y-20656493D01*
X7700551Y-20406885D01*
X7815434Y-20129534D01*
X7874000Y-19835101D01*
X7874000Y-19534899D01*
X7815434Y-19240466D01*
X7700551Y-18963115D01*
X7533768Y-18713507D01*
X7321493Y-18501232D01*
X7192438Y-18415000D01*
X7321493Y-18328768D01*
X7533768Y-18116493D01*
X7700551Y-17866885D01*
X7815434Y-17589534D01*
X7874000Y-17295101D01*
X7874000Y-16994899D01*
X7815434Y-16700466D01*
X7700551Y-16423115D01*
X7533768Y-16173507D01*
X7321493Y-15961232D01*
X7192438Y-15875000D01*
X7321493Y-15788768D01*
X7533768Y-15576493D01*
X7700551Y-15326885D01*
X7815434Y-15049534D01*
X7874000Y-14755101D01*
X7874000Y-14454899D01*
X7815434Y-14160466D01*
X7700551Y-13883115D01*
X7533768Y-13633507D01*
X7321493Y-13421232D01*
X7192438Y-13335000D01*
X7321493Y-13248768D01*
X7533768Y-13036493D01*
X7700551Y-12786885D01*
X7815434Y-12509534D01*
X7874000Y-12215101D01*
X7874000Y-11914899D01*
X7815434Y-11620466D01*
X7700551Y-11343115D01*
X7533768Y-11093507D01*
X7321493Y-10881232D01*
X7192438Y-10795000D01*
X7321493Y-10708768D01*
X7533768Y-10496493D01*
X7700551Y-10246885D01*
X7815434Y-9969534D01*
X7874000Y-9675101D01*
X7874000Y-9374899D01*
X7815434Y-9080466D01*
X7700551Y-8803115D01*
X7533768Y-8553507D01*
X7452937Y-8472676D01*
X7483180Y-8463502D01*
X7593494Y-8404537D01*
X7690185Y-8325185D01*
X7769537Y-8228494D01*
X7828502Y-8118180D01*
X7864812Y-7998482D01*
X7877072Y-7874000D01*
X7877072Y-7473740D01*
X27090000Y-7473740D01*
X27090000Y-7766260D01*
X27147068Y-8053158D01*
X27259010Y-8323411D01*
X27421525Y-8566632D01*
X27628368Y-8773475D01*
X27802760Y-8890000D01*
X27628368Y-9006525D01*
X27421525Y-9213368D01*
X27259010Y-9456589D01*
X27147068Y-9726842D01*
X27090000Y-10013740D01*
X27090000Y-10306260D01*
X27147068Y-10593158D01*
X27259010Y-10863411D01*
X27421525Y-11106632D01*
X27628368Y-11313475D01*
X27802760Y-11430000D01*
X27628368Y-11546525D01*
X27421525Y-11753368D01*
X27259010Y-11996589D01*
X27147068Y-12266842D01*
X27090000Y-12553740D01*
X27090000Y-12846260D01*
X27147068Y-13133158D01*
X27259010Y-13403411D01*
X27421525Y-13646632D01*
X27628368Y-13853475D01*
X27802760Y-13970000D01*
X27628368Y-14086525D01*
X27421525Y-14293368D01*
X27259010Y-14536589D01*
X27147068Y-14806842D01*
X27090000Y-15093740D01*
X27090000Y-15386260D01*
X27147068Y-15673158D01*
X27259010Y-15943411D01*
X27421525Y-16186632D01*
X27628368Y-16393475D01*
X27802760Y-16510000D01*
X27628368Y-16626525D01*
X27421525Y-16833368D01*
X27259010Y-17076589D01*
X27147068Y-17346842D01*
X27090000Y-17633740D01*
X27090000Y-17926260D01*
X27147068Y-18213158D01*
X27259010Y-18483411D01*
X27421525Y-18726632D01*
X27628368Y-18933475D01*
X27802760Y-19050000D01*
X27628368Y-19166525D01*
X27421525Y-19373368D01*
X27259010Y-19616589D01*
X27147068Y-19886842D01*
X27090000Y-20173740D01*
X27090000Y-20466260D01*
X27147068Y-20753158D01*
X27259010Y-21023411D01*
X27421525Y-21266632D01*
X27628368Y-21473475D01*
X27802760Y-21590000D01*
X27628368Y-21706525D01*
X27421525Y-21913368D01*
X27259010Y-22156589D01*
X27147068Y-22426842D01*
X27090000Y-22713740D01*
X27090000Y-23006260D01*
X27147068Y-23293158D01*
X27259010Y-23563411D01*
X27421525Y-23806632D01*
X27628368Y-24013475D01*
X27802760Y-24130000D01*
X27628368Y-24246525D01*
X27421525Y-24453368D01*
X27259010Y-24696589D01*
X27147068Y-24966842D01*
X27090000Y-25253740D01*
X27090000Y-25546260D01*
X27147068Y-25833158D01*
X27259010Y-26103411D01*
X27421525Y-26346632D01*
X27628368Y-26553475D01*
X27802760Y-26670000D01*
X27628368Y-26786525D01*
X27421525Y-26993368D01*
X27259010Y-27236589D01*
X27147068Y-27506842D01*
X27090000Y-27793740D01*
X27090000Y-28086260D01*
X27147068Y-28373158D01*
X27259010Y-28643411D01*
X27421525Y-28886632D01*
X27628368Y-29093475D01*
X27802760Y-29210000D01*
X27628368Y-29326525D01*
X27421525Y-29533368D01*
X27259010Y-29776589D01*
X27147068Y-30046842D01*
X27090000Y-30333740D01*
X27090000Y-30626260D01*
X27147068Y-30913158D01*
X27259010Y-31183411D01*
X27421525Y-31426632D01*
X27628368Y-31633475D01*
X27802760Y-31750000D01*
X27628368Y-31866525D01*
X27421525Y-32073368D01*
X27259010Y-32316589D01*
X27147068Y-32586842D01*
X27090000Y-32873740D01*
X27090000Y-33166260D01*
X27147068Y-33453158D01*
X27259010Y-33723411D01*
X27421525Y-33966632D01*
X27628368Y-34173475D01*
X27802760Y-34290000D01*
X27628368Y-34406525D01*
X27421525Y-34613368D01*
X27259010Y-34856589D01*
X27147068Y-35126842D01*
X27090000Y-35413740D01*
X27090000Y-35706260D01*
X27147068Y-35993158D01*
X27259010Y-36263411D01*
X27421525Y-36506632D01*
X27628368Y-36713475D01*
X27871589Y-36875990D01*
X28141842Y-36987932D01*
X28428740Y-37045000D01*
X28721260Y-37045000D01*
X29008158Y-36987932D01*
X29278411Y-36875990D01*
X29521632Y-36713475D01*
X29728475Y-36506632D01*
X29845000Y-36332240D01*
X29961525Y-36506632D01*
X30168368Y-36713475D01*
X30411589Y-36875990D01*
X30681842Y-36987932D01*
X30968740Y-37045000D01*
X31261260Y-37045000D01*
X31548158Y-36987932D01*
X31818411Y-36875990D01*
X32061632Y-36713475D01*
X32268475Y-36506632D01*
X32430990Y-36263411D01*
X32542932Y-35993158D01*
X32600000Y-35706260D01*
X32600000Y-35413740D01*
X32542932Y-35126842D01*
X32430990Y-34856589D01*
X32268475Y-34613368D01*
X32061632Y-34406525D01*
X31887240Y-34290000D01*
X32061632Y-34173475D01*
X32268475Y-33966632D01*
X32430990Y-33723411D01*
X32542932Y-33453158D01*
X32600000Y-33166260D01*
X32600000Y-32873740D01*
X32542932Y-32586842D01*
X32430990Y-32316589D01*
X32268475Y-32073368D01*
X32061632Y-31866525D01*
X31887240Y-31750000D01*
X32061632Y-31633475D01*
X32268475Y-31426632D01*
X32430990Y-31183411D01*
X32542932Y-30913158D01*
X32600000Y-30626260D01*
X32600000Y-30333740D01*
X32542932Y-30046842D01*
X32430990Y-29776589D01*
X32268475Y-29533368D01*
X32061632Y-29326525D01*
X31887240Y-29210000D01*
X32061632Y-29093475D01*
X32268475Y-28886632D01*
X32430990Y-28643411D01*
X32542932Y-28373158D01*
X32600000Y-28086260D01*
X32600000Y-27793740D01*
X32542932Y-27506842D01*
X32430990Y-27236589D01*
X32268475Y-26993368D01*
X32061632Y-26786525D01*
X31887240Y-26670000D01*
X32061632Y-26553475D01*
X32268475Y-26346632D01*
X32430990Y-26103411D01*
X32542932Y-25833158D01*
X32600000Y-25546260D01*
X32600000Y-25253740D01*
X32542932Y-24966842D01*
X32430990Y-24696589D01*
X32268475Y-24453368D01*
X32061632Y-24246525D01*
X31887240Y-24130000D01*
X32061632Y-24013475D01*
X32268475Y-23806632D01*
X32430990Y-23563411D01*
X32542932Y-23293158D01*
X32600000Y-23006260D01*
X32600000Y-22713740D01*
X32542932Y-22426842D01*
X32430990Y-22156589D01*
X32268475Y-21913368D01*
X32061632Y-21706525D01*
X31887240Y-21590000D01*
X32061632Y-21473475D01*
X32268475Y-21266632D01*
X32430990Y-21023411D01*
X32542932Y-20753158D01*
X32600000Y-20466260D01*
X32600000Y-20173740D01*
X32542932Y-19886842D01*
X32430990Y-19616589D01*
X32268475Y-19373368D01*
X32061632Y-19166525D01*
X31887240Y-19050000D01*
X32061632Y-18933475D01*
X32268475Y-18726632D01*
X32430990Y-18483411D01*
X32542932Y-18213158D01*
X32600000Y-17926260D01*
X32600000Y-17633740D01*
X32542932Y-17346842D01*
X32430990Y-17076589D01*
X32268475Y-16833368D01*
X32061632Y-16626525D01*
X31887240Y-16510000D01*
X32061632Y-16393475D01*
X32268475Y-16186632D01*
X32430990Y-15943411D01*
X32542932Y-15673158D01*
X32600000Y-15386260D01*
X32600000Y-15093740D01*
X32542932Y-14806842D01*
X32430990Y-14536589D01*
X32268475Y-14293368D01*
X32061632Y-14086525D01*
X31887240Y-13970000D01*
X32061632Y-13853475D01*
X32268475Y-13646632D01*
X32430990Y-13403411D01*
X32542932Y-13133158D01*
X32600000Y-12846260D01*
X32600000Y-12553740D01*
X32542932Y-12266842D01*
X32430990Y-11996589D01*
X32268475Y-11753368D01*
X32061632Y-11546525D01*
X31887240Y-11430000D01*
X32061632Y-11313475D01*
X32268475Y-11106632D01*
X32430990Y-10863411D01*
X32542932Y-10593158D01*
X32600000Y-10306260D01*
X32600000Y-10013740D01*
X32542932Y-9726842D01*
X32430990Y-9456589D01*
X32268475Y-9213368D01*
X32136620Y-9081513D01*
X32209180Y-9059502D01*
X32319494Y-9000537D01*
X32416185Y-8921185D01*
X32495537Y-8824494D01*
X32554502Y-8714180D01*
X32590812Y-8594482D01*
X32603072Y-8470000D01*
X32603072Y-6770000D01*
X32590812Y-6645518D01*
X32554502Y-6525820D01*
X32495537Y-6415506D01*
X32416185Y-6318815D01*
X32319494Y-6239463D01*
X32209180Y-6180498D01*
X32089482Y-6144188D01*
X31965000Y-6131928D01*
X30265000Y-6131928D01*
X30140518Y-6144188D01*
X30020820Y-6180498D01*
X29910506Y-6239463D01*
X29813815Y-6318815D01*
X29734463Y-6415506D01*
X29675498Y-6525820D01*
X29653487Y-6598380D01*
X29521632Y-6466525D01*
X29278411Y-6304010D01*
X29008158Y-6192068D01*
X28721260Y-6135000D01*
X28428740Y-6135000D01*
X28141842Y-6192068D01*
X27871589Y-6304010D01*
X27628368Y-6466525D01*
X27421525Y-6673368D01*
X27259010Y-6916589D01*
X27147068Y-7186842D01*
X27090000Y-7473740D01*
X7877072Y-7473740D01*
X7877072Y-6096000D01*
X7864812Y-5971518D01*
X7828502Y-5851820D01*
X7769537Y-5741506D01*
X7690185Y-5644815D01*
X7593494Y-5565463D01*
X7483180Y-5506498D01*
X7363482Y-5470188D01*
X7239000Y-5457928D01*
X5461000Y-5457928D01*
X5336518Y-5470188D01*
X5216820Y-5506498D01*
X5106506Y-5565463D01*
X5009815Y-5644815D01*
X4930463Y-5741506D01*
X4871498Y-5851820D01*
X4835188Y-5971518D01*
X4822928Y-6096000D01*
X4822928Y-7112667D01*
X4781493Y-7071232D01*
X4531885Y-6904449D01*
X4254534Y-6789566D01*
X3960101Y-6731000D01*
X3659899Y-6731000D01*
X3365466Y-6789566D01*
X3214984Y-6851898D01*
X3220720Y-6823062D01*
X3220720Y-6638938D01*
X3184800Y-6458352D01*
X3114338Y-6288244D01*
X3012045Y-6135151D01*
X2881849Y-6004955D01*
X2728756Y-5902662D01*
X2558648Y-5832200D01*
X2378062Y-5796280D01*
X2193938Y-5796280D01*
X2013352Y-5832200D01*
X1843244Y-5902662D01*
X1690151Y-6004955D01*
X1559955Y-6135151D01*
X1457662Y-6288244D01*
X1387200Y-6458352D01*
X1351280Y-6638938D01*
X-4822928Y-6638938D01*
X-4822928Y-6121000D01*
X-4835188Y-5996518D01*
X-4871498Y-5876820D01*
X-4930463Y-5766506D01*
X-5009815Y-5669815D01*
X-5106506Y-5590463D01*
X-5216820Y-5531498D01*
X-5336518Y-5495188D01*
X-5461000Y-5482928D01*
X-7239000Y-5482928D01*
X-7363482Y-5495188D01*
X-7483180Y-5531498D01*
X-7593494Y-5590463D01*
X-7690185Y-5669815D01*
X-7769537Y-5766506D01*
X-7828502Y-5876820D01*
X-7864812Y-5996518D01*
X-7877072Y-6121000D01*
X-7877072Y-7137667D01*
X-7918507Y-7096232D01*
X-8168115Y-6929449D01*
X-8445466Y-6814566D01*
X-8739899Y-6756000D01*
X-9040101Y-6756000D01*
X-9334534Y-6814566D01*
X-9611885Y-6929449D01*
X-9861493Y-7096232D01*
X-10073768Y-7308507D01*
X-10240551Y-7558115D01*
X-10355434Y-7835466D01*
X-10414000Y-8129899D01*
X-12040000Y-8129899D01*
X-12040000Y-660000D01*
X34265001Y-660000D01*
X34265000Y-43790000D01*
M02*
