G04 #@! TF.GenerationSoftware,KiCad,Pcbnew,(5.1.5-0-10_14)*
G04 #@! TF.CreationDate,2021-12-03T13:10:08-07:00*
G04 #@! TF.ProjectId,UVhash_lower,55566861-7368-45f6-9c6f-7765722e6b69,rev?*
G04 #@! TF.SameCoordinates,Original*
G04 #@! TF.FileFunction,Copper,L2,Inr*
G04 #@! TF.FilePolarity,Positive*
%FSLAX46Y46*%
G04 Gerber Fmt 4.6, Leading zero omitted, Abs format (unit mm)*
G04 Created by KiCad (PCBNEW (5.1.5-0-10_14)) date 2021-12-03 13:10:08*
%MOMM*%
%LPD*%
G04 APERTURE LIST*
%ADD10C,1.778000*%
%ADD11R,1.778000X1.778000*%
%ADD12C,3.302000*%
%ADD13R,1.700000X1.700000*%
%ADD14O,1.700000X1.700000*%
%ADD15C,0.599440*%
%ADD16C,0.600000*%
%ADD17C,6.350000*%
%ADD18C,0.254000*%
%ADD19C,0.250000*%
G04 APERTURE END LIST*
D10*
X-6350000Y-22250000D03*
X-6350000Y-24790000D03*
X-6350000Y-27330000D03*
X-6350000Y-29870000D03*
X-6350000Y-32410000D03*
X-6350000Y-34950000D03*
X-6350000Y-37490000D03*
X-6350000Y-19710000D03*
X-6350000Y-17170000D03*
X-6350000Y-14630000D03*
X-6350000Y-12090000D03*
X-6350000Y-9550000D03*
D11*
X-6350000Y-7010000D03*
D10*
X-8890000Y-23520000D03*
X-8890000Y-26060000D03*
X-8890000Y-28600000D03*
X-8890000Y-31140000D03*
X-8890000Y-33680000D03*
X-8890000Y-36220000D03*
X-8890000Y-20980000D03*
X-8890000Y-18440000D03*
X-8890000Y-15900000D03*
X-8890000Y-13360000D03*
X-8890000Y-10820000D03*
X-8890000Y-8280000D03*
D12*
X-7620000Y-41300000D03*
X-7620000Y-3200000D03*
D10*
X6350000Y-22225000D03*
X6350000Y-24765000D03*
X6350000Y-27305000D03*
X6350000Y-29845000D03*
X6350000Y-32385000D03*
X6350000Y-34925000D03*
X6350000Y-37465000D03*
X6350000Y-19685000D03*
X6350000Y-17145000D03*
X6350000Y-14605000D03*
X6350000Y-12065000D03*
X6350000Y-9525000D03*
D11*
X6350000Y-6985000D03*
D10*
X3810000Y-23495000D03*
X3810000Y-26035000D03*
X3810000Y-28575000D03*
X3810000Y-31115000D03*
X3810000Y-33655000D03*
X3810000Y-36195000D03*
X3810000Y-20955000D03*
X3810000Y-18415000D03*
X3810000Y-15875000D03*
X3810000Y-13335000D03*
X3810000Y-10795000D03*
X3810000Y-8255000D03*
D12*
X5080000Y-41275000D03*
X5080000Y-3175000D03*
D13*
X31115000Y-7620000D03*
D14*
X28575000Y-7620000D03*
X31115000Y-10160000D03*
X28575000Y-10160000D03*
X31115000Y-12700000D03*
X28575000Y-12700000D03*
X31115000Y-15240000D03*
X28575000Y-15240000D03*
X31115000Y-17780000D03*
X28575000Y-17780000D03*
X31115000Y-20320000D03*
X28575000Y-20320000D03*
X31115000Y-22860000D03*
X28575000Y-22860000D03*
X31115000Y-25400000D03*
X28575000Y-25400000D03*
X31115000Y-27940000D03*
X28575000Y-27940000D03*
X31115000Y-30480000D03*
X28575000Y-30480000D03*
X31115000Y-33020000D03*
X28575000Y-33020000D03*
X31115000Y-35560000D03*
X28575000Y-35560000D03*
D15*
X2286000Y-6731000D03*
X-4232910Y-29175000D03*
X-3174365Y-29175000D03*
X-2115821Y-29175000D03*
X-1057276Y-29175000D03*
X1268Y-29175000D03*
X1059813Y-29175000D03*
X2118358Y-29175000D03*
X1059813Y-27975000D03*
X1268Y-27975000D03*
X-1057276Y-27975000D03*
X-2115821Y-27975000D03*
X-3174365Y-27975000D03*
X-4232910Y-27975000D03*
X-4232910Y-31715000D03*
X-3174365Y-31715000D03*
X-2115821Y-31715000D03*
X-1057276Y-31715000D03*
X1268Y-31715000D03*
X1059813Y-31715000D03*
X2118358Y-31715000D03*
X1059813Y-30515000D03*
X1268Y-30515000D03*
X-1057276Y-30515000D03*
X-2115821Y-30515000D03*
X-3174365Y-30515000D03*
X-4232910Y-30515000D03*
X-4232910Y-34255000D03*
X-3174365Y-34255000D03*
X-2115821Y-34255000D03*
X-1057276Y-34255000D03*
X1268Y-34255000D03*
X1059813Y-34255000D03*
X2118358Y-34255000D03*
X1059813Y-33055000D03*
X1268Y-33055000D03*
X-1057276Y-33055000D03*
X-2115821Y-33055000D03*
X-3174365Y-33055000D03*
X-4232910Y-33055000D03*
X-4232910Y-36795000D03*
X-3174365Y-36795000D03*
X-2115821Y-36795000D03*
X-1057276Y-36795000D03*
X1268Y-36795000D03*
X1059813Y-36795000D03*
X2118358Y-36795000D03*
X1059813Y-35595000D03*
X1268Y-35595000D03*
X-1057276Y-35595000D03*
X-2115821Y-35595000D03*
X-3174365Y-35595000D03*
X-4232910Y-35595000D03*
X-4233333Y-39462000D03*
X-3175000Y-39462000D03*
X-2116666Y-39462000D03*
X-1058333Y-39462000D03*
X0Y-39462000D03*
X1058333Y-39462000D03*
X2116666Y-39462000D03*
X3175000Y-39462000D03*
X4233333Y-39462000D03*
X5291666Y-39462000D03*
X4233333Y-38262000D03*
X3175000Y-38262000D03*
X2116666Y-38262000D03*
X1058333Y-38262000D03*
X0Y-38262000D03*
X-1058333Y-38262000D03*
X-2116666Y-38262000D03*
X-3175000Y-38262000D03*
X-4233333Y-38262000D03*
X-4232910Y-24095000D03*
X-3174365Y-24095000D03*
X-2115821Y-24095000D03*
X-1057276Y-24095000D03*
X1268Y-24095000D03*
X1059813Y-24095000D03*
X2118358Y-24095000D03*
X1059813Y-22895000D03*
X1268Y-22895000D03*
X-1057276Y-22895000D03*
X-2115821Y-22895000D03*
X-3174365Y-22895000D03*
X-4232910Y-22895000D03*
X-4232910Y-26635000D03*
X-3174365Y-26635000D03*
X-2115821Y-26635000D03*
X-1057276Y-26635000D03*
X1268Y-26635000D03*
X1059813Y-26635000D03*
X2118358Y-26635000D03*
X1059813Y-25435000D03*
X1268Y-25435000D03*
X-1057276Y-25435000D03*
X-2115821Y-25435000D03*
X-3174365Y-25435000D03*
X-4232910Y-25435000D03*
X-4232910Y-21555000D03*
X-3174365Y-21555000D03*
X-2115821Y-21555000D03*
X-1057276Y-21555000D03*
X1268Y-21555000D03*
X1059813Y-21555000D03*
X2118358Y-21555000D03*
X1059813Y-20355000D03*
X1268Y-20355000D03*
X-1057276Y-20355000D03*
X-2115821Y-20355000D03*
X-3174365Y-20355000D03*
X-4232910Y-20355000D03*
X-4222750Y-19015000D03*
X-3159125Y-19015000D03*
X-2095500Y-19015000D03*
X-1031875Y-19015000D03*
X31750Y-19015000D03*
X1095375Y-19015000D03*
X2159000Y-19015000D03*
X1095375Y-17815000D03*
X31750Y-17815000D03*
X-1031875Y-17815000D03*
X-2095500Y-17815000D03*
X-3159125Y-17815000D03*
X-4222750Y-17815000D03*
X-4232910Y-16475000D03*
X-3174365Y-16475000D03*
X-2115821Y-16475000D03*
X-1057276Y-16475000D03*
X1268Y-16475000D03*
X1059813Y-16475000D03*
X2118358Y-16475000D03*
X1059813Y-15275000D03*
X1268Y-15275000D03*
X-1057276Y-15275000D03*
X-2115821Y-15275000D03*
X-3174365Y-15275000D03*
X-4232910Y-15275000D03*
X-4232910Y-13935000D03*
X-3174365Y-13935000D03*
X-2115821Y-13935000D03*
X-1057276Y-13935000D03*
X1268Y-13935000D03*
X1059813Y-13935000D03*
X2118358Y-13935000D03*
X1059813Y-12735000D03*
X1268Y-12735000D03*
X-1057276Y-12735000D03*
X-2115821Y-12735000D03*
X-3174365Y-12735000D03*
X-4232910Y-12735000D03*
X2032000Y-12319000D03*
X-4704806Y-11395000D03*
X-3567612Y-11395000D03*
X-2430418Y-11395000D03*
X-1293224Y-11395000D03*
X-156030Y-11395000D03*
X981164Y-11395000D03*
X2118358Y-11395000D03*
X981164Y-10195000D03*
X-156030Y-10195000D03*
X-1293224Y-10195000D03*
X-2430418Y-10195000D03*
X-3567612Y-10195000D03*
X-4704806Y-10195000D03*
X-4620319Y-8855000D03*
X-3525639Y-8855000D03*
X-2430959Y-8855000D03*
X-1336279Y-8855000D03*
X-241599Y-8855000D03*
X853080Y-8855000D03*
X1947760Y-8855000D03*
X4344033Y-6385000D03*
X786282Y-7655000D03*
X-297264Y-7655000D03*
X-1380811Y-7655000D03*
X-2464358Y-7655000D03*
X-3547905Y-7655000D03*
X-4631452Y-7655000D03*
X3341099Y-6096000D03*
X1869830Y-7655000D03*
X-10371666Y-43780000D03*
X-9313333Y-43780000D03*
X-8255000Y-43780000D03*
X-7196666Y-43780000D03*
X-6138333Y-43780000D03*
X-5080000Y-43780000D03*
X-4021666Y-43780000D03*
X-2963333Y-43780000D03*
X-1905000Y-43780000D03*
X-846666Y-43780000D03*
X211666Y-43780000D03*
X-11430000Y-43780000D03*
D16*
X-12030000Y-799523D03*
D15*
X-11176000Y-635000D03*
X230909Y-670000D03*
X-808181Y-670000D03*
X-1847272Y-670000D03*
X-2886363Y-670000D03*
X-3925454Y-670000D03*
X-4964545Y-670000D03*
X-6003636Y-670000D03*
X-7042727Y-670000D03*
X-8081818Y-670000D03*
X-9120909Y-670000D03*
X-10160000Y-670000D03*
X26670000Y-34798000D03*
X8255930Y-35772597D03*
X9102597Y-34925930D03*
X8254069Y-34077402D03*
D16*
X2802999Y-670000D03*
X1795999Y-670000D03*
X-12030000Y-1815523D03*
X-12030000Y-2822523D03*
X-12030000Y-3829524D03*
X-12030000Y-4836524D03*
X-12030000Y-5843525D03*
X-12030000Y-6850525D03*
X-12030000Y-7857525D03*
X-12030000Y-8864526D03*
X-12030000Y-9871526D03*
X-12030000Y-10878527D03*
X-12030000Y-11885527D03*
X-12030000Y-12892527D03*
X-12030000Y-13899528D03*
X-12030000Y-14906528D03*
X-12030000Y-15913529D03*
X-12030000Y-16920529D03*
X-12030000Y-17927529D03*
X-12030000Y-18934530D03*
X-12030000Y-19941530D03*
X-12030000Y-20948531D03*
X-12030000Y-21955531D03*
X-12030000Y-22962532D03*
X-12030000Y-23969532D03*
X-12030000Y-24976532D03*
X-12030000Y-25983533D03*
X-12030000Y-26990533D03*
X-12030000Y-27997534D03*
X-12030000Y-29004534D03*
X-12030000Y-30011534D03*
X-12030000Y-31018535D03*
X-12030000Y-32025535D03*
X-12030000Y-33032536D03*
X-12030000Y-34039536D03*
X-12030000Y-35046536D03*
X-12030000Y-36053537D03*
X-12030000Y-37060537D03*
X-12030000Y-38067538D03*
X-12030000Y-39074538D03*
X-12030000Y-40081538D03*
X-12030000Y-41088539D03*
X-12030000Y-42095539D03*
X-12030000Y-43102540D03*
X1257063Y-43779860D03*
X2264062Y-43780000D03*
X3271063Y-43780000D03*
X4278063Y-43780000D03*
X5285064Y-43780000D03*
X6292064Y-43780000D03*
X7299064Y-43780000D03*
X8306065Y-43780000D03*
X9313065Y-43780000D03*
X10320066Y-43780000D03*
X11327066Y-43780000D03*
X12334066Y-43780000D03*
X13341067Y-43780000D03*
X14348067Y-43780000D03*
X15355068Y-43780000D03*
X16362068Y-43780000D03*
X17369068Y-43780000D03*
X18376069Y-43780000D03*
X19383069Y-43780000D03*
X20390070Y-43780000D03*
X21397070Y-43780000D03*
X22404070Y-43780000D03*
X23411071Y-43780000D03*
X24418071Y-43780000D03*
X25425072Y-43780000D03*
X26432072Y-43780000D03*
X27439072Y-43780000D03*
X28446073Y-43780000D03*
X29453073Y-43780000D03*
X30460074Y-43780000D03*
X31467074Y-43780000D03*
X32474074Y-43780000D03*
X33437016Y-43611389D03*
X33620000Y-42654402D03*
X33620000Y-41647401D03*
X33620000Y-40640401D03*
X33620000Y-39633401D03*
X33620000Y-38626400D03*
X33620000Y-37619400D03*
X33620000Y-36612399D03*
X33620000Y-35605399D03*
X33620000Y-34598399D03*
X33620000Y-33591398D03*
X33620000Y-32584398D03*
X33620000Y-31577397D03*
X33620000Y-30570397D03*
X33620000Y-29563397D03*
X33620000Y-28556396D03*
X33620000Y-27549396D03*
X33620000Y-26542395D03*
X33620000Y-25535395D03*
X33620000Y-24528395D03*
X33620000Y-23521394D03*
X33620000Y-22514394D03*
X33620000Y-21507393D03*
X33620000Y-20500393D03*
X33620000Y-19493392D03*
X33620000Y-18486392D03*
X33620000Y-17479392D03*
X33620000Y-16472391D03*
X33620000Y-15465391D03*
X33620000Y-14458390D03*
X33620000Y-13451390D03*
X33620000Y-12444390D03*
X33620000Y-11437389D03*
X33620000Y-10430389D03*
X33620000Y-9423388D03*
X33620000Y-8416388D03*
X33620000Y-7409388D03*
X33620000Y-6402387D03*
X33620000Y-5395387D03*
X33620000Y-4388386D03*
X33620000Y-3381386D03*
X33620000Y-2374386D03*
X33620000Y-1367385D03*
X32016837Y-670000D03*
X30980805Y-670000D03*
X29944772Y-670000D03*
X28908740Y-670000D03*
X27872708Y-670000D03*
X26836676Y-670000D03*
X25800644Y-670000D03*
X24764611Y-670000D03*
X23728579Y-670000D03*
X22692547Y-670000D03*
X21656515Y-670000D03*
X20620483Y-670000D03*
X19584450Y-670000D03*
X18548418Y-670000D03*
X17512386Y-670000D03*
X16476354Y-670000D03*
X15440322Y-670000D03*
X14404289Y-670000D03*
X13368257Y-670000D03*
X12332225Y-670000D03*
X11296193Y-670000D03*
X10260161Y-670000D03*
X9224128Y-670000D03*
X8188096Y-670000D03*
X7152064Y-670000D03*
X6116032Y-670000D03*
X3810000Y-670000D03*
X33052847Y-670900D03*
X5080000Y-670000D03*
X9271000Y-15205000D03*
X10287000Y-15205000D03*
X11303000Y-15205000D03*
X12319000Y-15205000D03*
X13335000Y-15205000D03*
X14351000Y-15205000D03*
X15367000Y-15205000D03*
X16383000Y-15205000D03*
X17399000Y-15205000D03*
X18415000Y-15205000D03*
X19431000Y-15205000D03*
X20447000Y-15205000D03*
X21463000Y-15205000D03*
X22479000Y-15205000D03*
X23495000Y-15205000D03*
X24511000Y-15205000D03*
X25527000Y-15205000D03*
X26543000Y-15205000D03*
X9068309Y-17745000D03*
X10094977Y-17745000D03*
X11121645Y-17745000D03*
X12148313Y-17745000D03*
X13174981Y-17745000D03*
X14201649Y-17745000D03*
X15228317Y-17745000D03*
X16254985Y-17745000D03*
X17281653Y-17745000D03*
X18308321Y-17745000D03*
X19334988Y-17745000D03*
X20361656Y-17745000D03*
X21388324Y-17745000D03*
X22414992Y-17745000D03*
X23441660Y-17745000D03*
X24468328Y-17745000D03*
X25494996Y-17745000D03*
X26521664Y-17745000D03*
X26521664Y-16545000D03*
X25494996Y-16545000D03*
X24468328Y-16545000D03*
X23441660Y-16545000D03*
X22414992Y-16545000D03*
X21388324Y-16545000D03*
X20361656Y-16545000D03*
X19334988Y-16545000D03*
X18308321Y-16545000D03*
X17281653Y-16545000D03*
X16254985Y-16545000D03*
X15228317Y-16545000D03*
X14201649Y-16545000D03*
X13174981Y-16545000D03*
X12148313Y-16545000D03*
X11121645Y-16545000D03*
X10094977Y-16545000D03*
X9068309Y-16545000D03*
X8041642Y-16545000D03*
X9029700Y-20285000D03*
X10058400Y-20285000D03*
X11087100Y-20285000D03*
X12115800Y-20285000D03*
X13144500Y-20285000D03*
X14173200Y-20285000D03*
X15201900Y-20285000D03*
X16230600Y-20285000D03*
X17259300Y-20285000D03*
X18288000Y-20285000D03*
X19316700Y-20285000D03*
X20345400Y-20285000D03*
X21374100Y-20285000D03*
X22402800Y-20285000D03*
X23431500Y-20285000D03*
X24460200Y-20285000D03*
X25488900Y-20285000D03*
X26517600Y-20285000D03*
X26517600Y-19085000D03*
X25488900Y-19085000D03*
X24460200Y-19085000D03*
X23431500Y-19085000D03*
X22402800Y-19085000D03*
X21374100Y-19085000D03*
X20345400Y-19085000D03*
X19316700Y-19085000D03*
X18288000Y-19085000D03*
X17259300Y-19085000D03*
X16230600Y-19085000D03*
X15201900Y-19085000D03*
X14173200Y-19085000D03*
X13144500Y-19085000D03*
X12115800Y-19085000D03*
X11087100Y-19085000D03*
X10058400Y-19085000D03*
X9029700Y-19085000D03*
X8001000Y-19085000D03*
X9068309Y-22825000D03*
X10094977Y-22825000D03*
X11121645Y-22825000D03*
X12148313Y-22825000D03*
X13174981Y-22825000D03*
X14201649Y-22825000D03*
X15228317Y-22825000D03*
X16254985Y-22825000D03*
X17281653Y-22860000D03*
X18308321Y-22825000D03*
X19334988Y-22825000D03*
X20361656Y-22825000D03*
X21388324Y-22825000D03*
X22414992Y-22825000D03*
X23441660Y-22825000D03*
X24468328Y-22825000D03*
X25494996Y-22825000D03*
X26521664Y-22825000D03*
X26521664Y-21625000D03*
X25494996Y-21625000D03*
X24468328Y-21625000D03*
X23441660Y-21625000D03*
X22414992Y-21625000D03*
X21388324Y-21625000D03*
X20361656Y-21625000D03*
X19334988Y-21625000D03*
X18308321Y-21625000D03*
X17281653Y-21625000D03*
X16254985Y-21625000D03*
X15228317Y-21625000D03*
X14201649Y-21625000D03*
X13174981Y-21625000D03*
X12148313Y-21625000D03*
X11121645Y-21625000D03*
X10094977Y-21625000D03*
X9068309Y-21625000D03*
X8041642Y-21625000D03*
X9068309Y-25365000D03*
X10094977Y-25365000D03*
X11121645Y-25365000D03*
X12148313Y-25365000D03*
X13174981Y-25365000D03*
X14201649Y-25365000D03*
X15228317Y-25365000D03*
X16254985Y-25365000D03*
X17281653Y-25365000D03*
X18308321Y-25365000D03*
X19334988Y-25365000D03*
X20361656Y-25365000D03*
X21388324Y-25365000D03*
X22414992Y-25365000D03*
X23441660Y-25365000D03*
X24468328Y-25365000D03*
X25494996Y-25365000D03*
X26521664Y-25365000D03*
X26521664Y-24165000D03*
X25494996Y-24165000D03*
X24468328Y-24165000D03*
X23441660Y-24165000D03*
X22414992Y-24165000D03*
X21388324Y-24165000D03*
X20361656Y-24165000D03*
X19334988Y-24165000D03*
X18308321Y-24165000D03*
X17281653Y-24165000D03*
X16254985Y-24165000D03*
X15228317Y-24165000D03*
X14201649Y-24165000D03*
X13174981Y-24165000D03*
X12148313Y-24165000D03*
X11121645Y-24165000D03*
X10094977Y-24165000D03*
X9068309Y-24165000D03*
X8041642Y-24165000D03*
X25239578Y-30515000D03*
X24190157Y-30515000D03*
X23140736Y-30515000D03*
X22091315Y-30515000D03*
X21041894Y-30515000D03*
X19992473Y-30515000D03*
X18943052Y-30515000D03*
X17893631Y-30515000D03*
X16844210Y-30515000D03*
X15794789Y-30515000D03*
X14745368Y-30515000D03*
X13695947Y-30515000D03*
X12646526Y-30515000D03*
X11597105Y-30515000D03*
X10547684Y-30515000D03*
X9498263Y-30515000D03*
X8448842Y-30515000D03*
X8420100Y-27905000D03*
X9455150Y-27905000D03*
X10490200Y-27905000D03*
X11525250Y-27905000D03*
X12560300Y-27905000D03*
X13595350Y-27905000D03*
X14630400Y-27905000D03*
X15665450Y-27905000D03*
X16700500Y-27905000D03*
X17735550Y-27905000D03*
X18770600Y-27905000D03*
X19805650Y-27905000D03*
X20840700Y-27905000D03*
X21875750Y-27905000D03*
X22910800Y-27905000D03*
X23945850Y-27905000D03*
X24980900Y-27905000D03*
X26015950Y-27905000D03*
X27051000Y-27905000D03*
X26015950Y-26705000D03*
X24980900Y-26705000D03*
X23945850Y-26705000D03*
X22910800Y-26705000D03*
X21875750Y-26705000D03*
X20840700Y-26705000D03*
X19805650Y-26705000D03*
X18770600Y-26705000D03*
X17735550Y-26705000D03*
X16700500Y-26705000D03*
X15665450Y-26705000D03*
X14630400Y-26705000D03*
X13595350Y-26705000D03*
X12560300Y-26705000D03*
X11525250Y-26705000D03*
X10490200Y-26705000D03*
X9455150Y-26705000D03*
X8420100Y-26705000D03*
X10533529Y-34255000D03*
X11542058Y-34255000D03*
X16584705Y-34255000D03*
X17593235Y-34255000D03*
X18601764Y-34255000D03*
X19610294Y-34255000D03*
X23644411Y-34255000D03*
X24652941Y-34255000D03*
X25661470Y-34255000D03*
X26670000Y-33055000D03*
X8382000Y-32985000D03*
X9398000Y-32985000D03*
X10414000Y-32985000D03*
X11430000Y-32985000D03*
X12446000Y-32985000D03*
X13462000Y-32985000D03*
X14478000Y-32985000D03*
X15494000Y-32985000D03*
X16510000Y-32985000D03*
X17526000Y-32985000D03*
X18542000Y-32985000D03*
X19558000Y-32985000D03*
X20574000Y-32985000D03*
X21590000Y-32985000D03*
X22606000Y-32985000D03*
X23622000Y-32985000D03*
X24638000Y-32985000D03*
X25654000Y-31785000D03*
X24638000Y-31785000D03*
X23622000Y-31785000D03*
X22606000Y-31785000D03*
X21590000Y-31785000D03*
X20574000Y-31785000D03*
X19558000Y-31785000D03*
X18542000Y-31785000D03*
X17526000Y-31785000D03*
X16510000Y-31785000D03*
X15494000Y-31785000D03*
X14478000Y-31785000D03*
X13462000Y-31785000D03*
X12446000Y-31785000D03*
X11430000Y-31785000D03*
X10414000Y-31785000D03*
X9398000Y-31785000D03*
X8382000Y-31785000D03*
X8451983Y-13922235D03*
X9502975Y-13922235D03*
X10553966Y-13922235D03*
X11604958Y-13922235D03*
X12655950Y-13922235D03*
X13706942Y-13922235D03*
X14757933Y-13922235D03*
X15808925Y-13922235D03*
X16859917Y-13922235D03*
X17910909Y-13922235D03*
X18961900Y-13922235D03*
X20012892Y-13922235D03*
X21063884Y-13922235D03*
X22114876Y-13922235D03*
X23165867Y-13922235D03*
X24216859Y-13922235D03*
X25267851Y-13922235D03*
X26318843Y-13922235D03*
X25267851Y-12722235D03*
X24216859Y-12722235D03*
X23165867Y-12722235D03*
X22114876Y-12722235D03*
X21063884Y-12722235D03*
X20012892Y-12722235D03*
X18961900Y-12722235D03*
X17910909Y-12722235D03*
X16859917Y-12722235D03*
X15808925Y-12722235D03*
X14757933Y-12722235D03*
X13706942Y-12722235D03*
X12655950Y-12722235D03*
X11604958Y-12722235D03*
X10553966Y-12722235D03*
X9502975Y-12722235D03*
X8451983Y-12722235D03*
X25622920Y-7945552D03*
X19051824Y-10195000D03*
X17971412Y-10195000D03*
X16891000Y-10195000D03*
X11488940Y-10195000D03*
X9620440Y-9406912D03*
X8832352Y-8618824D03*
X26372736Y-7195736D03*
X10408528Y-10195000D03*
X8044264Y-7830736D03*
X7918486Y-9402014D03*
X8641236Y-10124764D03*
X9363986Y-10847514D03*
X10185150Y-11395000D03*
X11207274Y-11395000D03*
X12229397Y-11395000D03*
X13251520Y-11395000D03*
X14273643Y-11395000D03*
X15295766Y-11395000D03*
X16317889Y-11395000D03*
X17340012Y-11395000D03*
X18362135Y-11395000D03*
X19384259Y-11395000D03*
X20406382Y-11395000D03*
X21428505Y-11395000D03*
X22450628Y-11395000D03*
X23472751Y-11395000D03*
X24330263Y-10935264D03*
X25053013Y-10212514D03*
X25775763Y-9489764D03*
X26498513Y-8767014D03*
D17*
X21590000Y-6985000D03*
X13970000Y-37465000D03*
X21590000Y-37465000D03*
X13970000Y-6985000D03*
D16*
X25654000Y-32985000D03*
D18*
X6350000Y-22225000D02*
X27305000Y-22225000D01*
X27305000Y-22225000D02*
X27559000Y-22225000D01*
X27559000Y-22225000D02*
X28194000Y-21590000D01*
X28194000Y-21590000D02*
X31115000Y-21590000D01*
X31115000Y-21590000D02*
X31115000Y-22860000D01*
X3388358Y-22225000D02*
X2118358Y-23495000D01*
X6350000Y-22225000D02*
X3388358Y-22225000D01*
X2118358Y-23495000D02*
X-6350000Y-23495000D01*
X-6350000Y-23495000D02*
X-6350000Y-22225000D01*
X6350000Y-24765000D02*
X27305000Y-24765000D01*
X27305000Y-24765000D02*
X27432000Y-24765000D01*
X27432000Y-24765000D02*
X28067000Y-24130000D01*
X28067000Y-24130000D02*
X31115000Y-24130000D01*
X31115000Y-24130000D02*
X31115000Y-25400000D01*
X3388358Y-24765000D02*
X2118358Y-26035000D01*
X6350000Y-24765000D02*
X3388358Y-24765000D01*
X2118358Y-26035000D02*
X-6350000Y-26035000D01*
X-6350000Y-26035000D02*
X-6350000Y-24765000D01*
X6350000Y-27305000D02*
X27051000Y-27305000D01*
X27051000Y-27305000D02*
X27686000Y-26670000D01*
X27686000Y-26670000D02*
X31115000Y-26670000D01*
X31115000Y-26670000D02*
X31115000Y-27940000D01*
X3388358Y-27305000D02*
X2118358Y-28575000D01*
X6350000Y-27305000D02*
X3388358Y-27305000D01*
X2118358Y-28575000D02*
X-6350000Y-28575000D01*
X-6350000Y-28575000D02*
X-6350000Y-27305000D01*
X6350000Y-29845000D02*
X6350000Y-31115000D01*
X6350000Y-31115000D02*
X26289000Y-31115000D01*
X26289000Y-31115000D02*
X28194000Y-29210000D01*
X28194000Y-29210000D02*
X31115000Y-29210000D01*
X31115000Y-29210000D02*
X31115000Y-30480000D01*
X3388358Y-29845000D02*
X2118358Y-31115000D01*
X6350000Y-29845000D02*
X3388358Y-29845000D01*
X2118358Y-31115000D02*
X-6350000Y-31115000D01*
X-6350000Y-31115000D02*
X-6350000Y-29845000D01*
X6350000Y-32385000D02*
X26670000Y-32385000D01*
X26670000Y-32385000D02*
X27305000Y-31750000D01*
X27305000Y-31750000D02*
X31115000Y-31750000D01*
X31115000Y-31750000D02*
X31115000Y-33020000D01*
X3388358Y-32385000D02*
X2118358Y-33655000D01*
X6350000Y-32385000D02*
X3388358Y-32385000D01*
X2118358Y-33655000D02*
X-6350000Y-33655000D01*
X-6350000Y-33655000D02*
X-6350000Y-32512000D01*
X6350000Y-34925000D02*
X8255000Y-34925000D01*
X8255000Y-34925000D02*
X9525000Y-33655000D01*
X9525000Y-33655000D02*
X26670000Y-33655000D01*
X26670000Y-33655000D02*
X27305000Y-34290000D01*
X27305000Y-34290000D02*
X31115000Y-34290000D01*
X31115000Y-34290000D02*
X31115000Y-35560000D01*
X3388358Y-34925000D02*
X2118358Y-36195000D01*
X6350000Y-34925000D02*
X3388358Y-34925000D01*
X2118358Y-36195000D02*
X-6350000Y-36195000D01*
X-6350000Y-36195000D02*
X-6350000Y-35052000D01*
X-6350000Y-37490000D02*
X-6350000Y-38862000D01*
X-6350000Y-38862000D02*
X6350000Y-38862000D01*
X6350000Y-38862000D02*
X6350000Y-37465000D01*
X6350000Y-19685000D02*
X27305000Y-19685000D01*
X27305000Y-19685000D02*
X27940000Y-19050000D01*
X27940000Y-19050000D02*
X31115000Y-19050000D01*
X31115000Y-19050000D02*
X31115000Y-20320000D01*
X3388358Y-19685000D02*
X2118358Y-20955000D01*
X6350000Y-19685000D02*
X3388358Y-19685000D01*
X2118358Y-20955000D02*
X-6350000Y-20955000D01*
X-6350000Y-20955000D02*
X-6350000Y-19685000D01*
X6350000Y-17145000D02*
X27432000Y-17145000D01*
X27432000Y-17145000D02*
X28067000Y-16510000D01*
X28067000Y-16510000D02*
X31115000Y-16510000D01*
X31115000Y-16510000D02*
X31115000Y-17780000D01*
X6350000Y-17145000D02*
X3429000Y-17145000D01*
X3429000Y-17145000D02*
X2159000Y-18415000D01*
X2159000Y-18415000D02*
X-6350000Y-18415000D01*
X-6350000Y-18415000D02*
X-6350000Y-17145000D01*
X6350000Y-14605000D02*
X27305000Y-14605000D01*
X27305000Y-14605000D02*
X27940000Y-13970000D01*
X27940000Y-13970000D02*
X31115000Y-13970000D01*
X31115000Y-13970000D02*
X31115000Y-15240000D01*
X3388358Y-14605000D02*
X2118358Y-15875000D01*
X6350000Y-14605000D02*
X3388358Y-14605000D01*
X2118358Y-15875000D02*
X-6350000Y-15875000D01*
X-6350000Y-15875000D02*
X-6350000Y-14605000D01*
X6350000Y-12065000D02*
X6350000Y-13322235D01*
X26318843Y-13322235D02*
X28211078Y-11430000D01*
X6350000Y-13322235D02*
X26318843Y-13322235D01*
X28211078Y-11430000D02*
X31115000Y-11430000D01*
X31115000Y-11430000D02*
X31115000Y-12700000D01*
X3388358Y-12065000D02*
X2118358Y-13335000D01*
X6350000Y-12065000D02*
X3388358Y-12065000D01*
X2118358Y-13335000D02*
X-6350000Y-13335000D01*
X-6350000Y-13335000D02*
X-6350000Y-12065000D01*
D19*
X27432000Y-8890000D02*
X31115000Y-8890000D01*
X31115000Y-8890000D02*
X31115000Y-10160000D01*
X6350000Y-10795000D02*
X8255000Y-10795000D01*
X6350000Y-9525000D02*
X6350000Y-10795000D01*
X9652000Y-12065000D02*
X24130000Y-12065000D01*
D18*
X24257000Y-12065000D02*
X27432000Y-8890000D01*
X24130000Y-12065000D02*
X24257000Y-12065000D01*
X9525000Y-12065000D02*
X8255000Y-10795000D01*
X9652000Y-12065000D02*
X9525000Y-12065000D01*
X3388358Y-9525000D02*
X2118358Y-10795000D01*
X6350000Y-9525000D02*
X3388358Y-9525000D01*
X2118358Y-10795000D02*
X-5842000Y-10795000D01*
X-5842000Y-10795000D02*
X-6350000Y-10795000D01*
X-6350000Y-10795000D02*
X-6350000Y-9652000D01*
D19*
X23660998Y-10756002D02*
X27972001Y-6444999D01*
X27972001Y-6444999D02*
X31039999Y-6444999D01*
X31115000Y-6520000D02*
X31115000Y-7620000D01*
X10160000Y-10795000D02*
X23660998Y-10795000D01*
X31039999Y-6444999D02*
X31115000Y-6520000D01*
X6985000Y-7620000D02*
X10160000Y-10795000D01*
D18*
X3388358Y-6985000D02*
X2118358Y-8255000D01*
X6350000Y-6985000D02*
X3388358Y-6985000D01*
X2118358Y-8255000D02*
X-5715000Y-8255000D01*
X-5715000Y-8255000D02*
X-6350000Y-8255000D01*
X-6350000Y-8255000D02*
X-6350000Y-6985000D01*
G36*
X34519000Y-44044000D02*
G01*
X-12294000Y-44044000D01*
X-12294000Y-8154916D01*
X-10160000Y-8154916D01*
X-10160000Y-8405084D01*
X-10111195Y-8650445D01*
X-10015459Y-8881571D01*
X-9876473Y-9089578D01*
X-9699578Y-9266473D01*
X-9491571Y-9405459D01*
X-9260445Y-9501195D01*
X-9015084Y-9550000D01*
X-9260445Y-9598805D01*
X-9491571Y-9694541D01*
X-9699578Y-9833527D01*
X-9876473Y-10010422D01*
X-10015459Y-10218429D01*
X-10111195Y-10449555D01*
X-10160000Y-10694916D01*
X-10160000Y-10945084D01*
X-10111195Y-11190445D01*
X-10015459Y-11421571D01*
X-9876473Y-11629578D01*
X-9699578Y-11806473D01*
X-9491571Y-11945459D01*
X-9260445Y-12041195D01*
X-9015084Y-12090000D01*
X-9260445Y-12138805D01*
X-9491571Y-12234541D01*
X-9699578Y-12373527D01*
X-9876473Y-12550422D01*
X-10015459Y-12758429D01*
X-10111195Y-12989555D01*
X-10160000Y-13234916D01*
X-10160000Y-13485084D01*
X-10111195Y-13730445D01*
X-10015459Y-13961571D01*
X-9876473Y-14169578D01*
X-9699578Y-14346473D01*
X-9491571Y-14485459D01*
X-9260445Y-14581195D01*
X-9015084Y-14630000D01*
X-9260445Y-14678805D01*
X-9491571Y-14774541D01*
X-9699578Y-14913527D01*
X-9876473Y-15090422D01*
X-10015459Y-15298429D01*
X-10111195Y-15529555D01*
X-10160000Y-15774916D01*
X-10160000Y-16025084D01*
X-10111195Y-16270445D01*
X-10015459Y-16501571D01*
X-9876473Y-16709578D01*
X-9699578Y-16886473D01*
X-9491571Y-17025459D01*
X-9260445Y-17121195D01*
X-9015084Y-17170000D01*
X-9260445Y-17218805D01*
X-9491571Y-17314541D01*
X-9699578Y-17453527D01*
X-9876473Y-17630422D01*
X-10015459Y-17838429D01*
X-10111195Y-18069555D01*
X-10160000Y-18314916D01*
X-10160000Y-18565084D01*
X-10111195Y-18810445D01*
X-10015459Y-19041571D01*
X-9876473Y-19249578D01*
X-9699578Y-19426473D01*
X-9491571Y-19565459D01*
X-9260445Y-19661195D01*
X-9015084Y-19710000D01*
X-9260445Y-19758805D01*
X-9491571Y-19854541D01*
X-9699578Y-19993527D01*
X-9876473Y-20170422D01*
X-10015459Y-20378429D01*
X-10111195Y-20609555D01*
X-10160000Y-20854916D01*
X-10160000Y-21105084D01*
X-10111195Y-21350445D01*
X-10015459Y-21581571D01*
X-9876473Y-21789578D01*
X-9699578Y-21966473D01*
X-9491571Y-22105459D01*
X-9260445Y-22201195D01*
X-9015084Y-22250000D01*
X-9260445Y-22298805D01*
X-9491571Y-22394541D01*
X-9699578Y-22533527D01*
X-9876473Y-22710422D01*
X-10015459Y-22918429D01*
X-10111195Y-23149555D01*
X-10160000Y-23394916D01*
X-10160000Y-23645084D01*
X-10111195Y-23890445D01*
X-10015459Y-24121571D01*
X-9876473Y-24329578D01*
X-9699578Y-24506473D01*
X-9491571Y-24645459D01*
X-9260445Y-24741195D01*
X-9015084Y-24790000D01*
X-9260445Y-24838805D01*
X-9491571Y-24934541D01*
X-9699578Y-25073527D01*
X-9876473Y-25250422D01*
X-10015459Y-25458429D01*
X-10111195Y-25689555D01*
X-10160000Y-25934916D01*
X-10160000Y-26185084D01*
X-10111195Y-26430445D01*
X-10015459Y-26661571D01*
X-9876473Y-26869578D01*
X-9699578Y-27046473D01*
X-9491571Y-27185459D01*
X-9260445Y-27281195D01*
X-9015084Y-27330000D01*
X-9260445Y-27378805D01*
X-9491571Y-27474541D01*
X-9699578Y-27613527D01*
X-9876473Y-27790422D01*
X-10015459Y-27998429D01*
X-10111195Y-28229555D01*
X-10160000Y-28474916D01*
X-10160000Y-28725084D01*
X-10111195Y-28970445D01*
X-10015459Y-29201571D01*
X-9876473Y-29409578D01*
X-9699578Y-29586473D01*
X-9491571Y-29725459D01*
X-9260445Y-29821195D01*
X-9015084Y-29870000D01*
X-9260445Y-29918805D01*
X-9491571Y-30014541D01*
X-9699578Y-30153527D01*
X-9876473Y-30330422D01*
X-10015459Y-30538429D01*
X-10111195Y-30769555D01*
X-10160000Y-31014916D01*
X-10160000Y-31265084D01*
X-10111195Y-31510445D01*
X-10015459Y-31741571D01*
X-9876473Y-31949578D01*
X-9699578Y-32126473D01*
X-9491571Y-32265459D01*
X-9260445Y-32361195D01*
X-9015084Y-32410000D01*
X-9260445Y-32458805D01*
X-9491571Y-32554541D01*
X-9699578Y-32693527D01*
X-9876473Y-32870422D01*
X-10015459Y-33078429D01*
X-10111195Y-33309555D01*
X-10160000Y-33554916D01*
X-10160000Y-33805084D01*
X-10111195Y-34050445D01*
X-10015459Y-34281571D01*
X-9876473Y-34489578D01*
X-9699578Y-34666473D01*
X-9491571Y-34805459D01*
X-9260445Y-34901195D01*
X-9015084Y-34950000D01*
X-9260445Y-34998805D01*
X-9491571Y-35094541D01*
X-9699578Y-35233527D01*
X-9876473Y-35410422D01*
X-10015459Y-35618429D01*
X-10111195Y-35849555D01*
X-10160000Y-36094916D01*
X-10160000Y-36345084D01*
X-10111195Y-36590445D01*
X-10015459Y-36821571D01*
X-9876473Y-37029578D01*
X-9699578Y-37206473D01*
X-9491571Y-37345459D01*
X-9260445Y-37441195D01*
X-9015084Y-37490000D01*
X-8764916Y-37490000D01*
X-8519555Y-37441195D01*
X-8288429Y-37345459D01*
X-8080422Y-37206473D01*
X-7903527Y-37029578D01*
X-7764541Y-36821571D01*
X-7668805Y-36590445D01*
X-7620000Y-36345084D01*
X-7620000Y-36094916D01*
X-7668805Y-35849555D01*
X-7764541Y-35618429D01*
X-7903527Y-35410422D01*
X-8080422Y-35233527D01*
X-8288429Y-35094541D01*
X-8519555Y-34998805D01*
X-8764916Y-34950000D01*
X-8519555Y-34901195D01*
X-8288429Y-34805459D01*
X-8080422Y-34666473D01*
X-7903527Y-34489578D01*
X-7764541Y-34281571D01*
X-7668805Y-34050445D01*
X-7620000Y-33805084D01*
X-7620000Y-33554916D01*
X-7668805Y-33309555D01*
X-7764541Y-33078429D01*
X-7903527Y-32870422D01*
X-8080422Y-32693527D01*
X-8288429Y-32554541D01*
X-8519555Y-32458805D01*
X-8764916Y-32410000D01*
X-8519555Y-32361195D01*
X-8288429Y-32265459D01*
X-8080422Y-32126473D01*
X-7903527Y-31949578D01*
X-7764541Y-31741571D01*
X-7668805Y-31510445D01*
X-7620000Y-31265084D01*
X-7620000Y-31014916D01*
X-7668805Y-30769555D01*
X-7764541Y-30538429D01*
X-7903527Y-30330422D01*
X-8080422Y-30153527D01*
X-8288429Y-30014541D01*
X-8519555Y-29918805D01*
X-8764916Y-29870000D01*
X-8519555Y-29821195D01*
X-8288429Y-29725459D01*
X-8080422Y-29586473D01*
X-7903527Y-29409578D01*
X-7764541Y-29201571D01*
X-7668805Y-28970445D01*
X-7620000Y-28725084D01*
X-7620000Y-28474916D01*
X-7668805Y-28229555D01*
X-7764541Y-27998429D01*
X-7903527Y-27790422D01*
X-8080422Y-27613527D01*
X-8288429Y-27474541D01*
X-8519555Y-27378805D01*
X-8764916Y-27330000D01*
X-8519555Y-27281195D01*
X-8288429Y-27185459D01*
X-8080422Y-27046473D01*
X-7903527Y-26869578D01*
X-7764541Y-26661571D01*
X-7668805Y-26430445D01*
X-7620000Y-26185084D01*
X-7620000Y-25934916D01*
X-7668805Y-25689555D01*
X-7764541Y-25458429D01*
X-7903527Y-25250422D01*
X-8080422Y-25073527D01*
X-8288429Y-24934541D01*
X-8519555Y-24838805D01*
X-8764916Y-24790000D01*
X-8519555Y-24741195D01*
X-8288429Y-24645459D01*
X-8080422Y-24506473D01*
X-7903527Y-24329578D01*
X-7764541Y-24121571D01*
X-7668805Y-23890445D01*
X-7620000Y-23645084D01*
X-7620000Y-23394916D01*
X-7668805Y-23149555D01*
X-7764541Y-22918429D01*
X-7903527Y-22710422D01*
X-8080422Y-22533527D01*
X-8288429Y-22394541D01*
X-8519555Y-22298805D01*
X-8764916Y-22250000D01*
X-8519555Y-22201195D01*
X-8288429Y-22105459D01*
X-8080422Y-21966473D01*
X-7903527Y-21789578D01*
X-7764541Y-21581571D01*
X-7668805Y-21350445D01*
X-7620000Y-21105084D01*
X-7620000Y-20854916D01*
X-7668805Y-20609555D01*
X-7764541Y-20378429D01*
X-7903527Y-20170422D01*
X-8080422Y-19993527D01*
X-8288429Y-19854541D01*
X-8519555Y-19758805D01*
X-8764916Y-19710000D01*
X-8519555Y-19661195D01*
X-8288429Y-19565459D01*
X-8080422Y-19426473D01*
X-7903527Y-19249578D01*
X-7764541Y-19041571D01*
X-7668805Y-18810445D01*
X-7620000Y-18565084D01*
X-7620000Y-18314916D01*
X-7668805Y-18069555D01*
X-7764541Y-17838429D01*
X-7903527Y-17630422D01*
X-8080422Y-17453527D01*
X-8288429Y-17314541D01*
X-8519555Y-17218805D01*
X-8764916Y-17170000D01*
X-8519555Y-17121195D01*
X-8288429Y-17025459D01*
X-8080422Y-16886473D01*
X-7903527Y-16709578D01*
X-7764541Y-16501571D01*
X-7668805Y-16270445D01*
X-7620000Y-16025084D01*
X-7620000Y-15774916D01*
X-7668805Y-15529555D01*
X-7764541Y-15298429D01*
X-7903527Y-15090422D01*
X-8080422Y-14913527D01*
X-8288429Y-14774541D01*
X-8519555Y-14678805D01*
X-8764916Y-14630000D01*
X-8519555Y-14581195D01*
X-8288429Y-14485459D01*
X-8080422Y-14346473D01*
X-7903527Y-14169578D01*
X-7764541Y-13961571D01*
X-7668805Y-13730445D01*
X-7620000Y-13485084D01*
X-7620000Y-13234916D01*
X-7668805Y-12989555D01*
X-7764541Y-12758429D01*
X-7903527Y-12550422D01*
X-8080422Y-12373527D01*
X-8288429Y-12234541D01*
X-8519555Y-12138805D01*
X-8764916Y-12090000D01*
X-8519555Y-12041195D01*
X-8288429Y-11945459D01*
X-8080422Y-11806473D01*
X-7903527Y-11629578D01*
X-7764541Y-11421571D01*
X-7668805Y-11190445D01*
X-7620000Y-10945084D01*
X-7620000Y-10694916D01*
X-7668805Y-10449555D01*
X-7764541Y-10218429D01*
X-7903527Y-10010422D01*
X-8080422Y-9833527D01*
X-8288429Y-9694541D01*
X-8519555Y-9598805D01*
X-8764916Y-9550000D01*
X-8519555Y-9501195D01*
X-8288429Y-9405459D01*
X-8080422Y-9266473D01*
X-7903527Y-9089578D01*
X-7764541Y-8881571D01*
X-7668805Y-8650445D01*
X-7620000Y-8405084D01*
X-7620000Y-8154916D01*
X-7668805Y-7909555D01*
X-7764541Y-7678429D01*
X-7903527Y-7470422D01*
X-8080422Y-7293527D01*
X-8288429Y-7154541D01*
X-8519555Y-7058805D01*
X-8764916Y-7010000D01*
X-9015084Y-7010000D01*
X-9260445Y-7058805D01*
X-9491571Y-7154541D01*
X-9699578Y-7293527D01*
X-9876473Y-7470422D01*
X-10015459Y-7678429D01*
X-10111195Y-7909555D01*
X-10160000Y-8154916D01*
X-12294000Y-8154916D01*
X-12294000Y-6121000D01*
X-7621843Y-6121000D01*
X-7621843Y-7899000D01*
X-7614487Y-7973689D01*
X-7592701Y-8045508D01*
X-7557322Y-8111696D01*
X-7509711Y-8169711D01*
X-7451696Y-8217322D01*
X-7385508Y-8252701D01*
X-7313689Y-8274487D01*
X-7239000Y-8281843D01*
X-6857813Y-8281843D01*
X-6850649Y-8354585D01*
X-6843062Y-8379595D01*
X-6951571Y-8424541D01*
X-7159578Y-8563527D01*
X-7336473Y-8740422D01*
X-7475459Y-8948429D01*
X-7571195Y-9179555D01*
X-7620000Y-9424916D01*
X-7620000Y-9675084D01*
X-7571195Y-9920445D01*
X-7475459Y-10151571D01*
X-7336473Y-10359578D01*
X-7159578Y-10536473D01*
X-6951571Y-10675459D01*
X-6858000Y-10714218D01*
X-6858000Y-10770053D01*
X-6860457Y-10795000D01*
X-6850649Y-10894585D01*
X-6843062Y-10919595D01*
X-6951571Y-10964541D01*
X-7159578Y-11103527D01*
X-7336473Y-11280422D01*
X-7475459Y-11488429D01*
X-7571195Y-11719555D01*
X-7620000Y-11964916D01*
X-7620000Y-12215084D01*
X-7571195Y-12460445D01*
X-7475459Y-12691571D01*
X-7336473Y-12899578D01*
X-7159578Y-13076473D01*
X-6951571Y-13215459D01*
X-6858000Y-13254218D01*
X-6858000Y-13310053D01*
X-6860457Y-13335000D01*
X-6850649Y-13434585D01*
X-6843062Y-13459595D01*
X-6951571Y-13504541D01*
X-7159578Y-13643527D01*
X-7336473Y-13820422D01*
X-7475459Y-14028429D01*
X-7571195Y-14259555D01*
X-7620000Y-14504916D01*
X-7620000Y-14755084D01*
X-7571195Y-15000445D01*
X-7475459Y-15231571D01*
X-7336473Y-15439578D01*
X-7159578Y-15616473D01*
X-6951571Y-15755459D01*
X-6858000Y-15794218D01*
X-6858000Y-15850053D01*
X-6860457Y-15875000D01*
X-6850649Y-15974585D01*
X-6843062Y-15999595D01*
X-6951571Y-16044541D01*
X-7159578Y-16183527D01*
X-7336473Y-16360422D01*
X-7475459Y-16568429D01*
X-7571195Y-16799555D01*
X-7620000Y-17044916D01*
X-7620000Y-17295084D01*
X-7571195Y-17540445D01*
X-7475459Y-17771571D01*
X-7336473Y-17979578D01*
X-7159578Y-18156473D01*
X-6951571Y-18295459D01*
X-6858000Y-18334218D01*
X-6858000Y-18390053D01*
X-6860457Y-18415000D01*
X-6850649Y-18514585D01*
X-6843062Y-18539595D01*
X-6951571Y-18584541D01*
X-7159578Y-18723527D01*
X-7336473Y-18900422D01*
X-7475459Y-19108429D01*
X-7571195Y-19339555D01*
X-7620000Y-19584916D01*
X-7620000Y-19835084D01*
X-7571195Y-20080445D01*
X-7475459Y-20311571D01*
X-7336473Y-20519578D01*
X-7159578Y-20696473D01*
X-6951571Y-20835459D01*
X-6858000Y-20874218D01*
X-6858000Y-20930053D01*
X-6860457Y-20955000D01*
X-6850649Y-21054585D01*
X-6843062Y-21079595D01*
X-6951571Y-21124541D01*
X-7159578Y-21263527D01*
X-7336473Y-21440422D01*
X-7475459Y-21648429D01*
X-7571195Y-21879555D01*
X-7620000Y-22124916D01*
X-7620000Y-22375084D01*
X-7571195Y-22620445D01*
X-7475459Y-22851571D01*
X-7336473Y-23059578D01*
X-7159578Y-23236473D01*
X-6951571Y-23375459D01*
X-6858000Y-23414218D01*
X-6858000Y-23470053D01*
X-6860457Y-23495000D01*
X-6850649Y-23594585D01*
X-6843062Y-23619595D01*
X-6951571Y-23664541D01*
X-7159578Y-23803527D01*
X-7336473Y-23980422D01*
X-7475459Y-24188429D01*
X-7571195Y-24419555D01*
X-7620000Y-24664916D01*
X-7620000Y-24915084D01*
X-7571195Y-25160445D01*
X-7475459Y-25391571D01*
X-7336473Y-25599578D01*
X-7159578Y-25776473D01*
X-6951571Y-25915459D01*
X-6858000Y-25954218D01*
X-6858000Y-26010053D01*
X-6860457Y-26035000D01*
X-6850649Y-26134585D01*
X-6843062Y-26159595D01*
X-6951571Y-26204541D01*
X-7159578Y-26343527D01*
X-7336473Y-26520422D01*
X-7475459Y-26728429D01*
X-7571195Y-26959555D01*
X-7620000Y-27204916D01*
X-7620000Y-27455084D01*
X-7571195Y-27700445D01*
X-7475459Y-27931571D01*
X-7336473Y-28139578D01*
X-7159578Y-28316473D01*
X-6951571Y-28455459D01*
X-6858000Y-28494218D01*
X-6858000Y-28550053D01*
X-6860457Y-28575000D01*
X-6850649Y-28674585D01*
X-6843062Y-28699595D01*
X-6951571Y-28744541D01*
X-7159578Y-28883527D01*
X-7336473Y-29060422D01*
X-7475459Y-29268429D01*
X-7571195Y-29499555D01*
X-7620000Y-29744916D01*
X-7620000Y-29995084D01*
X-7571195Y-30240445D01*
X-7475459Y-30471571D01*
X-7336473Y-30679578D01*
X-7159578Y-30856473D01*
X-6951571Y-30995459D01*
X-6858000Y-31034218D01*
X-6858000Y-31090053D01*
X-6860457Y-31115000D01*
X-6850649Y-31214585D01*
X-6843062Y-31239595D01*
X-6951571Y-31284541D01*
X-7159578Y-31423527D01*
X-7336473Y-31600422D01*
X-7475459Y-31808429D01*
X-7571195Y-32039555D01*
X-7620000Y-32284916D01*
X-7620000Y-32535084D01*
X-7571195Y-32780445D01*
X-7475459Y-33011571D01*
X-7336473Y-33219578D01*
X-7159578Y-33396473D01*
X-6951571Y-33535459D01*
X-6858000Y-33574218D01*
X-6858000Y-33630053D01*
X-6860457Y-33655000D01*
X-6850649Y-33754585D01*
X-6843062Y-33779595D01*
X-6951571Y-33824541D01*
X-7159578Y-33963527D01*
X-7336473Y-34140422D01*
X-7475459Y-34348429D01*
X-7571195Y-34579555D01*
X-7620000Y-34824916D01*
X-7620000Y-35075084D01*
X-7571195Y-35320445D01*
X-7475459Y-35551571D01*
X-7336473Y-35759578D01*
X-7159578Y-35936473D01*
X-6951571Y-36075459D01*
X-6858000Y-36114218D01*
X-6858000Y-36170053D01*
X-6860457Y-36195000D01*
X-6850649Y-36294585D01*
X-6843062Y-36319595D01*
X-6951571Y-36364541D01*
X-7159578Y-36503527D01*
X-7336473Y-36680422D01*
X-7475459Y-36888429D01*
X-7571195Y-37119555D01*
X-7620000Y-37364916D01*
X-7620000Y-37615084D01*
X-7571195Y-37860445D01*
X-7475459Y-38091571D01*
X-7336473Y-38299578D01*
X-7159578Y-38476473D01*
X-6951571Y-38615459D01*
X-6857999Y-38654218D01*
X-6857999Y-38837043D01*
X-6860457Y-38862000D01*
X-6850649Y-38961585D01*
X-6821601Y-39057343D01*
X-6774429Y-39145595D01*
X-6710948Y-39222948D01*
X-6633595Y-39286429D01*
X-6545343Y-39333601D01*
X-6449585Y-39362649D01*
X-6374947Y-39370000D01*
X-6350000Y-39372457D01*
X-6325053Y-39370000D01*
X6325053Y-39370000D01*
X6350000Y-39372457D01*
X6374947Y-39370000D01*
X6449585Y-39362649D01*
X6545343Y-39333601D01*
X6633595Y-39286429D01*
X6710948Y-39222948D01*
X6774429Y-39145595D01*
X6821601Y-39057343D01*
X6850649Y-38961585D01*
X6860457Y-38862000D01*
X6858000Y-38837053D01*
X6858000Y-38629218D01*
X6951571Y-38590459D01*
X7159578Y-38451473D01*
X7336473Y-38274578D01*
X7475459Y-38066571D01*
X7571195Y-37835445D01*
X7620000Y-37590084D01*
X7620000Y-37339916D01*
X7571195Y-37094555D01*
X7475459Y-36863429D01*
X7336473Y-36655422D01*
X7159578Y-36478527D01*
X6951571Y-36339541D01*
X6720445Y-36243805D01*
X6475084Y-36195000D01*
X6720445Y-36146195D01*
X6951571Y-36050459D01*
X7159578Y-35911473D01*
X7336473Y-35734578D01*
X7475459Y-35526571D01*
X7514218Y-35433000D01*
X8230056Y-35433000D01*
X8255000Y-35435457D01*
X8279944Y-35433000D01*
X8279947Y-35433000D01*
X8354585Y-35425649D01*
X8450343Y-35396601D01*
X8538595Y-35349429D01*
X8615948Y-35285948D01*
X8631855Y-35266565D01*
X9735421Y-34163000D01*
X26459580Y-34163000D01*
X26928145Y-34631565D01*
X26944052Y-34650948D01*
X27021405Y-34714429D01*
X27109657Y-34761601D01*
X27205415Y-34790649D01*
X27280053Y-34798000D01*
X27280056Y-34798000D01*
X27305000Y-34800457D01*
X27329944Y-34798000D01*
X27603641Y-34798000D01*
X27484102Y-34976903D01*
X27391307Y-35200931D01*
X27344000Y-35438757D01*
X27344000Y-35681243D01*
X27391307Y-35919069D01*
X27484102Y-36143097D01*
X27618820Y-36344717D01*
X27790283Y-36516180D01*
X27991903Y-36650898D01*
X28215931Y-36743693D01*
X28453757Y-36791000D01*
X28696243Y-36791000D01*
X28934069Y-36743693D01*
X29158097Y-36650898D01*
X29359717Y-36516180D01*
X29531180Y-36344717D01*
X29665898Y-36143097D01*
X29758693Y-35919069D01*
X29806000Y-35681243D01*
X29806000Y-35438757D01*
X29758693Y-35200931D01*
X29665898Y-34976903D01*
X29546359Y-34798000D01*
X30143641Y-34798000D01*
X30024102Y-34976903D01*
X29931307Y-35200931D01*
X29884000Y-35438757D01*
X29884000Y-35681243D01*
X29931307Y-35919069D01*
X30024102Y-36143097D01*
X30158820Y-36344717D01*
X30330283Y-36516180D01*
X30531903Y-36650898D01*
X30755931Y-36743693D01*
X30993757Y-36791000D01*
X31236243Y-36791000D01*
X31474069Y-36743693D01*
X31698097Y-36650898D01*
X31899717Y-36516180D01*
X32071180Y-36344717D01*
X32205898Y-36143097D01*
X32298693Y-35919069D01*
X32346000Y-35681243D01*
X32346000Y-35438757D01*
X32298693Y-35200931D01*
X32205898Y-34976903D01*
X32071180Y-34775283D01*
X31899717Y-34603820D01*
X31698097Y-34469102D01*
X31623000Y-34437996D01*
X31623000Y-34314947D01*
X31625457Y-34290000D01*
X31615649Y-34190415D01*
X31603423Y-34150113D01*
X31698097Y-34110898D01*
X31899717Y-33976180D01*
X32071180Y-33804717D01*
X32205898Y-33603097D01*
X32298693Y-33379069D01*
X32346000Y-33141243D01*
X32346000Y-32898757D01*
X32298693Y-32660931D01*
X32205898Y-32436903D01*
X32071180Y-32235283D01*
X31899717Y-32063820D01*
X31698097Y-31929102D01*
X31623000Y-31897996D01*
X31623000Y-31774947D01*
X31625457Y-31750000D01*
X31615649Y-31650415D01*
X31603423Y-31610113D01*
X31698097Y-31570898D01*
X31899717Y-31436180D01*
X32071180Y-31264717D01*
X32205898Y-31063097D01*
X32298693Y-30839069D01*
X32346000Y-30601243D01*
X32346000Y-30358757D01*
X32298693Y-30120931D01*
X32205898Y-29896903D01*
X32071180Y-29695283D01*
X31899717Y-29523820D01*
X31698097Y-29389102D01*
X31623000Y-29357996D01*
X31623000Y-29234947D01*
X31625457Y-29210000D01*
X31615649Y-29110415D01*
X31603423Y-29070113D01*
X31698097Y-29030898D01*
X31899717Y-28896180D01*
X32071180Y-28724717D01*
X32205898Y-28523097D01*
X32298693Y-28299069D01*
X32346000Y-28061243D01*
X32346000Y-27818757D01*
X32298693Y-27580931D01*
X32205898Y-27356903D01*
X32071180Y-27155283D01*
X31899717Y-26983820D01*
X31698097Y-26849102D01*
X31623000Y-26817996D01*
X31623000Y-26694947D01*
X31625457Y-26670000D01*
X31615649Y-26570415D01*
X31603423Y-26530113D01*
X31698097Y-26490898D01*
X31899717Y-26356180D01*
X32071180Y-26184717D01*
X32205898Y-25983097D01*
X32298693Y-25759069D01*
X32346000Y-25521243D01*
X32346000Y-25278757D01*
X32298693Y-25040931D01*
X32205898Y-24816903D01*
X32071180Y-24615283D01*
X31899717Y-24443820D01*
X31698097Y-24309102D01*
X31623000Y-24277996D01*
X31623000Y-24154947D01*
X31625457Y-24130000D01*
X31615649Y-24030415D01*
X31603423Y-23990113D01*
X31698097Y-23950898D01*
X31899717Y-23816180D01*
X32071180Y-23644717D01*
X32205898Y-23443097D01*
X32298693Y-23219069D01*
X32346000Y-22981243D01*
X32346000Y-22738757D01*
X32298693Y-22500931D01*
X32205898Y-22276903D01*
X32071180Y-22075283D01*
X31899717Y-21903820D01*
X31698097Y-21769102D01*
X31623000Y-21737996D01*
X31623000Y-21614947D01*
X31625457Y-21590000D01*
X31615649Y-21490415D01*
X31603423Y-21450113D01*
X31698097Y-21410898D01*
X31899717Y-21276180D01*
X32071180Y-21104717D01*
X32205898Y-20903097D01*
X32298693Y-20679069D01*
X32346000Y-20441243D01*
X32346000Y-20198757D01*
X32298693Y-19960931D01*
X32205898Y-19736903D01*
X32071180Y-19535283D01*
X31899717Y-19363820D01*
X31698097Y-19229102D01*
X31623000Y-19197996D01*
X31623000Y-19074947D01*
X31625457Y-19050000D01*
X31615649Y-18950415D01*
X31603423Y-18910113D01*
X31698097Y-18870898D01*
X31899717Y-18736180D01*
X32071180Y-18564717D01*
X32205898Y-18363097D01*
X32298693Y-18139069D01*
X32346000Y-17901243D01*
X32346000Y-17658757D01*
X32298693Y-17420931D01*
X32205898Y-17196903D01*
X32071180Y-16995283D01*
X31899717Y-16823820D01*
X31698097Y-16689102D01*
X31623000Y-16657996D01*
X31623000Y-16534947D01*
X31625457Y-16510000D01*
X31615649Y-16410415D01*
X31603423Y-16370113D01*
X31698097Y-16330898D01*
X31899717Y-16196180D01*
X32071180Y-16024717D01*
X32205898Y-15823097D01*
X32298693Y-15599069D01*
X32346000Y-15361243D01*
X32346000Y-15118757D01*
X32298693Y-14880931D01*
X32205898Y-14656903D01*
X32071180Y-14455283D01*
X31899717Y-14283820D01*
X31698097Y-14149102D01*
X31623000Y-14117996D01*
X31623000Y-13994947D01*
X31625457Y-13970000D01*
X31615649Y-13870415D01*
X31603423Y-13830113D01*
X31698097Y-13790898D01*
X31899717Y-13656180D01*
X32071180Y-13484717D01*
X32205898Y-13283097D01*
X32298693Y-13059069D01*
X32346000Y-12821243D01*
X32346000Y-12578757D01*
X32298693Y-12340931D01*
X32205898Y-12116903D01*
X32071180Y-11915283D01*
X31899717Y-11743820D01*
X31698097Y-11609102D01*
X31623000Y-11577996D01*
X31623000Y-11454947D01*
X31625457Y-11430000D01*
X31615649Y-11330415D01*
X31603423Y-11290113D01*
X31698097Y-11250898D01*
X31899717Y-11116180D01*
X32071180Y-10944717D01*
X32205898Y-10743097D01*
X32298693Y-10519069D01*
X32346000Y-10281243D01*
X32346000Y-10038757D01*
X32298693Y-9800931D01*
X32205898Y-9576903D01*
X32071180Y-9375283D01*
X31899717Y-9203820D01*
X31698097Y-9069102D01*
X31621000Y-9037168D01*
X31621000Y-8914854D01*
X31623448Y-8890000D01*
X31619788Y-8852843D01*
X31965000Y-8852843D01*
X32039689Y-8845487D01*
X32111508Y-8823701D01*
X32177696Y-8788322D01*
X32235711Y-8740711D01*
X32283322Y-8682696D01*
X32318701Y-8616508D01*
X32340487Y-8544689D01*
X32347843Y-8470000D01*
X32347843Y-6770000D01*
X32340487Y-6695311D01*
X32318701Y-6623492D01*
X32283322Y-6557304D01*
X32235711Y-6499289D01*
X32177696Y-6451678D01*
X32111508Y-6416299D01*
X32039689Y-6394513D01*
X31965000Y-6387157D01*
X31603471Y-6387157D01*
X31584745Y-6325425D01*
X31537759Y-6237521D01*
X31474527Y-6160473D01*
X31455215Y-6144624D01*
X31415375Y-6104784D01*
X31399526Y-6085472D01*
X31322478Y-6022240D01*
X31234574Y-5975254D01*
X31139192Y-5946321D01*
X31064853Y-5938999D01*
X31064845Y-5938999D01*
X31039999Y-5936552D01*
X31015153Y-5938999D01*
X27996855Y-5938999D01*
X27972001Y-5936551D01*
X27947147Y-5938999D01*
X27872808Y-5946321D01*
X27777426Y-5975254D01*
X27689522Y-6022240D01*
X27612474Y-6085472D01*
X27596629Y-6104779D01*
X23412409Y-10289000D01*
X10369592Y-10289000D01*
X7621843Y-7541252D01*
X7621843Y-6096000D01*
X7614487Y-6021311D01*
X7592701Y-5949492D01*
X7557322Y-5883304D01*
X7509711Y-5825289D01*
X7451696Y-5777678D01*
X7385508Y-5742299D01*
X7313689Y-5720513D01*
X7239000Y-5713157D01*
X5461000Y-5713157D01*
X5386311Y-5720513D01*
X5314492Y-5742299D01*
X5248304Y-5777678D01*
X5190289Y-5825289D01*
X5142678Y-5883304D01*
X5107299Y-5949492D01*
X5085513Y-6021311D01*
X5078157Y-6096000D01*
X5078157Y-6477000D01*
X3413301Y-6477000D01*
X3388357Y-6474543D01*
X3363413Y-6477000D01*
X3363411Y-6477000D01*
X3288773Y-6484351D01*
X3193015Y-6513399D01*
X3193013Y-6513400D01*
X3104762Y-6560571D01*
X3050168Y-6605376D01*
X3027410Y-6624052D01*
X3011508Y-6643429D01*
X2966720Y-6688217D01*
X2966720Y-6663955D01*
X2940561Y-6532441D01*
X2889246Y-6408558D01*
X2814750Y-6297066D01*
X2719934Y-6202250D01*
X2608442Y-6127754D01*
X2484559Y-6076439D01*
X2353045Y-6050280D01*
X2218955Y-6050280D01*
X2087441Y-6076439D01*
X1963558Y-6127754D01*
X1852066Y-6202250D01*
X1757250Y-6297066D01*
X1682754Y-6408558D01*
X1631439Y-6532441D01*
X1605280Y-6663955D01*
X1605280Y-6798045D01*
X1631439Y-6929559D01*
X1682754Y-7053442D01*
X1757250Y-7164934D01*
X1852066Y-7259750D01*
X1963558Y-7334246D01*
X2087441Y-7385561D01*
X2218955Y-7411720D01*
X2243218Y-7411720D01*
X1907938Y-7747000D01*
X-5078157Y-7747000D01*
X-5078157Y-6121000D01*
X-5085513Y-6046311D01*
X-5107299Y-5974492D01*
X-5142678Y-5908304D01*
X-5190289Y-5850289D01*
X-5248304Y-5802678D01*
X-5314492Y-5767299D01*
X-5386311Y-5745513D01*
X-5461000Y-5738157D01*
X-7239000Y-5738157D01*
X-7313689Y-5745513D01*
X-7385508Y-5767299D01*
X-7451696Y-5802678D01*
X-7509711Y-5850289D01*
X-7557322Y-5908304D01*
X-7592701Y-5974492D01*
X-7614487Y-6046311D01*
X-7621843Y-6121000D01*
X-12294000Y-6121000D01*
X-12294000Y-406000D01*
X34519001Y-406000D01*
X34519000Y-44044000D01*
G37*
X34519000Y-44044000D02*
X-12294000Y-44044000D01*
X-12294000Y-8154916D01*
X-10160000Y-8154916D01*
X-10160000Y-8405084D01*
X-10111195Y-8650445D01*
X-10015459Y-8881571D01*
X-9876473Y-9089578D01*
X-9699578Y-9266473D01*
X-9491571Y-9405459D01*
X-9260445Y-9501195D01*
X-9015084Y-9550000D01*
X-9260445Y-9598805D01*
X-9491571Y-9694541D01*
X-9699578Y-9833527D01*
X-9876473Y-10010422D01*
X-10015459Y-10218429D01*
X-10111195Y-10449555D01*
X-10160000Y-10694916D01*
X-10160000Y-10945084D01*
X-10111195Y-11190445D01*
X-10015459Y-11421571D01*
X-9876473Y-11629578D01*
X-9699578Y-11806473D01*
X-9491571Y-11945459D01*
X-9260445Y-12041195D01*
X-9015084Y-12090000D01*
X-9260445Y-12138805D01*
X-9491571Y-12234541D01*
X-9699578Y-12373527D01*
X-9876473Y-12550422D01*
X-10015459Y-12758429D01*
X-10111195Y-12989555D01*
X-10160000Y-13234916D01*
X-10160000Y-13485084D01*
X-10111195Y-13730445D01*
X-10015459Y-13961571D01*
X-9876473Y-14169578D01*
X-9699578Y-14346473D01*
X-9491571Y-14485459D01*
X-9260445Y-14581195D01*
X-9015084Y-14630000D01*
X-9260445Y-14678805D01*
X-9491571Y-14774541D01*
X-9699578Y-14913527D01*
X-9876473Y-15090422D01*
X-10015459Y-15298429D01*
X-10111195Y-15529555D01*
X-10160000Y-15774916D01*
X-10160000Y-16025084D01*
X-10111195Y-16270445D01*
X-10015459Y-16501571D01*
X-9876473Y-16709578D01*
X-9699578Y-16886473D01*
X-9491571Y-17025459D01*
X-9260445Y-17121195D01*
X-9015084Y-17170000D01*
X-9260445Y-17218805D01*
X-9491571Y-17314541D01*
X-9699578Y-17453527D01*
X-9876473Y-17630422D01*
X-10015459Y-17838429D01*
X-10111195Y-18069555D01*
X-10160000Y-18314916D01*
X-10160000Y-18565084D01*
X-10111195Y-18810445D01*
X-10015459Y-19041571D01*
X-9876473Y-19249578D01*
X-9699578Y-19426473D01*
X-9491571Y-19565459D01*
X-9260445Y-19661195D01*
X-9015084Y-19710000D01*
X-9260445Y-19758805D01*
X-9491571Y-19854541D01*
X-9699578Y-19993527D01*
X-9876473Y-20170422D01*
X-10015459Y-20378429D01*
X-10111195Y-20609555D01*
X-10160000Y-20854916D01*
X-10160000Y-21105084D01*
X-10111195Y-21350445D01*
X-10015459Y-21581571D01*
X-9876473Y-21789578D01*
X-9699578Y-21966473D01*
X-9491571Y-22105459D01*
X-9260445Y-22201195D01*
X-9015084Y-22250000D01*
X-9260445Y-22298805D01*
X-9491571Y-22394541D01*
X-9699578Y-22533527D01*
X-9876473Y-22710422D01*
X-10015459Y-22918429D01*
X-10111195Y-23149555D01*
X-10160000Y-23394916D01*
X-10160000Y-23645084D01*
X-10111195Y-23890445D01*
X-10015459Y-24121571D01*
X-9876473Y-24329578D01*
X-9699578Y-24506473D01*
X-9491571Y-24645459D01*
X-9260445Y-24741195D01*
X-9015084Y-24790000D01*
X-9260445Y-24838805D01*
X-9491571Y-24934541D01*
X-9699578Y-25073527D01*
X-9876473Y-25250422D01*
X-10015459Y-25458429D01*
X-10111195Y-25689555D01*
X-10160000Y-25934916D01*
X-10160000Y-26185084D01*
X-10111195Y-26430445D01*
X-10015459Y-26661571D01*
X-9876473Y-26869578D01*
X-9699578Y-27046473D01*
X-9491571Y-27185459D01*
X-9260445Y-27281195D01*
X-9015084Y-27330000D01*
X-9260445Y-27378805D01*
X-9491571Y-27474541D01*
X-9699578Y-27613527D01*
X-9876473Y-27790422D01*
X-10015459Y-27998429D01*
X-10111195Y-28229555D01*
X-10160000Y-28474916D01*
X-10160000Y-28725084D01*
X-10111195Y-28970445D01*
X-10015459Y-29201571D01*
X-9876473Y-29409578D01*
X-9699578Y-29586473D01*
X-9491571Y-29725459D01*
X-9260445Y-29821195D01*
X-9015084Y-29870000D01*
X-9260445Y-29918805D01*
X-9491571Y-30014541D01*
X-9699578Y-30153527D01*
X-9876473Y-30330422D01*
X-10015459Y-30538429D01*
X-10111195Y-30769555D01*
X-10160000Y-31014916D01*
X-10160000Y-31265084D01*
X-10111195Y-31510445D01*
X-10015459Y-31741571D01*
X-9876473Y-31949578D01*
X-9699578Y-32126473D01*
X-9491571Y-32265459D01*
X-9260445Y-32361195D01*
X-9015084Y-32410000D01*
X-9260445Y-32458805D01*
X-9491571Y-32554541D01*
X-9699578Y-32693527D01*
X-9876473Y-32870422D01*
X-10015459Y-33078429D01*
X-10111195Y-33309555D01*
X-10160000Y-33554916D01*
X-10160000Y-33805084D01*
X-10111195Y-34050445D01*
X-10015459Y-34281571D01*
X-9876473Y-34489578D01*
X-9699578Y-34666473D01*
X-9491571Y-34805459D01*
X-9260445Y-34901195D01*
X-9015084Y-34950000D01*
X-9260445Y-34998805D01*
X-9491571Y-35094541D01*
X-9699578Y-35233527D01*
X-9876473Y-35410422D01*
X-10015459Y-35618429D01*
X-10111195Y-35849555D01*
X-10160000Y-36094916D01*
X-10160000Y-36345084D01*
X-10111195Y-36590445D01*
X-10015459Y-36821571D01*
X-9876473Y-37029578D01*
X-9699578Y-37206473D01*
X-9491571Y-37345459D01*
X-9260445Y-37441195D01*
X-9015084Y-37490000D01*
X-8764916Y-37490000D01*
X-8519555Y-37441195D01*
X-8288429Y-37345459D01*
X-8080422Y-37206473D01*
X-7903527Y-37029578D01*
X-7764541Y-36821571D01*
X-7668805Y-36590445D01*
X-7620000Y-36345084D01*
X-7620000Y-36094916D01*
X-7668805Y-35849555D01*
X-7764541Y-35618429D01*
X-7903527Y-35410422D01*
X-8080422Y-35233527D01*
X-8288429Y-35094541D01*
X-8519555Y-34998805D01*
X-8764916Y-34950000D01*
X-8519555Y-34901195D01*
X-8288429Y-34805459D01*
X-8080422Y-34666473D01*
X-7903527Y-34489578D01*
X-7764541Y-34281571D01*
X-7668805Y-34050445D01*
X-7620000Y-33805084D01*
X-7620000Y-33554916D01*
X-7668805Y-33309555D01*
X-7764541Y-33078429D01*
X-7903527Y-32870422D01*
X-8080422Y-32693527D01*
X-8288429Y-32554541D01*
X-8519555Y-32458805D01*
X-8764916Y-32410000D01*
X-8519555Y-32361195D01*
X-8288429Y-32265459D01*
X-8080422Y-32126473D01*
X-7903527Y-31949578D01*
X-7764541Y-31741571D01*
X-7668805Y-31510445D01*
X-7620000Y-31265084D01*
X-7620000Y-31014916D01*
X-7668805Y-30769555D01*
X-7764541Y-30538429D01*
X-7903527Y-30330422D01*
X-8080422Y-30153527D01*
X-8288429Y-30014541D01*
X-8519555Y-29918805D01*
X-8764916Y-29870000D01*
X-8519555Y-29821195D01*
X-8288429Y-29725459D01*
X-8080422Y-29586473D01*
X-7903527Y-29409578D01*
X-7764541Y-29201571D01*
X-7668805Y-28970445D01*
X-7620000Y-28725084D01*
X-7620000Y-28474916D01*
X-7668805Y-28229555D01*
X-7764541Y-27998429D01*
X-7903527Y-27790422D01*
X-8080422Y-27613527D01*
X-8288429Y-27474541D01*
X-8519555Y-27378805D01*
X-8764916Y-27330000D01*
X-8519555Y-27281195D01*
X-8288429Y-27185459D01*
X-8080422Y-27046473D01*
X-7903527Y-26869578D01*
X-7764541Y-26661571D01*
X-7668805Y-26430445D01*
X-7620000Y-26185084D01*
X-7620000Y-25934916D01*
X-7668805Y-25689555D01*
X-7764541Y-25458429D01*
X-7903527Y-25250422D01*
X-8080422Y-25073527D01*
X-8288429Y-24934541D01*
X-8519555Y-24838805D01*
X-8764916Y-24790000D01*
X-8519555Y-24741195D01*
X-8288429Y-24645459D01*
X-8080422Y-24506473D01*
X-7903527Y-24329578D01*
X-7764541Y-24121571D01*
X-7668805Y-23890445D01*
X-7620000Y-23645084D01*
X-7620000Y-23394916D01*
X-7668805Y-23149555D01*
X-7764541Y-22918429D01*
X-7903527Y-22710422D01*
X-8080422Y-22533527D01*
X-8288429Y-22394541D01*
X-8519555Y-22298805D01*
X-8764916Y-22250000D01*
X-8519555Y-22201195D01*
X-8288429Y-22105459D01*
X-8080422Y-21966473D01*
X-7903527Y-21789578D01*
X-7764541Y-21581571D01*
X-7668805Y-21350445D01*
X-7620000Y-21105084D01*
X-7620000Y-20854916D01*
X-7668805Y-20609555D01*
X-7764541Y-20378429D01*
X-7903527Y-20170422D01*
X-8080422Y-19993527D01*
X-8288429Y-19854541D01*
X-8519555Y-19758805D01*
X-8764916Y-19710000D01*
X-8519555Y-19661195D01*
X-8288429Y-19565459D01*
X-8080422Y-19426473D01*
X-7903527Y-19249578D01*
X-7764541Y-19041571D01*
X-7668805Y-18810445D01*
X-7620000Y-18565084D01*
X-7620000Y-18314916D01*
X-7668805Y-18069555D01*
X-7764541Y-17838429D01*
X-7903527Y-17630422D01*
X-8080422Y-17453527D01*
X-8288429Y-17314541D01*
X-8519555Y-17218805D01*
X-8764916Y-17170000D01*
X-8519555Y-17121195D01*
X-8288429Y-17025459D01*
X-8080422Y-16886473D01*
X-7903527Y-16709578D01*
X-7764541Y-16501571D01*
X-7668805Y-16270445D01*
X-7620000Y-16025084D01*
X-7620000Y-15774916D01*
X-7668805Y-15529555D01*
X-7764541Y-15298429D01*
X-7903527Y-15090422D01*
X-8080422Y-14913527D01*
X-8288429Y-14774541D01*
X-8519555Y-14678805D01*
X-8764916Y-14630000D01*
X-8519555Y-14581195D01*
X-8288429Y-14485459D01*
X-8080422Y-14346473D01*
X-7903527Y-14169578D01*
X-7764541Y-13961571D01*
X-7668805Y-13730445D01*
X-7620000Y-13485084D01*
X-7620000Y-13234916D01*
X-7668805Y-12989555D01*
X-7764541Y-12758429D01*
X-7903527Y-12550422D01*
X-8080422Y-12373527D01*
X-8288429Y-12234541D01*
X-8519555Y-12138805D01*
X-8764916Y-12090000D01*
X-8519555Y-12041195D01*
X-8288429Y-11945459D01*
X-8080422Y-11806473D01*
X-7903527Y-11629578D01*
X-7764541Y-11421571D01*
X-7668805Y-11190445D01*
X-7620000Y-10945084D01*
X-7620000Y-10694916D01*
X-7668805Y-10449555D01*
X-7764541Y-10218429D01*
X-7903527Y-10010422D01*
X-8080422Y-9833527D01*
X-8288429Y-9694541D01*
X-8519555Y-9598805D01*
X-8764916Y-9550000D01*
X-8519555Y-9501195D01*
X-8288429Y-9405459D01*
X-8080422Y-9266473D01*
X-7903527Y-9089578D01*
X-7764541Y-8881571D01*
X-7668805Y-8650445D01*
X-7620000Y-8405084D01*
X-7620000Y-8154916D01*
X-7668805Y-7909555D01*
X-7764541Y-7678429D01*
X-7903527Y-7470422D01*
X-8080422Y-7293527D01*
X-8288429Y-7154541D01*
X-8519555Y-7058805D01*
X-8764916Y-7010000D01*
X-9015084Y-7010000D01*
X-9260445Y-7058805D01*
X-9491571Y-7154541D01*
X-9699578Y-7293527D01*
X-9876473Y-7470422D01*
X-10015459Y-7678429D01*
X-10111195Y-7909555D01*
X-10160000Y-8154916D01*
X-12294000Y-8154916D01*
X-12294000Y-6121000D01*
X-7621843Y-6121000D01*
X-7621843Y-7899000D01*
X-7614487Y-7973689D01*
X-7592701Y-8045508D01*
X-7557322Y-8111696D01*
X-7509711Y-8169711D01*
X-7451696Y-8217322D01*
X-7385508Y-8252701D01*
X-7313689Y-8274487D01*
X-7239000Y-8281843D01*
X-6857813Y-8281843D01*
X-6850649Y-8354585D01*
X-6843062Y-8379595D01*
X-6951571Y-8424541D01*
X-7159578Y-8563527D01*
X-7336473Y-8740422D01*
X-7475459Y-8948429D01*
X-7571195Y-9179555D01*
X-7620000Y-9424916D01*
X-7620000Y-9675084D01*
X-7571195Y-9920445D01*
X-7475459Y-10151571D01*
X-7336473Y-10359578D01*
X-7159578Y-10536473D01*
X-6951571Y-10675459D01*
X-6858000Y-10714218D01*
X-6858000Y-10770053D01*
X-6860457Y-10795000D01*
X-6850649Y-10894585D01*
X-6843062Y-10919595D01*
X-6951571Y-10964541D01*
X-7159578Y-11103527D01*
X-7336473Y-11280422D01*
X-7475459Y-11488429D01*
X-7571195Y-11719555D01*
X-7620000Y-11964916D01*
X-7620000Y-12215084D01*
X-7571195Y-12460445D01*
X-7475459Y-12691571D01*
X-7336473Y-12899578D01*
X-7159578Y-13076473D01*
X-6951571Y-13215459D01*
X-6858000Y-13254218D01*
X-6858000Y-13310053D01*
X-6860457Y-13335000D01*
X-6850649Y-13434585D01*
X-6843062Y-13459595D01*
X-6951571Y-13504541D01*
X-7159578Y-13643527D01*
X-7336473Y-13820422D01*
X-7475459Y-14028429D01*
X-7571195Y-14259555D01*
X-7620000Y-14504916D01*
X-7620000Y-14755084D01*
X-7571195Y-15000445D01*
X-7475459Y-15231571D01*
X-7336473Y-15439578D01*
X-7159578Y-15616473D01*
X-6951571Y-15755459D01*
X-6858000Y-15794218D01*
X-6858000Y-15850053D01*
X-6860457Y-15875000D01*
X-6850649Y-15974585D01*
X-6843062Y-15999595D01*
X-6951571Y-16044541D01*
X-7159578Y-16183527D01*
X-7336473Y-16360422D01*
X-7475459Y-16568429D01*
X-7571195Y-16799555D01*
X-7620000Y-17044916D01*
X-7620000Y-17295084D01*
X-7571195Y-17540445D01*
X-7475459Y-17771571D01*
X-7336473Y-17979578D01*
X-7159578Y-18156473D01*
X-6951571Y-18295459D01*
X-6858000Y-18334218D01*
X-6858000Y-18390053D01*
X-6860457Y-18415000D01*
X-6850649Y-18514585D01*
X-6843062Y-18539595D01*
X-6951571Y-18584541D01*
X-7159578Y-18723527D01*
X-7336473Y-18900422D01*
X-7475459Y-19108429D01*
X-7571195Y-19339555D01*
X-7620000Y-19584916D01*
X-7620000Y-19835084D01*
X-7571195Y-20080445D01*
X-7475459Y-20311571D01*
X-7336473Y-20519578D01*
X-7159578Y-20696473D01*
X-6951571Y-20835459D01*
X-6858000Y-20874218D01*
X-6858000Y-20930053D01*
X-6860457Y-20955000D01*
X-6850649Y-21054585D01*
X-6843062Y-21079595D01*
X-6951571Y-21124541D01*
X-7159578Y-21263527D01*
X-7336473Y-21440422D01*
X-7475459Y-21648429D01*
X-7571195Y-21879555D01*
X-7620000Y-22124916D01*
X-7620000Y-22375084D01*
X-7571195Y-22620445D01*
X-7475459Y-22851571D01*
X-7336473Y-23059578D01*
X-7159578Y-23236473D01*
X-6951571Y-23375459D01*
X-6858000Y-23414218D01*
X-6858000Y-23470053D01*
X-6860457Y-23495000D01*
X-6850649Y-23594585D01*
X-6843062Y-23619595D01*
X-6951571Y-23664541D01*
X-7159578Y-23803527D01*
X-7336473Y-23980422D01*
X-7475459Y-24188429D01*
X-7571195Y-24419555D01*
X-7620000Y-24664916D01*
X-7620000Y-24915084D01*
X-7571195Y-25160445D01*
X-7475459Y-25391571D01*
X-7336473Y-25599578D01*
X-7159578Y-25776473D01*
X-6951571Y-25915459D01*
X-6858000Y-25954218D01*
X-6858000Y-26010053D01*
X-6860457Y-26035000D01*
X-6850649Y-26134585D01*
X-6843062Y-26159595D01*
X-6951571Y-26204541D01*
X-7159578Y-26343527D01*
X-7336473Y-26520422D01*
X-7475459Y-26728429D01*
X-7571195Y-26959555D01*
X-7620000Y-27204916D01*
X-7620000Y-27455084D01*
X-7571195Y-27700445D01*
X-7475459Y-27931571D01*
X-7336473Y-28139578D01*
X-7159578Y-28316473D01*
X-6951571Y-28455459D01*
X-6858000Y-28494218D01*
X-6858000Y-28550053D01*
X-6860457Y-28575000D01*
X-6850649Y-28674585D01*
X-6843062Y-28699595D01*
X-6951571Y-28744541D01*
X-7159578Y-28883527D01*
X-7336473Y-29060422D01*
X-7475459Y-29268429D01*
X-7571195Y-29499555D01*
X-7620000Y-29744916D01*
X-7620000Y-29995084D01*
X-7571195Y-30240445D01*
X-7475459Y-30471571D01*
X-7336473Y-30679578D01*
X-7159578Y-30856473D01*
X-6951571Y-30995459D01*
X-6858000Y-31034218D01*
X-6858000Y-31090053D01*
X-6860457Y-31115000D01*
X-6850649Y-31214585D01*
X-6843062Y-31239595D01*
X-6951571Y-31284541D01*
X-7159578Y-31423527D01*
X-7336473Y-31600422D01*
X-7475459Y-31808429D01*
X-7571195Y-32039555D01*
X-7620000Y-32284916D01*
X-7620000Y-32535084D01*
X-7571195Y-32780445D01*
X-7475459Y-33011571D01*
X-7336473Y-33219578D01*
X-7159578Y-33396473D01*
X-6951571Y-33535459D01*
X-6858000Y-33574218D01*
X-6858000Y-33630053D01*
X-6860457Y-33655000D01*
X-6850649Y-33754585D01*
X-6843062Y-33779595D01*
X-6951571Y-33824541D01*
X-7159578Y-33963527D01*
X-7336473Y-34140422D01*
X-7475459Y-34348429D01*
X-7571195Y-34579555D01*
X-7620000Y-34824916D01*
X-7620000Y-35075084D01*
X-7571195Y-35320445D01*
X-7475459Y-35551571D01*
X-7336473Y-35759578D01*
X-7159578Y-35936473D01*
X-6951571Y-36075459D01*
X-6858000Y-36114218D01*
X-6858000Y-36170053D01*
X-6860457Y-36195000D01*
X-6850649Y-36294585D01*
X-6843062Y-36319595D01*
X-6951571Y-36364541D01*
X-7159578Y-36503527D01*
X-7336473Y-36680422D01*
X-7475459Y-36888429D01*
X-7571195Y-37119555D01*
X-7620000Y-37364916D01*
X-7620000Y-37615084D01*
X-7571195Y-37860445D01*
X-7475459Y-38091571D01*
X-7336473Y-38299578D01*
X-7159578Y-38476473D01*
X-6951571Y-38615459D01*
X-6857999Y-38654218D01*
X-6857999Y-38837043D01*
X-6860457Y-38862000D01*
X-6850649Y-38961585D01*
X-6821601Y-39057343D01*
X-6774429Y-39145595D01*
X-6710948Y-39222948D01*
X-6633595Y-39286429D01*
X-6545343Y-39333601D01*
X-6449585Y-39362649D01*
X-6374947Y-39370000D01*
X-6350000Y-39372457D01*
X-6325053Y-39370000D01*
X6325053Y-39370000D01*
X6350000Y-39372457D01*
X6374947Y-39370000D01*
X6449585Y-39362649D01*
X6545343Y-39333601D01*
X6633595Y-39286429D01*
X6710948Y-39222948D01*
X6774429Y-39145595D01*
X6821601Y-39057343D01*
X6850649Y-38961585D01*
X6860457Y-38862000D01*
X6858000Y-38837053D01*
X6858000Y-38629218D01*
X6951571Y-38590459D01*
X7159578Y-38451473D01*
X7336473Y-38274578D01*
X7475459Y-38066571D01*
X7571195Y-37835445D01*
X7620000Y-37590084D01*
X7620000Y-37339916D01*
X7571195Y-37094555D01*
X7475459Y-36863429D01*
X7336473Y-36655422D01*
X7159578Y-36478527D01*
X6951571Y-36339541D01*
X6720445Y-36243805D01*
X6475084Y-36195000D01*
X6720445Y-36146195D01*
X6951571Y-36050459D01*
X7159578Y-35911473D01*
X7336473Y-35734578D01*
X7475459Y-35526571D01*
X7514218Y-35433000D01*
X8230056Y-35433000D01*
X8255000Y-35435457D01*
X8279944Y-35433000D01*
X8279947Y-35433000D01*
X8354585Y-35425649D01*
X8450343Y-35396601D01*
X8538595Y-35349429D01*
X8615948Y-35285948D01*
X8631855Y-35266565D01*
X9735421Y-34163000D01*
X26459580Y-34163000D01*
X26928145Y-34631565D01*
X26944052Y-34650948D01*
X27021405Y-34714429D01*
X27109657Y-34761601D01*
X27205415Y-34790649D01*
X27280053Y-34798000D01*
X27280056Y-34798000D01*
X27305000Y-34800457D01*
X27329944Y-34798000D01*
X27603641Y-34798000D01*
X27484102Y-34976903D01*
X27391307Y-35200931D01*
X27344000Y-35438757D01*
X27344000Y-35681243D01*
X27391307Y-35919069D01*
X27484102Y-36143097D01*
X27618820Y-36344717D01*
X27790283Y-36516180D01*
X27991903Y-36650898D01*
X28215931Y-36743693D01*
X28453757Y-36791000D01*
X28696243Y-36791000D01*
X28934069Y-36743693D01*
X29158097Y-36650898D01*
X29359717Y-36516180D01*
X29531180Y-36344717D01*
X29665898Y-36143097D01*
X29758693Y-35919069D01*
X29806000Y-35681243D01*
X29806000Y-35438757D01*
X29758693Y-35200931D01*
X29665898Y-34976903D01*
X29546359Y-34798000D01*
X30143641Y-34798000D01*
X30024102Y-34976903D01*
X29931307Y-35200931D01*
X29884000Y-35438757D01*
X29884000Y-35681243D01*
X29931307Y-35919069D01*
X30024102Y-36143097D01*
X30158820Y-36344717D01*
X30330283Y-36516180D01*
X30531903Y-36650898D01*
X30755931Y-36743693D01*
X30993757Y-36791000D01*
X31236243Y-36791000D01*
X31474069Y-36743693D01*
X31698097Y-36650898D01*
X31899717Y-36516180D01*
X32071180Y-36344717D01*
X32205898Y-36143097D01*
X32298693Y-35919069D01*
X32346000Y-35681243D01*
X32346000Y-35438757D01*
X32298693Y-35200931D01*
X32205898Y-34976903D01*
X32071180Y-34775283D01*
X31899717Y-34603820D01*
X31698097Y-34469102D01*
X31623000Y-34437996D01*
X31623000Y-34314947D01*
X31625457Y-34290000D01*
X31615649Y-34190415D01*
X31603423Y-34150113D01*
X31698097Y-34110898D01*
X31899717Y-33976180D01*
X32071180Y-33804717D01*
X32205898Y-33603097D01*
X32298693Y-33379069D01*
X32346000Y-33141243D01*
X32346000Y-32898757D01*
X32298693Y-32660931D01*
X32205898Y-32436903D01*
X32071180Y-32235283D01*
X31899717Y-32063820D01*
X31698097Y-31929102D01*
X31623000Y-31897996D01*
X31623000Y-31774947D01*
X31625457Y-31750000D01*
X31615649Y-31650415D01*
X31603423Y-31610113D01*
X31698097Y-31570898D01*
X31899717Y-31436180D01*
X32071180Y-31264717D01*
X32205898Y-31063097D01*
X32298693Y-30839069D01*
X32346000Y-30601243D01*
X32346000Y-30358757D01*
X32298693Y-30120931D01*
X32205898Y-29896903D01*
X32071180Y-29695283D01*
X31899717Y-29523820D01*
X31698097Y-29389102D01*
X31623000Y-29357996D01*
X31623000Y-29234947D01*
X31625457Y-29210000D01*
X31615649Y-29110415D01*
X31603423Y-29070113D01*
X31698097Y-29030898D01*
X31899717Y-28896180D01*
X32071180Y-28724717D01*
X32205898Y-28523097D01*
X32298693Y-28299069D01*
X32346000Y-28061243D01*
X32346000Y-27818757D01*
X32298693Y-27580931D01*
X32205898Y-27356903D01*
X32071180Y-27155283D01*
X31899717Y-26983820D01*
X31698097Y-26849102D01*
X31623000Y-26817996D01*
X31623000Y-26694947D01*
X31625457Y-26670000D01*
X31615649Y-26570415D01*
X31603423Y-26530113D01*
X31698097Y-26490898D01*
X31899717Y-26356180D01*
X32071180Y-26184717D01*
X32205898Y-25983097D01*
X32298693Y-25759069D01*
X32346000Y-25521243D01*
X32346000Y-25278757D01*
X32298693Y-25040931D01*
X32205898Y-24816903D01*
X32071180Y-24615283D01*
X31899717Y-24443820D01*
X31698097Y-24309102D01*
X31623000Y-24277996D01*
X31623000Y-24154947D01*
X31625457Y-24130000D01*
X31615649Y-24030415D01*
X31603423Y-23990113D01*
X31698097Y-23950898D01*
X31899717Y-23816180D01*
X32071180Y-23644717D01*
X32205898Y-23443097D01*
X32298693Y-23219069D01*
X32346000Y-22981243D01*
X32346000Y-22738757D01*
X32298693Y-22500931D01*
X32205898Y-22276903D01*
X32071180Y-22075283D01*
X31899717Y-21903820D01*
X31698097Y-21769102D01*
X31623000Y-21737996D01*
X31623000Y-21614947D01*
X31625457Y-21590000D01*
X31615649Y-21490415D01*
X31603423Y-21450113D01*
X31698097Y-21410898D01*
X31899717Y-21276180D01*
X32071180Y-21104717D01*
X32205898Y-20903097D01*
X32298693Y-20679069D01*
X32346000Y-20441243D01*
X32346000Y-20198757D01*
X32298693Y-19960931D01*
X32205898Y-19736903D01*
X32071180Y-19535283D01*
X31899717Y-19363820D01*
X31698097Y-19229102D01*
X31623000Y-19197996D01*
X31623000Y-19074947D01*
X31625457Y-19050000D01*
X31615649Y-18950415D01*
X31603423Y-18910113D01*
X31698097Y-18870898D01*
X31899717Y-18736180D01*
X32071180Y-18564717D01*
X32205898Y-18363097D01*
X32298693Y-18139069D01*
X32346000Y-17901243D01*
X32346000Y-17658757D01*
X32298693Y-17420931D01*
X32205898Y-17196903D01*
X32071180Y-16995283D01*
X31899717Y-16823820D01*
X31698097Y-16689102D01*
X31623000Y-16657996D01*
X31623000Y-16534947D01*
X31625457Y-16510000D01*
X31615649Y-16410415D01*
X31603423Y-16370113D01*
X31698097Y-16330898D01*
X31899717Y-16196180D01*
X32071180Y-16024717D01*
X32205898Y-15823097D01*
X32298693Y-15599069D01*
X32346000Y-15361243D01*
X32346000Y-15118757D01*
X32298693Y-14880931D01*
X32205898Y-14656903D01*
X32071180Y-14455283D01*
X31899717Y-14283820D01*
X31698097Y-14149102D01*
X31623000Y-14117996D01*
X31623000Y-13994947D01*
X31625457Y-13970000D01*
X31615649Y-13870415D01*
X31603423Y-13830113D01*
X31698097Y-13790898D01*
X31899717Y-13656180D01*
X32071180Y-13484717D01*
X32205898Y-13283097D01*
X32298693Y-13059069D01*
X32346000Y-12821243D01*
X32346000Y-12578757D01*
X32298693Y-12340931D01*
X32205898Y-12116903D01*
X32071180Y-11915283D01*
X31899717Y-11743820D01*
X31698097Y-11609102D01*
X31623000Y-11577996D01*
X31623000Y-11454947D01*
X31625457Y-11430000D01*
X31615649Y-11330415D01*
X31603423Y-11290113D01*
X31698097Y-11250898D01*
X31899717Y-11116180D01*
X32071180Y-10944717D01*
X32205898Y-10743097D01*
X32298693Y-10519069D01*
X32346000Y-10281243D01*
X32346000Y-10038757D01*
X32298693Y-9800931D01*
X32205898Y-9576903D01*
X32071180Y-9375283D01*
X31899717Y-9203820D01*
X31698097Y-9069102D01*
X31621000Y-9037168D01*
X31621000Y-8914854D01*
X31623448Y-8890000D01*
X31619788Y-8852843D01*
X31965000Y-8852843D01*
X32039689Y-8845487D01*
X32111508Y-8823701D01*
X32177696Y-8788322D01*
X32235711Y-8740711D01*
X32283322Y-8682696D01*
X32318701Y-8616508D01*
X32340487Y-8544689D01*
X32347843Y-8470000D01*
X32347843Y-6770000D01*
X32340487Y-6695311D01*
X32318701Y-6623492D01*
X32283322Y-6557304D01*
X32235711Y-6499289D01*
X32177696Y-6451678D01*
X32111508Y-6416299D01*
X32039689Y-6394513D01*
X31965000Y-6387157D01*
X31603471Y-6387157D01*
X31584745Y-6325425D01*
X31537759Y-6237521D01*
X31474527Y-6160473D01*
X31455215Y-6144624D01*
X31415375Y-6104784D01*
X31399526Y-6085472D01*
X31322478Y-6022240D01*
X31234574Y-5975254D01*
X31139192Y-5946321D01*
X31064853Y-5938999D01*
X31064845Y-5938999D01*
X31039999Y-5936552D01*
X31015153Y-5938999D01*
X27996855Y-5938999D01*
X27972001Y-5936551D01*
X27947147Y-5938999D01*
X27872808Y-5946321D01*
X27777426Y-5975254D01*
X27689522Y-6022240D01*
X27612474Y-6085472D01*
X27596629Y-6104779D01*
X23412409Y-10289000D01*
X10369592Y-10289000D01*
X7621843Y-7541252D01*
X7621843Y-6096000D01*
X7614487Y-6021311D01*
X7592701Y-5949492D01*
X7557322Y-5883304D01*
X7509711Y-5825289D01*
X7451696Y-5777678D01*
X7385508Y-5742299D01*
X7313689Y-5720513D01*
X7239000Y-5713157D01*
X5461000Y-5713157D01*
X5386311Y-5720513D01*
X5314492Y-5742299D01*
X5248304Y-5777678D01*
X5190289Y-5825289D01*
X5142678Y-5883304D01*
X5107299Y-5949492D01*
X5085513Y-6021311D01*
X5078157Y-6096000D01*
X5078157Y-6477000D01*
X3413301Y-6477000D01*
X3388357Y-6474543D01*
X3363413Y-6477000D01*
X3363411Y-6477000D01*
X3288773Y-6484351D01*
X3193015Y-6513399D01*
X3193013Y-6513400D01*
X3104762Y-6560571D01*
X3050168Y-6605376D01*
X3027410Y-6624052D01*
X3011508Y-6643429D01*
X2966720Y-6688217D01*
X2966720Y-6663955D01*
X2940561Y-6532441D01*
X2889246Y-6408558D01*
X2814750Y-6297066D01*
X2719934Y-6202250D01*
X2608442Y-6127754D01*
X2484559Y-6076439D01*
X2353045Y-6050280D01*
X2218955Y-6050280D01*
X2087441Y-6076439D01*
X1963558Y-6127754D01*
X1852066Y-6202250D01*
X1757250Y-6297066D01*
X1682754Y-6408558D01*
X1631439Y-6532441D01*
X1605280Y-6663955D01*
X1605280Y-6798045D01*
X1631439Y-6929559D01*
X1682754Y-7053442D01*
X1757250Y-7164934D01*
X1852066Y-7259750D01*
X1963558Y-7334246D01*
X2087441Y-7385561D01*
X2218955Y-7411720D01*
X2243218Y-7411720D01*
X1907938Y-7747000D01*
X-5078157Y-7747000D01*
X-5078157Y-6121000D01*
X-5085513Y-6046311D01*
X-5107299Y-5974492D01*
X-5142678Y-5908304D01*
X-5190289Y-5850289D01*
X-5248304Y-5802678D01*
X-5314492Y-5767299D01*
X-5386311Y-5745513D01*
X-5461000Y-5738157D01*
X-7239000Y-5738157D01*
X-7313689Y-5745513D01*
X-7385508Y-5767299D01*
X-7451696Y-5802678D01*
X-7509711Y-5850289D01*
X-7557322Y-5908304D01*
X-7592701Y-5974492D01*
X-7614487Y-6046311D01*
X-7621843Y-6121000D01*
X-12294000Y-6121000D01*
X-12294000Y-406000D01*
X34519001Y-406000D01*
X34519000Y-44044000D01*
G36*
X5224541Y-35526571D02*
G01*
X5363527Y-35734578D01*
X5540422Y-35911473D01*
X5748429Y-36050459D01*
X5979555Y-36146195D01*
X6224916Y-36195000D01*
X5979555Y-36243805D01*
X5748429Y-36339541D01*
X5540422Y-36478527D01*
X5363527Y-36655422D01*
X5224541Y-36863429D01*
X5128805Y-37094555D01*
X5080000Y-37339916D01*
X5080000Y-37590084D01*
X5128805Y-37835445D01*
X5224541Y-38066571D01*
X5363527Y-38274578D01*
X5442949Y-38354000D01*
X-5417949Y-38354000D01*
X-5363527Y-38299578D01*
X-5224541Y-38091571D01*
X-5128805Y-37860445D01*
X-5080000Y-37615084D01*
X-5080000Y-37364916D01*
X-5128805Y-37119555D01*
X-5224541Y-36888429D01*
X-5348441Y-36703000D01*
X2093414Y-36703000D01*
X2118358Y-36705457D01*
X2143302Y-36703000D01*
X2143305Y-36703000D01*
X2217943Y-36695649D01*
X2313701Y-36666601D01*
X2401953Y-36619429D01*
X2479306Y-36555948D01*
X2495213Y-36536565D01*
X2568486Y-36463292D01*
X2588805Y-36565445D01*
X2684541Y-36796571D01*
X2823527Y-37004578D01*
X3000422Y-37181473D01*
X3208429Y-37320459D01*
X3439555Y-37416195D01*
X3684916Y-37465000D01*
X3935084Y-37465000D01*
X4180445Y-37416195D01*
X4411571Y-37320459D01*
X4619578Y-37181473D01*
X4796473Y-37004578D01*
X4935459Y-36796571D01*
X5031195Y-36565445D01*
X5080000Y-36320084D01*
X5080000Y-36069916D01*
X5031195Y-35824555D01*
X4935459Y-35593429D01*
X4828264Y-35433000D01*
X5185782Y-35433000D01*
X5224541Y-35526571D01*
G37*
X5224541Y-35526571D02*
X5363527Y-35734578D01*
X5540422Y-35911473D01*
X5748429Y-36050459D01*
X5979555Y-36146195D01*
X6224916Y-36195000D01*
X5979555Y-36243805D01*
X5748429Y-36339541D01*
X5540422Y-36478527D01*
X5363527Y-36655422D01*
X5224541Y-36863429D01*
X5128805Y-37094555D01*
X5080000Y-37339916D01*
X5080000Y-37590084D01*
X5128805Y-37835445D01*
X5224541Y-38066571D01*
X5363527Y-38274578D01*
X5442949Y-38354000D01*
X-5417949Y-38354000D01*
X-5363527Y-38299578D01*
X-5224541Y-38091571D01*
X-5128805Y-37860445D01*
X-5080000Y-37615084D01*
X-5080000Y-37364916D01*
X-5128805Y-37119555D01*
X-5224541Y-36888429D01*
X-5348441Y-36703000D01*
X2093414Y-36703000D01*
X2118358Y-36705457D01*
X2143302Y-36703000D01*
X2143305Y-36703000D01*
X2217943Y-36695649D01*
X2313701Y-36666601D01*
X2401953Y-36619429D01*
X2479306Y-36555948D01*
X2495213Y-36536565D01*
X2568486Y-36463292D01*
X2588805Y-36565445D01*
X2684541Y-36796571D01*
X2823527Y-37004578D01*
X3000422Y-37181473D01*
X3208429Y-37320459D01*
X3439555Y-37416195D01*
X3684916Y-37465000D01*
X3935084Y-37465000D01*
X4180445Y-37416195D01*
X4411571Y-37320459D01*
X4619578Y-37181473D01*
X4796473Y-37004578D01*
X4935459Y-36796571D01*
X5031195Y-36565445D01*
X5080000Y-36320084D01*
X5080000Y-36069916D01*
X5031195Y-35824555D01*
X4935459Y-35593429D01*
X4828264Y-35433000D01*
X5185782Y-35433000D01*
X5224541Y-35526571D01*
G36*
X2588805Y-34025445D02*
G01*
X2684541Y-34256571D01*
X2823527Y-34464578D01*
X2976943Y-34617994D01*
X1907938Y-35687000D01*
X-5315032Y-35687000D01*
X-5224541Y-35551571D01*
X-5128805Y-35320445D01*
X-5080000Y-35075084D01*
X-5080000Y-34824916D01*
X-5128805Y-34579555D01*
X-5224541Y-34348429D01*
X-5348441Y-34163000D01*
X2093414Y-34163000D01*
X2118358Y-34165457D01*
X2143302Y-34163000D01*
X2143305Y-34163000D01*
X2217943Y-34155649D01*
X2313701Y-34126601D01*
X2401953Y-34079429D01*
X2479306Y-34015948D01*
X2495213Y-33996565D01*
X2568486Y-33923292D01*
X2588805Y-34025445D01*
G37*
X2588805Y-34025445D02*
X2684541Y-34256571D01*
X2823527Y-34464578D01*
X2976943Y-34617994D01*
X1907938Y-35687000D01*
X-5315032Y-35687000D01*
X-5224541Y-35551571D01*
X-5128805Y-35320445D01*
X-5080000Y-35075084D01*
X-5080000Y-34824916D01*
X-5128805Y-34579555D01*
X-5224541Y-34348429D01*
X-5348441Y-34163000D01*
X2093414Y-34163000D01*
X2118358Y-34165457D01*
X2143302Y-34163000D01*
X2143305Y-34163000D01*
X2217943Y-34155649D01*
X2313701Y-34126601D01*
X2401953Y-34079429D01*
X2479306Y-34015948D01*
X2495213Y-33996565D01*
X2568486Y-33923292D01*
X2588805Y-34025445D01*
G36*
X27484102Y-32436903D02*
G01*
X27391307Y-32660931D01*
X27344000Y-32898757D01*
X27344000Y-33141243D01*
X27391307Y-33379069D01*
X27484102Y-33603097D01*
X27603641Y-33782000D01*
X27515420Y-33782000D01*
X27046855Y-33313435D01*
X27030948Y-33294052D01*
X26953595Y-33230571D01*
X26865343Y-33183399D01*
X26769585Y-33154351D01*
X26694947Y-33147000D01*
X26694944Y-33147000D01*
X26670000Y-33144543D01*
X26645056Y-33147000D01*
X9549943Y-33147000D01*
X9524999Y-33144543D01*
X9500055Y-33147000D01*
X9500053Y-33147000D01*
X9425415Y-33154351D01*
X9329657Y-33183399D01*
X9329655Y-33183400D01*
X9241404Y-33230571D01*
X9186810Y-33275376D01*
X9164052Y-33294052D01*
X9148150Y-33313429D01*
X8044580Y-34417000D01*
X7514218Y-34417000D01*
X7475459Y-34323429D01*
X7336473Y-34115422D01*
X7159578Y-33938527D01*
X6951571Y-33799541D01*
X6720445Y-33703805D01*
X6475084Y-33655000D01*
X6720445Y-33606195D01*
X6951571Y-33510459D01*
X7159578Y-33371473D01*
X7336473Y-33194578D01*
X7475459Y-32986571D01*
X7514218Y-32893000D01*
X26645056Y-32893000D01*
X26670000Y-32895457D01*
X26694944Y-32893000D01*
X26694947Y-32893000D01*
X26769585Y-32885649D01*
X26865343Y-32856601D01*
X26953595Y-32809429D01*
X27030948Y-32745948D01*
X27046855Y-32726565D01*
X27515420Y-32258000D01*
X27603641Y-32258000D01*
X27484102Y-32436903D01*
G37*
X27484102Y-32436903D02*
X27391307Y-32660931D01*
X27344000Y-32898757D01*
X27344000Y-33141243D01*
X27391307Y-33379069D01*
X27484102Y-33603097D01*
X27603641Y-33782000D01*
X27515420Y-33782000D01*
X27046855Y-33313435D01*
X27030948Y-33294052D01*
X26953595Y-33230571D01*
X26865343Y-33183399D01*
X26769585Y-33154351D01*
X26694947Y-33147000D01*
X26694944Y-33147000D01*
X26670000Y-33144543D01*
X26645056Y-33147000D01*
X9549943Y-33147000D01*
X9524999Y-33144543D01*
X9500055Y-33147000D01*
X9500053Y-33147000D01*
X9425415Y-33154351D01*
X9329657Y-33183399D01*
X9329655Y-33183400D01*
X9241404Y-33230571D01*
X9186810Y-33275376D01*
X9164052Y-33294052D01*
X9148150Y-33313429D01*
X8044580Y-34417000D01*
X7514218Y-34417000D01*
X7475459Y-34323429D01*
X7336473Y-34115422D01*
X7159578Y-33938527D01*
X6951571Y-33799541D01*
X6720445Y-33703805D01*
X6475084Y-33655000D01*
X6720445Y-33606195D01*
X6951571Y-33510459D01*
X7159578Y-33371473D01*
X7336473Y-33194578D01*
X7475459Y-32986571D01*
X7514218Y-32893000D01*
X26645056Y-32893000D01*
X26670000Y-32895457D01*
X26694944Y-32893000D01*
X26694947Y-32893000D01*
X26769585Y-32885649D01*
X26865343Y-32856601D01*
X26953595Y-32809429D01*
X27030948Y-32745948D01*
X27046855Y-32726565D01*
X27515420Y-32258000D01*
X27603641Y-32258000D01*
X27484102Y-32436903D01*
G36*
X2588805Y-31485445D02*
G01*
X2684541Y-31716571D01*
X2823527Y-31924578D01*
X2976943Y-32077994D01*
X1907938Y-33147000D01*
X-5315032Y-33147000D01*
X-5224541Y-33011571D01*
X-5128805Y-32780445D01*
X-5080000Y-32535084D01*
X-5080000Y-32284916D01*
X-5128805Y-32039555D01*
X-5224541Y-31808429D01*
X-5348441Y-31623000D01*
X2093414Y-31623000D01*
X2118358Y-31625457D01*
X2143302Y-31623000D01*
X2143305Y-31623000D01*
X2217943Y-31615649D01*
X2313701Y-31586601D01*
X2401953Y-31539429D01*
X2479306Y-31475948D01*
X2495213Y-31456565D01*
X2568486Y-31383292D01*
X2588805Y-31485445D01*
G37*
X2588805Y-31485445D02*
X2684541Y-31716571D01*
X2823527Y-31924578D01*
X2976943Y-32077994D01*
X1907938Y-33147000D01*
X-5315032Y-33147000D01*
X-5224541Y-33011571D01*
X-5128805Y-32780445D01*
X-5080000Y-32535084D01*
X-5080000Y-32284916D01*
X-5128805Y-32039555D01*
X-5224541Y-31808429D01*
X-5348441Y-31623000D01*
X2093414Y-31623000D01*
X2118358Y-31625457D01*
X2143302Y-31623000D01*
X2143305Y-31623000D01*
X2217943Y-31615649D01*
X2313701Y-31586601D01*
X2401953Y-31539429D01*
X2479306Y-31475948D01*
X2495213Y-31456565D01*
X2568486Y-31383292D01*
X2588805Y-31485445D01*
G36*
X27391307Y-30839069D02*
G01*
X27484102Y-31063097D01*
X27603641Y-31242000D01*
X27329944Y-31242000D01*
X27305000Y-31239543D01*
X27280056Y-31242000D01*
X27280053Y-31242000D01*
X27205415Y-31249351D01*
X27109657Y-31278399D01*
X27021405Y-31325571D01*
X26944052Y-31389052D01*
X26928145Y-31408435D01*
X26459580Y-31877000D01*
X7514218Y-31877000D01*
X7475459Y-31783429D01*
X7368264Y-31623000D01*
X26264056Y-31623000D01*
X26289000Y-31625457D01*
X26313944Y-31623000D01*
X26313947Y-31623000D01*
X26388585Y-31615649D01*
X26484343Y-31586601D01*
X26572595Y-31539429D01*
X26649948Y-31475948D01*
X26665855Y-31456565D01*
X27373396Y-30749024D01*
X27391307Y-30839069D01*
G37*
X27391307Y-30839069D02*
X27484102Y-31063097D01*
X27603641Y-31242000D01*
X27329944Y-31242000D01*
X27305000Y-31239543D01*
X27280056Y-31242000D01*
X27280053Y-31242000D01*
X27205415Y-31249351D01*
X27109657Y-31278399D01*
X27021405Y-31325571D01*
X26944052Y-31389052D01*
X26928145Y-31408435D01*
X26459580Y-31877000D01*
X7514218Y-31877000D01*
X7475459Y-31783429D01*
X7368264Y-31623000D01*
X26264056Y-31623000D01*
X26289000Y-31625457D01*
X26313944Y-31623000D01*
X26313947Y-31623000D01*
X26388585Y-31615649D01*
X26484343Y-31586601D01*
X26572595Y-31539429D01*
X26649948Y-31475948D01*
X26665855Y-31456565D01*
X27373396Y-30749024D01*
X27391307Y-30839069D01*
G36*
X27344000Y-27818757D02*
G01*
X27344000Y-28061243D01*
X27391307Y-28299069D01*
X27484102Y-28523097D01*
X27618820Y-28724717D01*
X27789842Y-28895739D01*
X26078580Y-30607000D01*
X7368264Y-30607000D01*
X7475459Y-30446571D01*
X7571195Y-30215445D01*
X7620000Y-29970084D01*
X7620000Y-29719916D01*
X7571195Y-29474555D01*
X7475459Y-29243429D01*
X7336473Y-29035422D01*
X7159578Y-28858527D01*
X6951571Y-28719541D01*
X6720445Y-28623805D01*
X6475084Y-28575000D01*
X6720445Y-28526195D01*
X6951571Y-28430459D01*
X7159578Y-28291473D01*
X7336473Y-28114578D01*
X7475459Y-27906571D01*
X7514218Y-27813000D01*
X27026056Y-27813000D01*
X27051000Y-27815457D01*
X27075944Y-27813000D01*
X27075947Y-27813000D01*
X27150585Y-27805649D01*
X27246343Y-27776601D01*
X27334595Y-27729429D01*
X27367070Y-27702778D01*
X27344000Y-27818757D01*
G37*
X27344000Y-27818757D02*
X27344000Y-28061243D01*
X27391307Y-28299069D01*
X27484102Y-28523097D01*
X27618820Y-28724717D01*
X27789842Y-28895739D01*
X26078580Y-30607000D01*
X7368264Y-30607000D01*
X7475459Y-30446571D01*
X7571195Y-30215445D01*
X7620000Y-29970084D01*
X7620000Y-29719916D01*
X7571195Y-29474555D01*
X7475459Y-29243429D01*
X7336473Y-29035422D01*
X7159578Y-28858527D01*
X6951571Y-28719541D01*
X6720445Y-28623805D01*
X6475084Y-28575000D01*
X6720445Y-28526195D01*
X6951571Y-28430459D01*
X7159578Y-28291473D01*
X7336473Y-28114578D01*
X7475459Y-27906571D01*
X7514218Y-27813000D01*
X27026056Y-27813000D01*
X27051000Y-27815457D01*
X27075944Y-27813000D01*
X27075947Y-27813000D01*
X27150585Y-27805649D01*
X27246343Y-27776601D01*
X27334595Y-27729429D01*
X27367070Y-27702778D01*
X27344000Y-27818757D01*
G36*
X2588805Y-28945445D02*
G01*
X2684541Y-29176571D01*
X2823527Y-29384578D01*
X2976943Y-29537994D01*
X1907938Y-30607000D01*
X-5315032Y-30607000D01*
X-5224541Y-30471571D01*
X-5128805Y-30240445D01*
X-5080000Y-29995084D01*
X-5080000Y-29744916D01*
X-5128805Y-29499555D01*
X-5224541Y-29268429D01*
X-5348441Y-29083000D01*
X2093414Y-29083000D01*
X2118358Y-29085457D01*
X2143302Y-29083000D01*
X2143305Y-29083000D01*
X2217943Y-29075649D01*
X2313701Y-29046601D01*
X2401953Y-28999429D01*
X2479306Y-28935948D01*
X2495213Y-28916565D01*
X2568486Y-28843292D01*
X2588805Y-28945445D01*
G37*
X2588805Y-28945445D02*
X2684541Y-29176571D01*
X2823527Y-29384578D01*
X2976943Y-29537994D01*
X1907938Y-30607000D01*
X-5315032Y-30607000D01*
X-5224541Y-30471571D01*
X-5128805Y-30240445D01*
X-5080000Y-29995084D01*
X-5080000Y-29744916D01*
X-5128805Y-29499555D01*
X-5224541Y-29268429D01*
X-5348441Y-29083000D01*
X2093414Y-29083000D01*
X2118358Y-29085457D01*
X2143302Y-29083000D01*
X2143305Y-29083000D01*
X2217943Y-29075649D01*
X2313701Y-29046601D01*
X2401953Y-28999429D01*
X2479306Y-28935948D01*
X2495213Y-28916565D01*
X2568486Y-28843292D01*
X2588805Y-28945445D01*
G36*
X2588805Y-26405445D02*
G01*
X2684541Y-26636571D01*
X2823527Y-26844578D01*
X2976943Y-26997994D01*
X1907938Y-28067000D01*
X-5315032Y-28067000D01*
X-5224541Y-27931571D01*
X-5128805Y-27700445D01*
X-5080000Y-27455084D01*
X-5080000Y-27204916D01*
X-5128805Y-26959555D01*
X-5224541Y-26728429D01*
X-5348441Y-26543000D01*
X2093414Y-26543000D01*
X2118358Y-26545457D01*
X2143302Y-26543000D01*
X2143305Y-26543000D01*
X2217943Y-26535649D01*
X2313701Y-26506601D01*
X2401953Y-26459429D01*
X2479306Y-26395948D01*
X2495213Y-26376565D01*
X2568486Y-26303292D01*
X2588805Y-26405445D01*
G37*
X2588805Y-26405445D02*
X2684541Y-26636571D01*
X2823527Y-26844578D01*
X2976943Y-26997994D01*
X1907938Y-28067000D01*
X-5315032Y-28067000D01*
X-5224541Y-27931571D01*
X-5128805Y-27700445D01*
X-5080000Y-27455084D01*
X-5080000Y-27204916D01*
X-5128805Y-26959555D01*
X-5224541Y-26728429D01*
X-5348441Y-26543000D01*
X2093414Y-26543000D01*
X2118358Y-26545457D01*
X2143302Y-26543000D01*
X2143305Y-26543000D01*
X2217943Y-26535649D01*
X2313701Y-26506601D01*
X2401953Y-26459429D01*
X2479306Y-26395948D01*
X2495213Y-26376565D01*
X2568486Y-26303292D01*
X2588805Y-26405445D01*
G36*
X27344000Y-25278757D02*
G01*
X27344000Y-25521243D01*
X27391307Y-25759069D01*
X27484102Y-25983097D01*
X27607186Y-26167305D01*
X27586415Y-26169351D01*
X27490657Y-26198399D01*
X27402405Y-26245571D01*
X27325052Y-26309052D01*
X27309145Y-26328435D01*
X26840580Y-26797000D01*
X7514218Y-26797000D01*
X7475459Y-26703429D01*
X7336473Y-26495422D01*
X7159578Y-26318527D01*
X6951571Y-26179541D01*
X6720445Y-26083805D01*
X6475084Y-26035000D01*
X6720445Y-25986195D01*
X6951571Y-25890459D01*
X7159578Y-25751473D01*
X7336473Y-25574578D01*
X7475459Y-25366571D01*
X7514218Y-25273000D01*
X27345145Y-25273000D01*
X27344000Y-25278757D01*
G37*
X27344000Y-25278757D02*
X27344000Y-25521243D01*
X27391307Y-25759069D01*
X27484102Y-25983097D01*
X27607186Y-26167305D01*
X27586415Y-26169351D01*
X27490657Y-26198399D01*
X27402405Y-26245571D01*
X27325052Y-26309052D01*
X27309145Y-26328435D01*
X26840580Y-26797000D01*
X7514218Y-26797000D01*
X7475459Y-26703429D01*
X7336473Y-26495422D01*
X7159578Y-26318527D01*
X6951571Y-26179541D01*
X6720445Y-26083805D01*
X6475084Y-26035000D01*
X6720445Y-25986195D01*
X6951571Y-25890459D01*
X7159578Y-25751473D01*
X7336473Y-25574578D01*
X7475459Y-25366571D01*
X7514218Y-25273000D01*
X27345145Y-25273000D01*
X27344000Y-25278757D01*
G36*
X2588805Y-23865445D02*
G01*
X2684541Y-24096571D01*
X2823527Y-24304578D01*
X2976943Y-24457994D01*
X1907938Y-25527000D01*
X-5315032Y-25527000D01*
X-5224541Y-25391571D01*
X-5128805Y-25160445D01*
X-5080000Y-24915084D01*
X-5080000Y-24664916D01*
X-5128805Y-24419555D01*
X-5224541Y-24188429D01*
X-5348441Y-24003000D01*
X2093414Y-24003000D01*
X2118358Y-24005457D01*
X2143302Y-24003000D01*
X2143305Y-24003000D01*
X2217943Y-23995649D01*
X2313701Y-23966601D01*
X2401953Y-23919429D01*
X2479306Y-23855948D01*
X2495213Y-23836565D01*
X2568486Y-23763292D01*
X2588805Y-23865445D01*
G37*
X2588805Y-23865445D02*
X2684541Y-24096571D01*
X2823527Y-24304578D01*
X2976943Y-24457994D01*
X1907938Y-25527000D01*
X-5315032Y-25527000D01*
X-5224541Y-25391571D01*
X-5128805Y-25160445D01*
X-5080000Y-24915084D01*
X-5080000Y-24664916D01*
X-5128805Y-24419555D01*
X-5224541Y-24188429D01*
X-5348441Y-24003000D01*
X2093414Y-24003000D01*
X2118358Y-24005457D01*
X2143302Y-24003000D01*
X2143305Y-24003000D01*
X2217943Y-23995649D01*
X2313701Y-23966601D01*
X2401953Y-23919429D01*
X2479306Y-23855948D01*
X2495213Y-23836565D01*
X2568486Y-23763292D01*
X2588805Y-23865445D01*
G36*
X27344000Y-22738757D02*
G01*
X27344000Y-22981243D01*
X27391307Y-23219069D01*
X27484102Y-23443097D01*
X27618820Y-23644717D01*
X27726431Y-23752328D01*
X27706052Y-23769052D01*
X27690145Y-23788435D01*
X27221580Y-24257000D01*
X7514218Y-24257000D01*
X7475459Y-24163429D01*
X7336473Y-23955422D01*
X7159578Y-23778527D01*
X6951571Y-23639541D01*
X6720445Y-23543805D01*
X6475084Y-23495000D01*
X6720445Y-23446195D01*
X6951571Y-23350459D01*
X7159578Y-23211473D01*
X7336473Y-23034578D01*
X7475459Y-22826571D01*
X7514218Y-22733000D01*
X27345145Y-22733000D01*
X27344000Y-22738757D01*
G37*
X27344000Y-22738757D02*
X27344000Y-22981243D01*
X27391307Y-23219069D01*
X27484102Y-23443097D01*
X27618820Y-23644717D01*
X27726431Y-23752328D01*
X27706052Y-23769052D01*
X27690145Y-23788435D01*
X27221580Y-24257000D01*
X7514218Y-24257000D01*
X7475459Y-24163429D01*
X7336473Y-23955422D01*
X7159578Y-23778527D01*
X6951571Y-23639541D01*
X6720445Y-23543805D01*
X6475084Y-23495000D01*
X6720445Y-23446195D01*
X6951571Y-23350459D01*
X7159578Y-23211473D01*
X7336473Y-23034578D01*
X7475459Y-22826571D01*
X7514218Y-22733000D01*
X27345145Y-22733000D01*
X27344000Y-22738757D01*
G36*
X2588805Y-21325445D02*
G01*
X2684541Y-21556571D01*
X2823527Y-21764578D01*
X2976943Y-21917994D01*
X1907938Y-22987000D01*
X-5315032Y-22987000D01*
X-5224541Y-22851571D01*
X-5128805Y-22620445D01*
X-5080000Y-22375084D01*
X-5080000Y-22124916D01*
X-5128805Y-21879555D01*
X-5224541Y-21648429D01*
X-5348441Y-21463000D01*
X2093414Y-21463000D01*
X2118358Y-21465457D01*
X2143302Y-21463000D01*
X2143305Y-21463000D01*
X2217943Y-21455649D01*
X2313701Y-21426601D01*
X2401953Y-21379429D01*
X2479306Y-21315948D01*
X2495213Y-21296565D01*
X2568486Y-21223292D01*
X2588805Y-21325445D01*
G37*
X2588805Y-21325445D02*
X2684541Y-21556571D01*
X2823527Y-21764578D01*
X2976943Y-21917994D01*
X1907938Y-22987000D01*
X-5315032Y-22987000D01*
X-5224541Y-22851571D01*
X-5128805Y-22620445D01*
X-5080000Y-22375084D01*
X-5080000Y-22124916D01*
X-5128805Y-21879555D01*
X-5224541Y-21648429D01*
X-5348441Y-21463000D01*
X2093414Y-21463000D01*
X2118358Y-21465457D01*
X2143302Y-21463000D01*
X2143305Y-21463000D01*
X2217943Y-21455649D01*
X2313701Y-21426601D01*
X2401953Y-21379429D01*
X2479306Y-21315948D01*
X2495213Y-21296565D01*
X2568486Y-21223292D01*
X2588805Y-21325445D01*
G36*
X27344000Y-20198757D02*
G01*
X27344000Y-20441243D01*
X27391307Y-20679069D01*
X27484102Y-20903097D01*
X27618820Y-21104717D01*
X27789842Y-21275739D01*
X27348580Y-21717000D01*
X7514218Y-21717000D01*
X7475459Y-21623429D01*
X7336473Y-21415422D01*
X7159578Y-21238527D01*
X6951571Y-21099541D01*
X6720445Y-21003805D01*
X6475084Y-20955000D01*
X6720445Y-20906195D01*
X6951571Y-20810459D01*
X7159578Y-20671473D01*
X7336473Y-20494578D01*
X7475459Y-20286571D01*
X7514218Y-20193000D01*
X27280056Y-20193000D01*
X27305000Y-20195457D01*
X27329944Y-20193000D01*
X27329947Y-20193000D01*
X27345449Y-20191473D01*
X27344000Y-20198757D01*
G37*
X27344000Y-20198757D02*
X27344000Y-20441243D01*
X27391307Y-20679069D01*
X27484102Y-20903097D01*
X27618820Y-21104717D01*
X27789842Y-21275739D01*
X27348580Y-21717000D01*
X7514218Y-21717000D01*
X7475459Y-21623429D01*
X7336473Y-21415422D01*
X7159578Y-21238527D01*
X6951571Y-21099541D01*
X6720445Y-21003805D01*
X6475084Y-20955000D01*
X6720445Y-20906195D01*
X6951571Y-20810459D01*
X7159578Y-20671473D01*
X7336473Y-20494578D01*
X7475459Y-20286571D01*
X7514218Y-20193000D01*
X27280056Y-20193000D01*
X27305000Y-20195457D01*
X27329944Y-20193000D01*
X27329947Y-20193000D01*
X27345449Y-20191473D01*
X27344000Y-20198757D01*
G36*
X2588805Y-18785445D02*
G01*
X2684541Y-19016571D01*
X2823527Y-19224578D01*
X2976943Y-19377994D01*
X1907938Y-20447000D01*
X-5315032Y-20447000D01*
X-5224541Y-20311571D01*
X-5128805Y-20080445D01*
X-5080000Y-19835084D01*
X-5080000Y-19584916D01*
X-5128805Y-19339555D01*
X-5224541Y-19108429D01*
X-5348441Y-18923000D01*
X2134056Y-18923000D01*
X2159000Y-18925457D01*
X2183944Y-18923000D01*
X2183947Y-18923000D01*
X2258585Y-18915649D01*
X2354343Y-18886601D01*
X2442595Y-18839429D01*
X2519948Y-18775948D01*
X2535855Y-18756565D01*
X2575229Y-18717191D01*
X2588805Y-18785445D01*
G37*
X2588805Y-18785445D02*
X2684541Y-19016571D01*
X2823527Y-19224578D01*
X2976943Y-19377994D01*
X1907938Y-20447000D01*
X-5315032Y-20447000D01*
X-5224541Y-20311571D01*
X-5128805Y-20080445D01*
X-5080000Y-19835084D01*
X-5080000Y-19584916D01*
X-5128805Y-19339555D01*
X-5224541Y-19108429D01*
X-5348441Y-18923000D01*
X2134056Y-18923000D01*
X2159000Y-18925457D01*
X2183944Y-18923000D01*
X2183947Y-18923000D01*
X2258585Y-18915649D01*
X2354343Y-18886601D01*
X2442595Y-18839429D01*
X2519948Y-18775948D01*
X2535855Y-18756565D01*
X2575229Y-18717191D01*
X2588805Y-18785445D01*
G36*
X27344000Y-17658757D02*
G01*
X27344000Y-17901243D01*
X27391307Y-18139069D01*
X27484102Y-18363097D01*
X27618820Y-18564717D01*
X27671569Y-18617466D01*
X27656405Y-18625571D01*
X27579052Y-18689052D01*
X27563145Y-18708435D01*
X27094580Y-19177000D01*
X7514218Y-19177000D01*
X7475459Y-19083429D01*
X7336473Y-18875422D01*
X7159578Y-18698527D01*
X6951571Y-18559541D01*
X6720445Y-18463805D01*
X6475084Y-18415000D01*
X6720445Y-18366195D01*
X6951571Y-18270459D01*
X7159578Y-18131473D01*
X7336473Y-17954578D01*
X7475459Y-17746571D01*
X7514218Y-17653000D01*
X27345145Y-17653000D01*
X27344000Y-17658757D01*
G37*
X27344000Y-17658757D02*
X27344000Y-17901243D01*
X27391307Y-18139069D01*
X27484102Y-18363097D01*
X27618820Y-18564717D01*
X27671569Y-18617466D01*
X27656405Y-18625571D01*
X27579052Y-18689052D01*
X27563145Y-18708435D01*
X27094580Y-19177000D01*
X7514218Y-19177000D01*
X7475459Y-19083429D01*
X7336473Y-18875422D01*
X7159578Y-18698527D01*
X6951571Y-18559541D01*
X6720445Y-18463805D01*
X6475084Y-18415000D01*
X6720445Y-18366195D01*
X6951571Y-18270459D01*
X7159578Y-18131473D01*
X7336473Y-17954578D01*
X7475459Y-17746571D01*
X7514218Y-17653000D01*
X27345145Y-17653000D01*
X27344000Y-17658757D01*
G36*
X2588805Y-16245445D02*
G01*
X2684541Y-16476571D01*
X2823527Y-16684578D01*
X2997264Y-16858315D01*
X1948580Y-17907000D01*
X-5315032Y-17907000D01*
X-5224541Y-17771571D01*
X-5128805Y-17540445D01*
X-5080000Y-17295084D01*
X-5080000Y-17044916D01*
X-5128805Y-16799555D01*
X-5224541Y-16568429D01*
X-5348441Y-16383000D01*
X2093414Y-16383000D01*
X2118358Y-16385457D01*
X2143302Y-16383000D01*
X2143305Y-16383000D01*
X2217943Y-16375649D01*
X2313701Y-16346601D01*
X2401953Y-16299429D01*
X2479306Y-16235948D01*
X2495213Y-16216565D01*
X2568486Y-16143292D01*
X2588805Y-16245445D01*
G37*
X2588805Y-16245445D02*
X2684541Y-16476571D01*
X2823527Y-16684578D01*
X2997264Y-16858315D01*
X1948580Y-17907000D01*
X-5315032Y-17907000D01*
X-5224541Y-17771571D01*
X-5128805Y-17540445D01*
X-5080000Y-17295084D01*
X-5080000Y-17044916D01*
X-5128805Y-16799555D01*
X-5224541Y-16568429D01*
X-5348441Y-16383000D01*
X2093414Y-16383000D01*
X2118358Y-16385457D01*
X2143302Y-16383000D01*
X2143305Y-16383000D01*
X2217943Y-16375649D01*
X2313701Y-16346601D01*
X2401953Y-16299429D01*
X2479306Y-16235948D01*
X2495213Y-16216565D01*
X2568486Y-16143292D01*
X2588805Y-16245445D01*
G36*
X27344000Y-15118757D02*
G01*
X27344000Y-15361243D01*
X27391307Y-15599069D01*
X27484102Y-15823097D01*
X27618820Y-16024717D01*
X27726431Y-16132328D01*
X27706052Y-16149052D01*
X27690145Y-16168435D01*
X27221580Y-16637000D01*
X7514218Y-16637000D01*
X7475459Y-16543429D01*
X7336473Y-16335422D01*
X7159578Y-16158527D01*
X6951571Y-16019541D01*
X6720445Y-15923805D01*
X6475084Y-15875000D01*
X6720445Y-15826195D01*
X6951571Y-15730459D01*
X7159578Y-15591473D01*
X7336473Y-15414578D01*
X7475459Y-15206571D01*
X7514218Y-15113000D01*
X27280056Y-15113000D01*
X27305000Y-15115457D01*
X27329944Y-15113000D01*
X27329947Y-15113000D01*
X27345449Y-15111473D01*
X27344000Y-15118757D01*
G37*
X27344000Y-15118757D02*
X27344000Y-15361243D01*
X27391307Y-15599069D01*
X27484102Y-15823097D01*
X27618820Y-16024717D01*
X27726431Y-16132328D01*
X27706052Y-16149052D01*
X27690145Y-16168435D01*
X27221580Y-16637000D01*
X7514218Y-16637000D01*
X7475459Y-16543429D01*
X7336473Y-16335422D01*
X7159578Y-16158527D01*
X6951571Y-16019541D01*
X6720445Y-15923805D01*
X6475084Y-15875000D01*
X6720445Y-15826195D01*
X6951571Y-15730459D01*
X7159578Y-15591473D01*
X7336473Y-15414578D01*
X7475459Y-15206571D01*
X7514218Y-15113000D01*
X27280056Y-15113000D01*
X27305000Y-15115457D01*
X27329944Y-15113000D01*
X27329947Y-15113000D01*
X27345449Y-15111473D01*
X27344000Y-15118757D01*
G36*
X2588805Y-13705445D02*
G01*
X2684541Y-13936571D01*
X2823527Y-14144578D01*
X2976943Y-14297994D01*
X1907938Y-15367000D01*
X-5315032Y-15367000D01*
X-5224541Y-15231571D01*
X-5128805Y-15000445D01*
X-5080000Y-14755084D01*
X-5080000Y-14504916D01*
X-5128805Y-14259555D01*
X-5224541Y-14028429D01*
X-5348441Y-13843000D01*
X2093414Y-13843000D01*
X2118358Y-13845457D01*
X2143302Y-13843000D01*
X2143305Y-13843000D01*
X2217943Y-13835649D01*
X2313701Y-13806601D01*
X2401953Y-13759429D01*
X2479306Y-13695948D01*
X2495213Y-13676565D01*
X2568486Y-13603292D01*
X2588805Y-13705445D01*
G37*
X2588805Y-13705445D02*
X2684541Y-13936571D01*
X2823527Y-14144578D01*
X2976943Y-14297994D01*
X1907938Y-15367000D01*
X-5315032Y-15367000D01*
X-5224541Y-15231571D01*
X-5128805Y-15000445D01*
X-5080000Y-14755084D01*
X-5080000Y-14504916D01*
X-5128805Y-14259555D01*
X-5224541Y-14028429D01*
X-5348441Y-13843000D01*
X2093414Y-13843000D01*
X2118358Y-13845457D01*
X2143302Y-13843000D01*
X2143305Y-13843000D01*
X2217943Y-13835649D01*
X2313701Y-13806601D01*
X2401953Y-13759429D01*
X2479306Y-13695948D01*
X2495213Y-13676565D01*
X2568486Y-13603292D01*
X2588805Y-13705445D01*
G36*
X27391307Y-13059069D02*
G01*
X27484102Y-13283097D01*
X27618820Y-13484717D01*
X27671569Y-13537466D01*
X27656405Y-13545571D01*
X27579052Y-13609052D01*
X27563145Y-13628435D01*
X27094580Y-14097000D01*
X7514218Y-14097000D01*
X7475459Y-14003429D01*
X7359734Y-13830235D01*
X26293899Y-13830235D01*
X26318843Y-13832692D01*
X26343787Y-13830235D01*
X26343790Y-13830235D01*
X26418428Y-13822884D01*
X26514186Y-13793836D01*
X26602438Y-13746664D01*
X26679791Y-13683183D01*
X26695698Y-13663800D01*
X27376229Y-12983269D01*
X27391307Y-13059069D01*
G37*
X27391307Y-13059069D02*
X27484102Y-13283097D01*
X27618820Y-13484717D01*
X27671569Y-13537466D01*
X27656405Y-13545571D01*
X27579052Y-13609052D01*
X27563145Y-13628435D01*
X27094580Y-14097000D01*
X7514218Y-14097000D01*
X7475459Y-14003429D01*
X7359734Y-13830235D01*
X26293899Y-13830235D01*
X26318843Y-13832692D01*
X26343787Y-13830235D01*
X26343790Y-13830235D01*
X26418428Y-13822884D01*
X26514186Y-13793836D01*
X26602438Y-13746664D01*
X26679791Y-13683183D01*
X26695698Y-13663800D01*
X27376229Y-12983269D01*
X27391307Y-13059069D01*
G36*
X2588805Y-11165445D02*
G01*
X2684541Y-11396571D01*
X2823527Y-11604578D01*
X2976943Y-11757994D01*
X1907938Y-12827000D01*
X-5315032Y-12827000D01*
X-5224541Y-12691571D01*
X-5128805Y-12460445D01*
X-5080000Y-12215084D01*
X-5080000Y-11964916D01*
X-5128805Y-11719555D01*
X-5224541Y-11488429D01*
X-5348441Y-11303000D01*
X2093414Y-11303000D01*
X2118358Y-11305457D01*
X2143302Y-11303000D01*
X2143305Y-11303000D01*
X2217943Y-11295649D01*
X2313701Y-11266601D01*
X2401953Y-11219429D01*
X2479306Y-11155948D01*
X2495213Y-11136565D01*
X2568486Y-11063292D01*
X2588805Y-11165445D01*
G37*
X2588805Y-11165445D02*
X2684541Y-11396571D01*
X2823527Y-11604578D01*
X2976943Y-11757994D01*
X1907938Y-12827000D01*
X-5315032Y-12827000D01*
X-5224541Y-12691571D01*
X-5128805Y-12460445D01*
X-5080000Y-12215084D01*
X-5080000Y-11964916D01*
X-5128805Y-11719555D01*
X-5224541Y-11488429D01*
X-5348441Y-11303000D01*
X2093414Y-11303000D01*
X2118358Y-11305457D01*
X2143302Y-11303000D01*
X2143305Y-11303000D01*
X2217943Y-11295649D01*
X2313701Y-11266601D01*
X2401953Y-11219429D01*
X2479306Y-11155948D01*
X2495213Y-11136565D01*
X2568486Y-11063292D01*
X2588805Y-11165445D01*
G36*
X27484102Y-9576903D02*
G01*
X27391307Y-9800931D01*
X27344000Y-10038757D01*
X27344000Y-10281243D01*
X27391307Y-10519069D01*
X27484102Y-10743097D01*
X27618820Y-10944717D01*
X27790283Y-11116180D01*
X27799991Y-11122666D01*
X26108423Y-12814235D01*
X7376793Y-12814235D01*
X7475459Y-12666571D01*
X7571195Y-12435445D01*
X7620000Y-12190084D01*
X7620000Y-11939916D01*
X7571195Y-11694555D01*
X7475459Y-11463429D01*
X7366927Y-11301000D01*
X8042580Y-11301000D01*
X9148150Y-12406571D01*
X9164052Y-12425948D01*
X9183429Y-12441850D01*
X9241404Y-12489429D01*
X9326185Y-12534745D01*
X9329657Y-12536601D01*
X9425415Y-12565649D01*
X9500053Y-12573000D01*
X9500055Y-12573000D01*
X9524999Y-12575457D01*
X9549943Y-12573000D01*
X9676947Y-12573000D01*
X9697254Y-12571000D01*
X24084746Y-12571000D01*
X24105053Y-12573000D01*
X24232056Y-12573000D01*
X24257000Y-12575457D01*
X24281944Y-12573000D01*
X24281947Y-12573000D01*
X24356585Y-12565649D01*
X24452343Y-12536601D01*
X24540595Y-12489429D01*
X24617948Y-12425948D01*
X24633855Y-12406565D01*
X27525551Y-9514870D01*
X27484102Y-9576903D01*
G37*
X27484102Y-9576903D02*
X27391307Y-9800931D01*
X27344000Y-10038757D01*
X27344000Y-10281243D01*
X27391307Y-10519069D01*
X27484102Y-10743097D01*
X27618820Y-10944717D01*
X27790283Y-11116180D01*
X27799991Y-11122666D01*
X26108423Y-12814235D01*
X7376793Y-12814235D01*
X7475459Y-12666571D01*
X7571195Y-12435445D01*
X7620000Y-12190084D01*
X7620000Y-11939916D01*
X7571195Y-11694555D01*
X7475459Y-11463429D01*
X7366927Y-11301000D01*
X8042580Y-11301000D01*
X9148150Y-12406571D01*
X9164052Y-12425948D01*
X9183429Y-12441850D01*
X9241404Y-12489429D01*
X9326185Y-12534745D01*
X9329657Y-12536601D01*
X9425415Y-12565649D01*
X9500053Y-12573000D01*
X9500055Y-12573000D01*
X9524999Y-12575457D01*
X9549943Y-12573000D01*
X9676947Y-12573000D01*
X9697254Y-12571000D01*
X24084746Y-12571000D01*
X24105053Y-12573000D01*
X24232056Y-12573000D01*
X24257000Y-12575457D01*
X24281944Y-12573000D01*
X24281947Y-12573000D01*
X24356585Y-12565649D01*
X24452343Y-12536601D01*
X24540595Y-12489429D01*
X24617948Y-12425948D01*
X24633855Y-12406565D01*
X27525551Y-9514870D01*
X27484102Y-9576903D01*
G36*
X27391307Y-7979069D02*
G01*
X27484102Y-8203097D01*
X27604977Y-8384000D01*
X27477248Y-8384000D01*
X27431999Y-8379543D01*
X27332415Y-8389352D01*
X27236656Y-8418400D01*
X27148404Y-8465571D01*
X27090429Y-8513150D01*
X27076003Y-8527576D01*
X27072473Y-8530473D01*
X27069576Y-8534003D01*
X24044580Y-11559000D01*
X9737421Y-11559000D01*
X8617429Y-10439009D01*
X8614527Y-10435473D01*
X8610991Y-10432571D01*
X8596570Y-10418150D01*
X8538595Y-10370571D01*
X8450343Y-10323400D01*
X8354584Y-10294352D01*
X8255000Y-10284543D01*
X8209751Y-10289000D01*
X7366927Y-10289000D01*
X7475459Y-10126571D01*
X7571195Y-9895445D01*
X7620000Y-9650084D01*
X7620000Y-9399916D01*
X7571195Y-9154555D01*
X7475459Y-8923429D01*
X7336473Y-8715422D01*
X7159578Y-8538527D01*
X6951571Y-8399541D01*
X6720445Y-8303805D01*
X6484349Y-8256843D01*
X6906252Y-8256843D01*
X9784628Y-11135220D01*
X9800473Y-11154527D01*
X9877521Y-11217759D01*
X9965425Y-11264745D01*
X10060807Y-11293678D01*
X10135146Y-11301000D01*
X10135153Y-11301000D01*
X10159999Y-11303447D01*
X10184845Y-11301000D01*
X23685852Y-11301000D01*
X23760191Y-11293678D01*
X23855573Y-11264745D01*
X23943477Y-11217759D01*
X24020525Y-11154527D01*
X24083757Y-11077479D01*
X24116650Y-11015941D01*
X27351856Y-7780736D01*
X27391307Y-7979069D01*
G37*
X27391307Y-7979069D02*
X27484102Y-8203097D01*
X27604977Y-8384000D01*
X27477248Y-8384000D01*
X27431999Y-8379543D01*
X27332415Y-8389352D01*
X27236656Y-8418400D01*
X27148404Y-8465571D01*
X27090429Y-8513150D01*
X27076003Y-8527576D01*
X27072473Y-8530473D01*
X27069576Y-8534003D01*
X24044580Y-11559000D01*
X9737421Y-11559000D01*
X8617429Y-10439009D01*
X8614527Y-10435473D01*
X8610991Y-10432571D01*
X8596570Y-10418150D01*
X8538595Y-10370571D01*
X8450343Y-10323400D01*
X8354584Y-10294352D01*
X8255000Y-10284543D01*
X8209751Y-10289000D01*
X7366927Y-10289000D01*
X7475459Y-10126571D01*
X7571195Y-9895445D01*
X7620000Y-9650084D01*
X7620000Y-9399916D01*
X7571195Y-9154555D01*
X7475459Y-8923429D01*
X7336473Y-8715422D01*
X7159578Y-8538527D01*
X6951571Y-8399541D01*
X6720445Y-8303805D01*
X6484349Y-8256843D01*
X6906252Y-8256843D01*
X9784628Y-11135220D01*
X9800473Y-11154527D01*
X9877521Y-11217759D01*
X9965425Y-11264745D01*
X10060807Y-11293678D01*
X10135146Y-11301000D01*
X10135153Y-11301000D01*
X10159999Y-11303447D01*
X10184845Y-11301000D01*
X23685852Y-11301000D01*
X23760191Y-11293678D01*
X23855573Y-11264745D01*
X23943477Y-11217759D01*
X24020525Y-11154527D01*
X24083757Y-11077479D01*
X24116650Y-11015941D01*
X27351856Y-7780736D01*
X27391307Y-7979069D01*
G36*
X2588805Y-8625445D02*
G01*
X2684541Y-8856571D01*
X2823527Y-9064578D01*
X2976943Y-9217994D01*
X1907938Y-10287000D01*
X-5315032Y-10287000D01*
X-5224541Y-10151571D01*
X-5128805Y-9920445D01*
X-5080000Y-9675084D01*
X-5080000Y-9424916D01*
X-5128805Y-9179555D01*
X-5224541Y-8948429D01*
X-5348441Y-8763000D01*
X2093414Y-8763000D01*
X2118358Y-8765457D01*
X2143302Y-8763000D01*
X2143305Y-8763000D01*
X2217943Y-8755649D01*
X2313701Y-8726601D01*
X2401953Y-8679429D01*
X2479306Y-8615948D01*
X2495213Y-8596565D01*
X2568486Y-8523292D01*
X2588805Y-8625445D01*
G37*
X2588805Y-8625445D02*
X2684541Y-8856571D01*
X2823527Y-9064578D01*
X2976943Y-9217994D01*
X1907938Y-10287000D01*
X-5315032Y-10287000D01*
X-5224541Y-10151571D01*
X-5128805Y-9920445D01*
X-5080000Y-9675084D01*
X-5080000Y-9424916D01*
X-5128805Y-9179555D01*
X-5224541Y-8948429D01*
X-5348441Y-8763000D01*
X2093414Y-8763000D01*
X2118358Y-8765457D01*
X2143302Y-8763000D01*
X2143305Y-8763000D01*
X2217943Y-8755649D01*
X2313701Y-8726601D01*
X2401953Y-8679429D01*
X2479306Y-8615948D01*
X2495213Y-8596565D01*
X2568486Y-8523292D01*
X2588805Y-8625445D01*
M02*
