G04 #@! TF.GenerationSoftware,KiCad,Pcbnew,7.0.2-0*
G04 #@! TF.CreationDate,2023-05-30T22:37:42-06:00*
G04 #@! TF.ProjectId,bias_T_launch_cpw,62696173-5f54-45f6-9c61-756e63685f63,rev?*
G04 #@! TF.SameCoordinates,Original*
G04 #@! TF.FileFunction,Soldermask,Top*
G04 #@! TF.FilePolarity,Negative*
%FSLAX46Y46*%
G04 Gerber Fmt 4.6, Leading zero omitted, Abs format (unit mm)*
G04 Created by KiCad (PCBNEW 7.0.2-0) date 2023-05-30 22:37:42*
%MOMM*%
%LPD*%
G01*
G04 APERTURE LIST*
G04 APERTURE END LIST*
G36*
X4002558Y6004829D02*
G01*
X4280542Y5984947D01*
X4290053Y5983580D01*
X4560162Y5924821D01*
X4569393Y5922111D01*
X4828396Y5825508D01*
X4837140Y5821514D01*
X5079764Y5689031D01*
X5087850Y5683835D01*
X5309144Y5518176D01*
X5316407Y5511882D01*
X5511882Y5316407D01*
X5518176Y5309144D01*
X5683835Y5087850D01*
X5689031Y5079764D01*
X5821514Y4837140D01*
X5825508Y4828396D01*
X5922111Y4569393D01*
X5924821Y4560162D01*
X5983580Y4290053D01*
X5984947Y4280542D01*
X6004829Y4002558D01*
X6005000Y3997782D01*
X6005000Y481874D01*
X6015765Y446386D01*
X6024542Y433250D01*
X6029762Y429762D01*
X6040818Y413217D01*
X6044700Y393700D01*
X6044700Y-393700D01*
X6040818Y-413217D01*
X6029762Y-429762D01*
X6024541Y-433250D01*
X6015765Y-446386D01*
X6005000Y-481874D01*
X6005000Y-3997782D01*
X6004829Y-4002558D01*
X5984947Y-4280542D01*
X5983580Y-4290053D01*
X5924821Y-4560162D01*
X5922111Y-4569393D01*
X5825508Y-4828396D01*
X5821514Y-4837140D01*
X5689031Y-5079764D01*
X5683835Y-5087850D01*
X5518176Y-5309144D01*
X5511882Y-5316407D01*
X5316407Y-5511882D01*
X5309144Y-5518176D01*
X5087850Y-5683835D01*
X5079764Y-5689031D01*
X4837140Y-5821514D01*
X4828396Y-5825508D01*
X4569393Y-5922111D01*
X4560162Y-5924821D01*
X4290053Y-5983580D01*
X4280542Y-5984947D01*
X4002558Y-6004829D01*
X3997782Y-6005000D01*
X-5982027Y-6005000D01*
X-5999053Y-6000000D01*
X-6000000Y-6000000D01*
X-6000000Y-5999592D01*
X-6002890Y-5996257D01*
X-6005000Y-5986562D01*
X-6005000Y-764977D01*
X-863600Y-764977D01*
X-790377Y-838200D01*
X688777Y-838200D01*
X762000Y-764977D01*
X762000Y-530423D01*
X688777Y-457200D01*
X-790377Y-457200D01*
X-863600Y-530423D01*
X-863600Y-764977D01*
X-6005000Y-764977D01*
X-6005000Y-457749D01*
X-2286000Y-457749D01*
X-2213358Y-530870D01*
X-1750205Y-533916D01*
X-1676400Y-460595D01*
X-1676400Y-434777D01*
X1676400Y-434777D01*
X1749623Y-508000D01*
X2212777Y-508000D01*
X2286000Y-434777D01*
X2286000Y612577D01*
X2212777Y685800D01*
X1749623Y685800D01*
X1676400Y612577D01*
X1676400Y-434777D01*
X-1676400Y-434777D01*
X-1676400Y612577D01*
X-1749623Y685800D01*
X-2212777Y685800D01*
X-2286000Y612577D01*
X-2286000Y-457749D01*
X-6005000Y-457749D01*
X-6005000Y1365663D01*
X-2031720Y1365663D01*
X-1959441Y1292267D01*
X-1845732Y1290974D01*
X-1750629Y1289893D01*
X-1676400Y1363284D01*
X-1676400Y1368623D01*
X1676400Y1368623D01*
X1749623Y1295400D01*
X1959127Y1295400D01*
X2032289Y1368272D01*
X2037666Y2723358D01*
X1965486Y2796736D01*
X1750731Y2799420D01*
X1676400Y2726012D01*
X1676400Y1368623D01*
X-1676400Y1368623D01*
X-1676400Y2720777D01*
X-1749623Y2794000D01*
X-1953180Y2794000D01*
X-2026342Y2721128D01*
X-2031720Y1365663D01*
X-6005000Y1365663D01*
X-6005000Y3082026D01*
X-6000000Y3099053D01*
X-6000000Y3100000D01*
X-5999593Y3100000D01*
X-5996257Y3102890D01*
X-5986562Y3105000D01*
X-2867223Y3105000D01*
X-2794000Y3178223D01*
X-2794000Y4486427D01*
X-2794000Y4495800D01*
X-2064503Y4495800D01*
X-2020369Y4515955D01*
X-2019824Y4516154D01*
X-2019375Y4516082D01*
X-2019300Y4521200D01*
X-571500Y4521200D01*
X-571764Y4503229D01*
X-571764Y4503228D01*
X-571937Y4491474D01*
X-576006Y4214725D01*
X-502569Y4140200D01*
X1674684Y4140200D01*
X1676400Y4140983D01*
X1676400Y4146550D01*
X1779869Y4145256D01*
X1854200Y4218663D01*
X1854200Y4486864D01*
X1854200Y4495800D01*
X1855484Y4495800D01*
X1861509Y4537723D01*
X1786743Y4624000D01*
X1478587Y4624000D01*
X1468750Y4624000D01*
X1430307Y4631646D01*
X1385873Y4638684D01*
X1380075Y4641638D01*
X1365521Y4644533D01*
X1337029Y4663570D01*
X1311112Y4676776D01*
X1298718Y4689169D01*
X1278008Y4703008D01*
X1264169Y4723718D01*
X1251776Y4736112D01*
X1238570Y4762029D01*
X1219533Y4790521D01*
X1216638Y4805075D01*
X1213684Y4810873D01*
X1206646Y4855309D01*
X1199000Y4893750D01*
X1199000Y5406250D01*
X1206646Y5444694D01*
X1213684Y5489126D01*
X1216637Y5494923D01*
X1219533Y5509479D01*
X1238572Y5537973D01*
X1251776Y5563887D01*
X1264167Y5576278D01*
X1278008Y5596992D01*
X1298721Y5610832D01*
X1311112Y5623223D01*
X1337023Y5636425D01*
X1365521Y5655467D01*
X1380078Y5658362D01*
X1385873Y5661315D01*
X1430284Y5668349D01*
X1468750Y5676000D01*
X1906250Y5676000D01*
X1944718Y5668348D01*
X1989126Y5661315D01*
X1994919Y5658362D01*
X2009479Y5655467D01*
X2037979Y5636423D01*
X2063887Y5623223D01*
X2076275Y5610834D01*
X2096992Y5596992D01*
X2110834Y5576275D01*
X2123223Y5563887D01*
X2136423Y5537979D01*
X2155467Y5509479D01*
X2158362Y5494919D01*
X2161315Y5489126D01*
X2168348Y5444718D01*
X2176000Y5406250D01*
X2176000Y4893750D01*
X2168349Y4855284D01*
X2161315Y4810873D01*
X2158362Y4805078D01*
X2155467Y4790521D01*
X2136423Y4762021D01*
X2123222Y4736111D01*
X2110832Y4723721D01*
X2096992Y4703008D01*
X2076280Y4689168D01*
X2037240Y4650128D01*
X2101164Y4495800D01*
X2521777Y4495800D01*
X2595000Y4569023D01*
X2595000Y5982026D01*
X2600000Y5999056D01*
X2600000Y6000000D01*
X2600406Y6000000D01*
X2603742Y6002890D01*
X2613438Y6005000D01*
X3997782Y6005000D01*
X4002558Y6004829D01*
G37*
G36*
X369718Y5668348D02*
G01*
X414126Y5661315D01*
X419919Y5658362D01*
X434479Y5655467D01*
X462979Y5636423D01*
X488887Y5623223D01*
X501275Y5610834D01*
X521992Y5596992D01*
X535834Y5576275D01*
X548223Y5563887D01*
X561423Y5537979D01*
X580467Y5509479D01*
X583362Y5494919D01*
X586315Y5489126D01*
X593348Y5444718D01*
X601000Y5406250D01*
X601000Y5281750D01*
X630519Y5226525D01*
X681005Y5192790D01*
X695980Y5183167D01*
X705982Y5161263D01*
X715070Y5147664D01*
X717289Y5136505D01*
X725707Y5118074D01*
X723713Y5104209D01*
X724551Y5100000D01*
X719346Y5073833D01*
X715523Y5047242D01*
X698674Y5027798D01*
X688071Y5011929D01*
X680595Y5006933D01*
X668661Y4993161D01*
X653180Y4988615D01*
X633609Y4975538D01*
X605421Y4931504D01*
X601000Y4903590D01*
X601000Y4893750D01*
X593349Y4855287D01*
X586315Y4810873D01*
X583362Y4805078D01*
X580467Y4790521D01*
X561425Y4762023D01*
X548223Y4736112D01*
X535832Y4723721D01*
X521992Y4703008D01*
X501278Y4689167D01*
X488887Y4676776D01*
X462973Y4663572D01*
X434479Y4644533D01*
X419923Y4641637D01*
X414126Y4638684D01*
X369694Y4631646D01*
X331250Y4624000D01*
X321413Y4624000D01*
X-96413Y4624000D01*
X-106250Y4624000D01*
X-144694Y4631646D01*
X-189126Y4638684D01*
X-194923Y4641637D01*
X-209479Y4644533D01*
X-237973Y4663572D01*
X-263887Y4676776D01*
X-276278Y4689167D01*
X-296992Y4703008D01*
X-310832Y4723721D01*
X-323223Y4736112D01*
X-336425Y4762023D01*
X-355467Y4790521D01*
X-358362Y4805078D01*
X-361315Y4810873D01*
X-368347Y4855275D01*
X-376000Y4893750D01*
X-376000Y4903597D01*
X-377505Y4913100D01*
X-447637Y4973000D01*
X-3225778Y4973000D01*
X-3299000Y4899778D01*
X-3299000Y3650000D01*
X-3302882Y3630483D01*
X-3313938Y3613938D01*
X-3330483Y3602882D01*
X-3350000Y3599000D01*
X-3362313Y3599000D01*
X-5037689Y3599000D01*
X-5050000Y3599000D01*
X-5069517Y3602882D01*
X-5086062Y3613938D01*
X-5097118Y3630483D01*
X-5101000Y3650000D01*
X-5101000Y5350000D01*
X-5097118Y5369517D01*
X-5086062Y5386062D01*
X-5069517Y5397118D01*
X-5050000Y5401000D01*
X-3350000Y5401000D01*
X-3330483Y5397118D01*
X-3313938Y5386062D01*
X-3302882Y5369517D01*
X-3299000Y5350000D01*
X-3299000Y5337683D01*
X-3288273Y5283749D01*
X-3219126Y5227000D01*
X-449223Y5227000D01*
X-376000Y5300223D01*
X-376000Y5396413D01*
X-376000Y5406250D01*
X-368350Y5444707D01*
X-361315Y5489126D01*
X-358362Y5494919D01*
X-355467Y5509479D01*
X-336423Y5537979D01*
X-323223Y5563887D01*
X-310834Y5576275D01*
X-296992Y5596992D01*
X-276275Y5610834D01*
X-263887Y5623223D01*
X-237979Y5636423D01*
X-209479Y5655467D01*
X-194919Y5658362D01*
X-189126Y5661315D01*
X-144718Y5668348D01*
X-106250Y5676000D01*
X331250Y5676000D01*
X369718Y5668348D01*
G37*
M02*
