G04 #@! TF.GenerationSoftware,KiCad,Pcbnew,(5.1.5-0-10_14)*
G04 #@! TF.CreationDate,2021-08-12T20:57:37-06:00*
G04 #@! TF.ProjectId,bias_T_launch,62696173-5f54-45f6-9c61-756e63682e6b,rev?*
G04 #@! TF.SameCoordinates,Original*
G04 #@! TF.FileFunction,Legend,Top*
G04 #@! TF.FilePolarity,Positive*
%FSLAX46Y46*%
G04 Gerber Fmt 4.6, Leading zero omitted, Abs format (unit mm)*
G04 Created by KiCad (PCBNEW (5.1.5-0-10_14)) date 2021-08-12 20:57:37*
%MOMM*%
%LPD*%
G04 APERTURE LIST*
%ADD10C,0.120000*%
%ADD11C,0.150000*%
%ADD12C,0.060000*%
G04 APERTURE END LIST*
D10*
X200000Y-1900000D02*
X200000Y-1500000D01*
X200000Y-1900000D02*
G75*
G02X200000Y-2500000I0J-300000D01*
G01*
X200000Y-2500000D02*
G75*
G02X200000Y-3100000I0J-300000D01*
G01*
X200000Y-3100000D02*
G75*
G02X200000Y-3700000I0J-300000D01*
G01*
X200000Y-4400000D02*
X200000Y-3700000D01*
X1600000Y-4400000D02*
X2400000Y-4400000D01*
X1600000Y-5000000D02*
X1600000Y-3700000D01*
X1100000Y-3700000D02*
X1100000Y-5000000D01*
X-700000Y-4400000D02*
X1100000Y-4400000D01*
X737221Y5660000D02*
X1062779Y5660000D01*
X737221Y4640000D02*
X1062779Y4640000D01*
D11*
X-1661904Y-1752380D02*
X-1661904Y-2561904D01*
X-1614285Y-2657142D01*
X-1566666Y-2704761D01*
X-1471428Y-2752380D01*
X-1280952Y-2752380D01*
X-1185714Y-2704761D01*
X-1138095Y-2657142D01*
X-1090476Y-2561904D01*
X-1090476Y-1752380D01*
X-90476Y-2752380D02*
X-661904Y-2752380D01*
X-376190Y-2752380D02*
X-376190Y-1752380D01*
X-471428Y-1895238D01*
X-566666Y-1990476D01*
X-661904Y-2038095D01*
D12*
X2516666Y5421428D02*
X2492857Y5397619D01*
X2421428Y5373809D01*
X2373809Y5373809D01*
X2302380Y5397619D01*
X2254761Y5445238D01*
X2230952Y5492857D01*
X2207142Y5588095D01*
X2207142Y5659523D01*
X2230952Y5754761D01*
X2254761Y5802380D01*
X2302380Y5850000D01*
X2373809Y5873809D01*
X2421428Y5873809D01*
X2492857Y5850000D01*
X2516666Y5826190D01*
X2992857Y5373809D02*
X2707142Y5373809D01*
X2850000Y5373809D02*
X2850000Y5873809D01*
X2802380Y5802380D01*
X2754761Y5754761D01*
X2707142Y5730952D01*
D11*
X1866666Y-4852380D02*
X1866666Y-5566666D01*
X1819047Y-5709523D01*
X1723809Y-5804761D01*
X1580952Y-5852380D01*
X1485714Y-5852380D01*
X2247619Y-4852380D02*
X2866666Y-4852380D01*
X2533333Y-5233333D01*
X2676190Y-5233333D01*
X2771428Y-5280952D01*
X2819047Y-5328571D01*
X2866666Y-5423809D01*
X2866666Y-5661904D01*
X2819047Y-5757142D01*
X2771428Y-5804761D01*
X2676190Y-5852380D01*
X2390476Y-5852380D01*
X2295238Y-5804761D01*
X2247619Y-5757142D01*
X-633333Y-4852380D02*
X-633333Y-5566666D01*
X-680952Y-5709523D01*
X-776190Y-5804761D01*
X-919047Y-5852380D01*
X-1014285Y-5852380D01*
X366666Y-5852380D02*
X-204761Y-5852380D01*
X80952Y-5852380D02*
X80952Y-4852380D01*
X-14285Y-4995238D01*
X-109523Y-5090476D01*
X-204761Y-5138095D01*
D12*
X-5873809Y4333333D02*
X-5516666Y4333333D01*
X-5445238Y4309523D01*
X-5397619Y4261904D01*
X-5373809Y4190476D01*
X-5373809Y4142857D01*
X-5826190Y4547619D02*
X-5850000Y4571428D01*
X-5873809Y4619047D01*
X-5873809Y4738095D01*
X-5850000Y4785714D01*
X-5826190Y4809523D01*
X-5778571Y4833333D01*
X-5730952Y4833333D01*
X-5659523Y4809523D01*
X-5373809Y4523809D01*
X-5373809Y4833333D01*
M02*
