G04 #@! TF.GenerationSoftware,KiCad,Pcbnew,7.0.2-0*
G04 #@! TF.CreationDate,2023-05-30T22:37:42-06:00*
G04 #@! TF.ProjectId,bias_T_launch_cpw,62696173-5f54-45f6-9c61-756e63685f63,rev?*
G04 #@! TF.SameCoordinates,Original*
G04 #@! TF.FileFunction,Copper,L1,Top*
G04 #@! TF.FilePolarity,Positive*
%FSLAX46Y46*%
G04 Gerber Fmt 4.6, Leading zero omitted, Abs format (unit mm)*
G04 Created by KiCad (PCBNEW 7.0.2-0) date 2023-05-30 22:37:42*
%MOMM*%
%LPD*%
G01*
G04 APERTURE LIST*
G04 Aperture macros list*
%AMRoundRect*
0 Rectangle with rounded corners*
0 $1 Rounding radius*
0 $2 $3 $4 $5 $6 $7 $8 $9 X,Y pos of 4 corners*
0 Add a 4 corners polygon primitive as box body*
4,1,4,$2,$3,$4,$5,$6,$7,$8,$9,$2,$3,0*
0 Add four circle primitives for the rounded corners*
1,1,$1+$1,$2,$3*
1,1,$1+$1,$4,$5*
1,1,$1+$1,$6,$7*
1,1,$1+$1,$8,$9*
0 Add four rect primitives between the rounded corners*
20,1,$1+$1,$2,$3,$4,$5,0*
20,1,$1+$1,$4,$5,$6,$7,0*
20,1,$1+$1,$6,$7,$8,$9,0*
20,1,$1+$1,$8,$9,$2,$3,0*%
%AMFreePoly0*
4,1,11,0.393700,-0.838200,-0.393700,-0.838200,-0.393700,-0.457200,-1.028700,-0.457200,-1.028700,-0.812800,-1.524000,-0.812800,-1.524000,-0.050800,-0.393700,-0.050800,-0.393700,0.838200,0.393700,0.838200,0.393700,-0.838200,0.393700,-0.838200,$1*%
%AMFreePoly1*
4,1,11,0.393700,-0.050800,1.524000,-0.050800,1.524000,-0.812800,1.028700,-0.812800,1.028700,-0.457200,0.393700,-0.457200,0.393700,-0.838200,-0.393700,-0.838200,-0.393700,0.838200,0.393700,0.838200,0.393700,-0.050800,0.393700,-0.050800,$1*%
%AMFreePoly2*
4,1,21,-2.019300,0.342900,2.019300,0.342900,2.019300,2.451100,2.705100,2.451100,2.705100,-1.231900,2.019300,-1.231900,2.019300,-0.342900,0.342900,-0.342900,0.342900,-2.857500,2.628900,-2.857500,2.628900,-3.543300,-2.705100,-3.543300,-2.705100,-2.857500,-0.342900,-2.857500,-0.342900,-0.342900,-2.019300,-0.342900,-2.019300,-1.244600,-2.705100,-1.244600,-2.705100,2.451100,-2.019300,2.451100,
-2.019300,0.342900,-2.019300,0.342900,$1*%
G04 Aperture macros list end*
G04 #@! TA.AperFunction,SMDPad,CuDef*
%ADD10R,0.787400X0.787400*%
G04 #@! TD*
G04 #@! TA.AperFunction,SMDPad,CuDef*
%ADD11R,0.787400X1.676400*%
G04 #@! TD*
G04 #@! TA.AperFunction,SMDPad,CuDef*
%ADD12FreePoly0,0.000000*%
G04 #@! TD*
G04 #@! TA.AperFunction,SMDPad,CuDef*
%ADD13FreePoly1,0.000000*%
G04 #@! TD*
G04 #@! TA.AperFunction,SMDPad,CuDef*
%ADD14R,2.057400X1.676400*%
G04 #@! TD*
G04 #@! TA.AperFunction,ComponentPad*
%ADD15C,0.600000*%
G04 #@! TD*
G04 #@! TA.AperFunction,SMDPad,CuDef*
%ADD16FreePoly2,0.000000*%
G04 #@! TD*
G04 #@! TA.AperFunction,SMDPad,CuDef*
%ADD17RoundRect,0.218750X-0.218750X-0.256250X0.218750X-0.256250X0.218750X0.256250X-0.218750X0.256250X0*%
G04 #@! TD*
G04 #@! TA.AperFunction,ComponentPad*
%ADD18R,1.700000X1.700000*%
G04 #@! TD*
G04 #@! TA.AperFunction,ViaPad*
%ADD19C,0.600000*%
G04 #@! TD*
G04 #@! TA.AperFunction,Conductor*
%ADD20C,0.787400*%
G04 #@! TD*
G04 #@! TA.AperFunction,Conductor*
%ADD21C,0.250000*%
G04 #@! TD*
G04 APERTURE END LIST*
D10*
X-5552400Y0D03*
X5600000Y0D03*
X5600000Y1206500D03*
X5600000Y-1206500D03*
D11*
X-1270000Y3644900D03*
D12*
X-1270000Y419100D03*
D13*
X1270000Y431800D03*
D14*
X635000Y3644900D03*
D15*
X-2413000Y4191000D03*
X-2413000Y3175000D03*
X-2413000Y2032000D03*
X-2413000Y1143000D03*
X-2286000Y-1143000D03*
X-1270000Y2032000D03*
X-1143000Y-1143000D03*
X0Y2032000D03*
D16*
X0Y2032000D03*
D15*
X0Y1016000D03*
X0Y0D03*
X0Y-1143000D03*
X1143000Y-1143000D03*
X1270000Y2032000D03*
X2159000Y-1143000D03*
X2413000Y4191000D03*
X2413000Y3175000D03*
X2413000Y2032000D03*
X2413000Y1143000D03*
D17*
X112500Y5150000D03*
X1687500Y5150000D03*
D18*
X-4200000Y4500000D03*
D19*
X-4450000Y-1510000D03*
X-5350000Y-1510000D03*
X-4450000Y1490000D03*
X-5350000Y1490000D03*
X-3550000Y-1510000D03*
X-3550000Y1490000D03*
X5100000Y1500000D03*
X5100000Y-1500000D03*
X3300000Y1500000D03*
X4200000Y1500000D03*
X3300000Y-1500000D03*
X4200000Y-1500000D03*
D20*
X-2692400Y-10000D02*
X-5350000Y0D01*
X-1270000Y3644900D02*
X-1270000Y3730000D01*
D21*
X-1270000Y419100D02*
X-1330900Y419100D01*
X-5350000Y150000D02*
X-5350000Y50000D01*
X-5350000Y50000D02*
X-5400000Y0D01*
X-1330900Y419100D02*
X-1600000Y150000D01*
X1500000Y250000D02*
X2500000Y250000D01*
D20*
X2750000Y0D02*
X5250000Y0D01*
D21*
X1270000Y431800D02*
X1318200Y431800D01*
X1318200Y431800D02*
X1500000Y250000D01*
X2500000Y250000D02*
X2750000Y0D01*
X635000Y3644900D02*
X144900Y3644900D01*
X100000Y5100000D02*
X-3700000Y5100000D01*
X144900Y3644900D02*
X100000Y3689800D01*
X100000Y4006122D02*
X100000Y5100000D01*
X100000Y3689800D02*
X100000Y4006122D01*
X-3600000Y5100000D02*
X-4200000Y4500000D01*
X-2400000Y1900000D02*
X-2400000Y900000D01*
X-2700000Y900000D02*
X-2400000Y900000D01*
X-2268000Y2032000D02*
X-2400000Y1900000D01*
X0Y-1000000D02*
X-50000Y-950000D01*
X-50000Y-950000D02*
X-380000Y-950000D01*
X0Y2032000D02*
X0Y-1000000D01*
X0Y2032000D02*
X-2268000Y2032000D01*
X-2670000Y-950000D02*
X-380000Y-950000D01*
G04 #@! TA.AperFunction,Conductor*
G36*
X755720Y-570819D02*
G01*
X796820Y-598281D01*
X876300Y-614091D01*
X1663700Y-614091D01*
X1727274Y-601445D01*
X1741945Y-600000D01*
X2312266Y-600000D01*
X2335904Y-588977D01*
X2342458Y-588691D01*
X2639763Y-588691D01*
X2649578Y-589333D01*
X2710845Y-597400D01*
X5186236Y-597400D01*
X5899300Y-597400D01*
X5947638Y-614993D01*
X5973358Y-659542D01*
X5974500Y-672600D01*
X5974500Y-3997538D01*
X5974339Y-4002456D01*
X5957930Y-4252805D01*
X5956646Y-4262558D01*
X5908182Y-4506205D01*
X5905636Y-4515706D01*
X5825785Y-4750938D01*
X5822021Y-4760026D01*
X5712145Y-4982832D01*
X5707228Y-4991348D01*
X5616107Y-5127722D01*
X5569216Y-5197899D01*
X5563227Y-5205703D01*
X5399431Y-5392476D01*
X5392476Y-5399431D01*
X5205703Y-5563227D01*
X5197903Y-5569212D01*
X5020493Y-5687755D01*
X4991351Y-5707227D01*
X4982832Y-5712145D01*
X4760026Y-5822021D01*
X4750938Y-5825785D01*
X4515706Y-5905636D01*
X4506205Y-5908182D01*
X4262558Y-5956646D01*
X4252805Y-5957930D01*
X4002456Y-5974339D01*
X3997538Y-5974500D01*
X-5899300Y-5974500D01*
X-5947638Y-5956907D01*
X-5973358Y-5912358D01*
X-5974500Y-5899300D01*
X-5974500Y-672600D01*
X-5956907Y-624262D01*
X-5912358Y-598542D01*
X-5899300Y-597400D01*
X-5351009Y-597400D01*
X-2655493Y-607543D01*
X-2612113Y-601997D01*
X-2602579Y-601391D01*
X-2298700Y-601391D01*
X-2219220Y-585581D01*
X-2211646Y-580520D01*
X-2170125Y-567847D01*
X-1832494Y-566712D01*
X-1790469Y-579383D01*
X-1743180Y-610981D01*
X-1663700Y-626791D01*
X-876300Y-626791D01*
X-796820Y-610981D01*
X-743842Y-575583D01*
X-702319Y-562910D01*
X713692Y-558147D01*
X755720Y-570819D01*
G37*
G04 #@! TD.AperFunction*
G04 #@! TA.AperFunction,Conductor*
G36*
X-126122Y5956907D02*
G01*
X-100402Y5912358D01*
X-109335Y5861700D01*
X-148740Y5828635D01*
X-162696Y5825026D01*
X-181668Y5822021D01*
X-238422Y5813032D01*
X-357655Y5752280D01*
X-452280Y5657655D01*
X-513032Y5538422D01*
X-518658Y5502900D01*
X-520363Y5492136D01*
X-545301Y5447146D01*
X-593324Y5428711D01*
X-594637Y5428700D01*
X-3178501Y5428700D01*
X-3226839Y5446293D01*
X-3238693Y5459517D01*
X-3290341Y5494028D01*
X-3299212Y5495792D01*
X-3334943Y5502900D01*
X-5065056Y5502899D01*
X-5065057Y5502899D01*
X-5072456Y5501427D01*
X-5109658Y5494028D01*
X-5160234Y5460234D01*
X-5194028Y5409658D01*
X-5202900Y5365057D01*
X-5202899Y3634944D01*
X-5194028Y3590342D01*
X-5194027Y3590341D01*
X-5160233Y3539765D01*
X-5109658Y3505971D01*
X-5065057Y3497100D01*
X-3334942Y3497100D01*
X-3290341Y3505972D01*
X-3239765Y3539766D01*
X-3205971Y3590341D01*
X-3197100Y3634942D01*
X-3197101Y4696100D01*
X-3179508Y4744438D01*
X-3134959Y4770158D01*
X-3121901Y4771300D01*
X-1846930Y4771300D01*
X-1798592Y4753707D01*
X-1772872Y4709158D01*
X-1781805Y4658500D01*
X-1805150Y4633574D01*
X-1810560Y4629960D01*
X-1855581Y4562580D01*
X-1867400Y4503164D01*
X-1867400Y2786636D01*
X-1855581Y2727220D01*
X-1810560Y2659840D01*
X-1765538Y2629757D01*
X-1743179Y2614818D01*
X-1683764Y2603000D01*
X-856236Y2603000D01*
X-796820Y2614818D01*
X-729441Y2659839D01*
X-729440Y2659840D01*
X-697525Y2707603D01*
X-656043Y2738020D01*
X-604714Y2734656D01*
X-572474Y2707604D01*
X-540560Y2659840D01*
X-506641Y2637177D01*
X-473179Y2614818D01*
X-413764Y2603000D01*
X1683764Y2603000D01*
X1743179Y2614818D01*
X1765538Y2629757D01*
X1810560Y2659840D01*
X1855581Y2727220D01*
X1867400Y2786636D01*
X1867400Y4503164D01*
X1855581Y4562580D01*
X1810560Y4629960D01*
X1743180Y4674981D01*
X1683764Y4686800D01*
X814236Y4686800D01*
X765898Y4704393D01*
X740178Y4748942D01*
X739962Y4773764D01*
X753700Y4860501D01*
X753700Y5439498D01*
X743658Y5502900D01*
X738032Y5538422D01*
X677280Y5657655D01*
X582655Y5752280D01*
X463422Y5813032D01*
X406668Y5822021D01*
X387696Y5825026D01*
X342706Y5849964D01*
X324271Y5897988D01*
X341019Y5946625D01*
X385111Y5973118D01*
X399460Y5974500D01*
X3991715Y5974500D01*
X3997538Y5974500D01*
X4002456Y5974339D01*
X4252805Y5957930D01*
X4262558Y5956646D01*
X4506205Y5908182D01*
X4515706Y5905636D01*
X4750938Y5825785D01*
X4760026Y5822021D01*
X4982832Y5712145D01*
X4991348Y5707228D01*
X5197903Y5569212D01*
X5205703Y5563227D01*
X5392476Y5399431D01*
X5399431Y5392476D01*
X5563227Y5205703D01*
X5569212Y5197903D01*
X5707227Y4991351D01*
X5712145Y4982832D01*
X5822021Y4760026D01*
X5825785Y4750938D01*
X5905636Y4515706D01*
X5908182Y4506205D01*
X5956646Y4262558D01*
X5957930Y4252805D01*
X5974339Y4002456D01*
X5974500Y3997538D01*
X5974500Y675200D01*
X5956907Y626862D01*
X5912358Y601142D01*
X5899300Y600000D01*
X1946591Y600000D01*
X1898253Y617593D01*
X1872533Y662142D01*
X1871391Y675200D01*
X1871391Y1270000D01*
X1855581Y1349479D01*
X1855581Y1349480D01*
X1810560Y1416860D01*
X1743180Y1461881D01*
X1663700Y1477691D01*
X876300Y1477691D01*
X796820Y1461881D01*
X729440Y1416860D01*
X720954Y1404159D01*
X684418Y1349479D01*
X668609Y1270000D01*
X668609Y675200D01*
X651016Y626862D01*
X606467Y601142D01*
X593409Y600000D01*
X-593409Y600000D01*
X-641747Y617593D01*
X-667467Y662142D01*
X-668609Y675200D01*
X-668609Y1257300D01*
X-684418Y1336779D01*
X-699357Y1359138D01*
X-729440Y1404160D01*
X-796820Y1449181D01*
X-876300Y1464991D01*
X-1663700Y1464991D01*
X-1743180Y1449181D01*
X-1810560Y1404160D01*
X-1855581Y1336780D01*
X-1855581Y1336779D01*
X-1871391Y1257300D01*
X-1871391Y675200D01*
X-1888984Y626862D01*
X-1933533Y601142D01*
X-1946591Y600000D01*
X-3000000Y600000D01*
X-5899543Y609295D01*
X-5947822Y627044D01*
X-5973399Y671674D01*
X-5974500Y684495D01*
X-5974500Y5899300D01*
X-5956907Y5947638D01*
X-5912358Y5973358D01*
X-5899300Y5974500D01*
X-174460Y5974500D01*
X-126122Y5956907D01*
G37*
G04 #@! TD.AperFunction*
M02*
