G04 #@! TF.GenerationSoftware,KiCad,Pcbnew,7.0.2-0*
G04 #@! TF.CreationDate,2023-05-30T22:37:42-06:00*
G04 #@! TF.ProjectId,bias_T_launch_cpw,62696173-5f54-45f6-9c61-756e63685f63,rev?*
G04 #@! TF.SameCoordinates,Original*
G04 #@! TF.FileFunction,Soldermask,Bot*
G04 #@! TF.FilePolarity,Negative*
%FSLAX46Y46*%
G04 Gerber Fmt 4.6, Leading zero omitted, Abs format (unit mm)*
G04 Created by KiCad (PCBNEW 7.0.2-0) date 2023-05-30 22:37:42*
%MOMM*%
%LPD*%
G01*
G04 APERTURE LIST*
G04 APERTURE END LIST*
G36*
X4002558Y6004829D02*
G01*
X4280542Y5984947D01*
X4290053Y5983580D01*
X4560162Y5924821D01*
X4569393Y5922111D01*
X4828396Y5825508D01*
X4837140Y5821514D01*
X5079764Y5689031D01*
X5087850Y5683835D01*
X5309144Y5518176D01*
X5316407Y5511882D01*
X5511882Y5316407D01*
X5518176Y5309144D01*
X5683835Y5087850D01*
X5689031Y5079764D01*
X5821514Y4837140D01*
X5825508Y4828396D01*
X5922111Y4569393D01*
X5924821Y4560162D01*
X5983580Y4290053D01*
X5984947Y4280542D01*
X6004829Y4002558D01*
X6005000Y3997782D01*
X6005000Y-3997782D01*
X6004829Y-4002558D01*
X5984947Y-4280542D01*
X5983580Y-4290053D01*
X5924821Y-4560162D01*
X5922111Y-4569393D01*
X5825508Y-4828396D01*
X5821514Y-4837140D01*
X5689031Y-5079764D01*
X5683835Y-5087850D01*
X5518176Y-5309144D01*
X5511882Y-5316407D01*
X5316407Y-5511882D01*
X5309144Y-5518176D01*
X5087850Y-5683835D01*
X5079764Y-5689031D01*
X4837140Y-5821514D01*
X4828396Y-5825508D01*
X4569393Y-5922111D01*
X4560162Y-5924821D01*
X4290053Y-5983580D01*
X4280542Y-5984947D01*
X4002558Y-6004829D01*
X3997782Y-6005000D01*
X-5982027Y-6005000D01*
X-5999053Y-6000000D01*
X-6000000Y-6000000D01*
X-6000000Y-5999592D01*
X-6002890Y-5996257D01*
X-6005000Y-5986562D01*
X-6005000Y-1608390D01*
X-6005918Y-1607017D01*
X-6009800Y-1587500D01*
X-6009800Y1587500D01*
X-6005918Y1607017D01*
X-6005000Y1608390D01*
X-6005000Y5982026D01*
X-6000000Y5999053D01*
X-6000000Y6000000D01*
X-5999593Y6000000D01*
X-5996257Y6002890D01*
X-5986562Y6005000D01*
X3997782Y6005000D01*
X4002558Y6004829D01*
G37*
M02*
