G04 #@! TF.GenerationSoftware,KiCad,Pcbnew,7.0.2-0*
G04 #@! TF.CreationDate,2023-05-30T22:37:42-06:00*
G04 #@! TF.ProjectId,bias_T_launch_cpw,62696173-5f54-45f6-9c61-756e63685f63,rev?*
G04 #@! TF.SameCoordinates,Original*
G04 #@! TF.FileFunction,Legend,Top*
G04 #@! TF.FilePolarity,Positive*
%FSLAX46Y46*%
G04 Gerber Fmt 4.6, Leading zero omitted, Abs format (unit mm)*
G04 Created by KiCad (PCBNEW 7.0.2-0) date 2023-05-30 22:37:42*
%MOMM*%
%LPD*%
G01*
G04 APERTURE LIST*
%ADD10C,0.120000*%
%ADD11C,0.150000*%
%ADD12C,0.060000*%
G04 APERTURE END LIST*
D10*
X200000Y-1900000D02*
X200000Y-1500000D01*
X1600000Y-5000000D02*
X1600000Y-3700000D01*
X1600000Y-4400000D02*
X2400000Y-4400000D01*
X200000Y-3100000D02*
G75*
G03*
X200000Y-2500000I0J300000D01*
G01*
X1100000Y-3700000D02*
X1100000Y-5000000D01*
X200000Y-2500000D02*
G75*
G03*
X200000Y-1900000I0J300000D01*
G01*
X200000Y-4400000D02*
X200000Y-3700000D01*
X-700000Y-4400000D02*
X1100000Y-4400000D01*
X200000Y-3700000D02*
G75*
G03*
X200000Y-3100000I0J300000D01*
G01*
D11*
X-633333Y-4862619D02*
X-633333Y-5576904D01*
X-633333Y-5576904D02*
X-680952Y-5719761D01*
X-680952Y-5719761D02*
X-776190Y-5815000D01*
X-776190Y-5815000D02*
X-919047Y-5862619D01*
X-919047Y-5862619D02*
X-1014285Y-5862619D01*
X366666Y-5862619D02*
X-204761Y-5862619D01*
X80952Y-5862619D02*
X80952Y-4862619D01*
X80952Y-4862619D02*
X-14285Y-5005476D01*
X-14285Y-5005476D02*
X-109523Y-5100714D01*
X-109523Y-5100714D02*
X-204761Y-5148333D01*
X1866666Y-4862619D02*
X1866666Y-5576904D01*
X1866666Y-5576904D02*
X1819047Y-5719761D01*
X1819047Y-5719761D02*
X1723809Y-5815000D01*
X1723809Y-5815000D02*
X1580952Y-5862619D01*
X1580952Y-5862619D02*
X1485714Y-5862619D01*
X2247619Y-4862619D02*
X2866666Y-4862619D01*
X2866666Y-4862619D02*
X2533333Y-5243571D01*
X2533333Y-5243571D02*
X2676190Y-5243571D01*
X2676190Y-5243571D02*
X2771428Y-5291190D01*
X2771428Y-5291190D02*
X2819047Y-5338809D01*
X2819047Y-5338809D02*
X2866666Y-5434047D01*
X2866666Y-5434047D02*
X2866666Y-5672142D01*
X2866666Y-5672142D02*
X2819047Y-5767380D01*
X2819047Y-5767380D02*
X2771428Y-5815000D01*
X2771428Y-5815000D02*
X2676190Y-5862619D01*
X2676190Y-5862619D02*
X2390476Y-5862619D01*
X2390476Y-5862619D02*
X2295238Y-5815000D01*
X2295238Y-5815000D02*
X2247619Y-5767380D01*
X-1661904Y-1762619D02*
X-1661904Y-2572142D01*
X-1661904Y-2572142D02*
X-1614285Y-2667380D01*
X-1614285Y-2667380D02*
X-1566666Y-2715000D01*
X-1566666Y-2715000D02*
X-1471428Y-2762619D01*
X-1471428Y-2762619D02*
X-1280952Y-2762619D01*
X-1280952Y-2762619D02*
X-1185714Y-2715000D01*
X-1185714Y-2715000D02*
X-1138095Y-2667380D01*
X-1138095Y-2667380D02*
X-1090476Y-2572142D01*
X-1090476Y-2572142D02*
X-1090476Y-1762619D01*
X-90476Y-2762619D02*
X-661904Y-2762619D01*
X-376190Y-2762619D02*
X-376190Y-1762619D01*
X-376190Y-1762619D02*
X-471428Y-1905476D01*
X-471428Y-1905476D02*
X-566666Y-2000714D01*
X-566666Y-2000714D02*
X-661904Y-2048333D01*
D12*
X2516666Y5416309D02*
X2492857Y5392500D01*
X2492857Y5392500D02*
X2421428Y5368690D01*
X2421428Y5368690D02*
X2373809Y5368690D01*
X2373809Y5368690D02*
X2302381Y5392500D01*
X2302381Y5392500D02*
X2254762Y5440119D01*
X2254762Y5440119D02*
X2230952Y5487738D01*
X2230952Y5487738D02*
X2207143Y5582976D01*
X2207143Y5582976D02*
X2207143Y5654404D01*
X2207143Y5654404D02*
X2230952Y5749642D01*
X2230952Y5749642D02*
X2254762Y5797261D01*
X2254762Y5797261D02*
X2302381Y5844880D01*
X2302381Y5844880D02*
X2373809Y5868690D01*
X2373809Y5868690D02*
X2421428Y5868690D01*
X2421428Y5868690D02*
X2492857Y5844880D01*
X2492857Y5844880D02*
X2516666Y5821071D01*
X2992857Y5368690D02*
X2707143Y5368690D01*
X2850000Y5368690D02*
X2850000Y5868690D01*
X2850000Y5868690D02*
X2802381Y5797261D01*
X2802381Y5797261D02*
X2754762Y5749642D01*
X2754762Y5749642D02*
X2707143Y5725833D01*
X-5868690Y4333333D02*
X-5511547Y4333333D01*
X-5511547Y4333333D02*
X-5440119Y4309524D01*
X-5440119Y4309524D02*
X-5392500Y4261905D01*
X-5392500Y4261905D02*
X-5368690Y4190476D01*
X-5368690Y4190476D02*
X-5368690Y4142857D01*
X-5821071Y4547619D02*
X-5844880Y4571428D01*
X-5844880Y4571428D02*
X-5868690Y4619047D01*
X-5868690Y4619047D02*
X-5868690Y4738095D01*
X-5868690Y4738095D02*
X-5844880Y4785714D01*
X-5844880Y4785714D02*
X-5821071Y4809523D01*
X-5821071Y4809523D02*
X-5773452Y4833333D01*
X-5773452Y4833333D02*
X-5725833Y4833333D01*
X-5725833Y4833333D02*
X-5654404Y4809523D01*
X-5654404Y4809523D02*
X-5368690Y4523809D01*
X-5368690Y4523809D02*
X-5368690Y4833333D01*
D10*
X737221Y5660000D02*
X1062779Y5660000D01*
X737221Y4640000D02*
X1062779Y4640000D01*
M02*
