G04 #@! TF.GenerationSoftware,KiCad,Pcbnew,7.0.2-0*
G04 #@! TF.CreationDate,2023-05-30T22:37:42-06:00*
G04 #@! TF.ProjectId,bias_T_launch_cpw,62696173-5f54-45f6-9c61-756e63685f63,rev?*
G04 #@! TF.SameCoordinates,Original*
G04 #@! TF.FileFunction,Copper,L2,Bot*
G04 #@! TF.FilePolarity,Positive*
%FSLAX46Y46*%
G04 Gerber Fmt 4.6, Leading zero omitted, Abs format (unit mm)*
G04 Created by KiCad (PCBNEW 7.0.2-0) date 2023-05-30 22:37:42*
%MOMM*%
%LPD*%
G01*
G04 APERTURE LIST*
G04 #@! TA.AperFunction,SMDPad,CuDef*
%ADD10R,1.117600X3.175000*%
G04 #@! TD*
G04 #@! TA.AperFunction,ComponentPad*
%ADD11C,0.600000*%
G04 #@! TD*
G04 #@! TA.AperFunction,ComponentPad*
%ADD12R,1.700000X1.700000*%
G04 #@! TD*
G04 #@! TA.AperFunction,ViaPad*
%ADD13C,0.600000*%
G04 #@! TD*
G04 APERTURE END LIST*
D10*
X-5400000Y0D03*
D11*
X-2413000Y4191000D03*
X-2413000Y3175000D03*
X-2413000Y2032000D03*
X-2413000Y1143000D03*
X-2286000Y-1143000D03*
X-1270000Y2032000D03*
X-1143000Y-1143000D03*
X0Y2032000D03*
X0Y1016000D03*
X0Y0D03*
X0Y-1143000D03*
X1143000Y-1143000D03*
X1270000Y2032000D03*
X2159000Y-1143000D03*
X2413000Y4191000D03*
X2413000Y3175000D03*
X2413000Y2032000D03*
X2413000Y1143000D03*
D12*
X-4200000Y4500000D03*
D13*
X-4450000Y-1510000D03*
X-5350000Y-1510000D03*
X-4450000Y1490000D03*
X-5350000Y1490000D03*
X-3550000Y-1510000D03*
X-3550000Y1490000D03*
X5100000Y1500000D03*
X5100000Y-1500000D03*
X3300000Y1500000D03*
X4200000Y1500000D03*
X3300000Y-1500000D03*
X4200000Y-1500000D03*
G04 #@! TA.AperFunction,Conductor*
G36*
X4002456Y5974339D02*
G01*
X4252805Y5957930D01*
X4262558Y5956646D01*
X4506205Y5908182D01*
X4515706Y5905636D01*
X4750938Y5825785D01*
X4760026Y5822021D01*
X4982832Y5712145D01*
X4991348Y5707228D01*
X5197903Y5569212D01*
X5205703Y5563227D01*
X5392476Y5399431D01*
X5399431Y5392476D01*
X5563227Y5205703D01*
X5569212Y5197903D01*
X5707227Y4991351D01*
X5712145Y4982832D01*
X5822021Y4760026D01*
X5825785Y4750938D01*
X5905636Y4515706D01*
X5908182Y4506205D01*
X5956646Y4262558D01*
X5957930Y4252805D01*
X5974339Y4002456D01*
X5974500Y3997538D01*
X5974500Y-3997538D01*
X5974339Y-4002456D01*
X5957930Y-4252805D01*
X5956646Y-4262558D01*
X5908182Y-4506205D01*
X5905636Y-4515706D01*
X5825785Y-4750938D01*
X5822021Y-4760026D01*
X5712145Y-4982832D01*
X5707228Y-4991348D01*
X5616107Y-5127722D01*
X5569216Y-5197899D01*
X5563227Y-5205703D01*
X5399431Y-5392476D01*
X5392476Y-5399431D01*
X5205703Y-5563227D01*
X5197903Y-5569212D01*
X5020493Y-5687755D01*
X4991351Y-5707227D01*
X4982832Y-5712145D01*
X4760026Y-5822021D01*
X4750938Y-5825785D01*
X4515706Y-5905636D01*
X4506205Y-5908182D01*
X4262558Y-5956646D01*
X4252805Y-5957930D01*
X4002456Y-5974339D01*
X3997538Y-5974500D01*
X-5899300Y-5974500D01*
X-5947638Y-5956907D01*
X-5973358Y-5912358D01*
X-5974500Y-5899300D01*
X-5974500Y-1662700D01*
X-5956907Y-1614362D01*
X-5912358Y-1588642D01*
X-5899300Y-1587500D01*
X-5654000Y-1587500D01*
X-5654000Y-254000D01*
X-5146000Y-254000D01*
X-5146000Y-1587500D01*
X-4841200Y-1587500D01*
X-4841200Y-1143000D01*
X-2441291Y-1143000D01*
X-2420486Y-1220645D01*
X-2363645Y-1277486D01*
X-2305746Y-1293000D01*
X-2266254Y-1293000D01*
X-2208355Y-1277486D01*
X-2151514Y-1220646D01*
X-2130709Y-1143000D01*
X-1298291Y-1143000D01*
X-1277486Y-1220645D01*
X-1220645Y-1277486D01*
X-1162746Y-1293000D01*
X-1123254Y-1293000D01*
X-1065355Y-1277486D01*
X-1008514Y-1220646D01*
X-987709Y-1143000D01*
X-155291Y-1143000D01*
X-134486Y-1220645D01*
X-77645Y-1277486D01*
X-19746Y-1293000D01*
X19746Y-1293000D01*
X77645Y-1277486D01*
X134486Y-1220646D01*
X155291Y-1143000D01*
X987709Y-1143000D01*
X1008514Y-1220645D01*
X1065355Y-1277486D01*
X1123254Y-1293000D01*
X1162746Y-1293000D01*
X1220645Y-1277486D01*
X1277486Y-1220646D01*
X1298291Y-1143000D01*
X1277486Y-1065355D01*
X1220645Y-1008514D01*
X1162746Y-993000D01*
X1123254Y-993000D01*
X1065355Y-1008514D01*
X1008514Y-1065354D01*
X987709Y-1143000D01*
X155291Y-1143000D01*
X134486Y-1065355D01*
X77645Y-1008514D01*
X19746Y-993000D01*
X-19746Y-993000D01*
X-77645Y-1008514D01*
X-134486Y-1065354D01*
X-155291Y-1143000D01*
X-987709Y-1143000D01*
X-1008514Y-1065355D01*
X-1065355Y-1008514D01*
X-1123254Y-993000D01*
X-1162746Y-993000D01*
X-1220645Y-1008514D01*
X-1277486Y-1065354D01*
X-1298291Y-1143000D01*
X-2130709Y-1143000D01*
X-2151514Y-1065355D01*
X-2208355Y-1008514D01*
X-2266254Y-993000D01*
X-2305746Y-993000D01*
X-2363645Y-1008514D01*
X-2420486Y-1065354D01*
X-2441291Y-1143000D01*
X-4841200Y-1143000D01*
X-4841200Y-254000D01*
X-5146000Y-254000D01*
X-5654000Y-254000D01*
X-5654000Y0D01*
X-155291Y0D01*
X-134486Y-77645D01*
X-77645Y-134486D01*
X-19746Y-150000D01*
X19746Y-150000D01*
X77645Y-134486D01*
X134486Y-77646D01*
X155291Y0D01*
X134486Y77645D01*
X77645Y134486D01*
X19746Y150000D01*
X-19746Y150000D01*
X-77645Y134486D01*
X-134486Y77646D01*
X-155291Y0D01*
X-5654000Y0D01*
X-5654000Y1587500D01*
X-5146000Y1587500D01*
X-5146000Y254000D01*
X-4841200Y254000D01*
X-4841200Y1143000D01*
X-2568291Y1143000D01*
X-2547486Y1065355D01*
X-2490645Y1008514D01*
X-2432746Y993000D01*
X-2393254Y993000D01*
X-2335355Y1008514D01*
X-2327869Y1016000D01*
X-155291Y1016000D01*
X-134486Y938355D01*
X-77645Y881514D01*
X-19746Y866000D01*
X19746Y866000D01*
X77645Y881514D01*
X134486Y938354D01*
X155291Y1016000D01*
X134486Y1093645D01*
X85131Y1143000D01*
X2257709Y1143000D01*
X2278514Y1065355D01*
X2335355Y1008514D01*
X2393254Y993000D01*
X2432746Y993000D01*
X2490645Y1008514D01*
X2547486Y1065354D01*
X2568291Y1143000D01*
X2547486Y1220645D01*
X2490645Y1277486D01*
X2432746Y1293000D01*
X2393254Y1293000D01*
X2335355Y1277486D01*
X2278514Y1220646D01*
X2257709Y1143000D01*
X85131Y1143000D01*
X77645Y1150486D01*
X19746Y1166000D01*
X-19746Y1166000D01*
X-77645Y1150486D01*
X-134486Y1093646D01*
X-155291Y1016000D01*
X-2327869Y1016000D01*
X-2278514Y1065354D01*
X-2257709Y1143000D01*
X-2278514Y1220645D01*
X-2335355Y1277486D01*
X-2393254Y1293000D01*
X-2432746Y1293000D01*
X-2490645Y1277486D01*
X-2547486Y1220646D01*
X-2568291Y1143000D01*
X-4841200Y1143000D01*
X-4841200Y1587500D01*
X-5146000Y1587500D01*
X-5654000Y1587500D01*
X-5899300Y1587500D01*
X-5947638Y1605093D01*
X-5973358Y1649642D01*
X-5974500Y1662700D01*
X-5974500Y2032000D01*
X-2568291Y2032000D01*
X-2547486Y1954355D01*
X-2490645Y1897514D01*
X-2432746Y1882000D01*
X-2393254Y1882000D01*
X-2335355Y1897514D01*
X-2278514Y1954354D01*
X-2257709Y2032000D01*
X-1425291Y2032000D01*
X-1404486Y1954355D01*
X-1347645Y1897514D01*
X-1289746Y1882000D01*
X-1250254Y1882000D01*
X-1192355Y1897514D01*
X-1135514Y1954354D01*
X-1114709Y2032000D01*
X-155291Y2032000D01*
X-134486Y1954355D01*
X-77645Y1897514D01*
X-19746Y1882000D01*
X19746Y1882000D01*
X77645Y1897514D01*
X134486Y1954354D01*
X155291Y2032000D01*
X1114709Y2032000D01*
X1135514Y1954355D01*
X1192355Y1897514D01*
X1250254Y1882000D01*
X1289746Y1882000D01*
X1347645Y1897514D01*
X1404486Y1954354D01*
X1425291Y2032000D01*
X2257709Y2032000D01*
X2278514Y1954355D01*
X2335355Y1897514D01*
X2393254Y1882000D01*
X2432746Y1882000D01*
X2490645Y1897514D01*
X2547486Y1954354D01*
X2568291Y2032000D01*
X2547486Y2109645D01*
X2490645Y2166486D01*
X2432746Y2182000D01*
X2393254Y2182000D01*
X2335355Y2166486D01*
X2278514Y2109646D01*
X2257709Y2032000D01*
X1425291Y2032000D01*
X1404486Y2109645D01*
X1347645Y2166486D01*
X1289746Y2182000D01*
X1250254Y2182000D01*
X1192355Y2166486D01*
X1135514Y2109646D01*
X1114709Y2032000D01*
X155291Y2032000D01*
X134486Y2109645D01*
X77645Y2166486D01*
X19746Y2182000D01*
X-19746Y2182000D01*
X-77645Y2166486D01*
X-134486Y2109646D01*
X-155291Y2032000D01*
X-1114709Y2032000D01*
X-1135514Y2109645D01*
X-1192355Y2166486D01*
X-1250254Y2182000D01*
X-1289746Y2182000D01*
X-1347645Y2166486D01*
X-1404486Y2109646D01*
X-1425291Y2032000D01*
X-2257709Y2032000D01*
X-2278514Y2109645D01*
X-2335355Y2166486D01*
X-2393254Y2182000D01*
X-2432746Y2182000D01*
X-2490645Y2166486D01*
X-2547486Y2109646D01*
X-2568291Y2032000D01*
X-5974500Y2032000D01*
X-5974500Y3175000D01*
X-2568291Y3175000D01*
X-2547486Y3097355D01*
X-2490645Y3040514D01*
X-2432746Y3025000D01*
X-2393254Y3025000D01*
X-2335355Y3040514D01*
X-2278514Y3097354D01*
X-2257709Y3175000D01*
X2257709Y3175000D01*
X2278514Y3097355D01*
X2335355Y3040514D01*
X2393254Y3025000D01*
X2432746Y3025000D01*
X2490645Y3040514D01*
X2547486Y3097354D01*
X2568291Y3175000D01*
X2547486Y3252645D01*
X2490645Y3309486D01*
X2432746Y3325000D01*
X2393254Y3325000D01*
X2335355Y3309486D01*
X2278514Y3252646D01*
X2257709Y3175000D01*
X-2257709Y3175000D01*
X-2278514Y3252645D01*
X-2335355Y3309486D01*
X-2393254Y3325000D01*
X-2432746Y3325000D01*
X-2490645Y3309486D01*
X-2547486Y3252646D01*
X-2568291Y3175000D01*
X-5974500Y3175000D01*
X-5974500Y5365057D01*
X-5202900Y5365057D01*
X-5202899Y3634944D01*
X-5194028Y3590342D01*
X-5194027Y3590341D01*
X-5160233Y3539765D01*
X-5109658Y3505971D01*
X-5065057Y3497100D01*
X-3334942Y3497100D01*
X-3290341Y3505972D01*
X-3239765Y3539766D01*
X-3205971Y3590341D01*
X-3197100Y3634942D01*
X-3197100Y4191000D01*
X-2568291Y4191000D01*
X-2547486Y4113355D01*
X-2490645Y4056514D01*
X-2432746Y4041000D01*
X-2393254Y4041000D01*
X-2335355Y4056514D01*
X-2278514Y4113354D01*
X-2257709Y4191000D01*
X2257709Y4191000D01*
X2278514Y4113355D01*
X2335355Y4056514D01*
X2393254Y4041000D01*
X2432746Y4041000D01*
X2490645Y4056514D01*
X2547486Y4113354D01*
X2568291Y4191000D01*
X2547486Y4268645D01*
X2490645Y4325486D01*
X2432746Y4341000D01*
X2393254Y4341000D01*
X2335355Y4325486D01*
X2278514Y4268646D01*
X2257709Y4191000D01*
X-2257709Y4191000D01*
X-2278514Y4268645D01*
X-2335355Y4325486D01*
X-2393254Y4341000D01*
X-2432746Y4341000D01*
X-2490645Y4325486D01*
X-2547486Y4268646D01*
X-2568291Y4191000D01*
X-3197100Y4191000D01*
X-3197100Y5365057D01*
X-3205972Y5409658D01*
X-3239766Y5460234D01*
X-3290341Y5494028D01*
X-3299212Y5495792D01*
X-3334943Y5502900D01*
X-5065056Y5502899D01*
X-5065057Y5502899D01*
X-5072456Y5501427D01*
X-5109658Y5494028D01*
X-5160234Y5460234D01*
X-5194028Y5409658D01*
X-5202900Y5365057D01*
X-5974500Y5365057D01*
X-5974500Y5899300D01*
X-5956907Y5947638D01*
X-5912358Y5973358D01*
X-5899300Y5974500D01*
X3991715Y5974500D01*
X3997538Y5974500D01*
X4002456Y5974339D01*
G37*
G04 #@! TD.AperFunction*
M02*
