0
SECTION
2
HEADER
9
$ACADVER
1
AC1006
0
ENDSEC
0
SECTION
2
TABLES
0
TABLE
2
LAYER
70
1
0
LAYER
70
0
62
1
6
CONTINUOUS
2
L100D0
0
ENDTAB
0
ENDSEC
0
SECTION
2
BLOCKS
0
ENDSEC
0
SECTION
2
ENTITIES
0
LINE
8
L100D0
66
1
10
-33593
20
-60855
11
-38500
21
-58024
0
LINE
8
L100D0
66
1
10
-38500
20
-58024
11
-39018.592
21
-57125.766
0
LINE
8
L100D0
66
1
10
-39018.592
20
-57125.766
11
-34888.625
21
-57125.766
0
LINE
8
L100D0
66
1
10
-34888.625
20
-57125.766
11
-34888.625
21
-56925.766
0
LINE
8
L100D0
66
1
10
-34888.625
20
-56925.766
11
-39134.061
21
-56925.766
0
LINE
8
L100D0
66
1
10
-39134.061
20
-56925.766
11
-54143.472
21
-30928.497
0
LINE
8
L100D0
66
1
10
-54143.472
20
-30928.497
11
-50013.625
21
-30928.497
0
LINE
8
L100D0
66
1
10
-50013.625
20
-30928.497
11
-50013.625
21
-30728.497
0
LINE
8
L100D0
66
1
10
-50013.625
20
-30728.497
11
-54258.941
21
-30728.497
0
LINE
8
L100D0
66
1
10
-54258.941
20
-30728.497
11
-55518.461
21
-28546.927
0
LINE
8
L100D0
66
1
10
-55518.461
20
-28546.927
11
-51388.625
21
-28546.927
0
LINE
8
L100D0
66
1
10
-51388.625
20
-28546.927
11
-51388.625
21
-28346.927
0
LINE
8
L100D0
66
1
10
-51388.625
20
-28346.927
11
-55633.93
21
-28346.927
0
LINE
8
L100D0
66
1
10
-55633.93
20
-28346.927
11
-68831.869
21
-5487.247
0
LINE
8
L100D0
66
1
10
-68831.869
20
-5487.247
11
-68278.125
21
-4661.669
0
LINE
8
L100D0
66
1
10
-68278.125
20
-4661.669
11
-68278.125
21
-4463.449
0
LINE
8
L100D0
66
1
10
-68278.125
20
-4463.449
11
-68478.125
21
-4463.449
0
LINE
8
L100D0
66
1
10
-68478.125
20
-4463.449
11
-68478.125
21
-4600.799
0
LINE
8
L100D0
66
1
10
-68478.125
20
-4600.799
11
-68943.272
21
-5294.288
0
LINE
8
L100D0
66
1
10
-68943.272
20
-5294.288
11
-69500
21
-4330
0
LINE
8
L100D0
66
1
10
-69500
20
-4330
11
-69500
21
760
0
LINE
8
L100D0
66
1
10
-69500
20
760
11
-62039
21
760
0
LINE
8
L100D0
66
1
10
-62039
20
760
11
-62115
21
752
0
LINE
8
L100D0
66
1
10
-62115
20
752
11
-62191
21
737
0
LINE
8
L100D0
66
1
10
-62191
20
737
11
-62264
21
714
0
LINE
8
L100D0
66
1
10
-62264
20
714
11
-62335
21
683
0
LINE
8
L100D0
66
1
10
-62335
20
683
11
-62403
21
646
0
LINE
8
L100D0
66
1
10
-62403
20
646
11
-62466
21
602
0
LINE
8
L100D0
66
1
10
-62466
20
602
11
-62524
21
552
0
LINE
8
L100D0
66
1
10
-62524
20
552
11
-62577
21
496
0
LINE
8
L100D0
66
1
10
-62577
20
496
11
-62625
21
435
0
LINE
8
L100D0
66
1
10
-62625
20
435
11
-62665
21
369
0
LINE
8
L100D0
66
1
10
-62665
20
369
11
-62699
21
300
0
LINE
8
L100D0
66
1
10
-62699
20
300
11
-62726
21
228
0
LINE
8
L100D0
66
1
10
-62726
20
228
11
-62745
21
153
0
LINE
8
L100D0
66
1
10
-62745
20
153
11
-62757
21
77
0
LINE
8
L100D0
66
1
10
-62757
20
77
11
-62761
21
0
0
LINE
8
L100D0
66
1
10
-62761
20
0
11
-62757
21
-77
0
LINE
8
L100D0
66
1
10
-62757
20
-77
11
-62745
21
-153
0
LINE
8
L100D0
66
1
10
-62745
20
-153
11
-62726
21
-228
0
LINE
8
L100D0
66
1
10
-62726
20
-228
11
-62699
21
-300
0
LINE
8
L100D0
66
1
10
-62699
20
-300
11
-62665
21
-369
0
LINE
8
L100D0
66
1
10
-62665
20
-369
11
-62625
21
-435
0
LINE
8
L100D0
66
1
10
-62625
20
-435
11
-62577
21
-496
0
LINE
8
L100D0
66
1
10
-62577
20
-496
11
-62524
21
-552
0
LINE
8
L100D0
66
1
10
-62524
20
-552
11
-62466
21
-602
0
LINE
8
L100D0
66
1
10
-62466
20
-602
11
-62403
21
-646
0
LINE
8
L100D0
66
1
10
-62403
20
-646
11
-62335
21
-683
0
LINE
8
L100D0
66
1
10
-62335
20
-683
11
-62264
21
-714
0
LINE
8
L100D0
66
1
10
-62264
20
-714
11
-62191
21
-737
0
LINE
8
L100D0
66
1
10
-62191
20
-737
11
-62115
21
-752
0
LINE
8
L100D0
66
1
10
-62115
20
-752
11
-62039
21
-760
0
LINE
8
L100D0
66
1
10
-62039
20
-760
11
-59961
21
-760
0
LINE
8
L100D0
66
1
10
-59961
20
-760
11
-59885
21
-752
0
LINE
8
L100D0
66
1
10
-59885
20
-752
11
-59809
21
-737
0
LINE
8
L100D0
66
1
10
-59809
20
-737
11
-59736
21
-714
0
LINE
8
L100D0
66
1
10
-59736
20
-714
11
-59665
21
-683
0
LINE
8
L100D0
66
1
10
-59665
20
-683
11
-59597
21
-646
0
LINE
8
L100D0
66
1
10
-59597
20
-646
11
-59534
21
-602
0
LINE
8
L100D0
66
1
10
-59534
20
-602
11
-59476
21
-552
0
LINE
8
L100D0
66
1
10
-59476
20
-552
11
-59423
21
-496
0
LINE
8
L100D0
66
1
10
-59423
20
-496
11
-59375
21
-435
0
LINE
8
L100D0
66
1
10
-59375
20
-435
11
-59335
21
-369
0
LINE
8
L100D0
66
1
10
-59335
20
-369
11
-59301
21
-300
0
LINE
8
L100D0
66
1
10
-59301
20
-300
11
-59274
21
-228
0
LINE
8
L100D0
66
1
10
-59274
20
-228
11
-59255
21
-153
0
LINE
8
L100D0
66
1
10
-59255
20
-153
11
-59243
21
-77
0
LINE
8
L100D0
66
1
10
-59243
20
-77
11
-59239
21
0
0
LINE
8
L100D0
66
1
10
-59239
20
0
11
-59243
21
77
0
LINE
8
L100D0
66
1
10
-59243
20
77
11
-59255
21
153
0
LINE
8
L100D0
66
1
10
-59255
20
153
11
-59274
21
228
0
LINE
8
L100D0
66
1
10
-59274
20
228
11
-59301
21
300
0
LINE
8
L100D0
66
1
10
-59301
20
300
11
-59335
21
369
0
LINE
8
L100D0
66
1
10
-59335
20
369
11
-59375
21
435
0
LINE
8
L100D0
66
1
10
-59375
20
435
11
-59423
21
496
0
LINE
8
L100D0
66
1
10
-59423
20
496
11
-59476
21
552
0
LINE
8
L100D0
66
1
10
-59476
20
552
11
-59534
21
602
0
LINE
8
L100D0
66
1
10
-59534
20
602
11
-59597
21
646
0
LINE
8
L100D0
66
1
10
-59597
20
646
11
-59665
21
683
0
LINE
8
L100D0
66
1
10
-59665
20
683
11
-59736
21
714
0
LINE
8
L100D0
66
1
10
-59736
20
714
11
-59809
21
737
0
LINE
8
L100D0
66
1
10
-59809
20
737
11
-59885
21
752
0
LINE
8
L100D0
66
1
10
-59885
20
752
11
-59961
21
760
0
LINE
8
L100D0
66
1
10
-59961
20
760
11
-39
21
760
0
LINE
8
L100D0
66
1
10
-39
20
760
11
-117
21
752
0
LINE
8
L100D0
66
1
10
-117
20
752
11
-194
21
736
0
LINE
8
L100D0
66
1
10
-194
20
736
11
-268
21
712
0
LINE
8
L100D0
66
1
10
-268
20
712
11
-340
21
681
0
LINE
8
L100D0
66
1
10
-340
20
681
11
-408
21
642
0
LINE
8
L100D0
66
1
10
-408
20
642
11
-472
21
597
0
LINE
8
L100D0
66
1
10
-472
20
597
11
-531
21
545
0
LINE
8
L100D0
66
1
10
-531
20
545
11
-584
21
487
0
LINE
8
L100D0
66
1
10
-584
20
487
11
-631
21
425
0
LINE
8
L100D0
66
1
10
-631
20
425
11
-672
21
358
0
LINE
8
L100D0
66
1
10
-672
20
358
11
-705
21
287
0
LINE
8
L100D0
66
1
10
-705
20
287
11
-731
21
213
0
LINE
8
L100D0
66
1
10
-731
20
213
11
-749
21
136
0
LINE
8
L100D0
66
1
10
-749
20
136
11
-759
21
59
0
LINE
8
L100D0
66
1
10
-759
20
59
11
-761
21
-20
0
LINE
8
L100D0
66
1
10
-761
20
-20
11
-755
21
-98
0
LINE
8
L100D0
66
1
10
-755
20
-98
11
-741
21
-175
0
LINE
8
L100D0
66
1
10
-741
20
-175
11
-719
21
-250
0
LINE
8
L100D0
66
1
10
-719
20
-250
11
-689
21
-323
0
LINE
8
L100D0
66
1
10
-689
20
-323
11
-652
21
-392
0
LINE
8
L100D0
66
1
10
-652
20
-392
11
-609
21
-457
0
LINE
8
L100D0
66
1
10
-609
20
-457
11
-558
21
-517
0
LINE
8
L100D0
66
1
10
-558
20
-517
11
-502
21
-572
0
LINE
8
L100D0
66
1
10
-502
20
-572
11
-441
21
-620
0
LINE
8
L100D0
66
1
10
-441
20
-620
11
-375
21
-662
0
LINE
8
L100D0
66
1
10
-375
20
-662
11
-305
21
-697
0
LINE
8
L100D0
66
1
10
-305
20
-697
11
-231
21
-725
0
LINE
8
L100D0
66
1
10
-231
20
-725
11
-156
21
-745
0
LINE
8
L100D0
66
1
10
-156
20
-745
11
-78
21
-757
0
LINE
8
L100D0
66
1
10
-78
20
-757
11
0
21
-761
0
LINE
8
L100D0
66
1
10
0
20
-761
11
78
21
-757
0
LINE
8
L100D0
66
1
10
78
20
-757
11
156
21
-745
0
LINE
8
L100D0
66
1
10
156
20
-745
11
231
21
-725
0
LINE
8
L100D0
66
1
10
231
20
-725
11
305
21
-697
0
LINE
8
L100D0
66
1
10
305
20
-697
11
375
21
-662
0
LINE
8
L100D0
66
1
10
375
20
-662
11
441
21
-620
0
LINE
8
L100D0
66
1
10
441
20
-620
11
502
21
-572
0
LINE
8
L100D0
66
1
10
502
20
-572
11
558
21
-517
0
LINE
8
L100D0
66
1
10
558
20
-517
11
609
21
-457
0
LINE
8
L100D0
66
1
10
609
20
-457
11
652
21
-392
0
LINE
8
L100D0
66
1
10
652
20
-392
11
689
21
-323
0
LINE
8
L100D0
66
1
10
689
20
-323
11
719
21
-250
0
LINE
8
L100D0
66
1
10
719
20
-250
11
741
21
-175
0
LINE
8
L100D0
66
1
10
741
20
-175
11
755
21
-98
0
LINE
8
L100D0
66
1
10
755
20
-98
11
761
21
-20
0
LINE
8
L100D0
66
1
10
761
20
-20
11
759
21
59
0
LINE
8
L100D0
66
1
10
759
20
59
11
749
21
136
0
LINE
8
L100D0
66
1
10
749
20
136
11
731
21
213
0
LINE
8
L100D0
66
1
10
731
20
213
11
705
21
287
0
LINE
8
L100D0
66
1
10
705
20
287
11
672
21
358
0
LINE
8
L100D0
66
1
10
672
20
358
11
631
21
425
0
LINE
8
L100D0
66
1
10
631
20
425
11
584
21
487
0
LINE
8
L100D0
66
1
10
584
20
487
11
531
21
545
0
LINE
8
L100D0
66
1
10
531
20
545
11
472
21
597
0
LINE
8
L100D0
66
1
10
472
20
597
11
408
21
642
0
LINE
8
L100D0
66
1
10
408
20
642
11
340
21
681
0
LINE
8
L100D0
66
1
10
340
20
681
11
268
21
712
0
LINE
8
L100D0
66
1
10
268
20
712
11
194
21
736
0
LINE
8
L100D0
66
1
10
194
20
736
11
117
21
752
0
LINE
8
L100D0
66
1
10
117
20
752
11
39
21
760
0
LINE
8
L100D0
66
1
10
39
20
760
11
-69500
21
760
0
LINE
8
L100D0
66
1
10
-69500
20
760
11
-69500
21
4330
0
LINE
8
L100D0
66
1
10
-69500
20
4330
11
-38500
21
58024
0
LINE
8
L100D0
66
1
10
-38500
20
58024
11
-31000
21
62354
0
LINE
8
L100D0
66
1
10
-31000
20
62354
11
-29962.494
21
62354
0
LINE
8
L100D0
66
1
10
-29962.494
20
62354
11
-30652.292
21
61159.269
0
LINE
8
L100D0
66
1
10
-30652.292
20
61159.269
11
-32027.322
21
58777.716
0
LINE
8
L100D0
66
1
10
-32027.322
20
58777.716
11
-31854.118
21
58677.714
0
LINE
8
L100D0
66
1
10
-31854.118
20
58677.714
11
-30477.089
21
61062.731
0
LINE
8
L100D0
66
1
10
-30477.089
20
61062.731
11
-29731.553
21
62354
0
LINE
8
L100D0
66
1
10
-29731.553
20
62354
11
287.723
21
62354
0
LINE
8
L100D0
66
1
10
287.723
20
62354
11
-402.292
21
61158.893
0
LINE
8
L100D0
66
1
10
-402.292
20
61158.893
11
-1777.322
21
58777.34
0
LINE
8
L100D0
66
1
10
-1777.322
20
58777.34
11
-1604.118
21
58677.338
0
LINE
8
L100D0
66
1
10
-1604.118
20
58677.338
11
-227.088
21
61062.355
0
LINE
8
L100D0
66
1
10
-227.088
20
61062.355
11
518.665
21
62354
0
LINE
8
L100D0
66
1
10
518.665
20
62354
11
3037.743
21
62354
0
LINE
8
L100D0
66
1
10
3037.743
20
62354
11
2347.708
21
61158.859
0
LINE
8
L100D0
66
1
10
2347.708
20
61158.859
11
972.679
21
58777.306
0
LINE
8
L100D0
66
1
10
972.679
20
58777.306
11
1145.882
21
58677.304
0
LINE
8
L100D0
66
1
10
1145.882
20
58677.304
11
2522.912
21
61062.321
0
LINE
8
L100D0
66
1
10
2522.912
20
61062.321
11
3268.685
21
62354
0
LINE
8
L100D0
66
1
10
3268.685
20
62354
11
29664.32
21
62354
0
LINE
8
L100D0
66
1
10
29664.32
20
62354
11
30102.702
21
61461.051
0
LINE
8
L100D0
66
1
10
30102.702
20
61461.051
11
30274.364
21
61361.939
0
LINE
8
L100D0
66
1
10
30274.364
20
61361.939
11
30374.367
21
61535.143
0
LINE
8
L100D0
66
1
10
30374.367
20
61535.143
11
30255.419
21
61603.82
0
LINE
8
L100D0
66
1
10
30255.419
20
61603.82
11
29887.127
21
62354
0
LINE
8
L100D0
66
1
10
29887.127
20
62354
11
31000
21
62354
0
LINE
8
L100D0
66
1
10
31000
20
62354
11
38500
21
58024
0
LINE
8
L100D0
66
1
10
38500
20
58024
11
39057.148
21
57058.984
0
LINE
8
L100D0
66
1
10
39057.148
20
57058.984
11
38224.179
21
57002.922
0
LINE
8
L100D0
66
1
10
38224.179
20
57002.922
11
38105.232
21
57071.598
0
LINE
8
L100D0
66
1
10
38105.232
20
57071.598
11
38005.229
21
56898.394
0
LINE
8
L100D0
66
1
10
38005.229
20
56898.394
11
38176.892
21
56799.282
0
LINE
8
L100D0
66
1
10
38176.892
20
56799.282
11
39168.552
21
56866.025
0
LINE
8
L100D0
66
1
10
39168.552
20
56866.025
11
52366.536
21
34006.265
0
LINE
8
L100D0
66
1
10
52366.536
20
34006.265
11
51618.878
21
32711.32
0
LINE
8
L100D0
66
1
10
51618.878
20
32711.32
11
50243.848
21
30329.767
0
LINE
8
L100D0
66
1
10
50243.848
20
30329.767
11
50417.052
21
30229.765
0
LINE
8
L100D0
66
1
10
50417.052
20
30229.765
11
51794.082
21
32614.782
0
LINE
8
L100D0
66
1
10
51794.082
20
32614.782
11
52482.005
21
33806.266
0
LINE
8
L100D0
66
1
10
52482.005
20
33806.266
11
53741.521
21
31624.703
0
LINE
8
L100D0
66
1
10
53741.521
20
31624.703
11
52993.848
21
30329.733
0
LINE
8
L100D0
66
1
10
52993.848
20
30329.733
11
51618.819
21
27948.18
0
LINE
8
L100D0
66
1
10
51618.819
20
27948.18
11
51792.022
21
27848.178
0
LINE
8
L100D0
66
1
10
51792.022
20
27848.178
11
53169.052
21
30233.195
0
LINE
8
L100D0
66
1
10
53169.052
20
30233.195
11
53856.99
21
31424.703
0
LINE
8
L100D0
66
1
10
53856.99
20
31424.703
11
68866.353
21
5427.518
0
LINE
8
L100D0
66
1
10
68866.353
20
5427.518
11
68118.523
21
4132.276
0
LINE
8
L100D0
66
1
10
68118.523
20
4132.276
11
66743.494
21
1750.724
0
LINE
8
L100D0
66
1
10
66743.494
20
1750.724
11
66916.698
21
1650.721
0
LINE
8
L100D0
66
1
10
66916.698
20
1650.721
11
68293.727
21
4035.738
0
LINE
8
L100D0
66
1
10
68293.727
20
4035.738
11
68981.822
21
5227.518
0
LINE
8
L100D0
66
1
10
68981.822
20
5227.518
11
69500
21
4330
0
LINE
8
L100D0
66
1
10
69500
20
4330
11
69500
21
-1332
0
LINE
8
L100D0
66
1
10
69500
20
-1332
11
39403
21
-53463
0
LINE
8
L100D0
66
1
10
39403
20
-53463
11
36032
21
-55409
0
LINE
8
L100D0
66
1
10
36032
20
-55409
11
35480
21
-54453
0
LINE
8
L100D0
66
1
10
35480
20
-54453
11
35449
21
-54399
0
LINE
8
L100D0
66
1
10
35449
20
-54399
11
35379
21
-54294
0
LINE
8
L100D0
66
1
10
35379
20
-54294
11
35303
21
-54194
0
LINE
8
L100D0
66
1
10
35303
20
-54194
11
35221
21
-54099
0
LINE
8
L100D0
66
1
10
35221
20
-54099
11
35133
21
-54009
0
LINE
8
L100D0
66
1
10
35133
20
-54009
11
35040
21
-53925
0
LINE
8
L100D0
66
1
10
35040
20
-53925
11
34941
21
-53847
0
LINE
8
L100D0
66
1
10
34941
20
-53847
11
34838
21
-53775
0
LINE
8
L100D0
66
1
10
34838
20
-53775
11
34730
21
-53710
0
LINE
8
L100D0
66
1
10
34730
20
-53710
11
34619
21
-53652
0
LINE
8
L100D0
66
1
10
34619
20
-53652
11
34504
21
-53601
0
LINE
8
L100D0
66
1
10
34504
20
-53601
11
34386
21
-53557
0
LINE
8
L100D0
66
1
10
34386
20
-53557
11
34266
21
-53521
0
LINE
8
L100D0
66
1
10
34266
20
-53521
11
34144
21
-53492
0
LINE
8
L100D0
66
1
10
34144
20
-53492
11
34020
21
-53471
0
LINE
8
L100D0
66
1
10
34020
20
-53471
11
33895
21
-53458
0
LINE
8
L100D0
66
1
10
33895
20
-53458
11
33769
21
-53452
0
LINE
8
L100D0
66
1
10
33769
20
-53452
11
33643
21
-53455
0
LINE
8
L100D0
66
1
10
33643
20
-53455
11
33518
21
-53466
0
LINE
8
L100D0
66
1
10
33518
20
-53466
11
33394
21
-53484
0
LINE
8
L100D0
66
1
10
33394
20
-53484
11
33271
21
-53510
0
LINE
8
L100D0
66
1
10
33271
20
-53510
11
33150
21
-53544
0
LINE
8
L100D0
66
1
10
33150
20
-53544
11
33031
21
-53585
0
LINE
8
L100D0
66
1
10
33031
20
-53585
11
32915
21
-53634
0
LINE
8
L100D0
66
1
10
32915
20
-53634
11
32803
21
-53690
0
LINE
8
L100D0
66
1
10
32803
20
-53690
11
32748
21
-53721
0
LINE
8
L100D0
66
1
10
32748
20
-53721
11
30150
21
-55221
0
LINE
8
L100D0
66
1
10
30150
20
-55221
11
30096
21
-55253
0
LINE
8
L100D0
66
1
10
30096
20
-55253
11
29991
21
-55322
0
LINE
8
L100D0
66
1
10
29991
20
-55322
11
29891
21
-55398
0
LINE
8
L100D0
66
1
10
29891
20
-55398
11
29796
21
-55480
0
LINE
8
L100D0
66
1
10
29796
20
-55480
11
29706
21
-55568
0
LINE
8
L100D0
66
1
10
29706
20
-55568
11
29622
21
-55662
0
LINE
8
L100D0
66
1
10
29622
20
-55662
11
29544
21
-55760
0
LINE
8
L100D0
66
1
10
29544
20
-55760
11
29472
21
-55864
0
LINE
8
L100D0
66
1
10
29472
20
-55864
11
29407
21
-55971
0
LINE
8
L100D0
66
1
10
29407
20
-55971
11
29348
21
-56082
0
LINE
8
L100D0
66
1
10
29348
20
-56082
11
29297
21
-56197
0
LINE
8
L100D0
66
1
10
29297
20
-56197
11
29254
21
-56315
0
LINE
8
L100D0
66
1
10
29254
20
-56315
11
29217
21
-56435
0
LINE
8
L100D0
66
1
10
29217
20
-56435
11
29188
21
-56558
0
LINE
8
L100D0
66
1
10
29188
20
-56558
11
29168
21
-56682
0
LINE
8
L100D0
66
1
10
29168
20
-56682
11
29154
21
-56807
0
LINE
8
L100D0
66
1
10
29154
20
-56807
11
29149
21
-56932
0
LINE
8
L100D0
66
1
10
29149
20
-56932
11
29152
21
-57058
0
LINE
8
L100D0
66
1
10
29152
20
-57058
11
29162
21
-57183
0
LINE
8
L100D0
66
1
10
29162
20
-57183
11
29181
21
-57308
0
LINE
8
L100D0
66
1
10
29181
20
-57308
11
29207
21
-57431
0
LINE
8
L100D0
66
1
10
29207
20
-57431
11
29241
21
-57552
0
LINE
8
L100D0
66
1
10
29241
20
-57552
11
29282
21
-57670
0
LINE
8
L100D0
66
1
10
29282
20
-57670
11
29331
21
-57786
0
LINE
8
L100D0
66
1
10
29331
20
-57786
11
29387
21
-57899
0
LINE
8
L100D0
66
1
10
29387
20
-57899
11
29418
21
-57953
0
LINE
8
L100D0
66
1
10
29418
20
-57953
11
29970
21
-58909
0
LINE
8
L100D0
66
1
10
29970
20
-58909
11
26600
21
-60855
0
LINE
8
L100D0
66
1
10
26600
20
-60855
11
-33593
21
-60855
0
ENDSEC
0
EOF
