G04 #@! TF.GenerationSoftware,KiCad,Pcbnew,(5.1.5-0-10_14)*
G04 #@! TF.CreationDate,2021-02-20T09:37:57-07:00*
G04 #@! TF.ProjectId,number_1_good_boy,6e756d62-6572-45f3-915f-676f6f645f62,rev?*
G04 #@! TF.SameCoordinates,Original*
G04 #@! TF.FileFunction,Copper,L1,Top*
G04 #@! TF.FilePolarity,Positive*
%FSLAX46Y46*%
G04 Gerber Fmt 4.6, Leading zero omitted, Abs format (unit mm)*
G04 Created by KiCad (PCBNEW (5.1.5-0-10_14)) date 2021-02-20 09:37:57*
%MOMM*%
%LPD*%
G04 APERTURE LIST*
%ADD10R,0.900000X1.250000*%
%ADD11R,0.800000X0.900000*%
%ADD12C,0.100000*%
%ADD13C,0.800000*%
%ADD14C,0.508000*%
%ADD15C,0.127000*%
%ADD16C,0.254000*%
G04 APERTURE END LIST*
D10*
X2250000Y-14385000D03*
X750000Y-14385000D03*
X-2250000Y-14385000D03*
D11*
X3600000Y-15410000D03*
X-3600000Y-15410000D03*
X3600000Y-17610000D03*
X-3600000Y-17610000D03*
G04 #@! TA.AperFunction,SMDPad,CuDef*
D12*
G36*
X-9882309Y-11781053D02*
G01*
X-9861074Y-11784203D01*
X-9840250Y-11789419D01*
X-9820038Y-11796651D01*
X-9800632Y-11805830D01*
X-9782219Y-11816866D01*
X-9764976Y-11829654D01*
X-9749070Y-11844070D01*
X-9734654Y-11859976D01*
X-9721866Y-11877219D01*
X-9710830Y-11895632D01*
X-9701651Y-11915038D01*
X-9694419Y-11935250D01*
X-9689203Y-11956074D01*
X-9686053Y-11977309D01*
X-9685000Y-11998750D01*
X-9685000Y-12436250D01*
X-9686053Y-12457691D01*
X-9689203Y-12478926D01*
X-9694419Y-12499750D01*
X-9701651Y-12519962D01*
X-9710830Y-12539368D01*
X-9721866Y-12557781D01*
X-9734654Y-12575024D01*
X-9749070Y-12590930D01*
X-9764976Y-12605346D01*
X-9782219Y-12618134D01*
X-9800632Y-12629170D01*
X-9820038Y-12638349D01*
X-9840250Y-12645581D01*
X-9861074Y-12650797D01*
X-9882309Y-12653947D01*
X-9903750Y-12655000D01*
X-10416250Y-12655000D01*
X-10437691Y-12653947D01*
X-10458926Y-12650797D01*
X-10479750Y-12645581D01*
X-10499962Y-12638349D01*
X-10519368Y-12629170D01*
X-10537781Y-12618134D01*
X-10555024Y-12605346D01*
X-10570930Y-12590930D01*
X-10585346Y-12575024D01*
X-10598134Y-12557781D01*
X-10609170Y-12539368D01*
X-10618349Y-12519962D01*
X-10625581Y-12499750D01*
X-10630797Y-12478926D01*
X-10633947Y-12457691D01*
X-10635000Y-12436250D01*
X-10635000Y-11998750D01*
X-10633947Y-11977309D01*
X-10630797Y-11956074D01*
X-10625581Y-11935250D01*
X-10618349Y-11915038D01*
X-10609170Y-11895632D01*
X-10598134Y-11877219D01*
X-10585346Y-11859976D01*
X-10570930Y-11844070D01*
X-10555024Y-11829654D01*
X-10537781Y-11816866D01*
X-10519368Y-11805830D01*
X-10499962Y-11796651D01*
X-10479750Y-11789419D01*
X-10458926Y-11784203D01*
X-10437691Y-11781053D01*
X-10416250Y-11780000D01*
X-9903750Y-11780000D01*
X-9882309Y-11781053D01*
G37*
G04 #@! TD.AperFunction*
G04 #@! TA.AperFunction,SMDPad,CuDef*
G36*
X-9882309Y-10206053D02*
G01*
X-9861074Y-10209203D01*
X-9840250Y-10214419D01*
X-9820038Y-10221651D01*
X-9800632Y-10230830D01*
X-9782219Y-10241866D01*
X-9764976Y-10254654D01*
X-9749070Y-10269070D01*
X-9734654Y-10284976D01*
X-9721866Y-10302219D01*
X-9710830Y-10320632D01*
X-9701651Y-10340038D01*
X-9694419Y-10360250D01*
X-9689203Y-10381074D01*
X-9686053Y-10402309D01*
X-9685000Y-10423750D01*
X-9685000Y-10861250D01*
X-9686053Y-10882691D01*
X-9689203Y-10903926D01*
X-9694419Y-10924750D01*
X-9701651Y-10944962D01*
X-9710830Y-10964368D01*
X-9721866Y-10982781D01*
X-9734654Y-11000024D01*
X-9749070Y-11015930D01*
X-9764976Y-11030346D01*
X-9782219Y-11043134D01*
X-9800632Y-11054170D01*
X-9820038Y-11063349D01*
X-9840250Y-11070581D01*
X-9861074Y-11075797D01*
X-9882309Y-11078947D01*
X-9903750Y-11080000D01*
X-10416250Y-11080000D01*
X-10437691Y-11078947D01*
X-10458926Y-11075797D01*
X-10479750Y-11070581D01*
X-10499962Y-11063349D01*
X-10519368Y-11054170D01*
X-10537781Y-11043134D01*
X-10555024Y-11030346D01*
X-10570930Y-11015930D01*
X-10585346Y-11000024D01*
X-10598134Y-10982781D01*
X-10609170Y-10964368D01*
X-10618349Y-10944962D01*
X-10625581Y-10924750D01*
X-10630797Y-10903926D01*
X-10633947Y-10882691D01*
X-10635000Y-10861250D01*
X-10635000Y-10423750D01*
X-10633947Y-10402309D01*
X-10630797Y-10381074D01*
X-10625581Y-10360250D01*
X-10618349Y-10340038D01*
X-10609170Y-10320632D01*
X-10598134Y-10302219D01*
X-10585346Y-10284976D01*
X-10570930Y-10269070D01*
X-10555024Y-10254654D01*
X-10537781Y-10241866D01*
X-10519368Y-10230830D01*
X-10499962Y-10221651D01*
X-10479750Y-10214419D01*
X-10458926Y-10209203D01*
X-10437691Y-10206053D01*
X-10416250Y-10205000D01*
X-9903750Y-10205000D01*
X-9882309Y-10206053D01*
G37*
G04 #@! TD.AperFunction*
G04 #@! TA.AperFunction,SMDPad,CuDef*
G36*
X-9882309Y-8606053D02*
G01*
X-9861074Y-8609203D01*
X-9840250Y-8614419D01*
X-9820038Y-8621651D01*
X-9800632Y-8630830D01*
X-9782219Y-8641866D01*
X-9764976Y-8654654D01*
X-9749070Y-8669070D01*
X-9734654Y-8684976D01*
X-9721866Y-8702219D01*
X-9710830Y-8720632D01*
X-9701651Y-8740038D01*
X-9694419Y-8760250D01*
X-9689203Y-8781074D01*
X-9686053Y-8802309D01*
X-9685000Y-8823750D01*
X-9685000Y-9261250D01*
X-9686053Y-9282691D01*
X-9689203Y-9303926D01*
X-9694419Y-9324750D01*
X-9701651Y-9344962D01*
X-9710830Y-9364368D01*
X-9721866Y-9382781D01*
X-9734654Y-9400024D01*
X-9749070Y-9415930D01*
X-9764976Y-9430346D01*
X-9782219Y-9443134D01*
X-9800632Y-9454170D01*
X-9820038Y-9463349D01*
X-9840250Y-9470581D01*
X-9861074Y-9475797D01*
X-9882309Y-9478947D01*
X-9903750Y-9480000D01*
X-10416250Y-9480000D01*
X-10437691Y-9478947D01*
X-10458926Y-9475797D01*
X-10479750Y-9470581D01*
X-10499962Y-9463349D01*
X-10519368Y-9454170D01*
X-10537781Y-9443134D01*
X-10555024Y-9430346D01*
X-10570930Y-9415930D01*
X-10585346Y-9400024D01*
X-10598134Y-9382781D01*
X-10609170Y-9364368D01*
X-10618349Y-9344962D01*
X-10625581Y-9324750D01*
X-10630797Y-9303926D01*
X-10633947Y-9282691D01*
X-10635000Y-9261250D01*
X-10635000Y-8823750D01*
X-10633947Y-8802309D01*
X-10630797Y-8781074D01*
X-10625581Y-8760250D01*
X-10618349Y-8740038D01*
X-10609170Y-8720632D01*
X-10598134Y-8702219D01*
X-10585346Y-8684976D01*
X-10570930Y-8669070D01*
X-10555024Y-8654654D01*
X-10537781Y-8641866D01*
X-10519368Y-8630830D01*
X-10499962Y-8621651D01*
X-10479750Y-8614419D01*
X-10458926Y-8609203D01*
X-10437691Y-8606053D01*
X-10416250Y-8605000D01*
X-9903750Y-8605000D01*
X-9882309Y-8606053D01*
G37*
G04 #@! TD.AperFunction*
G04 #@! TA.AperFunction,SMDPad,CuDef*
G36*
X-9882309Y-7031053D02*
G01*
X-9861074Y-7034203D01*
X-9840250Y-7039419D01*
X-9820038Y-7046651D01*
X-9800632Y-7055830D01*
X-9782219Y-7066866D01*
X-9764976Y-7079654D01*
X-9749070Y-7094070D01*
X-9734654Y-7109976D01*
X-9721866Y-7127219D01*
X-9710830Y-7145632D01*
X-9701651Y-7165038D01*
X-9694419Y-7185250D01*
X-9689203Y-7206074D01*
X-9686053Y-7227309D01*
X-9685000Y-7248750D01*
X-9685000Y-7686250D01*
X-9686053Y-7707691D01*
X-9689203Y-7728926D01*
X-9694419Y-7749750D01*
X-9701651Y-7769962D01*
X-9710830Y-7789368D01*
X-9721866Y-7807781D01*
X-9734654Y-7825024D01*
X-9749070Y-7840930D01*
X-9764976Y-7855346D01*
X-9782219Y-7868134D01*
X-9800632Y-7879170D01*
X-9820038Y-7888349D01*
X-9840250Y-7895581D01*
X-9861074Y-7900797D01*
X-9882309Y-7903947D01*
X-9903750Y-7905000D01*
X-10416250Y-7905000D01*
X-10437691Y-7903947D01*
X-10458926Y-7900797D01*
X-10479750Y-7895581D01*
X-10499962Y-7888349D01*
X-10519368Y-7879170D01*
X-10537781Y-7868134D01*
X-10555024Y-7855346D01*
X-10570930Y-7840930D01*
X-10585346Y-7825024D01*
X-10598134Y-7807781D01*
X-10609170Y-7789368D01*
X-10618349Y-7769962D01*
X-10625581Y-7749750D01*
X-10630797Y-7728926D01*
X-10633947Y-7707691D01*
X-10635000Y-7686250D01*
X-10635000Y-7248750D01*
X-10633947Y-7227309D01*
X-10630797Y-7206074D01*
X-10625581Y-7185250D01*
X-10618349Y-7165038D01*
X-10609170Y-7145632D01*
X-10598134Y-7127219D01*
X-10585346Y-7109976D01*
X-10570930Y-7094070D01*
X-10555024Y-7079654D01*
X-10537781Y-7066866D01*
X-10519368Y-7055830D01*
X-10499962Y-7046651D01*
X-10479750Y-7039419D01*
X-10458926Y-7034203D01*
X-10437691Y-7031053D01*
X-10416250Y-7030000D01*
X-9903750Y-7030000D01*
X-9882309Y-7031053D01*
G37*
G04 #@! TD.AperFunction*
G04 #@! TA.AperFunction,SMDPad,CuDef*
G36*
X5954410Y16591989D02*
G01*
X5975579Y16588423D01*
X5996297Y16582799D01*
X6412384Y16447604D01*
X6432450Y16439976D01*
X6451672Y16430418D01*
X6469865Y16419023D01*
X6486853Y16405899D01*
X6502473Y16391173D01*
X6516574Y16374987D01*
X6529021Y16357496D01*
X6539694Y16338870D01*
X6548489Y16319288D01*
X6555323Y16298938D01*
X6560129Y16278015D01*
X6562862Y16256723D01*
X6563494Y16235265D01*
X6562020Y16213849D01*
X6558454Y16192680D01*
X6552830Y16171963D01*
X6394459Y15684546D01*
X6386831Y15664479D01*
X6377274Y15645257D01*
X6365878Y15627065D01*
X6352754Y15610076D01*
X6338028Y15594456D01*
X6321842Y15580355D01*
X6304352Y15567908D01*
X6285726Y15557235D01*
X6266143Y15548440D01*
X6245793Y15541606D01*
X6224871Y15536800D01*
X6203578Y15534067D01*
X6182120Y15533435D01*
X6160704Y15534909D01*
X6139535Y15538475D01*
X6118817Y15544099D01*
X5702730Y15679294D01*
X5682664Y15686922D01*
X5663442Y15696480D01*
X5645249Y15707875D01*
X5628261Y15720999D01*
X5612641Y15735725D01*
X5598540Y15751911D01*
X5586093Y15769402D01*
X5575420Y15788028D01*
X5566625Y15807610D01*
X5559791Y15827960D01*
X5554985Y15848883D01*
X5552252Y15870175D01*
X5551620Y15891633D01*
X5553094Y15913049D01*
X5556660Y15934218D01*
X5562284Y15954935D01*
X5720655Y16442352D01*
X5728283Y16462419D01*
X5737840Y16481641D01*
X5749236Y16499833D01*
X5762360Y16516822D01*
X5777086Y16532442D01*
X5793272Y16546543D01*
X5810762Y16558990D01*
X5829388Y16569663D01*
X5848971Y16578458D01*
X5869321Y16585292D01*
X5890243Y16590098D01*
X5911536Y16592831D01*
X5932994Y16593463D01*
X5954410Y16591989D01*
G37*
G04 #@! TD.AperFunction*
G04 #@! TA.AperFunction,SMDPad,CuDef*
G36*
X4456496Y17078691D02*
G01*
X4477665Y17075125D01*
X4498383Y17069501D01*
X4914470Y16934306D01*
X4934536Y16926678D01*
X4953758Y16917120D01*
X4971951Y16905725D01*
X4988939Y16892601D01*
X5004559Y16877875D01*
X5018660Y16861689D01*
X5031107Y16844198D01*
X5041780Y16825572D01*
X5050575Y16805990D01*
X5057409Y16785640D01*
X5062215Y16764717D01*
X5064948Y16743425D01*
X5065580Y16721967D01*
X5064106Y16700551D01*
X5060540Y16679382D01*
X5054916Y16658665D01*
X4896545Y16171248D01*
X4888917Y16151181D01*
X4879360Y16131959D01*
X4867964Y16113767D01*
X4854840Y16096778D01*
X4840114Y16081158D01*
X4823928Y16067057D01*
X4806438Y16054610D01*
X4787812Y16043937D01*
X4768229Y16035142D01*
X4747879Y16028308D01*
X4726957Y16023502D01*
X4705664Y16020769D01*
X4684206Y16020137D01*
X4662790Y16021611D01*
X4641621Y16025177D01*
X4620903Y16030801D01*
X4204816Y16165996D01*
X4184750Y16173624D01*
X4165528Y16183182D01*
X4147335Y16194577D01*
X4130347Y16207701D01*
X4114727Y16222427D01*
X4100626Y16238613D01*
X4088179Y16256104D01*
X4077506Y16274730D01*
X4068711Y16294312D01*
X4061877Y16314662D01*
X4057071Y16335585D01*
X4054338Y16356877D01*
X4053706Y16378335D01*
X4055180Y16399751D01*
X4058746Y16420920D01*
X4064370Y16441637D01*
X4222741Y16929054D01*
X4230369Y16949121D01*
X4239926Y16968343D01*
X4251322Y16986535D01*
X4264446Y17003524D01*
X4279172Y17019144D01*
X4295358Y17033245D01*
X4312848Y17045692D01*
X4331474Y17056365D01*
X4351057Y17065160D01*
X4371407Y17071994D01*
X4392329Y17076800D01*
X4413622Y17079533D01*
X4435080Y17080165D01*
X4456496Y17078691D01*
G37*
G04 #@! TD.AperFunction*
G04 #@! TA.AperFunction,SMDPad,CuDef*
G36*
X13497130Y11266864D02*
G01*
X13518472Y11264550D01*
X13539485Y11260155D01*
X13559965Y11253722D01*
X13579717Y11245313D01*
X13598549Y11235008D01*
X13616280Y11222907D01*
X13632740Y11209126D01*
X13647770Y11193798D01*
X13661224Y11177071D01*
X13918380Y10823127D01*
X13930131Y10805162D01*
X13940064Y10786131D01*
X13948084Y10766218D01*
X13954114Y10745615D01*
X13958095Y10724521D01*
X13959989Y10703137D01*
X13959779Y10681671D01*
X13957465Y10660329D01*
X13953070Y10639317D01*
X13946637Y10618836D01*
X13938228Y10599085D01*
X13927923Y10580253D01*
X13915822Y10562521D01*
X13902041Y10546062D01*
X13886713Y10531032D01*
X13869986Y10517576D01*
X13455364Y10216336D01*
X13437398Y10204586D01*
X13418368Y10194653D01*
X13398455Y10186633D01*
X13377852Y10180603D01*
X13356757Y10176622D01*
X13335374Y10174728D01*
X13313908Y10174938D01*
X13292566Y10177252D01*
X13271553Y10181647D01*
X13251073Y10188080D01*
X13231321Y10196489D01*
X13212489Y10206794D01*
X13194758Y10218895D01*
X13178298Y10232676D01*
X13163268Y10248004D01*
X13149814Y10264731D01*
X12892658Y10618675D01*
X12880907Y10636640D01*
X12870974Y10655671D01*
X12862954Y10675584D01*
X12856924Y10696187D01*
X12852943Y10717281D01*
X12851049Y10738665D01*
X12851259Y10760131D01*
X12853573Y10781473D01*
X12857968Y10802485D01*
X12864401Y10822966D01*
X12872810Y10842717D01*
X12883115Y10861549D01*
X12895216Y10879281D01*
X12908997Y10895740D01*
X12924325Y10910770D01*
X12941052Y10924226D01*
X13355674Y11225466D01*
X13373640Y11237216D01*
X13392670Y11247149D01*
X13412583Y11255169D01*
X13433186Y11261199D01*
X13454281Y11265180D01*
X13475664Y11267074D01*
X13497130Y11266864D01*
G37*
G04 #@! TD.AperFunction*
G04 #@! TA.AperFunction,SMDPad,CuDef*
G36*
X14422892Y9992662D02*
G01*
X14444234Y9990348D01*
X14465247Y9985953D01*
X14485727Y9979520D01*
X14505479Y9971111D01*
X14524311Y9960806D01*
X14542042Y9948705D01*
X14558502Y9934924D01*
X14573532Y9919596D01*
X14586986Y9902869D01*
X14844142Y9548925D01*
X14855893Y9530960D01*
X14865826Y9511929D01*
X14873846Y9492016D01*
X14879876Y9471413D01*
X14883857Y9450319D01*
X14885751Y9428935D01*
X14885541Y9407469D01*
X14883227Y9386127D01*
X14878832Y9365115D01*
X14872399Y9344634D01*
X14863990Y9324883D01*
X14853685Y9306051D01*
X14841584Y9288319D01*
X14827803Y9271860D01*
X14812475Y9256830D01*
X14795748Y9243374D01*
X14381126Y8942134D01*
X14363160Y8930384D01*
X14344130Y8920451D01*
X14324217Y8912431D01*
X14303614Y8906401D01*
X14282519Y8902420D01*
X14261136Y8900526D01*
X14239670Y8900736D01*
X14218328Y8903050D01*
X14197315Y8907445D01*
X14176835Y8913878D01*
X14157083Y8922287D01*
X14138251Y8932592D01*
X14120520Y8944693D01*
X14104060Y8958474D01*
X14089030Y8973802D01*
X14075576Y8990529D01*
X13818420Y9344473D01*
X13806669Y9362438D01*
X13796736Y9381469D01*
X13788716Y9401382D01*
X13782686Y9421985D01*
X13778705Y9443079D01*
X13776811Y9464463D01*
X13777021Y9485929D01*
X13779335Y9507271D01*
X13783730Y9528283D01*
X13790163Y9548764D01*
X13798572Y9568515D01*
X13808877Y9587347D01*
X13820978Y9605079D01*
X13834759Y9621538D01*
X13850087Y9636568D01*
X13866814Y9650024D01*
X14281436Y9951264D01*
X14299402Y9963014D01*
X14318432Y9972947D01*
X14338345Y9980967D01*
X14358948Y9986997D01*
X14380043Y9990978D01*
X14401426Y9992872D01*
X14422892Y9992662D01*
G37*
G04 #@! TD.AperFunction*
G04 #@! TA.AperFunction,SMDPad,CuDef*
G36*
X17422691Y-351053D02*
G01*
X17443926Y-354203D01*
X17464750Y-359419D01*
X17484962Y-366651D01*
X17504368Y-375830D01*
X17522781Y-386866D01*
X17540024Y-399654D01*
X17555930Y-414070D01*
X17570346Y-429976D01*
X17583134Y-447219D01*
X17594170Y-465632D01*
X17603349Y-485038D01*
X17610581Y-505250D01*
X17615797Y-526074D01*
X17618947Y-547309D01*
X17620000Y-568750D01*
X17620000Y-1006250D01*
X17618947Y-1027691D01*
X17615797Y-1048926D01*
X17610581Y-1069750D01*
X17603349Y-1089962D01*
X17594170Y-1109368D01*
X17583134Y-1127781D01*
X17570346Y-1145024D01*
X17555930Y-1160930D01*
X17540024Y-1175346D01*
X17522781Y-1188134D01*
X17504368Y-1199170D01*
X17484962Y-1208349D01*
X17464750Y-1215581D01*
X17443926Y-1220797D01*
X17422691Y-1223947D01*
X17401250Y-1225000D01*
X16888750Y-1225000D01*
X16867309Y-1223947D01*
X16846074Y-1220797D01*
X16825250Y-1215581D01*
X16805038Y-1208349D01*
X16785632Y-1199170D01*
X16767219Y-1188134D01*
X16749976Y-1175346D01*
X16734070Y-1160930D01*
X16719654Y-1145024D01*
X16706866Y-1127781D01*
X16695830Y-1109368D01*
X16686651Y-1089962D01*
X16679419Y-1069750D01*
X16674203Y-1048926D01*
X16671053Y-1027691D01*
X16670000Y-1006250D01*
X16670000Y-568750D01*
X16671053Y-547309D01*
X16674203Y-526074D01*
X16679419Y-505250D01*
X16686651Y-485038D01*
X16695830Y-465632D01*
X16706866Y-447219D01*
X16719654Y-429976D01*
X16734070Y-414070D01*
X16749976Y-399654D01*
X16767219Y-386866D01*
X16785632Y-375830D01*
X16805038Y-366651D01*
X16825250Y-359419D01*
X16846074Y-354203D01*
X16867309Y-351053D01*
X16888750Y-350000D01*
X17401250Y-350000D01*
X17422691Y-351053D01*
G37*
G04 #@! TD.AperFunction*
G04 #@! TA.AperFunction,SMDPad,CuDef*
G36*
X17422691Y1223947D02*
G01*
X17443926Y1220797D01*
X17464750Y1215581D01*
X17484962Y1208349D01*
X17504368Y1199170D01*
X17522781Y1188134D01*
X17540024Y1175346D01*
X17555930Y1160930D01*
X17570346Y1145024D01*
X17583134Y1127781D01*
X17594170Y1109368D01*
X17603349Y1089962D01*
X17610581Y1069750D01*
X17615797Y1048926D01*
X17618947Y1027691D01*
X17620000Y1006250D01*
X17620000Y568750D01*
X17618947Y547309D01*
X17615797Y526074D01*
X17610581Y505250D01*
X17603349Y485038D01*
X17594170Y465632D01*
X17583134Y447219D01*
X17570346Y429976D01*
X17555930Y414070D01*
X17540024Y399654D01*
X17522781Y386866D01*
X17504368Y375830D01*
X17484962Y366651D01*
X17464750Y359419D01*
X17443926Y354203D01*
X17422691Y351053D01*
X17401250Y350000D01*
X16888750Y350000D01*
X16867309Y351053D01*
X16846074Y354203D01*
X16825250Y359419D01*
X16805038Y366651D01*
X16785632Y375830D01*
X16767219Y386866D01*
X16749976Y399654D01*
X16734070Y414070D01*
X16719654Y429976D01*
X16706866Y447219D01*
X16695830Y465632D01*
X16686651Y485038D01*
X16679419Y505250D01*
X16674203Y526074D01*
X16671053Y547309D01*
X16670000Y568750D01*
X16670000Y1006250D01*
X16671053Y1027691D01*
X16674203Y1048926D01*
X16679419Y1069750D01*
X16686651Y1089962D01*
X16695830Y1109368D01*
X16706866Y1127781D01*
X16719654Y1145024D01*
X16734070Y1160930D01*
X16749976Y1175346D01*
X16767219Y1188134D01*
X16785632Y1199170D01*
X16805038Y1208349D01*
X16825250Y1215581D01*
X16846074Y1220797D01*
X16867309Y1223947D01*
X16888750Y1225000D01*
X17401250Y1225000D01*
X17422691Y1223947D01*
G37*
G04 #@! TD.AperFunction*
G04 #@! TA.AperFunction,SMDPad,CuDef*
G36*
X14282520Y-8902420D02*
G01*
X14303614Y-8906401D01*
X14324217Y-8912431D01*
X14344130Y-8920451D01*
X14363161Y-8930384D01*
X14381126Y-8942134D01*
X14795748Y-9243374D01*
X14812475Y-9256829D01*
X14827803Y-9271859D01*
X14841584Y-9288319D01*
X14853685Y-9306050D01*
X14863990Y-9324882D01*
X14872399Y-9344634D01*
X14878832Y-9365114D01*
X14883227Y-9386127D01*
X14885541Y-9407469D01*
X14885751Y-9428935D01*
X14883857Y-9450318D01*
X14879876Y-9471413D01*
X14873846Y-9492016D01*
X14865826Y-9511929D01*
X14855893Y-9530959D01*
X14844142Y-9548925D01*
X14586986Y-9902869D01*
X14573531Y-9919596D01*
X14558501Y-9934924D01*
X14542042Y-9948705D01*
X14524310Y-9960806D01*
X14505478Y-9971111D01*
X14485727Y-9979520D01*
X14465246Y-9985953D01*
X14444234Y-9990348D01*
X14422892Y-9992662D01*
X14401426Y-9992872D01*
X14380042Y-9990978D01*
X14358948Y-9986997D01*
X14338345Y-9980967D01*
X14318432Y-9972947D01*
X14299401Y-9963014D01*
X14281436Y-9951264D01*
X13866814Y-9650024D01*
X13850087Y-9636569D01*
X13834759Y-9621539D01*
X13820978Y-9605079D01*
X13808877Y-9587348D01*
X13798572Y-9568516D01*
X13790163Y-9548764D01*
X13783730Y-9528284D01*
X13779335Y-9507271D01*
X13777021Y-9485929D01*
X13776811Y-9464463D01*
X13778705Y-9443080D01*
X13782686Y-9421985D01*
X13788716Y-9401382D01*
X13796736Y-9381469D01*
X13806669Y-9362439D01*
X13818420Y-9344473D01*
X14075576Y-8990529D01*
X14089031Y-8973802D01*
X14104061Y-8958474D01*
X14120520Y-8944693D01*
X14138252Y-8932592D01*
X14157084Y-8922287D01*
X14176835Y-8913878D01*
X14197316Y-8907445D01*
X14218328Y-8903050D01*
X14239670Y-8900736D01*
X14261136Y-8900526D01*
X14282520Y-8902420D01*
G37*
G04 #@! TD.AperFunction*
G04 #@! TA.AperFunction,SMDPad,CuDef*
G36*
X13356758Y-10176622D02*
G01*
X13377852Y-10180603D01*
X13398455Y-10186633D01*
X13418368Y-10194653D01*
X13437399Y-10204586D01*
X13455364Y-10216336D01*
X13869986Y-10517576D01*
X13886713Y-10531031D01*
X13902041Y-10546061D01*
X13915822Y-10562521D01*
X13927923Y-10580252D01*
X13938228Y-10599084D01*
X13946637Y-10618836D01*
X13953070Y-10639316D01*
X13957465Y-10660329D01*
X13959779Y-10681671D01*
X13959989Y-10703137D01*
X13958095Y-10724520D01*
X13954114Y-10745615D01*
X13948084Y-10766218D01*
X13940064Y-10786131D01*
X13930131Y-10805161D01*
X13918380Y-10823127D01*
X13661224Y-11177071D01*
X13647769Y-11193798D01*
X13632739Y-11209126D01*
X13616280Y-11222907D01*
X13598548Y-11235008D01*
X13579716Y-11245313D01*
X13559965Y-11253722D01*
X13539484Y-11260155D01*
X13518472Y-11264550D01*
X13497130Y-11266864D01*
X13475664Y-11267074D01*
X13454280Y-11265180D01*
X13433186Y-11261199D01*
X13412583Y-11255169D01*
X13392670Y-11247149D01*
X13373639Y-11237216D01*
X13355674Y-11225466D01*
X12941052Y-10924226D01*
X12924325Y-10910771D01*
X12908997Y-10895741D01*
X12895216Y-10879281D01*
X12883115Y-10861550D01*
X12872810Y-10842718D01*
X12864401Y-10822966D01*
X12857968Y-10802486D01*
X12853573Y-10781473D01*
X12851259Y-10760131D01*
X12851049Y-10738665D01*
X12852943Y-10717282D01*
X12856924Y-10696187D01*
X12862954Y-10675584D01*
X12870974Y-10655671D01*
X12880907Y-10636641D01*
X12892658Y-10618675D01*
X13149814Y-10264731D01*
X13163269Y-10248004D01*
X13178299Y-10232676D01*
X13194758Y-10218895D01*
X13212490Y-10206794D01*
X13231322Y-10196489D01*
X13251073Y-10188080D01*
X13271554Y-10181647D01*
X13292566Y-10177252D01*
X13313908Y-10174938D01*
X13335374Y-10174728D01*
X13356758Y-10176622D01*
G37*
G04 #@! TD.AperFunction*
G04 #@! TA.AperFunction,SMDPad,CuDef*
G36*
X4705664Y-16020769D02*
G01*
X4726956Y-16023502D01*
X4747879Y-16028308D01*
X4768229Y-16035142D01*
X4787811Y-16043937D01*
X4806437Y-16054610D01*
X4823928Y-16067057D01*
X4840114Y-16081158D01*
X4854840Y-16096778D01*
X4867964Y-16113766D01*
X4879359Y-16131959D01*
X4888917Y-16151181D01*
X4896545Y-16171248D01*
X5054916Y-16658665D01*
X5060540Y-16679382D01*
X5064106Y-16700551D01*
X5065580Y-16721967D01*
X5064948Y-16743425D01*
X5062215Y-16764718D01*
X5057409Y-16785640D01*
X5050575Y-16805990D01*
X5041780Y-16825573D01*
X5031107Y-16844199D01*
X5018660Y-16861689D01*
X5004559Y-16877875D01*
X4988939Y-16892601D01*
X4971950Y-16905725D01*
X4953758Y-16917121D01*
X4934536Y-16926678D01*
X4914470Y-16934306D01*
X4498383Y-17069501D01*
X4477665Y-17075125D01*
X4456496Y-17078691D01*
X4435080Y-17080165D01*
X4413622Y-17079533D01*
X4392330Y-17076800D01*
X4371407Y-17071994D01*
X4351057Y-17065160D01*
X4331475Y-17056365D01*
X4312849Y-17045692D01*
X4295358Y-17033245D01*
X4279172Y-17019144D01*
X4264446Y-17003524D01*
X4251322Y-16986536D01*
X4239927Y-16968343D01*
X4230369Y-16949121D01*
X4222741Y-16929054D01*
X4064370Y-16441637D01*
X4058746Y-16420920D01*
X4055180Y-16399751D01*
X4053706Y-16378335D01*
X4054338Y-16356877D01*
X4057071Y-16335584D01*
X4061877Y-16314662D01*
X4068711Y-16294312D01*
X4077506Y-16274729D01*
X4088179Y-16256103D01*
X4100626Y-16238613D01*
X4114727Y-16222427D01*
X4130347Y-16207701D01*
X4147336Y-16194577D01*
X4165528Y-16183181D01*
X4184750Y-16173624D01*
X4204816Y-16165996D01*
X4620903Y-16030801D01*
X4641621Y-16025177D01*
X4662790Y-16021611D01*
X4684206Y-16020137D01*
X4705664Y-16020769D01*
G37*
G04 #@! TD.AperFunction*
G04 #@! TA.AperFunction,SMDPad,CuDef*
G36*
X6203578Y-15534067D02*
G01*
X6224870Y-15536800D01*
X6245793Y-15541606D01*
X6266143Y-15548440D01*
X6285725Y-15557235D01*
X6304351Y-15567908D01*
X6321842Y-15580355D01*
X6338028Y-15594456D01*
X6352754Y-15610076D01*
X6365878Y-15627064D01*
X6377273Y-15645257D01*
X6386831Y-15664479D01*
X6394459Y-15684546D01*
X6552830Y-16171963D01*
X6558454Y-16192680D01*
X6562020Y-16213849D01*
X6563494Y-16235265D01*
X6562862Y-16256723D01*
X6560129Y-16278016D01*
X6555323Y-16298938D01*
X6548489Y-16319288D01*
X6539694Y-16338871D01*
X6529021Y-16357497D01*
X6516574Y-16374987D01*
X6502473Y-16391173D01*
X6486853Y-16405899D01*
X6469864Y-16419023D01*
X6451672Y-16430419D01*
X6432450Y-16439976D01*
X6412384Y-16447604D01*
X5996297Y-16582799D01*
X5975579Y-16588423D01*
X5954410Y-16591989D01*
X5932994Y-16593463D01*
X5911536Y-16592831D01*
X5890244Y-16590098D01*
X5869321Y-16585292D01*
X5848971Y-16578458D01*
X5829389Y-16569663D01*
X5810763Y-16558990D01*
X5793272Y-16546543D01*
X5777086Y-16532442D01*
X5762360Y-16516822D01*
X5749236Y-16499834D01*
X5737841Y-16481641D01*
X5728283Y-16462419D01*
X5720655Y-16442352D01*
X5562284Y-15954935D01*
X5556660Y-15934218D01*
X5553094Y-15913049D01*
X5551620Y-15891633D01*
X5552252Y-15870175D01*
X5554985Y-15848882D01*
X5559791Y-15827960D01*
X5566625Y-15807610D01*
X5575420Y-15788027D01*
X5586093Y-15769401D01*
X5598540Y-15751911D01*
X5612641Y-15735725D01*
X5628261Y-15720999D01*
X5645250Y-15707875D01*
X5663442Y-15696479D01*
X5682664Y-15686922D01*
X5702730Y-15679294D01*
X6118817Y-15544099D01*
X6139535Y-15538475D01*
X6160704Y-15534909D01*
X6182120Y-15533435D01*
X6203578Y-15534067D01*
G37*
G04 #@! TD.AperFunction*
G04 #@! TA.AperFunction,SMDPad,CuDef*
G36*
X-4662790Y-16021611D02*
G01*
X-4641621Y-16025177D01*
X-4620903Y-16030801D01*
X-4204816Y-16165996D01*
X-4184750Y-16173624D01*
X-4165528Y-16183182D01*
X-4147335Y-16194577D01*
X-4130347Y-16207701D01*
X-4114727Y-16222427D01*
X-4100626Y-16238613D01*
X-4088179Y-16256104D01*
X-4077506Y-16274730D01*
X-4068711Y-16294312D01*
X-4061877Y-16314662D01*
X-4057071Y-16335585D01*
X-4054338Y-16356877D01*
X-4053706Y-16378335D01*
X-4055180Y-16399751D01*
X-4058746Y-16420920D01*
X-4064370Y-16441637D01*
X-4222741Y-16929054D01*
X-4230369Y-16949121D01*
X-4239926Y-16968343D01*
X-4251322Y-16986535D01*
X-4264446Y-17003524D01*
X-4279172Y-17019144D01*
X-4295358Y-17033245D01*
X-4312848Y-17045692D01*
X-4331474Y-17056365D01*
X-4351057Y-17065160D01*
X-4371407Y-17071994D01*
X-4392329Y-17076800D01*
X-4413622Y-17079533D01*
X-4435080Y-17080165D01*
X-4456496Y-17078691D01*
X-4477665Y-17075125D01*
X-4498383Y-17069501D01*
X-4914470Y-16934306D01*
X-4934536Y-16926678D01*
X-4953758Y-16917120D01*
X-4971951Y-16905725D01*
X-4988939Y-16892601D01*
X-5004559Y-16877875D01*
X-5018660Y-16861689D01*
X-5031107Y-16844198D01*
X-5041780Y-16825572D01*
X-5050575Y-16805990D01*
X-5057409Y-16785640D01*
X-5062215Y-16764717D01*
X-5064948Y-16743425D01*
X-5065580Y-16721967D01*
X-5064106Y-16700551D01*
X-5060540Y-16679382D01*
X-5054916Y-16658665D01*
X-4896545Y-16171248D01*
X-4888917Y-16151181D01*
X-4879360Y-16131959D01*
X-4867964Y-16113767D01*
X-4854840Y-16096778D01*
X-4840114Y-16081158D01*
X-4823928Y-16067057D01*
X-4806438Y-16054610D01*
X-4787812Y-16043937D01*
X-4768229Y-16035142D01*
X-4747879Y-16028308D01*
X-4726957Y-16023502D01*
X-4705664Y-16020769D01*
X-4684206Y-16020137D01*
X-4662790Y-16021611D01*
G37*
G04 #@! TD.AperFunction*
G04 #@! TA.AperFunction,SMDPad,CuDef*
G36*
X-6160704Y-15534909D02*
G01*
X-6139535Y-15538475D01*
X-6118817Y-15544099D01*
X-5702730Y-15679294D01*
X-5682664Y-15686922D01*
X-5663442Y-15696480D01*
X-5645249Y-15707875D01*
X-5628261Y-15720999D01*
X-5612641Y-15735725D01*
X-5598540Y-15751911D01*
X-5586093Y-15769402D01*
X-5575420Y-15788028D01*
X-5566625Y-15807610D01*
X-5559791Y-15827960D01*
X-5554985Y-15848883D01*
X-5552252Y-15870175D01*
X-5551620Y-15891633D01*
X-5553094Y-15913049D01*
X-5556660Y-15934218D01*
X-5562284Y-15954935D01*
X-5720655Y-16442352D01*
X-5728283Y-16462419D01*
X-5737840Y-16481641D01*
X-5749236Y-16499833D01*
X-5762360Y-16516822D01*
X-5777086Y-16532442D01*
X-5793272Y-16546543D01*
X-5810762Y-16558990D01*
X-5829388Y-16569663D01*
X-5848971Y-16578458D01*
X-5869321Y-16585292D01*
X-5890243Y-16590098D01*
X-5911536Y-16592831D01*
X-5932994Y-16593463D01*
X-5954410Y-16591989D01*
X-5975579Y-16588423D01*
X-5996297Y-16582799D01*
X-6412384Y-16447604D01*
X-6432450Y-16439976D01*
X-6451672Y-16430418D01*
X-6469865Y-16419023D01*
X-6486853Y-16405899D01*
X-6502473Y-16391173D01*
X-6516574Y-16374987D01*
X-6529021Y-16357496D01*
X-6539694Y-16338870D01*
X-6548489Y-16319288D01*
X-6555323Y-16298938D01*
X-6560129Y-16278015D01*
X-6562862Y-16256723D01*
X-6563494Y-16235265D01*
X-6562020Y-16213849D01*
X-6558454Y-16192680D01*
X-6552830Y-16171963D01*
X-6394459Y-15684546D01*
X-6386831Y-15664479D01*
X-6377274Y-15645257D01*
X-6365878Y-15627065D01*
X-6352754Y-15610076D01*
X-6338028Y-15594456D01*
X-6321842Y-15580355D01*
X-6304352Y-15567908D01*
X-6285726Y-15557235D01*
X-6266143Y-15548440D01*
X-6245793Y-15541606D01*
X-6224871Y-15536800D01*
X-6203578Y-15534067D01*
X-6182120Y-15533435D01*
X-6160704Y-15534909D01*
G37*
G04 #@! TD.AperFunction*
G04 #@! TA.AperFunction,SMDPad,CuDef*
G36*
X-14239670Y-8900736D02*
G01*
X-14218328Y-8903050D01*
X-14197315Y-8907445D01*
X-14176835Y-8913878D01*
X-14157083Y-8922287D01*
X-14138251Y-8932592D01*
X-14120520Y-8944693D01*
X-14104060Y-8958474D01*
X-14089030Y-8973802D01*
X-14075576Y-8990529D01*
X-13818420Y-9344473D01*
X-13806669Y-9362438D01*
X-13796736Y-9381469D01*
X-13788716Y-9401382D01*
X-13782686Y-9421985D01*
X-13778705Y-9443079D01*
X-13776811Y-9464463D01*
X-13777021Y-9485929D01*
X-13779335Y-9507271D01*
X-13783730Y-9528283D01*
X-13790163Y-9548764D01*
X-13798572Y-9568515D01*
X-13808877Y-9587347D01*
X-13820978Y-9605079D01*
X-13834759Y-9621538D01*
X-13850087Y-9636568D01*
X-13866814Y-9650024D01*
X-14281436Y-9951264D01*
X-14299402Y-9963014D01*
X-14318432Y-9972947D01*
X-14338345Y-9980967D01*
X-14358948Y-9986997D01*
X-14380043Y-9990978D01*
X-14401426Y-9992872D01*
X-14422892Y-9992662D01*
X-14444234Y-9990348D01*
X-14465247Y-9985953D01*
X-14485727Y-9979520D01*
X-14505479Y-9971111D01*
X-14524311Y-9960806D01*
X-14542042Y-9948705D01*
X-14558502Y-9934924D01*
X-14573532Y-9919596D01*
X-14586986Y-9902869D01*
X-14844142Y-9548925D01*
X-14855893Y-9530960D01*
X-14865826Y-9511929D01*
X-14873846Y-9492016D01*
X-14879876Y-9471413D01*
X-14883857Y-9450319D01*
X-14885751Y-9428935D01*
X-14885541Y-9407469D01*
X-14883227Y-9386127D01*
X-14878832Y-9365115D01*
X-14872399Y-9344634D01*
X-14863990Y-9324883D01*
X-14853685Y-9306051D01*
X-14841584Y-9288319D01*
X-14827803Y-9271860D01*
X-14812475Y-9256830D01*
X-14795748Y-9243374D01*
X-14381126Y-8942134D01*
X-14363160Y-8930384D01*
X-14344130Y-8920451D01*
X-14324217Y-8912431D01*
X-14303614Y-8906401D01*
X-14282519Y-8902420D01*
X-14261136Y-8900526D01*
X-14239670Y-8900736D01*
G37*
G04 #@! TD.AperFunction*
G04 #@! TA.AperFunction,SMDPad,CuDef*
G36*
X-13313908Y-10174938D02*
G01*
X-13292566Y-10177252D01*
X-13271553Y-10181647D01*
X-13251073Y-10188080D01*
X-13231321Y-10196489D01*
X-13212489Y-10206794D01*
X-13194758Y-10218895D01*
X-13178298Y-10232676D01*
X-13163268Y-10248004D01*
X-13149814Y-10264731D01*
X-12892658Y-10618675D01*
X-12880907Y-10636640D01*
X-12870974Y-10655671D01*
X-12862954Y-10675584D01*
X-12856924Y-10696187D01*
X-12852943Y-10717281D01*
X-12851049Y-10738665D01*
X-12851259Y-10760131D01*
X-12853573Y-10781473D01*
X-12857968Y-10802485D01*
X-12864401Y-10822966D01*
X-12872810Y-10842717D01*
X-12883115Y-10861549D01*
X-12895216Y-10879281D01*
X-12908997Y-10895740D01*
X-12924325Y-10910770D01*
X-12941052Y-10924226D01*
X-13355674Y-11225466D01*
X-13373640Y-11237216D01*
X-13392670Y-11247149D01*
X-13412583Y-11255169D01*
X-13433186Y-11261199D01*
X-13454281Y-11265180D01*
X-13475664Y-11267074D01*
X-13497130Y-11266864D01*
X-13518472Y-11264550D01*
X-13539485Y-11260155D01*
X-13559965Y-11253722D01*
X-13579717Y-11245313D01*
X-13598549Y-11235008D01*
X-13616280Y-11222907D01*
X-13632740Y-11209126D01*
X-13647770Y-11193798D01*
X-13661224Y-11177071D01*
X-13918380Y-10823127D01*
X-13930131Y-10805162D01*
X-13940064Y-10786131D01*
X-13948084Y-10766218D01*
X-13954114Y-10745615D01*
X-13958095Y-10724521D01*
X-13959989Y-10703137D01*
X-13959779Y-10681671D01*
X-13957465Y-10660329D01*
X-13953070Y-10639317D01*
X-13946637Y-10618836D01*
X-13938228Y-10599085D01*
X-13927923Y-10580253D01*
X-13915822Y-10562521D01*
X-13902041Y-10546062D01*
X-13886713Y-10531032D01*
X-13869986Y-10517576D01*
X-13455364Y-10216336D01*
X-13437398Y-10204586D01*
X-13418368Y-10194653D01*
X-13398455Y-10186633D01*
X-13377852Y-10180603D01*
X-13356757Y-10176622D01*
X-13335374Y-10174728D01*
X-13313908Y-10174938D01*
G37*
G04 #@! TD.AperFunction*
G04 #@! TA.AperFunction,SMDPad,CuDef*
G36*
X-16867309Y-351053D02*
G01*
X-16846074Y-354203D01*
X-16825250Y-359419D01*
X-16805038Y-366651D01*
X-16785632Y-375830D01*
X-16767219Y-386866D01*
X-16749976Y-399654D01*
X-16734070Y-414070D01*
X-16719654Y-429976D01*
X-16706866Y-447219D01*
X-16695830Y-465632D01*
X-16686651Y-485038D01*
X-16679419Y-505250D01*
X-16674203Y-526074D01*
X-16671053Y-547309D01*
X-16670000Y-568750D01*
X-16670000Y-1006250D01*
X-16671053Y-1027691D01*
X-16674203Y-1048926D01*
X-16679419Y-1069750D01*
X-16686651Y-1089962D01*
X-16695830Y-1109368D01*
X-16706866Y-1127781D01*
X-16719654Y-1145024D01*
X-16734070Y-1160930D01*
X-16749976Y-1175346D01*
X-16767219Y-1188134D01*
X-16785632Y-1199170D01*
X-16805038Y-1208349D01*
X-16825250Y-1215581D01*
X-16846074Y-1220797D01*
X-16867309Y-1223947D01*
X-16888750Y-1225000D01*
X-17401250Y-1225000D01*
X-17422691Y-1223947D01*
X-17443926Y-1220797D01*
X-17464750Y-1215581D01*
X-17484962Y-1208349D01*
X-17504368Y-1199170D01*
X-17522781Y-1188134D01*
X-17540024Y-1175346D01*
X-17555930Y-1160930D01*
X-17570346Y-1145024D01*
X-17583134Y-1127781D01*
X-17594170Y-1109368D01*
X-17603349Y-1089962D01*
X-17610581Y-1069750D01*
X-17615797Y-1048926D01*
X-17618947Y-1027691D01*
X-17620000Y-1006250D01*
X-17620000Y-568750D01*
X-17618947Y-547309D01*
X-17615797Y-526074D01*
X-17610581Y-505250D01*
X-17603349Y-485038D01*
X-17594170Y-465632D01*
X-17583134Y-447219D01*
X-17570346Y-429976D01*
X-17555930Y-414070D01*
X-17540024Y-399654D01*
X-17522781Y-386866D01*
X-17504368Y-375830D01*
X-17484962Y-366651D01*
X-17464750Y-359419D01*
X-17443926Y-354203D01*
X-17422691Y-351053D01*
X-17401250Y-350000D01*
X-16888750Y-350000D01*
X-16867309Y-351053D01*
G37*
G04 #@! TD.AperFunction*
G04 #@! TA.AperFunction,SMDPad,CuDef*
G36*
X-16867309Y1223947D02*
G01*
X-16846074Y1220797D01*
X-16825250Y1215581D01*
X-16805038Y1208349D01*
X-16785632Y1199170D01*
X-16767219Y1188134D01*
X-16749976Y1175346D01*
X-16734070Y1160930D01*
X-16719654Y1145024D01*
X-16706866Y1127781D01*
X-16695830Y1109368D01*
X-16686651Y1089962D01*
X-16679419Y1069750D01*
X-16674203Y1048926D01*
X-16671053Y1027691D01*
X-16670000Y1006250D01*
X-16670000Y568750D01*
X-16671053Y547309D01*
X-16674203Y526074D01*
X-16679419Y505250D01*
X-16686651Y485038D01*
X-16695830Y465632D01*
X-16706866Y447219D01*
X-16719654Y429976D01*
X-16734070Y414070D01*
X-16749976Y399654D01*
X-16767219Y386866D01*
X-16785632Y375830D01*
X-16805038Y366651D01*
X-16825250Y359419D01*
X-16846074Y354203D01*
X-16867309Y351053D01*
X-16888750Y350000D01*
X-17401250Y350000D01*
X-17422691Y351053D01*
X-17443926Y354203D01*
X-17464750Y359419D01*
X-17484962Y366651D01*
X-17504368Y375830D01*
X-17522781Y386866D01*
X-17540024Y399654D01*
X-17555930Y414070D01*
X-17570346Y429976D01*
X-17583134Y447219D01*
X-17594170Y465632D01*
X-17603349Y485038D01*
X-17610581Y505250D01*
X-17615797Y526074D01*
X-17618947Y547309D01*
X-17620000Y568750D01*
X-17620000Y1006250D01*
X-17618947Y1027691D01*
X-17615797Y1048926D01*
X-17610581Y1069750D01*
X-17603349Y1089962D01*
X-17594170Y1109368D01*
X-17583134Y1127781D01*
X-17570346Y1145024D01*
X-17555930Y1160930D01*
X-17540024Y1175346D01*
X-17522781Y1188134D01*
X-17504368Y1199170D01*
X-17484962Y1208349D01*
X-17464750Y1215581D01*
X-17443926Y1220797D01*
X-17422691Y1223947D01*
X-17401250Y1225000D01*
X-16888750Y1225000D01*
X-16867309Y1223947D01*
G37*
G04 #@! TD.AperFunction*
G04 #@! TA.AperFunction,SMDPad,CuDef*
G36*
X-13454280Y11265180D02*
G01*
X-13433186Y11261199D01*
X-13412583Y11255169D01*
X-13392670Y11247149D01*
X-13373639Y11237216D01*
X-13355674Y11225466D01*
X-12941052Y10924226D01*
X-12924325Y10910771D01*
X-12908997Y10895741D01*
X-12895216Y10879281D01*
X-12883115Y10861550D01*
X-12872810Y10842718D01*
X-12864401Y10822966D01*
X-12857968Y10802486D01*
X-12853573Y10781473D01*
X-12851259Y10760131D01*
X-12851049Y10738665D01*
X-12852943Y10717282D01*
X-12856924Y10696187D01*
X-12862954Y10675584D01*
X-12870974Y10655671D01*
X-12880907Y10636641D01*
X-12892658Y10618675D01*
X-13149814Y10264731D01*
X-13163269Y10248004D01*
X-13178299Y10232676D01*
X-13194758Y10218895D01*
X-13212490Y10206794D01*
X-13231322Y10196489D01*
X-13251073Y10188080D01*
X-13271554Y10181647D01*
X-13292566Y10177252D01*
X-13313908Y10174938D01*
X-13335374Y10174728D01*
X-13356758Y10176622D01*
X-13377852Y10180603D01*
X-13398455Y10186633D01*
X-13418368Y10194653D01*
X-13437399Y10204586D01*
X-13455364Y10216336D01*
X-13869986Y10517576D01*
X-13886713Y10531031D01*
X-13902041Y10546061D01*
X-13915822Y10562521D01*
X-13927923Y10580252D01*
X-13938228Y10599084D01*
X-13946637Y10618836D01*
X-13953070Y10639316D01*
X-13957465Y10660329D01*
X-13959779Y10681671D01*
X-13959989Y10703137D01*
X-13958095Y10724520D01*
X-13954114Y10745615D01*
X-13948084Y10766218D01*
X-13940064Y10786131D01*
X-13930131Y10805161D01*
X-13918380Y10823127D01*
X-13661224Y11177071D01*
X-13647769Y11193798D01*
X-13632739Y11209126D01*
X-13616280Y11222907D01*
X-13598548Y11235008D01*
X-13579716Y11245313D01*
X-13559965Y11253722D01*
X-13539484Y11260155D01*
X-13518472Y11264550D01*
X-13497130Y11266864D01*
X-13475664Y11267074D01*
X-13454280Y11265180D01*
G37*
G04 #@! TD.AperFunction*
G04 #@! TA.AperFunction,SMDPad,CuDef*
G36*
X-14380042Y9990978D02*
G01*
X-14358948Y9986997D01*
X-14338345Y9980967D01*
X-14318432Y9972947D01*
X-14299401Y9963014D01*
X-14281436Y9951264D01*
X-13866814Y9650024D01*
X-13850087Y9636569D01*
X-13834759Y9621539D01*
X-13820978Y9605079D01*
X-13808877Y9587348D01*
X-13798572Y9568516D01*
X-13790163Y9548764D01*
X-13783730Y9528284D01*
X-13779335Y9507271D01*
X-13777021Y9485929D01*
X-13776811Y9464463D01*
X-13778705Y9443080D01*
X-13782686Y9421985D01*
X-13788716Y9401382D01*
X-13796736Y9381469D01*
X-13806669Y9362439D01*
X-13818420Y9344473D01*
X-14075576Y8990529D01*
X-14089031Y8973802D01*
X-14104061Y8958474D01*
X-14120520Y8944693D01*
X-14138252Y8932592D01*
X-14157084Y8922287D01*
X-14176835Y8913878D01*
X-14197316Y8907445D01*
X-14218328Y8903050D01*
X-14239670Y8900736D01*
X-14261136Y8900526D01*
X-14282520Y8902420D01*
X-14303614Y8906401D01*
X-14324217Y8912431D01*
X-14344130Y8920451D01*
X-14363161Y8930384D01*
X-14381126Y8942134D01*
X-14795748Y9243374D01*
X-14812475Y9256829D01*
X-14827803Y9271859D01*
X-14841584Y9288319D01*
X-14853685Y9306050D01*
X-14863990Y9324882D01*
X-14872399Y9344634D01*
X-14878832Y9365114D01*
X-14883227Y9386127D01*
X-14885541Y9407469D01*
X-14885751Y9428935D01*
X-14883857Y9450318D01*
X-14879876Y9471413D01*
X-14873846Y9492016D01*
X-14865826Y9511929D01*
X-14855893Y9530959D01*
X-14844142Y9548925D01*
X-14586986Y9902869D01*
X-14573531Y9919596D01*
X-14558501Y9934924D01*
X-14542042Y9948705D01*
X-14524310Y9960806D01*
X-14505478Y9971111D01*
X-14485727Y9979520D01*
X-14465246Y9985953D01*
X-14444234Y9990348D01*
X-14422892Y9992662D01*
X-14401426Y9992872D01*
X-14380042Y9990978D01*
G37*
G04 #@! TD.AperFunction*
G04 #@! TA.AperFunction,SMDPad,CuDef*
G36*
X-5911536Y16592831D02*
G01*
X-5890244Y16590098D01*
X-5869321Y16585292D01*
X-5848971Y16578458D01*
X-5829389Y16569663D01*
X-5810763Y16558990D01*
X-5793272Y16546543D01*
X-5777086Y16532442D01*
X-5762360Y16516822D01*
X-5749236Y16499834D01*
X-5737841Y16481641D01*
X-5728283Y16462419D01*
X-5720655Y16442352D01*
X-5562284Y15954935D01*
X-5556660Y15934218D01*
X-5553094Y15913049D01*
X-5551620Y15891633D01*
X-5552252Y15870175D01*
X-5554985Y15848882D01*
X-5559791Y15827960D01*
X-5566625Y15807610D01*
X-5575420Y15788027D01*
X-5586093Y15769401D01*
X-5598540Y15751911D01*
X-5612641Y15735725D01*
X-5628261Y15720999D01*
X-5645250Y15707875D01*
X-5663442Y15696479D01*
X-5682664Y15686922D01*
X-5702730Y15679294D01*
X-6118817Y15544099D01*
X-6139535Y15538475D01*
X-6160704Y15534909D01*
X-6182120Y15533435D01*
X-6203578Y15534067D01*
X-6224870Y15536800D01*
X-6245793Y15541606D01*
X-6266143Y15548440D01*
X-6285725Y15557235D01*
X-6304351Y15567908D01*
X-6321842Y15580355D01*
X-6338028Y15594456D01*
X-6352754Y15610076D01*
X-6365878Y15627064D01*
X-6377273Y15645257D01*
X-6386831Y15664479D01*
X-6394459Y15684546D01*
X-6552830Y16171963D01*
X-6558454Y16192680D01*
X-6562020Y16213849D01*
X-6563494Y16235265D01*
X-6562862Y16256723D01*
X-6560129Y16278016D01*
X-6555323Y16298938D01*
X-6548489Y16319288D01*
X-6539694Y16338871D01*
X-6529021Y16357497D01*
X-6516574Y16374987D01*
X-6502473Y16391173D01*
X-6486853Y16405899D01*
X-6469864Y16419023D01*
X-6451672Y16430419D01*
X-6432450Y16439976D01*
X-6412384Y16447604D01*
X-5996297Y16582799D01*
X-5975579Y16588423D01*
X-5954410Y16591989D01*
X-5932994Y16593463D01*
X-5911536Y16592831D01*
G37*
G04 #@! TD.AperFunction*
G04 #@! TA.AperFunction,SMDPad,CuDef*
G36*
X-4413622Y17079533D02*
G01*
X-4392330Y17076800D01*
X-4371407Y17071994D01*
X-4351057Y17065160D01*
X-4331475Y17056365D01*
X-4312849Y17045692D01*
X-4295358Y17033245D01*
X-4279172Y17019144D01*
X-4264446Y17003524D01*
X-4251322Y16986536D01*
X-4239927Y16968343D01*
X-4230369Y16949121D01*
X-4222741Y16929054D01*
X-4064370Y16441637D01*
X-4058746Y16420920D01*
X-4055180Y16399751D01*
X-4053706Y16378335D01*
X-4054338Y16356877D01*
X-4057071Y16335584D01*
X-4061877Y16314662D01*
X-4068711Y16294312D01*
X-4077506Y16274729D01*
X-4088179Y16256103D01*
X-4100626Y16238613D01*
X-4114727Y16222427D01*
X-4130347Y16207701D01*
X-4147336Y16194577D01*
X-4165528Y16183181D01*
X-4184750Y16173624D01*
X-4204816Y16165996D01*
X-4620903Y16030801D01*
X-4641621Y16025177D01*
X-4662790Y16021611D01*
X-4684206Y16020137D01*
X-4705664Y16020769D01*
X-4726956Y16023502D01*
X-4747879Y16028308D01*
X-4768229Y16035142D01*
X-4787811Y16043937D01*
X-4806437Y16054610D01*
X-4823928Y16067057D01*
X-4840114Y16081158D01*
X-4854840Y16096778D01*
X-4867964Y16113766D01*
X-4879359Y16131959D01*
X-4888917Y16151181D01*
X-4896545Y16171248D01*
X-5054916Y16658665D01*
X-5060540Y16679382D01*
X-5064106Y16700551D01*
X-5065580Y16721967D01*
X-5064948Y16743425D01*
X-5062215Y16764718D01*
X-5057409Y16785640D01*
X-5050575Y16805990D01*
X-5041780Y16825573D01*
X-5031107Y16844199D01*
X-5018660Y16861689D01*
X-5004559Y16877875D01*
X-4988939Y16892601D01*
X-4971950Y16905725D01*
X-4953758Y16917121D01*
X-4934536Y16926678D01*
X-4914470Y16934306D01*
X-4498383Y17069501D01*
X-4477665Y17075125D01*
X-4456496Y17078691D01*
X-4435080Y17080165D01*
X-4413622Y17079533D01*
G37*
G04 #@! TD.AperFunction*
G04 #@! TA.AperFunction,SMDPad,CuDef*
G36*
X-3087309Y-5876053D02*
G01*
X-3066074Y-5879203D01*
X-3045250Y-5884419D01*
X-3025038Y-5891651D01*
X-3005632Y-5900830D01*
X-2987219Y-5911866D01*
X-2969976Y-5924654D01*
X-2954070Y-5939070D01*
X-2939654Y-5954976D01*
X-2926866Y-5972219D01*
X-2915830Y-5990632D01*
X-2906651Y-6010038D01*
X-2899419Y-6030250D01*
X-2894203Y-6051074D01*
X-2891053Y-6072309D01*
X-2890000Y-6093750D01*
X-2890000Y-6606250D01*
X-2891053Y-6627691D01*
X-2894203Y-6648926D01*
X-2899419Y-6669750D01*
X-2906651Y-6689962D01*
X-2915830Y-6709368D01*
X-2926866Y-6727781D01*
X-2939654Y-6745024D01*
X-2954070Y-6760930D01*
X-2969976Y-6775346D01*
X-2987219Y-6788134D01*
X-3005632Y-6799170D01*
X-3025038Y-6808349D01*
X-3045250Y-6815581D01*
X-3066074Y-6820797D01*
X-3087309Y-6823947D01*
X-3108750Y-6825000D01*
X-3546250Y-6825000D01*
X-3567691Y-6823947D01*
X-3588926Y-6820797D01*
X-3609750Y-6815581D01*
X-3629962Y-6808349D01*
X-3649368Y-6799170D01*
X-3667781Y-6788134D01*
X-3685024Y-6775346D01*
X-3700930Y-6760930D01*
X-3715346Y-6745024D01*
X-3728134Y-6727781D01*
X-3739170Y-6709368D01*
X-3748349Y-6689962D01*
X-3755581Y-6669750D01*
X-3760797Y-6648926D01*
X-3763947Y-6627691D01*
X-3765000Y-6606250D01*
X-3765000Y-6093750D01*
X-3763947Y-6072309D01*
X-3760797Y-6051074D01*
X-3755581Y-6030250D01*
X-3748349Y-6010038D01*
X-3739170Y-5990632D01*
X-3728134Y-5972219D01*
X-3715346Y-5954976D01*
X-3700930Y-5939070D01*
X-3685024Y-5924654D01*
X-3667781Y-5911866D01*
X-3649368Y-5900830D01*
X-3629962Y-5891651D01*
X-3609750Y-5884419D01*
X-3588926Y-5879203D01*
X-3567691Y-5876053D01*
X-3546250Y-5875000D01*
X-3108750Y-5875000D01*
X-3087309Y-5876053D01*
G37*
G04 #@! TD.AperFunction*
G04 #@! TA.AperFunction,SMDPad,CuDef*
G36*
X-1512309Y-5876053D02*
G01*
X-1491074Y-5879203D01*
X-1470250Y-5884419D01*
X-1450038Y-5891651D01*
X-1430632Y-5900830D01*
X-1412219Y-5911866D01*
X-1394976Y-5924654D01*
X-1379070Y-5939070D01*
X-1364654Y-5954976D01*
X-1351866Y-5972219D01*
X-1340830Y-5990632D01*
X-1331651Y-6010038D01*
X-1324419Y-6030250D01*
X-1319203Y-6051074D01*
X-1316053Y-6072309D01*
X-1315000Y-6093750D01*
X-1315000Y-6606250D01*
X-1316053Y-6627691D01*
X-1319203Y-6648926D01*
X-1324419Y-6669750D01*
X-1331651Y-6689962D01*
X-1340830Y-6709368D01*
X-1351866Y-6727781D01*
X-1364654Y-6745024D01*
X-1379070Y-6760930D01*
X-1394976Y-6775346D01*
X-1412219Y-6788134D01*
X-1430632Y-6799170D01*
X-1450038Y-6808349D01*
X-1470250Y-6815581D01*
X-1491074Y-6820797D01*
X-1512309Y-6823947D01*
X-1533750Y-6825000D01*
X-1971250Y-6825000D01*
X-1992691Y-6823947D01*
X-2013926Y-6820797D01*
X-2034750Y-6815581D01*
X-2054962Y-6808349D01*
X-2074368Y-6799170D01*
X-2092781Y-6788134D01*
X-2110024Y-6775346D01*
X-2125930Y-6760930D01*
X-2140346Y-6745024D01*
X-2153134Y-6727781D01*
X-2164170Y-6709368D01*
X-2173349Y-6689962D01*
X-2180581Y-6669750D01*
X-2185797Y-6648926D01*
X-2188947Y-6627691D01*
X-2190000Y-6606250D01*
X-2190000Y-6093750D01*
X-2188947Y-6072309D01*
X-2185797Y-6051074D01*
X-2180581Y-6030250D01*
X-2173349Y-6010038D01*
X-2164170Y-5990632D01*
X-2153134Y-5972219D01*
X-2140346Y-5954976D01*
X-2125930Y-5939070D01*
X-2110024Y-5924654D01*
X-2092781Y-5911866D01*
X-2074368Y-5900830D01*
X-2054962Y-5891651D01*
X-2034750Y-5884419D01*
X-2013926Y-5879203D01*
X-1992691Y-5876053D01*
X-1971250Y-5875000D01*
X-1533750Y-5875000D01*
X-1512309Y-5876053D01*
G37*
G04 #@! TD.AperFunction*
G04 #@! TA.AperFunction,SMDPad,CuDef*
G36*
X277691Y-11781053D02*
G01*
X298926Y-11784203D01*
X319750Y-11789419D01*
X339962Y-11796651D01*
X359368Y-11805830D01*
X377781Y-11816866D01*
X395024Y-11829654D01*
X410930Y-11844070D01*
X425346Y-11859976D01*
X438134Y-11877219D01*
X449170Y-11895632D01*
X458349Y-11915038D01*
X465581Y-11935250D01*
X470797Y-11956074D01*
X473947Y-11977309D01*
X475000Y-11998750D01*
X475000Y-12436250D01*
X473947Y-12457691D01*
X470797Y-12478926D01*
X465581Y-12499750D01*
X458349Y-12519962D01*
X449170Y-12539368D01*
X438134Y-12557781D01*
X425346Y-12575024D01*
X410930Y-12590930D01*
X395024Y-12605346D01*
X377781Y-12618134D01*
X359368Y-12629170D01*
X339962Y-12638349D01*
X319750Y-12645581D01*
X298926Y-12650797D01*
X277691Y-12653947D01*
X256250Y-12655000D01*
X-256250Y-12655000D01*
X-277691Y-12653947D01*
X-298926Y-12650797D01*
X-319750Y-12645581D01*
X-339962Y-12638349D01*
X-359368Y-12629170D01*
X-377781Y-12618134D01*
X-395024Y-12605346D01*
X-410930Y-12590930D01*
X-425346Y-12575024D01*
X-438134Y-12557781D01*
X-449170Y-12539368D01*
X-458349Y-12519962D01*
X-465581Y-12499750D01*
X-470797Y-12478926D01*
X-473947Y-12457691D01*
X-475000Y-12436250D01*
X-475000Y-11998750D01*
X-473947Y-11977309D01*
X-470797Y-11956074D01*
X-465581Y-11935250D01*
X-458349Y-11915038D01*
X-449170Y-11895632D01*
X-438134Y-11877219D01*
X-425346Y-11859976D01*
X-410930Y-11844070D01*
X-395024Y-11829654D01*
X-377781Y-11816866D01*
X-359368Y-11805830D01*
X-339962Y-11796651D01*
X-319750Y-11789419D01*
X-298926Y-11784203D01*
X-277691Y-11781053D01*
X-256250Y-11780000D01*
X256250Y-11780000D01*
X277691Y-11781053D01*
G37*
G04 #@! TD.AperFunction*
G04 #@! TA.AperFunction,SMDPad,CuDef*
G36*
X277691Y-10206053D02*
G01*
X298926Y-10209203D01*
X319750Y-10214419D01*
X339962Y-10221651D01*
X359368Y-10230830D01*
X377781Y-10241866D01*
X395024Y-10254654D01*
X410930Y-10269070D01*
X425346Y-10284976D01*
X438134Y-10302219D01*
X449170Y-10320632D01*
X458349Y-10340038D01*
X465581Y-10360250D01*
X470797Y-10381074D01*
X473947Y-10402309D01*
X475000Y-10423750D01*
X475000Y-10861250D01*
X473947Y-10882691D01*
X470797Y-10903926D01*
X465581Y-10924750D01*
X458349Y-10944962D01*
X449170Y-10964368D01*
X438134Y-10982781D01*
X425346Y-11000024D01*
X410930Y-11015930D01*
X395024Y-11030346D01*
X377781Y-11043134D01*
X359368Y-11054170D01*
X339962Y-11063349D01*
X319750Y-11070581D01*
X298926Y-11075797D01*
X277691Y-11078947D01*
X256250Y-11080000D01*
X-256250Y-11080000D01*
X-277691Y-11078947D01*
X-298926Y-11075797D01*
X-319750Y-11070581D01*
X-339962Y-11063349D01*
X-359368Y-11054170D01*
X-377781Y-11043134D01*
X-395024Y-11030346D01*
X-410930Y-11015930D01*
X-425346Y-11000024D01*
X-438134Y-10982781D01*
X-449170Y-10964368D01*
X-458349Y-10944962D01*
X-465581Y-10924750D01*
X-470797Y-10903926D01*
X-473947Y-10882691D01*
X-475000Y-10861250D01*
X-475000Y-10423750D01*
X-473947Y-10402309D01*
X-470797Y-10381074D01*
X-465581Y-10360250D01*
X-458349Y-10340038D01*
X-449170Y-10320632D01*
X-438134Y-10302219D01*
X-425346Y-10284976D01*
X-410930Y-10269070D01*
X-395024Y-10254654D01*
X-377781Y-10241866D01*
X-359368Y-10230830D01*
X-339962Y-10221651D01*
X-319750Y-10214419D01*
X-298926Y-10209203D01*
X-277691Y-10206053D01*
X-256250Y-10205000D01*
X256250Y-10205000D01*
X277691Y-10206053D01*
G37*
G04 #@! TD.AperFunction*
G04 #@! TA.AperFunction,SMDPad,CuDef*
G36*
X277691Y-7031053D02*
G01*
X298926Y-7034203D01*
X319750Y-7039419D01*
X339962Y-7046651D01*
X359368Y-7055830D01*
X377781Y-7066866D01*
X395024Y-7079654D01*
X410930Y-7094070D01*
X425346Y-7109976D01*
X438134Y-7127219D01*
X449170Y-7145632D01*
X458349Y-7165038D01*
X465581Y-7185250D01*
X470797Y-7206074D01*
X473947Y-7227309D01*
X475000Y-7248750D01*
X475000Y-7686250D01*
X473947Y-7707691D01*
X470797Y-7728926D01*
X465581Y-7749750D01*
X458349Y-7769962D01*
X449170Y-7789368D01*
X438134Y-7807781D01*
X425346Y-7825024D01*
X410930Y-7840930D01*
X395024Y-7855346D01*
X377781Y-7868134D01*
X359368Y-7879170D01*
X339962Y-7888349D01*
X319750Y-7895581D01*
X298926Y-7900797D01*
X277691Y-7903947D01*
X256250Y-7905000D01*
X-256250Y-7905000D01*
X-277691Y-7903947D01*
X-298926Y-7900797D01*
X-319750Y-7895581D01*
X-339962Y-7888349D01*
X-359368Y-7879170D01*
X-377781Y-7868134D01*
X-395024Y-7855346D01*
X-410930Y-7840930D01*
X-425346Y-7825024D01*
X-438134Y-7807781D01*
X-449170Y-7789368D01*
X-458349Y-7769962D01*
X-465581Y-7749750D01*
X-470797Y-7728926D01*
X-473947Y-7707691D01*
X-475000Y-7686250D01*
X-475000Y-7248750D01*
X-473947Y-7227309D01*
X-470797Y-7206074D01*
X-465581Y-7185250D01*
X-458349Y-7165038D01*
X-449170Y-7145632D01*
X-438134Y-7127219D01*
X-425346Y-7109976D01*
X-410930Y-7094070D01*
X-395024Y-7079654D01*
X-377781Y-7066866D01*
X-359368Y-7055830D01*
X-339962Y-7046651D01*
X-319750Y-7039419D01*
X-298926Y-7034203D01*
X-277691Y-7031053D01*
X-256250Y-7030000D01*
X256250Y-7030000D01*
X277691Y-7031053D01*
G37*
G04 #@! TD.AperFunction*
G04 #@! TA.AperFunction,SMDPad,CuDef*
G36*
X277691Y-8606053D02*
G01*
X298926Y-8609203D01*
X319750Y-8614419D01*
X339962Y-8621651D01*
X359368Y-8630830D01*
X377781Y-8641866D01*
X395024Y-8654654D01*
X410930Y-8669070D01*
X425346Y-8684976D01*
X438134Y-8702219D01*
X449170Y-8720632D01*
X458349Y-8740038D01*
X465581Y-8760250D01*
X470797Y-8781074D01*
X473947Y-8802309D01*
X475000Y-8823750D01*
X475000Y-9261250D01*
X473947Y-9282691D01*
X470797Y-9303926D01*
X465581Y-9324750D01*
X458349Y-9344962D01*
X449170Y-9364368D01*
X438134Y-9382781D01*
X425346Y-9400024D01*
X410930Y-9415930D01*
X395024Y-9430346D01*
X377781Y-9443134D01*
X359368Y-9454170D01*
X339962Y-9463349D01*
X319750Y-9470581D01*
X298926Y-9475797D01*
X277691Y-9478947D01*
X256250Y-9480000D01*
X-256250Y-9480000D01*
X-277691Y-9478947D01*
X-298926Y-9475797D01*
X-319750Y-9470581D01*
X-339962Y-9463349D01*
X-359368Y-9454170D01*
X-377781Y-9443134D01*
X-395024Y-9430346D01*
X-410930Y-9415930D01*
X-425346Y-9400024D01*
X-438134Y-9382781D01*
X-449170Y-9364368D01*
X-458349Y-9344962D01*
X-465581Y-9324750D01*
X-470797Y-9303926D01*
X-473947Y-9282691D01*
X-475000Y-9261250D01*
X-475000Y-8823750D01*
X-473947Y-8802309D01*
X-470797Y-8781074D01*
X-465581Y-8760250D01*
X-458349Y-8740038D01*
X-449170Y-8720632D01*
X-438134Y-8702219D01*
X-425346Y-8684976D01*
X-410930Y-8669070D01*
X-395024Y-8654654D01*
X-377781Y-8641866D01*
X-359368Y-8630830D01*
X-339962Y-8621651D01*
X-319750Y-8614419D01*
X-298926Y-8609203D01*
X-277691Y-8606053D01*
X-256250Y-8605000D01*
X256250Y-8605000D01*
X277691Y-8606053D01*
G37*
G04 #@! TD.AperFunction*
G04 #@! TA.AperFunction,SMDPad,CuDef*
G36*
X-1765297Y-11765722D02*
G01*
X-1750736Y-11767882D01*
X-1736457Y-11771459D01*
X-1722597Y-11776418D01*
X-1709290Y-11782712D01*
X-1696664Y-11790280D01*
X-1684841Y-11799048D01*
X-1673934Y-11808934D01*
X-1664048Y-11819841D01*
X-1655280Y-11831664D01*
X-1647712Y-11844290D01*
X-1641418Y-11857597D01*
X-1636459Y-11871457D01*
X-1632882Y-11885736D01*
X-1630722Y-11900297D01*
X-1630000Y-11915000D01*
X-1630000Y-12215000D01*
X-1630722Y-12229703D01*
X-1632882Y-12244264D01*
X-1636459Y-12258543D01*
X-1641418Y-12272403D01*
X-1647712Y-12285710D01*
X-1655280Y-12298336D01*
X-1664048Y-12310159D01*
X-1673934Y-12321066D01*
X-1684841Y-12330952D01*
X-1696664Y-12339720D01*
X-1709290Y-12347288D01*
X-1722597Y-12353582D01*
X-1736457Y-12358541D01*
X-1750736Y-12362118D01*
X-1765297Y-12364278D01*
X-1780000Y-12365000D01*
X-3430000Y-12365000D01*
X-3444703Y-12364278D01*
X-3459264Y-12362118D01*
X-3473543Y-12358541D01*
X-3487403Y-12353582D01*
X-3500710Y-12347288D01*
X-3513336Y-12339720D01*
X-3525159Y-12330952D01*
X-3536066Y-12321066D01*
X-3545952Y-12310159D01*
X-3554720Y-12298336D01*
X-3562288Y-12285710D01*
X-3568582Y-12272403D01*
X-3573541Y-12258543D01*
X-3577118Y-12244264D01*
X-3579278Y-12229703D01*
X-3580000Y-12215000D01*
X-3580000Y-11915000D01*
X-3579278Y-11900297D01*
X-3577118Y-11885736D01*
X-3573541Y-11871457D01*
X-3568582Y-11857597D01*
X-3562288Y-11844290D01*
X-3554720Y-11831664D01*
X-3545952Y-11819841D01*
X-3536066Y-11808934D01*
X-3525159Y-11799048D01*
X-3513336Y-11790280D01*
X-3500710Y-11782712D01*
X-3487403Y-11776418D01*
X-3473543Y-11771459D01*
X-3459264Y-11767882D01*
X-3444703Y-11765722D01*
X-3430000Y-11765000D01*
X-1780000Y-11765000D01*
X-1765297Y-11765722D01*
G37*
G04 #@! TD.AperFunction*
G04 #@! TA.AperFunction,SMDPad,CuDef*
G36*
X-1765297Y-10495722D02*
G01*
X-1750736Y-10497882D01*
X-1736457Y-10501459D01*
X-1722597Y-10506418D01*
X-1709290Y-10512712D01*
X-1696664Y-10520280D01*
X-1684841Y-10529048D01*
X-1673934Y-10538934D01*
X-1664048Y-10549841D01*
X-1655280Y-10561664D01*
X-1647712Y-10574290D01*
X-1641418Y-10587597D01*
X-1636459Y-10601457D01*
X-1632882Y-10615736D01*
X-1630722Y-10630297D01*
X-1630000Y-10645000D01*
X-1630000Y-10945000D01*
X-1630722Y-10959703D01*
X-1632882Y-10974264D01*
X-1636459Y-10988543D01*
X-1641418Y-11002403D01*
X-1647712Y-11015710D01*
X-1655280Y-11028336D01*
X-1664048Y-11040159D01*
X-1673934Y-11051066D01*
X-1684841Y-11060952D01*
X-1696664Y-11069720D01*
X-1709290Y-11077288D01*
X-1722597Y-11083582D01*
X-1736457Y-11088541D01*
X-1750736Y-11092118D01*
X-1765297Y-11094278D01*
X-1780000Y-11095000D01*
X-3430000Y-11095000D01*
X-3444703Y-11094278D01*
X-3459264Y-11092118D01*
X-3473543Y-11088541D01*
X-3487403Y-11083582D01*
X-3500710Y-11077288D01*
X-3513336Y-11069720D01*
X-3525159Y-11060952D01*
X-3536066Y-11051066D01*
X-3545952Y-11040159D01*
X-3554720Y-11028336D01*
X-3562288Y-11015710D01*
X-3568582Y-11002403D01*
X-3573541Y-10988543D01*
X-3577118Y-10974264D01*
X-3579278Y-10959703D01*
X-3580000Y-10945000D01*
X-3580000Y-10645000D01*
X-3579278Y-10630297D01*
X-3577118Y-10615736D01*
X-3573541Y-10601457D01*
X-3568582Y-10587597D01*
X-3562288Y-10574290D01*
X-3554720Y-10561664D01*
X-3545952Y-10549841D01*
X-3536066Y-10538934D01*
X-3525159Y-10529048D01*
X-3513336Y-10520280D01*
X-3500710Y-10512712D01*
X-3487403Y-10506418D01*
X-3473543Y-10501459D01*
X-3459264Y-10497882D01*
X-3444703Y-10495722D01*
X-3430000Y-10495000D01*
X-1780000Y-10495000D01*
X-1765297Y-10495722D01*
G37*
G04 #@! TD.AperFunction*
G04 #@! TA.AperFunction,SMDPad,CuDef*
G36*
X-1765297Y-9225722D02*
G01*
X-1750736Y-9227882D01*
X-1736457Y-9231459D01*
X-1722597Y-9236418D01*
X-1709290Y-9242712D01*
X-1696664Y-9250280D01*
X-1684841Y-9259048D01*
X-1673934Y-9268934D01*
X-1664048Y-9279841D01*
X-1655280Y-9291664D01*
X-1647712Y-9304290D01*
X-1641418Y-9317597D01*
X-1636459Y-9331457D01*
X-1632882Y-9345736D01*
X-1630722Y-9360297D01*
X-1630000Y-9375000D01*
X-1630000Y-9675000D01*
X-1630722Y-9689703D01*
X-1632882Y-9704264D01*
X-1636459Y-9718543D01*
X-1641418Y-9732403D01*
X-1647712Y-9745710D01*
X-1655280Y-9758336D01*
X-1664048Y-9770159D01*
X-1673934Y-9781066D01*
X-1684841Y-9790952D01*
X-1696664Y-9799720D01*
X-1709290Y-9807288D01*
X-1722597Y-9813582D01*
X-1736457Y-9818541D01*
X-1750736Y-9822118D01*
X-1765297Y-9824278D01*
X-1780000Y-9825000D01*
X-3430000Y-9825000D01*
X-3444703Y-9824278D01*
X-3459264Y-9822118D01*
X-3473543Y-9818541D01*
X-3487403Y-9813582D01*
X-3500710Y-9807288D01*
X-3513336Y-9799720D01*
X-3525159Y-9790952D01*
X-3536066Y-9781066D01*
X-3545952Y-9770159D01*
X-3554720Y-9758336D01*
X-3562288Y-9745710D01*
X-3568582Y-9732403D01*
X-3573541Y-9718543D01*
X-3577118Y-9704264D01*
X-3579278Y-9689703D01*
X-3580000Y-9675000D01*
X-3580000Y-9375000D01*
X-3579278Y-9360297D01*
X-3577118Y-9345736D01*
X-3573541Y-9331457D01*
X-3568582Y-9317597D01*
X-3562288Y-9304290D01*
X-3554720Y-9291664D01*
X-3545952Y-9279841D01*
X-3536066Y-9268934D01*
X-3525159Y-9259048D01*
X-3513336Y-9250280D01*
X-3500710Y-9242712D01*
X-3487403Y-9236418D01*
X-3473543Y-9231459D01*
X-3459264Y-9227882D01*
X-3444703Y-9225722D01*
X-3430000Y-9225000D01*
X-1780000Y-9225000D01*
X-1765297Y-9225722D01*
G37*
G04 #@! TD.AperFunction*
G04 #@! TA.AperFunction,SMDPad,CuDef*
G36*
X-1765297Y-7955722D02*
G01*
X-1750736Y-7957882D01*
X-1736457Y-7961459D01*
X-1722597Y-7966418D01*
X-1709290Y-7972712D01*
X-1696664Y-7980280D01*
X-1684841Y-7989048D01*
X-1673934Y-7998934D01*
X-1664048Y-8009841D01*
X-1655280Y-8021664D01*
X-1647712Y-8034290D01*
X-1641418Y-8047597D01*
X-1636459Y-8061457D01*
X-1632882Y-8075736D01*
X-1630722Y-8090297D01*
X-1630000Y-8105000D01*
X-1630000Y-8405000D01*
X-1630722Y-8419703D01*
X-1632882Y-8434264D01*
X-1636459Y-8448543D01*
X-1641418Y-8462403D01*
X-1647712Y-8475710D01*
X-1655280Y-8488336D01*
X-1664048Y-8500159D01*
X-1673934Y-8511066D01*
X-1684841Y-8520952D01*
X-1696664Y-8529720D01*
X-1709290Y-8537288D01*
X-1722597Y-8543582D01*
X-1736457Y-8548541D01*
X-1750736Y-8552118D01*
X-1765297Y-8554278D01*
X-1780000Y-8555000D01*
X-3430000Y-8555000D01*
X-3444703Y-8554278D01*
X-3459264Y-8552118D01*
X-3473543Y-8548541D01*
X-3487403Y-8543582D01*
X-3500710Y-8537288D01*
X-3513336Y-8529720D01*
X-3525159Y-8520952D01*
X-3536066Y-8511066D01*
X-3545952Y-8500159D01*
X-3554720Y-8488336D01*
X-3562288Y-8475710D01*
X-3568582Y-8462403D01*
X-3573541Y-8448543D01*
X-3577118Y-8434264D01*
X-3579278Y-8419703D01*
X-3580000Y-8405000D01*
X-3580000Y-8105000D01*
X-3579278Y-8090297D01*
X-3577118Y-8075736D01*
X-3573541Y-8061457D01*
X-3568582Y-8047597D01*
X-3562288Y-8034290D01*
X-3554720Y-8021664D01*
X-3545952Y-8009841D01*
X-3536066Y-7998934D01*
X-3525159Y-7989048D01*
X-3513336Y-7980280D01*
X-3500710Y-7972712D01*
X-3487403Y-7966418D01*
X-3473543Y-7961459D01*
X-3459264Y-7957882D01*
X-3444703Y-7955722D01*
X-3430000Y-7955000D01*
X-1780000Y-7955000D01*
X-1765297Y-7955722D01*
G37*
G04 #@! TD.AperFunction*
G04 #@! TA.AperFunction,SMDPad,CuDef*
G36*
X-6715297Y-7955722D02*
G01*
X-6700736Y-7957882D01*
X-6686457Y-7961459D01*
X-6672597Y-7966418D01*
X-6659290Y-7972712D01*
X-6646664Y-7980280D01*
X-6634841Y-7989048D01*
X-6623934Y-7998934D01*
X-6614048Y-8009841D01*
X-6605280Y-8021664D01*
X-6597712Y-8034290D01*
X-6591418Y-8047597D01*
X-6586459Y-8061457D01*
X-6582882Y-8075736D01*
X-6580722Y-8090297D01*
X-6580000Y-8105000D01*
X-6580000Y-8405000D01*
X-6580722Y-8419703D01*
X-6582882Y-8434264D01*
X-6586459Y-8448543D01*
X-6591418Y-8462403D01*
X-6597712Y-8475710D01*
X-6605280Y-8488336D01*
X-6614048Y-8500159D01*
X-6623934Y-8511066D01*
X-6634841Y-8520952D01*
X-6646664Y-8529720D01*
X-6659290Y-8537288D01*
X-6672597Y-8543582D01*
X-6686457Y-8548541D01*
X-6700736Y-8552118D01*
X-6715297Y-8554278D01*
X-6730000Y-8555000D01*
X-8380000Y-8555000D01*
X-8394703Y-8554278D01*
X-8409264Y-8552118D01*
X-8423543Y-8548541D01*
X-8437403Y-8543582D01*
X-8450710Y-8537288D01*
X-8463336Y-8529720D01*
X-8475159Y-8520952D01*
X-8486066Y-8511066D01*
X-8495952Y-8500159D01*
X-8504720Y-8488336D01*
X-8512288Y-8475710D01*
X-8518582Y-8462403D01*
X-8523541Y-8448543D01*
X-8527118Y-8434264D01*
X-8529278Y-8419703D01*
X-8530000Y-8405000D01*
X-8530000Y-8105000D01*
X-8529278Y-8090297D01*
X-8527118Y-8075736D01*
X-8523541Y-8061457D01*
X-8518582Y-8047597D01*
X-8512288Y-8034290D01*
X-8504720Y-8021664D01*
X-8495952Y-8009841D01*
X-8486066Y-7998934D01*
X-8475159Y-7989048D01*
X-8463336Y-7980280D01*
X-8450710Y-7972712D01*
X-8437403Y-7966418D01*
X-8423543Y-7961459D01*
X-8409264Y-7957882D01*
X-8394703Y-7955722D01*
X-8380000Y-7955000D01*
X-6730000Y-7955000D01*
X-6715297Y-7955722D01*
G37*
G04 #@! TD.AperFunction*
G04 #@! TA.AperFunction,SMDPad,CuDef*
G36*
X-6715297Y-9225722D02*
G01*
X-6700736Y-9227882D01*
X-6686457Y-9231459D01*
X-6672597Y-9236418D01*
X-6659290Y-9242712D01*
X-6646664Y-9250280D01*
X-6634841Y-9259048D01*
X-6623934Y-9268934D01*
X-6614048Y-9279841D01*
X-6605280Y-9291664D01*
X-6597712Y-9304290D01*
X-6591418Y-9317597D01*
X-6586459Y-9331457D01*
X-6582882Y-9345736D01*
X-6580722Y-9360297D01*
X-6580000Y-9375000D01*
X-6580000Y-9675000D01*
X-6580722Y-9689703D01*
X-6582882Y-9704264D01*
X-6586459Y-9718543D01*
X-6591418Y-9732403D01*
X-6597712Y-9745710D01*
X-6605280Y-9758336D01*
X-6614048Y-9770159D01*
X-6623934Y-9781066D01*
X-6634841Y-9790952D01*
X-6646664Y-9799720D01*
X-6659290Y-9807288D01*
X-6672597Y-9813582D01*
X-6686457Y-9818541D01*
X-6700736Y-9822118D01*
X-6715297Y-9824278D01*
X-6730000Y-9825000D01*
X-8380000Y-9825000D01*
X-8394703Y-9824278D01*
X-8409264Y-9822118D01*
X-8423543Y-9818541D01*
X-8437403Y-9813582D01*
X-8450710Y-9807288D01*
X-8463336Y-9799720D01*
X-8475159Y-9790952D01*
X-8486066Y-9781066D01*
X-8495952Y-9770159D01*
X-8504720Y-9758336D01*
X-8512288Y-9745710D01*
X-8518582Y-9732403D01*
X-8523541Y-9718543D01*
X-8527118Y-9704264D01*
X-8529278Y-9689703D01*
X-8530000Y-9675000D01*
X-8530000Y-9375000D01*
X-8529278Y-9360297D01*
X-8527118Y-9345736D01*
X-8523541Y-9331457D01*
X-8518582Y-9317597D01*
X-8512288Y-9304290D01*
X-8504720Y-9291664D01*
X-8495952Y-9279841D01*
X-8486066Y-9268934D01*
X-8475159Y-9259048D01*
X-8463336Y-9250280D01*
X-8450710Y-9242712D01*
X-8437403Y-9236418D01*
X-8423543Y-9231459D01*
X-8409264Y-9227882D01*
X-8394703Y-9225722D01*
X-8380000Y-9225000D01*
X-6730000Y-9225000D01*
X-6715297Y-9225722D01*
G37*
G04 #@! TD.AperFunction*
G04 #@! TA.AperFunction,SMDPad,CuDef*
G36*
X-6715297Y-10495722D02*
G01*
X-6700736Y-10497882D01*
X-6686457Y-10501459D01*
X-6672597Y-10506418D01*
X-6659290Y-10512712D01*
X-6646664Y-10520280D01*
X-6634841Y-10529048D01*
X-6623934Y-10538934D01*
X-6614048Y-10549841D01*
X-6605280Y-10561664D01*
X-6597712Y-10574290D01*
X-6591418Y-10587597D01*
X-6586459Y-10601457D01*
X-6582882Y-10615736D01*
X-6580722Y-10630297D01*
X-6580000Y-10645000D01*
X-6580000Y-10945000D01*
X-6580722Y-10959703D01*
X-6582882Y-10974264D01*
X-6586459Y-10988543D01*
X-6591418Y-11002403D01*
X-6597712Y-11015710D01*
X-6605280Y-11028336D01*
X-6614048Y-11040159D01*
X-6623934Y-11051066D01*
X-6634841Y-11060952D01*
X-6646664Y-11069720D01*
X-6659290Y-11077288D01*
X-6672597Y-11083582D01*
X-6686457Y-11088541D01*
X-6700736Y-11092118D01*
X-6715297Y-11094278D01*
X-6730000Y-11095000D01*
X-8380000Y-11095000D01*
X-8394703Y-11094278D01*
X-8409264Y-11092118D01*
X-8423543Y-11088541D01*
X-8437403Y-11083582D01*
X-8450710Y-11077288D01*
X-8463336Y-11069720D01*
X-8475159Y-11060952D01*
X-8486066Y-11051066D01*
X-8495952Y-11040159D01*
X-8504720Y-11028336D01*
X-8512288Y-11015710D01*
X-8518582Y-11002403D01*
X-8523541Y-10988543D01*
X-8527118Y-10974264D01*
X-8529278Y-10959703D01*
X-8530000Y-10945000D01*
X-8530000Y-10645000D01*
X-8529278Y-10630297D01*
X-8527118Y-10615736D01*
X-8523541Y-10601457D01*
X-8518582Y-10587597D01*
X-8512288Y-10574290D01*
X-8504720Y-10561664D01*
X-8495952Y-10549841D01*
X-8486066Y-10538934D01*
X-8475159Y-10529048D01*
X-8463336Y-10520280D01*
X-8450710Y-10512712D01*
X-8437403Y-10506418D01*
X-8423543Y-10501459D01*
X-8409264Y-10497882D01*
X-8394703Y-10495722D01*
X-8380000Y-10495000D01*
X-6730000Y-10495000D01*
X-6715297Y-10495722D01*
G37*
G04 #@! TD.AperFunction*
G04 #@! TA.AperFunction,SMDPad,CuDef*
G36*
X-6715297Y-11765722D02*
G01*
X-6700736Y-11767882D01*
X-6686457Y-11771459D01*
X-6672597Y-11776418D01*
X-6659290Y-11782712D01*
X-6646664Y-11790280D01*
X-6634841Y-11799048D01*
X-6623934Y-11808934D01*
X-6614048Y-11819841D01*
X-6605280Y-11831664D01*
X-6597712Y-11844290D01*
X-6591418Y-11857597D01*
X-6586459Y-11871457D01*
X-6582882Y-11885736D01*
X-6580722Y-11900297D01*
X-6580000Y-11915000D01*
X-6580000Y-12215000D01*
X-6580722Y-12229703D01*
X-6582882Y-12244264D01*
X-6586459Y-12258543D01*
X-6591418Y-12272403D01*
X-6597712Y-12285710D01*
X-6605280Y-12298336D01*
X-6614048Y-12310159D01*
X-6623934Y-12321066D01*
X-6634841Y-12330952D01*
X-6646664Y-12339720D01*
X-6659290Y-12347288D01*
X-6672597Y-12353582D01*
X-6686457Y-12358541D01*
X-6700736Y-12362118D01*
X-6715297Y-12364278D01*
X-6730000Y-12365000D01*
X-8380000Y-12365000D01*
X-8394703Y-12364278D01*
X-8409264Y-12362118D01*
X-8423543Y-12358541D01*
X-8437403Y-12353582D01*
X-8450710Y-12347288D01*
X-8463336Y-12339720D01*
X-8475159Y-12330952D01*
X-8486066Y-12321066D01*
X-8495952Y-12310159D01*
X-8504720Y-12298336D01*
X-8512288Y-12285710D01*
X-8518582Y-12272403D01*
X-8523541Y-12258543D01*
X-8527118Y-12244264D01*
X-8529278Y-12229703D01*
X-8530000Y-12215000D01*
X-8530000Y-11915000D01*
X-8529278Y-11900297D01*
X-8527118Y-11885736D01*
X-8523541Y-11871457D01*
X-8518582Y-11857597D01*
X-8512288Y-11844290D01*
X-8504720Y-11831664D01*
X-8495952Y-11819841D01*
X-8486066Y-11808934D01*
X-8475159Y-11799048D01*
X-8463336Y-11790280D01*
X-8450710Y-11782712D01*
X-8437403Y-11776418D01*
X-8423543Y-11771459D01*
X-8409264Y-11767882D01*
X-8394703Y-11765722D01*
X-8380000Y-11765000D01*
X-6730000Y-11765000D01*
X-6715297Y-11765722D01*
G37*
G04 #@! TD.AperFunction*
G04 #@! TA.AperFunction,SMDPad,CuDef*
G36*
X2069703Y-11025722D02*
G01*
X2084264Y-11027882D01*
X2098543Y-11031459D01*
X2112403Y-11036418D01*
X2125710Y-11042712D01*
X2138336Y-11050280D01*
X2150159Y-11059048D01*
X2161066Y-11068934D01*
X2170952Y-11079841D01*
X2179720Y-11091664D01*
X2187288Y-11104290D01*
X2193582Y-11117597D01*
X2198541Y-11131457D01*
X2202118Y-11145736D01*
X2204278Y-11160297D01*
X2205000Y-11175000D01*
X2205000Y-12825000D01*
X2204278Y-12839703D01*
X2202118Y-12854264D01*
X2198541Y-12868543D01*
X2193582Y-12882403D01*
X2187288Y-12895710D01*
X2179720Y-12908336D01*
X2170952Y-12920159D01*
X2161066Y-12931066D01*
X2150159Y-12940952D01*
X2138336Y-12949720D01*
X2125710Y-12957288D01*
X2112403Y-12963582D01*
X2098543Y-12968541D01*
X2084264Y-12972118D01*
X2069703Y-12974278D01*
X2055000Y-12975000D01*
X1755000Y-12975000D01*
X1740297Y-12974278D01*
X1725736Y-12972118D01*
X1711457Y-12968541D01*
X1697597Y-12963582D01*
X1684290Y-12957288D01*
X1671664Y-12949720D01*
X1659841Y-12940952D01*
X1648934Y-12931066D01*
X1639048Y-12920159D01*
X1630280Y-12908336D01*
X1622712Y-12895710D01*
X1616418Y-12882403D01*
X1611459Y-12868543D01*
X1607882Y-12854264D01*
X1605722Y-12839703D01*
X1605000Y-12825000D01*
X1605000Y-11175000D01*
X1605722Y-11160297D01*
X1607882Y-11145736D01*
X1611459Y-11131457D01*
X1616418Y-11117597D01*
X1622712Y-11104290D01*
X1630280Y-11091664D01*
X1639048Y-11079841D01*
X1648934Y-11068934D01*
X1659841Y-11059048D01*
X1671664Y-11050280D01*
X1684290Y-11042712D01*
X1697597Y-11036418D01*
X1711457Y-11031459D01*
X1725736Y-11027882D01*
X1740297Y-11025722D01*
X1755000Y-11025000D01*
X2055000Y-11025000D01*
X2069703Y-11025722D01*
G37*
G04 #@! TD.AperFunction*
G04 #@! TA.AperFunction,SMDPad,CuDef*
G36*
X3339703Y-11025722D02*
G01*
X3354264Y-11027882D01*
X3368543Y-11031459D01*
X3382403Y-11036418D01*
X3395710Y-11042712D01*
X3408336Y-11050280D01*
X3420159Y-11059048D01*
X3431066Y-11068934D01*
X3440952Y-11079841D01*
X3449720Y-11091664D01*
X3457288Y-11104290D01*
X3463582Y-11117597D01*
X3468541Y-11131457D01*
X3472118Y-11145736D01*
X3474278Y-11160297D01*
X3475000Y-11175000D01*
X3475000Y-12825000D01*
X3474278Y-12839703D01*
X3472118Y-12854264D01*
X3468541Y-12868543D01*
X3463582Y-12882403D01*
X3457288Y-12895710D01*
X3449720Y-12908336D01*
X3440952Y-12920159D01*
X3431066Y-12931066D01*
X3420159Y-12940952D01*
X3408336Y-12949720D01*
X3395710Y-12957288D01*
X3382403Y-12963582D01*
X3368543Y-12968541D01*
X3354264Y-12972118D01*
X3339703Y-12974278D01*
X3325000Y-12975000D01*
X3025000Y-12975000D01*
X3010297Y-12974278D01*
X2995736Y-12972118D01*
X2981457Y-12968541D01*
X2967597Y-12963582D01*
X2954290Y-12957288D01*
X2941664Y-12949720D01*
X2929841Y-12940952D01*
X2918934Y-12931066D01*
X2909048Y-12920159D01*
X2900280Y-12908336D01*
X2892712Y-12895710D01*
X2886418Y-12882403D01*
X2881459Y-12868543D01*
X2877882Y-12854264D01*
X2875722Y-12839703D01*
X2875000Y-12825000D01*
X2875000Y-11175000D01*
X2875722Y-11160297D01*
X2877882Y-11145736D01*
X2881459Y-11131457D01*
X2886418Y-11117597D01*
X2892712Y-11104290D01*
X2900280Y-11091664D01*
X2909048Y-11079841D01*
X2918934Y-11068934D01*
X2929841Y-11059048D01*
X2941664Y-11050280D01*
X2954290Y-11042712D01*
X2967597Y-11036418D01*
X2981457Y-11031459D01*
X2995736Y-11027882D01*
X3010297Y-11025722D01*
X3025000Y-11025000D01*
X3325000Y-11025000D01*
X3339703Y-11025722D01*
G37*
G04 #@! TD.AperFunction*
G04 #@! TA.AperFunction,SMDPad,CuDef*
G36*
X4609703Y-11025722D02*
G01*
X4624264Y-11027882D01*
X4638543Y-11031459D01*
X4652403Y-11036418D01*
X4665710Y-11042712D01*
X4678336Y-11050280D01*
X4690159Y-11059048D01*
X4701066Y-11068934D01*
X4710952Y-11079841D01*
X4719720Y-11091664D01*
X4727288Y-11104290D01*
X4733582Y-11117597D01*
X4738541Y-11131457D01*
X4742118Y-11145736D01*
X4744278Y-11160297D01*
X4745000Y-11175000D01*
X4745000Y-12825000D01*
X4744278Y-12839703D01*
X4742118Y-12854264D01*
X4738541Y-12868543D01*
X4733582Y-12882403D01*
X4727288Y-12895710D01*
X4719720Y-12908336D01*
X4710952Y-12920159D01*
X4701066Y-12931066D01*
X4690159Y-12940952D01*
X4678336Y-12949720D01*
X4665710Y-12957288D01*
X4652403Y-12963582D01*
X4638543Y-12968541D01*
X4624264Y-12972118D01*
X4609703Y-12974278D01*
X4595000Y-12975000D01*
X4295000Y-12975000D01*
X4280297Y-12974278D01*
X4265736Y-12972118D01*
X4251457Y-12968541D01*
X4237597Y-12963582D01*
X4224290Y-12957288D01*
X4211664Y-12949720D01*
X4199841Y-12940952D01*
X4188934Y-12931066D01*
X4179048Y-12920159D01*
X4170280Y-12908336D01*
X4162712Y-12895710D01*
X4156418Y-12882403D01*
X4151459Y-12868543D01*
X4147882Y-12854264D01*
X4145722Y-12839703D01*
X4145000Y-12825000D01*
X4145000Y-11175000D01*
X4145722Y-11160297D01*
X4147882Y-11145736D01*
X4151459Y-11131457D01*
X4156418Y-11117597D01*
X4162712Y-11104290D01*
X4170280Y-11091664D01*
X4179048Y-11079841D01*
X4188934Y-11068934D01*
X4199841Y-11059048D01*
X4211664Y-11050280D01*
X4224290Y-11042712D01*
X4237597Y-11036418D01*
X4251457Y-11031459D01*
X4265736Y-11027882D01*
X4280297Y-11025722D01*
X4295000Y-11025000D01*
X4595000Y-11025000D01*
X4609703Y-11025722D01*
G37*
G04 #@! TD.AperFunction*
G04 #@! TA.AperFunction,SMDPad,CuDef*
G36*
X5879703Y-11025722D02*
G01*
X5894264Y-11027882D01*
X5908543Y-11031459D01*
X5922403Y-11036418D01*
X5935710Y-11042712D01*
X5948336Y-11050280D01*
X5960159Y-11059048D01*
X5971066Y-11068934D01*
X5980952Y-11079841D01*
X5989720Y-11091664D01*
X5997288Y-11104290D01*
X6003582Y-11117597D01*
X6008541Y-11131457D01*
X6012118Y-11145736D01*
X6014278Y-11160297D01*
X6015000Y-11175000D01*
X6015000Y-12825000D01*
X6014278Y-12839703D01*
X6012118Y-12854264D01*
X6008541Y-12868543D01*
X6003582Y-12882403D01*
X5997288Y-12895710D01*
X5989720Y-12908336D01*
X5980952Y-12920159D01*
X5971066Y-12931066D01*
X5960159Y-12940952D01*
X5948336Y-12949720D01*
X5935710Y-12957288D01*
X5922403Y-12963582D01*
X5908543Y-12968541D01*
X5894264Y-12972118D01*
X5879703Y-12974278D01*
X5865000Y-12975000D01*
X5565000Y-12975000D01*
X5550297Y-12974278D01*
X5535736Y-12972118D01*
X5521457Y-12968541D01*
X5507597Y-12963582D01*
X5494290Y-12957288D01*
X5481664Y-12949720D01*
X5469841Y-12940952D01*
X5458934Y-12931066D01*
X5449048Y-12920159D01*
X5440280Y-12908336D01*
X5432712Y-12895710D01*
X5426418Y-12882403D01*
X5421459Y-12868543D01*
X5417882Y-12854264D01*
X5415722Y-12839703D01*
X5415000Y-12825000D01*
X5415000Y-11175000D01*
X5415722Y-11160297D01*
X5417882Y-11145736D01*
X5421459Y-11131457D01*
X5426418Y-11117597D01*
X5432712Y-11104290D01*
X5440280Y-11091664D01*
X5449048Y-11079841D01*
X5458934Y-11068934D01*
X5469841Y-11059048D01*
X5481664Y-11050280D01*
X5494290Y-11042712D01*
X5507597Y-11036418D01*
X5521457Y-11031459D01*
X5535736Y-11027882D01*
X5550297Y-11025722D01*
X5565000Y-11025000D01*
X5865000Y-11025000D01*
X5879703Y-11025722D01*
G37*
G04 #@! TD.AperFunction*
G04 #@! TA.AperFunction,SMDPad,CuDef*
G36*
X7149703Y-11025722D02*
G01*
X7164264Y-11027882D01*
X7178543Y-11031459D01*
X7192403Y-11036418D01*
X7205710Y-11042712D01*
X7218336Y-11050280D01*
X7230159Y-11059048D01*
X7241066Y-11068934D01*
X7250952Y-11079841D01*
X7259720Y-11091664D01*
X7267288Y-11104290D01*
X7273582Y-11117597D01*
X7278541Y-11131457D01*
X7282118Y-11145736D01*
X7284278Y-11160297D01*
X7285000Y-11175000D01*
X7285000Y-12825000D01*
X7284278Y-12839703D01*
X7282118Y-12854264D01*
X7278541Y-12868543D01*
X7273582Y-12882403D01*
X7267288Y-12895710D01*
X7259720Y-12908336D01*
X7250952Y-12920159D01*
X7241066Y-12931066D01*
X7230159Y-12940952D01*
X7218336Y-12949720D01*
X7205710Y-12957288D01*
X7192403Y-12963582D01*
X7178543Y-12968541D01*
X7164264Y-12972118D01*
X7149703Y-12974278D01*
X7135000Y-12975000D01*
X6835000Y-12975000D01*
X6820297Y-12974278D01*
X6805736Y-12972118D01*
X6791457Y-12968541D01*
X6777597Y-12963582D01*
X6764290Y-12957288D01*
X6751664Y-12949720D01*
X6739841Y-12940952D01*
X6728934Y-12931066D01*
X6719048Y-12920159D01*
X6710280Y-12908336D01*
X6702712Y-12895710D01*
X6696418Y-12882403D01*
X6691459Y-12868543D01*
X6687882Y-12854264D01*
X6685722Y-12839703D01*
X6685000Y-12825000D01*
X6685000Y-11175000D01*
X6685722Y-11160297D01*
X6687882Y-11145736D01*
X6691459Y-11131457D01*
X6696418Y-11117597D01*
X6702712Y-11104290D01*
X6710280Y-11091664D01*
X6719048Y-11079841D01*
X6728934Y-11068934D01*
X6739841Y-11059048D01*
X6751664Y-11050280D01*
X6764290Y-11042712D01*
X6777597Y-11036418D01*
X6791457Y-11031459D01*
X6805736Y-11027882D01*
X6820297Y-11025722D01*
X6835000Y-11025000D01*
X7135000Y-11025000D01*
X7149703Y-11025722D01*
G37*
G04 #@! TD.AperFunction*
G04 #@! TA.AperFunction,SMDPad,CuDef*
G36*
X8419703Y-11025722D02*
G01*
X8434264Y-11027882D01*
X8448543Y-11031459D01*
X8462403Y-11036418D01*
X8475710Y-11042712D01*
X8488336Y-11050280D01*
X8500159Y-11059048D01*
X8511066Y-11068934D01*
X8520952Y-11079841D01*
X8529720Y-11091664D01*
X8537288Y-11104290D01*
X8543582Y-11117597D01*
X8548541Y-11131457D01*
X8552118Y-11145736D01*
X8554278Y-11160297D01*
X8555000Y-11175000D01*
X8555000Y-12825000D01*
X8554278Y-12839703D01*
X8552118Y-12854264D01*
X8548541Y-12868543D01*
X8543582Y-12882403D01*
X8537288Y-12895710D01*
X8529720Y-12908336D01*
X8520952Y-12920159D01*
X8511066Y-12931066D01*
X8500159Y-12940952D01*
X8488336Y-12949720D01*
X8475710Y-12957288D01*
X8462403Y-12963582D01*
X8448543Y-12968541D01*
X8434264Y-12972118D01*
X8419703Y-12974278D01*
X8405000Y-12975000D01*
X8105000Y-12975000D01*
X8090297Y-12974278D01*
X8075736Y-12972118D01*
X8061457Y-12968541D01*
X8047597Y-12963582D01*
X8034290Y-12957288D01*
X8021664Y-12949720D01*
X8009841Y-12940952D01*
X7998934Y-12931066D01*
X7989048Y-12920159D01*
X7980280Y-12908336D01*
X7972712Y-12895710D01*
X7966418Y-12882403D01*
X7961459Y-12868543D01*
X7957882Y-12854264D01*
X7955722Y-12839703D01*
X7955000Y-12825000D01*
X7955000Y-11175000D01*
X7955722Y-11160297D01*
X7957882Y-11145736D01*
X7961459Y-11131457D01*
X7966418Y-11117597D01*
X7972712Y-11104290D01*
X7980280Y-11091664D01*
X7989048Y-11079841D01*
X7998934Y-11068934D01*
X8009841Y-11059048D01*
X8021664Y-11050280D01*
X8034290Y-11042712D01*
X8047597Y-11036418D01*
X8061457Y-11031459D01*
X8075736Y-11027882D01*
X8090297Y-11025722D01*
X8105000Y-11025000D01*
X8405000Y-11025000D01*
X8419703Y-11025722D01*
G37*
G04 #@! TD.AperFunction*
G04 #@! TA.AperFunction,SMDPad,CuDef*
G36*
X9689703Y-11025722D02*
G01*
X9704264Y-11027882D01*
X9718543Y-11031459D01*
X9732403Y-11036418D01*
X9745710Y-11042712D01*
X9758336Y-11050280D01*
X9770159Y-11059048D01*
X9781066Y-11068934D01*
X9790952Y-11079841D01*
X9799720Y-11091664D01*
X9807288Y-11104290D01*
X9813582Y-11117597D01*
X9818541Y-11131457D01*
X9822118Y-11145736D01*
X9824278Y-11160297D01*
X9825000Y-11175000D01*
X9825000Y-12825000D01*
X9824278Y-12839703D01*
X9822118Y-12854264D01*
X9818541Y-12868543D01*
X9813582Y-12882403D01*
X9807288Y-12895710D01*
X9799720Y-12908336D01*
X9790952Y-12920159D01*
X9781066Y-12931066D01*
X9770159Y-12940952D01*
X9758336Y-12949720D01*
X9745710Y-12957288D01*
X9732403Y-12963582D01*
X9718543Y-12968541D01*
X9704264Y-12972118D01*
X9689703Y-12974278D01*
X9675000Y-12975000D01*
X9375000Y-12975000D01*
X9360297Y-12974278D01*
X9345736Y-12972118D01*
X9331457Y-12968541D01*
X9317597Y-12963582D01*
X9304290Y-12957288D01*
X9291664Y-12949720D01*
X9279841Y-12940952D01*
X9268934Y-12931066D01*
X9259048Y-12920159D01*
X9250280Y-12908336D01*
X9242712Y-12895710D01*
X9236418Y-12882403D01*
X9231459Y-12868543D01*
X9227882Y-12854264D01*
X9225722Y-12839703D01*
X9225000Y-12825000D01*
X9225000Y-11175000D01*
X9225722Y-11160297D01*
X9227882Y-11145736D01*
X9231459Y-11131457D01*
X9236418Y-11117597D01*
X9242712Y-11104290D01*
X9250280Y-11091664D01*
X9259048Y-11079841D01*
X9268934Y-11068934D01*
X9279841Y-11059048D01*
X9291664Y-11050280D01*
X9304290Y-11042712D01*
X9317597Y-11036418D01*
X9331457Y-11031459D01*
X9345736Y-11027882D01*
X9360297Y-11025722D01*
X9375000Y-11025000D01*
X9675000Y-11025000D01*
X9689703Y-11025722D01*
G37*
G04 #@! TD.AperFunction*
G04 #@! TA.AperFunction,SMDPad,CuDef*
G36*
X10959703Y-11025722D02*
G01*
X10974264Y-11027882D01*
X10988543Y-11031459D01*
X11002403Y-11036418D01*
X11015710Y-11042712D01*
X11028336Y-11050280D01*
X11040159Y-11059048D01*
X11051066Y-11068934D01*
X11060952Y-11079841D01*
X11069720Y-11091664D01*
X11077288Y-11104290D01*
X11083582Y-11117597D01*
X11088541Y-11131457D01*
X11092118Y-11145736D01*
X11094278Y-11160297D01*
X11095000Y-11175000D01*
X11095000Y-12825000D01*
X11094278Y-12839703D01*
X11092118Y-12854264D01*
X11088541Y-12868543D01*
X11083582Y-12882403D01*
X11077288Y-12895710D01*
X11069720Y-12908336D01*
X11060952Y-12920159D01*
X11051066Y-12931066D01*
X11040159Y-12940952D01*
X11028336Y-12949720D01*
X11015710Y-12957288D01*
X11002403Y-12963582D01*
X10988543Y-12968541D01*
X10974264Y-12972118D01*
X10959703Y-12974278D01*
X10945000Y-12975000D01*
X10645000Y-12975000D01*
X10630297Y-12974278D01*
X10615736Y-12972118D01*
X10601457Y-12968541D01*
X10587597Y-12963582D01*
X10574290Y-12957288D01*
X10561664Y-12949720D01*
X10549841Y-12940952D01*
X10538934Y-12931066D01*
X10529048Y-12920159D01*
X10520280Y-12908336D01*
X10512712Y-12895710D01*
X10506418Y-12882403D01*
X10501459Y-12868543D01*
X10497882Y-12854264D01*
X10495722Y-12839703D01*
X10495000Y-12825000D01*
X10495000Y-11175000D01*
X10495722Y-11160297D01*
X10497882Y-11145736D01*
X10501459Y-11131457D01*
X10506418Y-11117597D01*
X10512712Y-11104290D01*
X10520280Y-11091664D01*
X10529048Y-11079841D01*
X10538934Y-11068934D01*
X10549841Y-11059048D01*
X10561664Y-11050280D01*
X10574290Y-11042712D01*
X10587597Y-11036418D01*
X10601457Y-11031459D01*
X10615736Y-11027882D01*
X10630297Y-11025722D01*
X10645000Y-11025000D01*
X10945000Y-11025000D01*
X10959703Y-11025722D01*
G37*
G04 #@! TD.AperFunction*
G04 #@! TA.AperFunction,SMDPad,CuDef*
G36*
X10959703Y-6075722D02*
G01*
X10974264Y-6077882D01*
X10988543Y-6081459D01*
X11002403Y-6086418D01*
X11015710Y-6092712D01*
X11028336Y-6100280D01*
X11040159Y-6109048D01*
X11051066Y-6118934D01*
X11060952Y-6129841D01*
X11069720Y-6141664D01*
X11077288Y-6154290D01*
X11083582Y-6167597D01*
X11088541Y-6181457D01*
X11092118Y-6195736D01*
X11094278Y-6210297D01*
X11095000Y-6225000D01*
X11095000Y-7875000D01*
X11094278Y-7889703D01*
X11092118Y-7904264D01*
X11088541Y-7918543D01*
X11083582Y-7932403D01*
X11077288Y-7945710D01*
X11069720Y-7958336D01*
X11060952Y-7970159D01*
X11051066Y-7981066D01*
X11040159Y-7990952D01*
X11028336Y-7999720D01*
X11015710Y-8007288D01*
X11002403Y-8013582D01*
X10988543Y-8018541D01*
X10974264Y-8022118D01*
X10959703Y-8024278D01*
X10945000Y-8025000D01*
X10645000Y-8025000D01*
X10630297Y-8024278D01*
X10615736Y-8022118D01*
X10601457Y-8018541D01*
X10587597Y-8013582D01*
X10574290Y-8007288D01*
X10561664Y-7999720D01*
X10549841Y-7990952D01*
X10538934Y-7981066D01*
X10529048Y-7970159D01*
X10520280Y-7958336D01*
X10512712Y-7945710D01*
X10506418Y-7932403D01*
X10501459Y-7918543D01*
X10497882Y-7904264D01*
X10495722Y-7889703D01*
X10495000Y-7875000D01*
X10495000Y-6225000D01*
X10495722Y-6210297D01*
X10497882Y-6195736D01*
X10501459Y-6181457D01*
X10506418Y-6167597D01*
X10512712Y-6154290D01*
X10520280Y-6141664D01*
X10529048Y-6129841D01*
X10538934Y-6118934D01*
X10549841Y-6109048D01*
X10561664Y-6100280D01*
X10574290Y-6092712D01*
X10587597Y-6086418D01*
X10601457Y-6081459D01*
X10615736Y-6077882D01*
X10630297Y-6075722D01*
X10645000Y-6075000D01*
X10945000Y-6075000D01*
X10959703Y-6075722D01*
G37*
G04 #@! TD.AperFunction*
G04 #@! TA.AperFunction,SMDPad,CuDef*
G36*
X9689703Y-6075722D02*
G01*
X9704264Y-6077882D01*
X9718543Y-6081459D01*
X9732403Y-6086418D01*
X9745710Y-6092712D01*
X9758336Y-6100280D01*
X9770159Y-6109048D01*
X9781066Y-6118934D01*
X9790952Y-6129841D01*
X9799720Y-6141664D01*
X9807288Y-6154290D01*
X9813582Y-6167597D01*
X9818541Y-6181457D01*
X9822118Y-6195736D01*
X9824278Y-6210297D01*
X9825000Y-6225000D01*
X9825000Y-7875000D01*
X9824278Y-7889703D01*
X9822118Y-7904264D01*
X9818541Y-7918543D01*
X9813582Y-7932403D01*
X9807288Y-7945710D01*
X9799720Y-7958336D01*
X9790952Y-7970159D01*
X9781066Y-7981066D01*
X9770159Y-7990952D01*
X9758336Y-7999720D01*
X9745710Y-8007288D01*
X9732403Y-8013582D01*
X9718543Y-8018541D01*
X9704264Y-8022118D01*
X9689703Y-8024278D01*
X9675000Y-8025000D01*
X9375000Y-8025000D01*
X9360297Y-8024278D01*
X9345736Y-8022118D01*
X9331457Y-8018541D01*
X9317597Y-8013582D01*
X9304290Y-8007288D01*
X9291664Y-7999720D01*
X9279841Y-7990952D01*
X9268934Y-7981066D01*
X9259048Y-7970159D01*
X9250280Y-7958336D01*
X9242712Y-7945710D01*
X9236418Y-7932403D01*
X9231459Y-7918543D01*
X9227882Y-7904264D01*
X9225722Y-7889703D01*
X9225000Y-7875000D01*
X9225000Y-6225000D01*
X9225722Y-6210297D01*
X9227882Y-6195736D01*
X9231459Y-6181457D01*
X9236418Y-6167597D01*
X9242712Y-6154290D01*
X9250280Y-6141664D01*
X9259048Y-6129841D01*
X9268934Y-6118934D01*
X9279841Y-6109048D01*
X9291664Y-6100280D01*
X9304290Y-6092712D01*
X9317597Y-6086418D01*
X9331457Y-6081459D01*
X9345736Y-6077882D01*
X9360297Y-6075722D01*
X9375000Y-6075000D01*
X9675000Y-6075000D01*
X9689703Y-6075722D01*
G37*
G04 #@! TD.AperFunction*
G04 #@! TA.AperFunction,SMDPad,CuDef*
G36*
X8419703Y-6075722D02*
G01*
X8434264Y-6077882D01*
X8448543Y-6081459D01*
X8462403Y-6086418D01*
X8475710Y-6092712D01*
X8488336Y-6100280D01*
X8500159Y-6109048D01*
X8511066Y-6118934D01*
X8520952Y-6129841D01*
X8529720Y-6141664D01*
X8537288Y-6154290D01*
X8543582Y-6167597D01*
X8548541Y-6181457D01*
X8552118Y-6195736D01*
X8554278Y-6210297D01*
X8555000Y-6225000D01*
X8555000Y-7875000D01*
X8554278Y-7889703D01*
X8552118Y-7904264D01*
X8548541Y-7918543D01*
X8543582Y-7932403D01*
X8537288Y-7945710D01*
X8529720Y-7958336D01*
X8520952Y-7970159D01*
X8511066Y-7981066D01*
X8500159Y-7990952D01*
X8488336Y-7999720D01*
X8475710Y-8007288D01*
X8462403Y-8013582D01*
X8448543Y-8018541D01*
X8434264Y-8022118D01*
X8419703Y-8024278D01*
X8405000Y-8025000D01*
X8105000Y-8025000D01*
X8090297Y-8024278D01*
X8075736Y-8022118D01*
X8061457Y-8018541D01*
X8047597Y-8013582D01*
X8034290Y-8007288D01*
X8021664Y-7999720D01*
X8009841Y-7990952D01*
X7998934Y-7981066D01*
X7989048Y-7970159D01*
X7980280Y-7958336D01*
X7972712Y-7945710D01*
X7966418Y-7932403D01*
X7961459Y-7918543D01*
X7957882Y-7904264D01*
X7955722Y-7889703D01*
X7955000Y-7875000D01*
X7955000Y-6225000D01*
X7955722Y-6210297D01*
X7957882Y-6195736D01*
X7961459Y-6181457D01*
X7966418Y-6167597D01*
X7972712Y-6154290D01*
X7980280Y-6141664D01*
X7989048Y-6129841D01*
X7998934Y-6118934D01*
X8009841Y-6109048D01*
X8021664Y-6100280D01*
X8034290Y-6092712D01*
X8047597Y-6086418D01*
X8061457Y-6081459D01*
X8075736Y-6077882D01*
X8090297Y-6075722D01*
X8105000Y-6075000D01*
X8405000Y-6075000D01*
X8419703Y-6075722D01*
G37*
G04 #@! TD.AperFunction*
G04 #@! TA.AperFunction,SMDPad,CuDef*
G36*
X7149703Y-6075722D02*
G01*
X7164264Y-6077882D01*
X7178543Y-6081459D01*
X7192403Y-6086418D01*
X7205710Y-6092712D01*
X7218336Y-6100280D01*
X7230159Y-6109048D01*
X7241066Y-6118934D01*
X7250952Y-6129841D01*
X7259720Y-6141664D01*
X7267288Y-6154290D01*
X7273582Y-6167597D01*
X7278541Y-6181457D01*
X7282118Y-6195736D01*
X7284278Y-6210297D01*
X7285000Y-6225000D01*
X7285000Y-7875000D01*
X7284278Y-7889703D01*
X7282118Y-7904264D01*
X7278541Y-7918543D01*
X7273582Y-7932403D01*
X7267288Y-7945710D01*
X7259720Y-7958336D01*
X7250952Y-7970159D01*
X7241066Y-7981066D01*
X7230159Y-7990952D01*
X7218336Y-7999720D01*
X7205710Y-8007288D01*
X7192403Y-8013582D01*
X7178543Y-8018541D01*
X7164264Y-8022118D01*
X7149703Y-8024278D01*
X7135000Y-8025000D01*
X6835000Y-8025000D01*
X6820297Y-8024278D01*
X6805736Y-8022118D01*
X6791457Y-8018541D01*
X6777597Y-8013582D01*
X6764290Y-8007288D01*
X6751664Y-7999720D01*
X6739841Y-7990952D01*
X6728934Y-7981066D01*
X6719048Y-7970159D01*
X6710280Y-7958336D01*
X6702712Y-7945710D01*
X6696418Y-7932403D01*
X6691459Y-7918543D01*
X6687882Y-7904264D01*
X6685722Y-7889703D01*
X6685000Y-7875000D01*
X6685000Y-6225000D01*
X6685722Y-6210297D01*
X6687882Y-6195736D01*
X6691459Y-6181457D01*
X6696418Y-6167597D01*
X6702712Y-6154290D01*
X6710280Y-6141664D01*
X6719048Y-6129841D01*
X6728934Y-6118934D01*
X6739841Y-6109048D01*
X6751664Y-6100280D01*
X6764290Y-6092712D01*
X6777597Y-6086418D01*
X6791457Y-6081459D01*
X6805736Y-6077882D01*
X6820297Y-6075722D01*
X6835000Y-6075000D01*
X7135000Y-6075000D01*
X7149703Y-6075722D01*
G37*
G04 #@! TD.AperFunction*
G04 #@! TA.AperFunction,SMDPad,CuDef*
G36*
X5879703Y-6075722D02*
G01*
X5894264Y-6077882D01*
X5908543Y-6081459D01*
X5922403Y-6086418D01*
X5935710Y-6092712D01*
X5948336Y-6100280D01*
X5960159Y-6109048D01*
X5971066Y-6118934D01*
X5980952Y-6129841D01*
X5989720Y-6141664D01*
X5997288Y-6154290D01*
X6003582Y-6167597D01*
X6008541Y-6181457D01*
X6012118Y-6195736D01*
X6014278Y-6210297D01*
X6015000Y-6225000D01*
X6015000Y-7875000D01*
X6014278Y-7889703D01*
X6012118Y-7904264D01*
X6008541Y-7918543D01*
X6003582Y-7932403D01*
X5997288Y-7945710D01*
X5989720Y-7958336D01*
X5980952Y-7970159D01*
X5971066Y-7981066D01*
X5960159Y-7990952D01*
X5948336Y-7999720D01*
X5935710Y-8007288D01*
X5922403Y-8013582D01*
X5908543Y-8018541D01*
X5894264Y-8022118D01*
X5879703Y-8024278D01*
X5865000Y-8025000D01*
X5565000Y-8025000D01*
X5550297Y-8024278D01*
X5535736Y-8022118D01*
X5521457Y-8018541D01*
X5507597Y-8013582D01*
X5494290Y-8007288D01*
X5481664Y-7999720D01*
X5469841Y-7990952D01*
X5458934Y-7981066D01*
X5449048Y-7970159D01*
X5440280Y-7958336D01*
X5432712Y-7945710D01*
X5426418Y-7932403D01*
X5421459Y-7918543D01*
X5417882Y-7904264D01*
X5415722Y-7889703D01*
X5415000Y-7875000D01*
X5415000Y-6225000D01*
X5415722Y-6210297D01*
X5417882Y-6195736D01*
X5421459Y-6181457D01*
X5426418Y-6167597D01*
X5432712Y-6154290D01*
X5440280Y-6141664D01*
X5449048Y-6129841D01*
X5458934Y-6118934D01*
X5469841Y-6109048D01*
X5481664Y-6100280D01*
X5494290Y-6092712D01*
X5507597Y-6086418D01*
X5521457Y-6081459D01*
X5535736Y-6077882D01*
X5550297Y-6075722D01*
X5565000Y-6075000D01*
X5865000Y-6075000D01*
X5879703Y-6075722D01*
G37*
G04 #@! TD.AperFunction*
G04 #@! TA.AperFunction,SMDPad,CuDef*
G36*
X4609703Y-6075722D02*
G01*
X4624264Y-6077882D01*
X4638543Y-6081459D01*
X4652403Y-6086418D01*
X4665710Y-6092712D01*
X4678336Y-6100280D01*
X4690159Y-6109048D01*
X4701066Y-6118934D01*
X4710952Y-6129841D01*
X4719720Y-6141664D01*
X4727288Y-6154290D01*
X4733582Y-6167597D01*
X4738541Y-6181457D01*
X4742118Y-6195736D01*
X4744278Y-6210297D01*
X4745000Y-6225000D01*
X4745000Y-7875000D01*
X4744278Y-7889703D01*
X4742118Y-7904264D01*
X4738541Y-7918543D01*
X4733582Y-7932403D01*
X4727288Y-7945710D01*
X4719720Y-7958336D01*
X4710952Y-7970159D01*
X4701066Y-7981066D01*
X4690159Y-7990952D01*
X4678336Y-7999720D01*
X4665710Y-8007288D01*
X4652403Y-8013582D01*
X4638543Y-8018541D01*
X4624264Y-8022118D01*
X4609703Y-8024278D01*
X4595000Y-8025000D01*
X4295000Y-8025000D01*
X4280297Y-8024278D01*
X4265736Y-8022118D01*
X4251457Y-8018541D01*
X4237597Y-8013582D01*
X4224290Y-8007288D01*
X4211664Y-7999720D01*
X4199841Y-7990952D01*
X4188934Y-7981066D01*
X4179048Y-7970159D01*
X4170280Y-7958336D01*
X4162712Y-7945710D01*
X4156418Y-7932403D01*
X4151459Y-7918543D01*
X4147882Y-7904264D01*
X4145722Y-7889703D01*
X4145000Y-7875000D01*
X4145000Y-6225000D01*
X4145722Y-6210297D01*
X4147882Y-6195736D01*
X4151459Y-6181457D01*
X4156418Y-6167597D01*
X4162712Y-6154290D01*
X4170280Y-6141664D01*
X4179048Y-6129841D01*
X4188934Y-6118934D01*
X4199841Y-6109048D01*
X4211664Y-6100280D01*
X4224290Y-6092712D01*
X4237597Y-6086418D01*
X4251457Y-6081459D01*
X4265736Y-6077882D01*
X4280297Y-6075722D01*
X4295000Y-6075000D01*
X4595000Y-6075000D01*
X4609703Y-6075722D01*
G37*
G04 #@! TD.AperFunction*
G04 #@! TA.AperFunction,SMDPad,CuDef*
G36*
X3339703Y-6075722D02*
G01*
X3354264Y-6077882D01*
X3368543Y-6081459D01*
X3382403Y-6086418D01*
X3395710Y-6092712D01*
X3408336Y-6100280D01*
X3420159Y-6109048D01*
X3431066Y-6118934D01*
X3440952Y-6129841D01*
X3449720Y-6141664D01*
X3457288Y-6154290D01*
X3463582Y-6167597D01*
X3468541Y-6181457D01*
X3472118Y-6195736D01*
X3474278Y-6210297D01*
X3475000Y-6225000D01*
X3475000Y-7875000D01*
X3474278Y-7889703D01*
X3472118Y-7904264D01*
X3468541Y-7918543D01*
X3463582Y-7932403D01*
X3457288Y-7945710D01*
X3449720Y-7958336D01*
X3440952Y-7970159D01*
X3431066Y-7981066D01*
X3420159Y-7990952D01*
X3408336Y-7999720D01*
X3395710Y-8007288D01*
X3382403Y-8013582D01*
X3368543Y-8018541D01*
X3354264Y-8022118D01*
X3339703Y-8024278D01*
X3325000Y-8025000D01*
X3025000Y-8025000D01*
X3010297Y-8024278D01*
X2995736Y-8022118D01*
X2981457Y-8018541D01*
X2967597Y-8013582D01*
X2954290Y-8007288D01*
X2941664Y-7999720D01*
X2929841Y-7990952D01*
X2918934Y-7981066D01*
X2909048Y-7970159D01*
X2900280Y-7958336D01*
X2892712Y-7945710D01*
X2886418Y-7932403D01*
X2881459Y-7918543D01*
X2877882Y-7904264D01*
X2875722Y-7889703D01*
X2875000Y-7875000D01*
X2875000Y-6225000D01*
X2875722Y-6210297D01*
X2877882Y-6195736D01*
X2881459Y-6181457D01*
X2886418Y-6167597D01*
X2892712Y-6154290D01*
X2900280Y-6141664D01*
X2909048Y-6129841D01*
X2918934Y-6118934D01*
X2929841Y-6109048D01*
X2941664Y-6100280D01*
X2954290Y-6092712D01*
X2967597Y-6086418D01*
X2981457Y-6081459D01*
X2995736Y-6077882D01*
X3010297Y-6075722D01*
X3025000Y-6075000D01*
X3325000Y-6075000D01*
X3339703Y-6075722D01*
G37*
G04 #@! TD.AperFunction*
G04 #@! TA.AperFunction,SMDPad,CuDef*
G36*
X2069703Y-6075722D02*
G01*
X2084264Y-6077882D01*
X2098543Y-6081459D01*
X2112403Y-6086418D01*
X2125710Y-6092712D01*
X2138336Y-6100280D01*
X2150159Y-6109048D01*
X2161066Y-6118934D01*
X2170952Y-6129841D01*
X2179720Y-6141664D01*
X2187288Y-6154290D01*
X2193582Y-6167597D01*
X2198541Y-6181457D01*
X2202118Y-6195736D01*
X2204278Y-6210297D01*
X2205000Y-6225000D01*
X2205000Y-7875000D01*
X2204278Y-7889703D01*
X2202118Y-7904264D01*
X2198541Y-7918543D01*
X2193582Y-7932403D01*
X2187288Y-7945710D01*
X2179720Y-7958336D01*
X2170952Y-7970159D01*
X2161066Y-7981066D01*
X2150159Y-7990952D01*
X2138336Y-7999720D01*
X2125710Y-8007288D01*
X2112403Y-8013582D01*
X2098543Y-8018541D01*
X2084264Y-8022118D01*
X2069703Y-8024278D01*
X2055000Y-8025000D01*
X1755000Y-8025000D01*
X1740297Y-8024278D01*
X1725736Y-8022118D01*
X1711457Y-8018541D01*
X1697597Y-8013582D01*
X1684290Y-8007288D01*
X1671664Y-7999720D01*
X1659841Y-7990952D01*
X1648934Y-7981066D01*
X1639048Y-7970159D01*
X1630280Y-7958336D01*
X1622712Y-7945710D01*
X1616418Y-7932403D01*
X1611459Y-7918543D01*
X1607882Y-7904264D01*
X1605722Y-7889703D01*
X1605000Y-7875000D01*
X1605000Y-6225000D01*
X1605722Y-6210297D01*
X1607882Y-6195736D01*
X1611459Y-6181457D01*
X1616418Y-6167597D01*
X1622712Y-6154290D01*
X1630280Y-6141664D01*
X1639048Y-6129841D01*
X1648934Y-6118934D01*
X1659841Y-6109048D01*
X1671664Y-6100280D01*
X1684290Y-6092712D01*
X1697597Y-6086418D01*
X1711457Y-6081459D01*
X1725736Y-6077882D01*
X1740297Y-6075722D01*
X1755000Y-6075000D01*
X2055000Y-6075000D01*
X2069703Y-6075722D01*
G37*
G04 #@! TD.AperFunction*
D13*
X-728000Y-14385000D03*
X17018000Y-2286000D03*
X17145000Y2413000D03*
X-9151500Y-11176000D03*
X1270000Y-9398000D03*
X2487647Y-8434353D03*
X-4064000Y-12954000D03*
X4445000Y-10033000D03*
X4445000Y14224000D03*
X6985000Y-13792200D03*
X-12573000Y-11836400D03*
X7747000Y-10033000D03*
X-17145000Y-2286000D03*
X9575800Y-9448800D03*
X-15100300Y8318500D03*
X6121400Y-9118600D03*
X-7620000Y15468600D03*
D14*
X750000Y-14385000D02*
X-728000Y-14385000D01*
X-9685000Y-10642500D02*
X-9151500Y-11176000D01*
X-10160000Y-10642500D02*
X-9685000Y-10642500D01*
X475000Y-9042500D02*
X830500Y-9398000D01*
X0Y-9042500D02*
X475000Y-9042500D01*
X830500Y-9398000D02*
X1270000Y-9398000D01*
X2875000Y-7350000D02*
X2875000Y-8047000D01*
X3175000Y-7050000D02*
X2875000Y-7350000D01*
X2875000Y-8047000D02*
X2487647Y-8434353D01*
X-2905000Y-12365000D02*
X-3475000Y-12365000D01*
X-2605000Y-12065000D02*
X-2905000Y-12365000D01*
X-3475000Y-12365000D02*
X-4064000Y-12954000D01*
D15*
X-1752500Y-6350000D02*
X-1752500Y-6825000D01*
D14*
X-5207000Y-13970000D02*
X-7243684Y-11933316D01*
X-7855000Y-12365000D02*
X-9987000Y-12365000D01*
X-7555000Y-12065000D02*
X-7855000Y-12365000D01*
X-9987000Y-12365000D02*
X-10033000Y-12319000D01*
X-2605000Y-8255000D02*
X-1778000Y-7428000D01*
X-1778000Y-7428000D02*
X-1778000Y-6477000D01*
X-1752500Y-6350000D02*
X1143000Y-6350000D01*
X1143000Y-6350000D02*
X1905000Y-7112000D01*
X-3060964Y-8255000D02*
X-2540000Y-8255000D01*
X-5209000Y-13970000D02*
X-5209000Y-10403036D01*
X-5209000Y-10403036D02*
X-3060964Y-8255000D01*
X-2286000Y-13970000D02*
X-5209000Y-13970000D01*
D15*
X-7555000Y-9525000D02*
X-8255000Y-9525000D01*
X-8255000Y-9525000D02*
X-10160000Y-7620000D01*
X0Y-10642500D02*
X-2387500Y-10642500D01*
X-2387500Y-10642500D02*
X-2540000Y-10795000D01*
X-2905000Y-11095000D02*
X-3348000Y-11095000D01*
X-2605000Y-10795000D02*
X-2905000Y-11095000D01*
X-10825510Y-12605774D02*
X-10825510Y-8285510D01*
X-2605000Y-10795000D02*
X-2305000Y-11095000D01*
X-3402588Y-14414510D02*
X-9016774Y-14414510D01*
X-1647599Y-15200501D02*
X-2852401Y-15200501D01*
X-3009499Y-14807599D02*
X-3402588Y-14414510D01*
X-3009499Y-15043403D02*
X-3009499Y-14807599D01*
X-2852401Y-15200501D02*
X-3009499Y-15043403D01*
X-1439490Y-14992392D02*
X-1647599Y-15200501D01*
X-9016774Y-14414510D02*
X-10825510Y-12605774D01*
X-1439490Y-11773954D02*
X-1439490Y-14992392D01*
X-2305000Y-11095000D02*
X-2118444Y-11095000D01*
X-2118444Y-11095000D02*
X-1439490Y-11773954D01*
X-10825510Y-8285510D02*
X-10160000Y-7620000D01*
X4445000Y-12000000D02*
X4445000Y-10033000D01*
X4445000Y14224000D02*
X4445000Y16383000D01*
X4445000Y16383000D02*
X4572000Y16510000D01*
X3175000Y-12000000D02*
X3665510Y-11509490D01*
X3665510Y-11509490D02*
X3665510Y-9237690D01*
X3665510Y-9237690D02*
X3713866Y-9237690D01*
X5207000Y-8103780D02*
X5207000Y2235200D01*
X3665510Y-9237690D02*
X4073090Y-9237690D01*
X4073090Y-9237690D02*
X5207000Y-8103780D01*
X5207000Y2235200D02*
X13462000Y10541000D01*
X9034490Y-6083954D02*
X15880444Y762000D01*
X9034490Y-7727066D02*
X9034490Y-6083954D01*
X5415000Y-11346556D02*
X9034490Y-7727066D01*
X5415000Y-11700000D02*
X5415000Y-11346556D01*
X5715000Y-12000000D02*
X5415000Y-11700000D01*
X15880444Y762000D02*
X17145000Y762000D01*
X9525000Y-11025000D02*
X11025000Y-9525000D01*
X9525000Y-12000000D02*
X9525000Y-11025000D01*
X11025000Y-9525000D02*
X14605000Y-9525000D01*
X8745510Y-13375496D02*
X8745510Y-9034490D01*
X6057557Y-16063449D02*
X8745510Y-13375496D01*
X8745510Y-9034490D02*
X9525000Y-8255000D01*
X9525000Y-8255000D02*
X9525000Y-6985000D01*
X2890501Y-13607599D02*
X1905000Y-12622098D01*
X2890501Y-15162401D02*
X2890501Y-13607599D01*
X2852401Y-15200501D02*
X2890501Y-15162401D01*
X-4559643Y-16550151D02*
X-2997249Y-16550151D01*
X1905000Y-12622098D02*
X1905000Y-12065000D01*
X-2316597Y-15869499D02*
X2788499Y-15869499D01*
X-2997249Y-16550151D02*
X-2316597Y-15869499D01*
X2852401Y-15805597D02*
X2852401Y-15200501D01*
X2788499Y-15869499D02*
X2852401Y-15805597D01*
X6985000Y-12186556D02*
X6985000Y-12065000D01*
X6985000Y-12000000D02*
X6985000Y-13792200D01*
X-12972999Y-11436401D02*
X-12972999Y-11411001D01*
X-12573000Y-11836400D02*
X-12972999Y-11436401D01*
X-12972999Y-11411001D02*
X-13411200Y-10972800D01*
X-17145000Y-787500D02*
X-16670000Y-787500D01*
X7955000Y-11700000D02*
X7955000Y-10241000D01*
X8255000Y-12000000D02*
X7955000Y-11700000D01*
X7955000Y-10241000D02*
X7747000Y-10033000D01*
X-17145000Y-2286000D02*
X-17145000Y-762000D01*
X10795000Y-8025000D02*
X9575800Y-9244200D01*
X10795000Y-7050000D02*
X10795000Y-8025000D01*
X9575800Y-9244200D02*
X9575800Y-9448800D01*
X-15100300Y8318500D02*
X-14401800Y9017000D01*
X-14401800Y9017000D02*
X-14401800Y9347200D01*
X8255000Y-8025000D02*
X7161400Y-9118600D01*
X8255000Y-7050000D02*
X8255000Y-8025000D01*
X7161400Y-9118600D02*
X6121400Y-9118600D01*
X-7054315Y15468600D02*
X-6571715Y15951200D01*
X-7620000Y15468600D02*
X-7054315Y15468600D01*
X-6571715Y15951200D02*
X-6045200Y15951200D01*
X-3327500Y-6350000D02*
X-3327500Y-7137500D01*
X0Y-12217500D02*
X475000Y-12217500D01*
X-3327500Y-7137500D02*
X-6985000Y-10795000D01*
X1996046Y-5684490D02*
X-2636490Y-5684490D01*
X0Y-12217500D02*
X0Y-11780000D01*
X-2636490Y-5684490D02*
X-3302000Y-6350000D01*
X4536046Y-5684490D02*
X1996046Y-5684490D01*
X4935510Y-6083954D02*
X4536046Y-5684490D01*
X4935510Y-8016046D02*
X4935510Y-6083954D01*
X4213946Y-8737610D02*
X4935510Y-8016046D01*
X3710834Y-8737610D02*
X129444Y-12319000D01*
X4213946Y-8737610D02*
X3710834Y-8737610D01*
X-2905000Y-9225000D02*
X-3258444Y-9225000D01*
X-2605000Y-9525000D02*
X-2905000Y-9225000D01*
X25400Y-7493000D02*
X-2006600Y-9525000D01*
X1016000Y-8483600D02*
X25400Y-7493000D01*
X1229542Y-8483600D02*
X1016000Y-8483600D01*
X1905000Y-9398000D02*
X1860501Y-9353501D01*
X1860501Y-9114559D02*
X1229542Y-8483600D01*
X3327400Y-8483600D02*
X2413000Y-9398000D01*
X4445000Y-8025000D02*
X3986400Y-8483600D01*
X2413000Y-9398000D02*
X1905000Y-9398000D01*
X1860501Y-9353501D02*
X1860501Y-9114559D01*
X3986400Y-8483600D02*
X3327400Y-8483600D01*
X4445000Y-7050000D02*
X4445000Y-8025000D01*
D16*
G36*
X1280978Y18727240D02*
G01*
X2978630Y18533165D01*
X4651600Y18185518D01*
X6286025Y17687180D01*
X7868362Y17042280D01*
X9385500Y16256163D01*
X10824866Y15335342D01*
X12174534Y14287447D01*
X13423320Y13121163D01*
X14560877Y11846152D01*
X15577777Y10472980D01*
X16465595Y9013026D01*
X17216973Y7478387D01*
X17825687Y5881780D01*
X18286691Y4236434D01*
X18596166Y2555984D01*
X18751547Y854355D01*
X18751547Y-854355D01*
X18596166Y-2555984D01*
X18286691Y-4236434D01*
X17825687Y-5881780D01*
X17216973Y-7478387D01*
X16465595Y-9013026D01*
X15577777Y-10472980D01*
X14560877Y-11846152D01*
X13423320Y-13121163D01*
X12174534Y-14287447D01*
X10824866Y-15335342D01*
X9385500Y-16256163D01*
X7868362Y-17042280D01*
X6286025Y-17687180D01*
X4651600Y-18185518D01*
X2978630Y-18533165D01*
X1280978Y-18727240D01*
X-427288Y-18766136D01*
X-2132014Y-18649530D01*
X-3819073Y-18378387D01*
X-5474486Y-17954956D01*
X-7084536Y-17382744D01*
X-8635881Y-16666493D01*
X-9045379Y-16430069D01*
X-7256533Y-16430069D01*
X-7234543Y-16553205D01*
X-7188954Y-16669685D01*
X-7121516Y-16775032D01*
X-7034822Y-16865200D01*
X-6932203Y-16936721D01*
X-6817602Y-16986848D01*
X-6672330Y-17030820D01*
X-6472294Y-16928896D01*
X-6217586Y-16144988D01*
X-6965830Y-15901869D01*
X-7165867Y-16003793D01*
X-7227270Y-16182831D01*
X-7254077Y-16305009D01*
X-7256533Y-16430069D01*
X-9045379Y-16430069D01*
X-10115666Y-15812139D01*
X-10614159Y-15460264D01*
X-6989264Y-15460264D01*
X-6887340Y-15660301D01*
X-6139096Y-15903420D01*
X-5884389Y-15119511D01*
X-5986313Y-14919475D01*
X-6129686Y-14869660D01*
X-6251864Y-14842853D01*
X-6376924Y-14840397D01*
X-6500060Y-14862387D01*
X-6616540Y-14907976D01*
X-6721887Y-14975413D01*
X-6812055Y-15062107D01*
X-6883577Y-15164726D01*
X-6933704Y-15279327D01*
X-6989264Y-15460264D01*
X-10614159Y-15460264D01*
X-11511630Y-14826760D01*
X-12812205Y-13718522D01*
X-14006614Y-12496608D01*
X-15084960Y-11171143D01*
X-15650249Y-10330317D01*
X-15061330Y-10330317D01*
X-14974619Y-10454891D01*
X-14891532Y-10548393D01*
X-14791800Y-10623888D01*
X-14679255Y-10678475D01*
X-14558224Y-10710058D01*
X-14433358Y-10717422D01*
X-14309453Y-10700284D01*
X-14212275Y-10666586D01*
X-14215021Y-10713158D01*
X-14202290Y-10805198D01*
X-14171848Y-10892985D01*
X-14124864Y-10973147D01*
X-13867708Y-11327091D01*
X-13805989Y-11396545D01*
X-13731905Y-11452625D01*
X-13648304Y-11493175D01*
X-13558399Y-11516635D01*
X-13465644Y-11522106D01*
X-13373604Y-11509375D01*
X-13336503Y-11496510D01*
X-13259973Y-11573040D01*
X-13238268Y-11613647D01*
X-13203847Y-11655590D01*
X-13227000Y-11771987D01*
X-13227000Y-11900813D01*
X-13201867Y-12027165D01*
X-13152567Y-12146185D01*
X-13080995Y-12253300D01*
X-12989900Y-12344395D01*
X-12882785Y-12415967D01*
X-12763765Y-12465267D01*
X-12637413Y-12490400D01*
X-12508587Y-12490400D01*
X-12382235Y-12465267D01*
X-12263215Y-12415967D01*
X-12156100Y-12344395D01*
X-12065005Y-12253300D01*
X-11993433Y-12146185D01*
X-11944133Y-12027165D01*
X-11919000Y-11900813D01*
X-11919000Y-11771987D01*
X-11944133Y-11645635D01*
X-11993433Y-11526615D01*
X-12065005Y-11419500D01*
X-12156100Y-11328405D01*
X-12263215Y-11256833D01*
X-12382235Y-11207533D01*
X-12508587Y-11182400D01*
X-12637413Y-11182400D01*
X-12734093Y-11201631D01*
X-12737465Y-11197522D01*
X-12747406Y-11185408D01*
X-12759523Y-11175464D01*
X-12798704Y-11136283D01*
X-12791033Y-11130709D01*
X-12721577Y-11068989D01*
X-12665497Y-10994905D01*
X-12624948Y-10911304D01*
X-12601487Y-10821399D01*
X-12596017Y-10728644D01*
X-12608748Y-10636604D01*
X-12639190Y-10548817D01*
X-12686174Y-10468655D01*
X-12943330Y-10114711D01*
X-13005049Y-10045257D01*
X-13079133Y-9989177D01*
X-13162734Y-9948627D01*
X-13207876Y-9936848D01*
X-13145796Y-9854838D01*
X-13091208Y-9742293D01*
X-13059626Y-9621262D01*
X-13052262Y-9496396D01*
X-13069399Y-9372491D01*
X-13110381Y-9254311D01*
X-13173631Y-9146397D01*
X-13265313Y-9025434D01*
X-13487055Y-8990313D01*
X-14153887Y-9474795D01*
X-14142131Y-9490976D01*
X-14347622Y-9640273D01*
X-14359377Y-9624093D01*
X-15026210Y-10108575D01*
X-15061330Y-10330317D01*
X-15650249Y-10330317D01*
X-16038307Y-9753110D01*
X-16233235Y-9397002D01*
X-15610300Y-9397002D01*
X-15593163Y-9520907D01*
X-15552181Y-9639087D01*
X-15488931Y-9747001D01*
X-15397249Y-9867964D01*
X-15175507Y-9903085D01*
X-14508675Y-9418603D01*
X-14971115Y-8782108D01*
X-15192857Y-8746988D01*
X-15347769Y-8855741D01*
X-15441271Y-8938828D01*
X-15516766Y-9038560D01*
X-15571354Y-9151105D01*
X-15602936Y-9272136D01*
X-15610300Y-9397002D01*
X-16233235Y-9397002D01*
X-16651541Y-8632811D01*
X-14765625Y-8632811D01*
X-14303185Y-9269305D01*
X-13636352Y-8784823D01*
X-13607872Y-8605000D01*
X-11273072Y-8605000D01*
X-11270000Y-8756750D01*
X-11143009Y-8883741D01*
X-11143009Y-9201259D01*
X-11270000Y-9328250D01*
X-11273072Y-9480000D01*
X-11260812Y-9604482D01*
X-11224502Y-9724180D01*
X-11165537Y-9834494D01*
X-11158967Y-9842500D01*
X-11165537Y-9850506D01*
X-11224502Y-9960820D01*
X-11260812Y-10080518D01*
X-11273072Y-10205000D01*
X-11270000Y-10356750D01*
X-11143010Y-10483740D01*
X-11143010Y-10801260D01*
X-11270000Y-10928250D01*
X-11273072Y-11080000D01*
X-11260812Y-11204482D01*
X-11224502Y-11324180D01*
X-11165537Y-11434494D01*
X-11143010Y-11461944D01*
X-11143010Y-12590178D01*
X-11144546Y-12605774D01*
X-11140329Y-12648595D01*
X-11138416Y-12668014D01*
X-11120261Y-12727863D01*
X-11090779Y-12783020D01*
X-11051103Y-12831367D01*
X-11038980Y-12841316D01*
X-9252311Y-14627986D01*
X-9242367Y-14640103D01*
X-9194378Y-14679486D01*
X-9194021Y-14679779D01*
X-9138864Y-14709261D01*
X-9079015Y-14727416D01*
X-9016774Y-14733546D01*
X-9001178Y-14732010D01*
X-4112283Y-14732010D01*
X-4141797Y-14747786D01*
X-4180473Y-14779527D01*
X-4212214Y-14818203D01*
X-4235800Y-14862328D01*
X-4250324Y-14910207D01*
X-4255228Y-14960000D01*
X-4255228Y-15860000D01*
X-4253066Y-15881957D01*
X-4542034Y-15788065D01*
X-4632791Y-15768152D01*
X-4725689Y-15766328D01*
X-4817158Y-15782662D01*
X-4860601Y-15799665D01*
X-4858581Y-15696829D01*
X-4880571Y-15573693D01*
X-4926160Y-15457213D01*
X-4993598Y-15351866D01*
X-5080292Y-15261698D01*
X-5182911Y-15190177D01*
X-5297512Y-15140050D01*
X-5442784Y-15096078D01*
X-5642820Y-15198002D01*
X-5897528Y-15981910D01*
X-5878507Y-15988090D01*
X-5956996Y-16229659D01*
X-5976018Y-16223478D01*
X-6230725Y-17007387D01*
X-6128801Y-17207423D01*
X-5985428Y-17257238D01*
X-5863250Y-17284045D01*
X-5738190Y-17286501D01*
X-5615054Y-17264511D01*
X-5498574Y-17218922D01*
X-5393227Y-17151485D01*
X-5303059Y-17064791D01*
X-5244247Y-16980408D01*
X-5219095Y-17019699D01*
X-5154696Y-17086678D01*
X-5078468Y-17139806D01*
X-4993339Y-17177042D01*
X-4577252Y-17312237D01*
X-4486495Y-17332150D01*
X-4393597Y-17333974D01*
X-4302128Y-17317640D01*
X-4255228Y-17299283D01*
X-4255228Y-18060000D01*
X-4250324Y-18109793D01*
X-4235800Y-18157672D01*
X-4212214Y-18201797D01*
X-4180473Y-18240473D01*
X-4141797Y-18272214D01*
X-4097672Y-18295800D01*
X-4049793Y-18310324D01*
X-4000000Y-18315228D01*
X-3200000Y-18315228D01*
X-3150207Y-18310324D01*
X-3102328Y-18295800D01*
X-3058203Y-18272214D01*
X-3019527Y-18240473D01*
X-2987786Y-18201797D01*
X-2964200Y-18157672D01*
X-2949676Y-18109793D01*
X-2944772Y-18060000D01*
X-2944772Y-17160000D01*
X-2949676Y-17110207D01*
X-2964200Y-17062328D01*
X-2987786Y-17018203D01*
X-3019527Y-16979527D01*
X-3058203Y-16947786D01*
X-3102328Y-16924200D01*
X-3150207Y-16909676D01*
X-3200000Y-16904772D01*
X-3946489Y-16904772D01*
X-3934428Y-16867651D01*
X-3012845Y-16867651D01*
X-2997249Y-16869187D01*
X-2981653Y-16867651D01*
X-2935008Y-16863057D01*
X-2875159Y-16844902D01*
X-2820002Y-16815420D01*
X-2771656Y-16775744D01*
X-2761707Y-16763621D01*
X-2185084Y-16186999D01*
X-2128212Y-16186999D01*
X-2176945Y-16304651D01*
X-2204000Y-16440662D01*
X-2204000Y-16579338D01*
X-2176945Y-16715349D01*
X-2123876Y-16843469D01*
X-2046832Y-16958774D01*
X-1948774Y-17056832D01*
X-1833469Y-17133876D01*
X-1705349Y-17186945D01*
X-1569338Y-17214000D01*
X-1430662Y-17214000D01*
X-1294651Y-17186945D01*
X-1166531Y-17133876D01*
X-1051226Y-17056832D01*
X-953168Y-16958774D01*
X-876124Y-16843469D01*
X-823055Y-16715349D01*
X-796000Y-16579338D01*
X-796000Y-16440662D01*
X-823055Y-16304651D01*
X-871788Y-16186999D01*
X871788Y-16186999D01*
X823055Y-16304651D01*
X796000Y-16440662D01*
X796000Y-16579338D01*
X823055Y-16715349D01*
X876124Y-16843469D01*
X953168Y-16958774D01*
X1051226Y-17056832D01*
X1166531Y-17133876D01*
X1294651Y-17186945D01*
X1430662Y-17214000D01*
X1569338Y-17214000D01*
X1705349Y-17186945D01*
X1770400Y-17160000D01*
X2944772Y-17160000D01*
X2944772Y-18060000D01*
X2949676Y-18109793D01*
X2964200Y-18157672D01*
X2987786Y-18201797D01*
X3019527Y-18240473D01*
X3058203Y-18272214D01*
X3102328Y-18295800D01*
X3150207Y-18310324D01*
X3200000Y-18315228D01*
X4000000Y-18315228D01*
X4049793Y-18310324D01*
X4097672Y-18295800D01*
X4141797Y-18272214D01*
X4180473Y-18240473D01*
X4212214Y-18201797D01*
X4235800Y-18157672D01*
X4250324Y-18109793D01*
X4255228Y-18060000D01*
X4255228Y-17772909D01*
X4365336Y-17770747D01*
X4487514Y-17743940D01*
X4630887Y-17694125D01*
X4732811Y-17494089D01*
X4478104Y-16710180D01*
X3879211Y-16904772D01*
X3200000Y-16904772D01*
X3150207Y-16909676D01*
X3102328Y-16924200D01*
X3058203Y-16947786D01*
X3019527Y-16979527D01*
X2987786Y-17018203D01*
X2964200Y-17062328D01*
X2949676Y-17110207D01*
X2944772Y-17160000D01*
X1770400Y-17160000D01*
X1833469Y-17133876D01*
X1948774Y-17056832D01*
X2046832Y-16958774D01*
X2123876Y-16843469D01*
X2176945Y-16715349D01*
X2204000Y-16579338D01*
X2204000Y-16440662D01*
X2176945Y-16304651D01*
X2128212Y-16186999D01*
X2772903Y-16186999D01*
X2788499Y-16188535D01*
X2804095Y-16186999D01*
X2850740Y-16182405D01*
X2910589Y-16164250D01*
X2965746Y-16134768D01*
X3014092Y-16095092D01*
X3024041Y-16082969D01*
X3045347Y-16061663D01*
X3058203Y-16072214D01*
X3102328Y-16095800D01*
X3150207Y-16110324D01*
X3200000Y-16115228D01*
X3372865Y-16115228D01*
X3360667Y-16183531D01*
X3363123Y-16308591D01*
X3389930Y-16430769D01*
X3451333Y-16609807D01*
X3651370Y-16711731D01*
X4399614Y-16468612D01*
X4393433Y-16449590D01*
X4635002Y-16371101D01*
X4641182Y-16390122D01*
X4660204Y-16383941D01*
X4738693Y-16625510D01*
X4719672Y-16631690D01*
X4974380Y-17415598D01*
X5174416Y-17517522D01*
X5319688Y-17473550D01*
X5434289Y-17423423D01*
X5536908Y-17351902D01*
X5623602Y-17261734D01*
X5691040Y-17156387D01*
X5736629Y-17039907D01*
X5758619Y-16916771D01*
X5756599Y-16813935D01*
X5800042Y-16830938D01*
X5891511Y-16847272D01*
X5984409Y-16845448D01*
X6075166Y-16825535D01*
X6491253Y-16690340D01*
X6576381Y-16653104D01*
X6652610Y-16599976D01*
X6717009Y-16532997D01*
X6767103Y-16454742D01*
X6800969Y-16368217D01*
X6817303Y-16276748D01*
X6815479Y-16183850D01*
X6795566Y-16093093D01*
X6717424Y-15852595D01*
X8958987Y-13611032D01*
X8971103Y-13601089D01*
X9010779Y-13552743D01*
X9040261Y-13497586D01*
X9058416Y-13437737D01*
X9063010Y-13391092D01*
X9063010Y-13391091D01*
X9064546Y-13375496D01*
X9063010Y-13359900D01*
X9063010Y-13080528D01*
X9088461Y-13111539D01*
X9149867Y-13161935D01*
X9219926Y-13199382D01*
X9295944Y-13222442D01*
X9375000Y-13230228D01*
X9675000Y-13230228D01*
X9754056Y-13222442D01*
X9830074Y-13199382D01*
X9889807Y-13167454D01*
X9905498Y-13219180D01*
X9964463Y-13329494D01*
X10043815Y-13426185D01*
X10140506Y-13505537D01*
X10250820Y-13564502D01*
X10370518Y-13600812D01*
X10495000Y-13613072D01*
X10509250Y-13610000D01*
X10668000Y-13451250D01*
X10668000Y-12127000D01*
X10922000Y-12127000D01*
X10922000Y-13451250D01*
X11080750Y-13610000D01*
X11095000Y-13613072D01*
X11219482Y-13600812D01*
X11339180Y-13564502D01*
X11449494Y-13505537D01*
X11546185Y-13426185D01*
X11625537Y-13329494D01*
X11684502Y-13219180D01*
X11720812Y-13099482D01*
X11733072Y-12975000D01*
X11730000Y-12285750D01*
X11571250Y-12127000D01*
X10922000Y-12127000D01*
X10668000Y-12127000D01*
X10648000Y-12127000D01*
X10648000Y-11873000D01*
X10668000Y-11873000D01*
X10668000Y-10548750D01*
X10922000Y-10548750D01*
X10922000Y-11873000D01*
X11571250Y-11873000D01*
X11730000Y-11714250D01*
X11730799Y-11534789D01*
X12971175Y-11534789D01*
X13006296Y-11756531D01*
X13157597Y-11870255D01*
X13265511Y-11933505D01*
X13383691Y-11974486D01*
X13507596Y-11991624D01*
X13632462Y-11984260D01*
X13753493Y-11952677D01*
X13866038Y-11898090D01*
X13965770Y-11822595D01*
X14048857Y-11729093D01*
X14135568Y-11604519D01*
X14100448Y-11382777D01*
X13433615Y-10898295D01*
X12971175Y-11534789D01*
X11730799Y-11534789D01*
X11733072Y-11025000D01*
X11720812Y-10900518D01*
X11684502Y-10780820D01*
X11679039Y-10770598D01*
X12126500Y-10770598D01*
X12133864Y-10895464D01*
X12165446Y-11016495D01*
X12220034Y-11129040D01*
X12295529Y-11228772D01*
X12389031Y-11311859D01*
X12543943Y-11420612D01*
X12765685Y-11385492D01*
X13228125Y-10748997D01*
X12561293Y-10264515D01*
X12339551Y-10299636D01*
X12247869Y-10420599D01*
X12184619Y-10528513D01*
X12143637Y-10646693D01*
X12126500Y-10770598D01*
X11679039Y-10770598D01*
X11625537Y-10670506D01*
X11546185Y-10573815D01*
X11449494Y-10494463D01*
X11339180Y-10435498D01*
X11219482Y-10399188D01*
X11095000Y-10386928D01*
X11080750Y-10390000D01*
X10922000Y-10548750D01*
X10668000Y-10548750D01*
X10559131Y-10439881D01*
X11156513Y-9842500D01*
X12676296Y-9842500D01*
X12710590Y-10059025D01*
X13377423Y-10543507D01*
X13389178Y-10527327D01*
X13594669Y-10676624D01*
X13582913Y-10692805D01*
X14249745Y-11177287D01*
X14471487Y-11142166D01*
X14563169Y-11021203D01*
X14626419Y-10913289D01*
X14667401Y-10795109D01*
X14684538Y-10671204D01*
X14677174Y-10546338D01*
X14645592Y-10425307D01*
X14591004Y-10312762D01*
X14528925Y-10230753D01*
X14574065Y-10218973D01*
X14657666Y-10178424D01*
X14731750Y-10122344D01*
X14793470Y-10052889D01*
X15050626Y-9698945D01*
X15097610Y-9618782D01*
X15128052Y-9530995D01*
X15140783Y-9438955D01*
X15135312Y-9346200D01*
X15111852Y-9256295D01*
X15071302Y-9172694D01*
X15015222Y-9098610D01*
X14945767Y-9036891D01*
X14531145Y-8735651D01*
X14450984Y-8688667D01*
X14363197Y-8658225D01*
X14271157Y-8645494D01*
X14178402Y-8650964D01*
X14088497Y-8674425D01*
X14004896Y-8714974D01*
X13930812Y-8771054D01*
X13869092Y-8840509D01*
X13611936Y-9194453D01*
X13604289Y-9207500D01*
X11040592Y-9207500D01*
X11024999Y-9205964D01*
X11009406Y-9207500D01*
X11009404Y-9207500D01*
X10962759Y-9212094D01*
X10902910Y-9230249D01*
X10847753Y-9259731D01*
X10799407Y-9299407D01*
X10789465Y-9311522D01*
X9326433Y-10774555D01*
X9295944Y-10777558D01*
X9219926Y-10800618D01*
X9149867Y-10838065D01*
X9088461Y-10888461D01*
X9063010Y-10919472D01*
X9063010Y-9858524D01*
X9067805Y-9865700D01*
X9158900Y-9956795D01*
X9266015Y-10028367D01*
X9385035Y-10077667D01*
X9511387Y-10102800D01*
X9640213Y-10102800D01*
X9766565Y-10077667D01*
X9885585Y-10028367D01*
X9992700Y-9956795D01*
X10083795Y-9865700D01*
X10155367Y-9758585D01*
X10204667Y-9639565D01*
X10229800Y-9513213D01*
X10229800Y-9384387D01*
X10204667Y-9258035D01*
X10155367Y-9139015D01*
X10145205Y-9123807D01*
X10993568Y-8275445D01*
X11024056Y-8272442D01*
X11100074Y-8249382D01*
X11170133Y-8211935D01*
X11231539Y-8161539D01*
X11281935Y-8100133D01*
X11319382Y-8030074D01*
X11342442Y-7954056D01*
X11350228Y-7875000D01*
X11350228Y-6225000D01*
X11342442Y-6145944D01*
X11319382Y-6069926D01*
X11281935Y-5999867D01*
X11231539Y-5938461D01*
X11170133Y-5888065D01*
X11100074Y-5850618D01*
X11024056Y-5827558D01*
X10945000Y-5819772D01*
X10645000Y-5819772D01*
X10565944Y-5827558D01*
X10489926Y-5850618D01*
X10419867Y-5888065D01*
X10358461Y-5938461D01*
X10308065Y-5999867D01*
X10270618Y-6069926D01*
X10247558Y-6145944D01*
X10239772Y-6225000D01*
X10239772Y-7875000D01*
X10247558Y-7954056D01*
X10270618Y-8030074D01*
X10295104Y-8075884D01*
X9576188Y-8794800D01*
X9511387Y-8794800D01*
X9415050Y-8813963D01*
X9738477Y-8490536D01*
X9750593Y-8480593D01*
X9790269Y-8432247D01*
X9819751Y-8377090D01*
X9837906Y-8317241D01*
X9842500Y-8270596D01*
X9842500Y-8270594D01*
X9844036Y-8255001D01*
X9842812Y-8242574D01*
X9900133Y-8211935D01*
X9961539Y-8161539D01*
X10011935Y-8100133D01*
X10049382Y-8030074D01*
X10072442Y-7954056D01*
X10080228Y-7875000D01*
X10080228Y-6225000D01*
X10072442Y-6145944D01*
X10049382Y-6069926D01*
X10011935Y-5999867D01*
X9961539Y-5938461D01*
X9900133Y-5888065D01*
X9830074Y-5850618D01*
X9754056Y-5827558D01*
X9741167Y-5826289D01*
X14342456Y-1225000D01*
X16031928Y-1225000D01*
X16044188Y-1349482D01*
X16080498Y-1469180D01*
X16139463Y-1579494D01*
X16218815Y-1676185D01*
X16315506Y-1755537D01*
X16425820Y-1814502D01*
X16545518Y-1850812D01*
X16670000Y-1863072D01*
X16859250Y-1860000D01*
X17018000Y-1701250D01*
X17018000Y-914500D01*
X17272000Y-914500D01*
X17272000Y-1701250D01*
X17430750Y-1860000D01*
X17620000Y-1863072D01*
X17744482Y-1850812D01*
X17864180Y-1814502D01*
X17974494Y-1755537D01*
X18071185Y-1676185D01*
X18150537Y-1579494D01*
X18209502Y-1469180D01*
X18245812Y-1349482D01*
X18258072Y-1225000D01*
X18255000Y-1073250D01*
X18096250Y-914500D01*
X17272000Y-914500D01*
X17018000Y-914500D01*
X16193750Y-914500D01*
X16035000Y-1073250D01*
X16031928Y-1225000D01*
X14342456Y-1225000D01*
X16011957Y444500D01*
X16433520Y444500D01*
X16450851Y387366D01*
X16494652Y305422D01*
X16524247Y269360D01*
X16425820Y239502D01*
X16315506Y180537D01*
X16218815Y101185D01*
X16139463Y4494D01*
X16080498Y-105820D01*
X16044188Y-225518D01*
X16031928Y-350000D01*
X16035000Y-501750D01*
X16193750Y-660500D01*
X17018000Y-660500D01*
X17018000Y-640500D01*
X17272000Y-640500D01*
X17272000Y-660500D01*
X18096250Y-660500D01*
X18255000Y-501750D01*
X18258072Y-350000D01*
X18245812Y-225518D01*
X18209502Y-105820D01*
X18150537Y4494D01*
X18071185Y101185D01*
X17974494Y180537D01*
X17864180Y239502D01*
X17765753Y269360D01*
X17795348Y305422D01*
X17839149Y387366D01*
X17866121Y476281D01*
X17875228Y568750D01*
X17875228Y1006250D01*
X17866121Y1098719D01*
X17839149Y1187634D01*
X17795348Y1269578D01*
X17736403Y1341403D01*
X17664578Y1400348D01*
X17582634Y1444149D01*
X17493719Y1471121D01*
X17401250Y1480228D01*
X16888750Y1480228D01*
X16796281Y1471121D01*
X16707366Y1444149D01*
X16625422Y1400348D01*
X16553597Y1341403D01*
X16494652Y1269578D01*
X16450851Y1187634D01*
X16423879Y1098719D01*
X16421986Y1079500D01*
X15896040Y1079500D01*
X15880444Y1081036D01*
X15864848Y1079500D01*
X15818203Y1074906D01*
X15758354Y1056751D01*
X15703197Y1027269D01*
X15654851Y987593D01*
X15644907Y975476D01*
X8821015Y-5848417D01*
X8808898Y-5858361D01*
X8769222Y-5906707D01*
X8759139Y-5925571D01*
X8739739Y-5961865D01*
X8731915Y-5987658D01*
X8691539Y-5938461D01*
X8630133Y-5888065D01*
X8560074Y-5850618D01*
X8484056Y-5827558D01*
X8405000Y-5819772D01*
X8105000Y-5819772D01*
X8025944Y-5827558D01*
X7949926Y-5850618D01*
X7879867Y-5888065D01*
X7818461Y-5938461D01*
X7768065Y-5999867D01*
X7730618Y-6069926D01*
X7707558Y-6145944D01*
X7699772Y-6225000D01*
X7699772Y-7875000D01*
X7707558Y-7954056D01*
X7730618Y-8030074D01*
X7755104Y-8075884D01*
X7029888Y-8801100D01*
X6695812Y-8801100D01*
X6629395Y-8701700D01*
X6538300Y-8610605D01*
X6431185Y-8539033D01*
X6403552Y-8527587D01*
X6466185Y-8476185D01*
X6545537Y-8379494D01*
X6604502Y-8269180D01*
X6620193Y-8217454D01*
X6679926Y-8249382D01*
X6755944Y-8272442D01*
X6835000Y-8280228D01*
X7135000Y-8280228D01*
X7214056Y-8272442D01*
X7290074Y-8249382D01*
X7360133Y-8211935D01*
X7421539Y-8161539D01*
X7471935Y-8100133D01*
X7509382Y-8030074D01*
X7532442Y-7954056D01*
X7540228Y-7875000D01*
X7540228Y-6225000D01*
X7532442Y-6145944D01*
X7509382Y-6069926D01*
X7471935Y-5999867D01*
X7421539Y-5938461D01*
X7360133Y-5888065D01*
X7290074Y-5850618D01*
X7214056Y-5827558D01*
X7135000Y-5819772D01*
X6835000Y-5819772D01*
X6755944Y-5827558D01*
X6679926Y-5850618D01*
X6620193Y-5882546D01*
X6604502Y-5830820D01*
X6545537Y-5720506D01*
X6466185Y-5623815D01*
X6369494Y-5544463D01*
X6259180Y-5485498D01*
X6139482Y-5449188D01*
X6015000Y-5436928D01*
X6000750Y-5440000D01*
X5842000Y-5598750D01*
X5842000Y-6923000D01*
X5862000Y-6923000D01*
X5862000Y-7177000D01*
X5842000Y-7177000D01*
X5842000Y-7197000D01*
X5588000Y-7197000D01*
X5588000Y-7177000D01*
X5568000Y-7177000D01*
X5568000Y-6923000D01*
X5588000Y-6923000D01*
X5588000Y-5598750D01*
X5524500Y-5535250D01*
X5524500Y2104259D01*
X11943819Y8563081D01*
X13601232Y8563081D01*
X13687943Y8438507D01*
X13771030Y8345005D01*
X13870762Y8269510D01*
X13983307Y8214923D01*
X14104338Y8183340D01*
X14229204Y8175976D01*
X14353109Y8193114D01*
X14471289Y8234095D01*
X14579203Y8297345D01*
X14730504Y8411069D01*
X14765625Y8632811D01*
X14303185Y9269305D01*
X13636352Y8784823D01*
X13601232Y8563081D01*
X11943819Y8563081D01*
X13082446Y9708714D01*
X13059626Y9621262D01*
X13052262Y9496396D01*
X13069399Y9372491D01*
X13110381Y9254311D01*
X13173631Y9146397D01*
X13265313Y9025434D01*
X13487055Y8990313D01*
X14076545Y9418603D01*
X14508675Y9418603D01*
X14971115Y8782108D01*
X15192857Y8746988D01*
X15347769Y8855741D01*
X15441271Y8938828D01*
X15516766Y9038560D01*
X15571354Y9151105D01*
X15602936Y9272136D01*
X15610300Y9397002D01*
X15593163Y9520907D01*
X15552181Y9639087D01*
X15488931Y9747001D01*
X15397249Y9867964D01*
X15175507Y9903085D01*
X14508675Y9418603D01*
X14076545Y9418603D01*
X14153887Y9474795D01*
X14142131Y9490976D01*
X14347622Y9640273D01*
X14359377Y9624093D01*
X15026210Y10108575D01*
X15061330Y10330317D01*
X14974619Y10454891D01*
X14891532Y10548393D01*
X14791800Y10623888D01*
X14679255Y10678475D01*
X14558224Y10710058D01*
X14433358Y10717422D01*
X14309453Y10700284D01*
X14212275Y10666586D01*
X14215021Y10713158D01*
X14202290Y10805198D01*
X14171848Y10892985D01*
X14124864Y10973147D01*
X13867708Y11327091D01*
X13805989Y11396545D01*
X13731905Y11452625D01*
X13648304Y11493175D01*
X13558399Y11516635D01*
X13465644Y11522106D01*
X13373604Y11509375D01*
X13285817Y11478933D01*
X13205655Y11431949D01*
X12791033Y11130709D01*
X12721577Y11068989D01*
X12665497Y10994905D01*
X12624948Y10911304D01*
X12601487Y10821399D01*
X12596017Y10728644D01*
X12608748Y10636604D01*
X12639190Y10548817D01*
X12686174Y10468655D01*
X12794403Y10319691D01*
X4993149Y2470428D01*
X4981408Y2460793D01*
X4971153Y2448297D01*
X4970812Y2447954D01*
X4961308Y2436301D01*
X4941732Y2412447D01*
X4941501Y2412014D01*
X4941189Y2411632D01*
X4926692Y2384309D01*
X4912250Y2357290D01*
X4912108Y2356823D01*
X4911876Y2356385D01*
X4902982Y2326737D01*
X4894095Y2297441D01*
X4894047Y2296953D01*
X4893905Y2296480D01*
X4890950Y2265513D01*
X4889501Y2250796D01*
X4889501Y2250321D01*
X4887965Y2234222D01*
X4889501Y2219105D01*
X4889500Y-5588932D01*
X4771588Y-5471019D01*
X4761639Y-5458897D01*
X4713293Y-5419221D01*
X4658136Y-5389739D01*
X4598287Y-5371584D01*
X4551642Y-5366990D01*
X4536046Y-5365454D01*
X4520450Y-5366990D01*
X-2620898Y-5366990D01*
X-2636491Y-5365454D01*
X-2652084Y-5366990D01*
X-2652086Y-5366990D01*
X-2698731Y-5371584D01*
X-2758580Y-5389739D01*
X-2813737Y-5419221D01*
X-2862083Y-5458897D01*
X-2872027Y-5471014D01*
X-3028671Y-5627659D01*
X-3108750Y-5619772D01*
X-3546250Y-5619772D01*
X-3638719Y-5628879D01*
X-3727634Y-5655851D01*
X-3809578Y-5699652D01*
X-3881403Y-5758597D01*
X-3940348Y-5830422D01*
X-3984149Y-5912366D01*
X-4011121Y-6001281D01*
X-4020228Y-6093750D01*
X-4020228Y-6606250D01*
X-4011121Y-6698719D01*
X-3984149Y-6787634D01*
X-3940348Y-6869578D01*
X-3881403Y-6941403D01*
X-3809578Y-7000348D01*
X-3727634Y-7044149D01*
X-3693513Y-7054500D01*
X-6325947Y-9686935D01*
X-6324772Y-9675000D01*
X-6324772Y-9375000D01*
X-6332558Y-9295944D01*
X-6355618Y-9219926D01*
X-6393065Y-9149867D01*
X-6443461Y-9088461D01*
X-6504867Y-9038065D01*
X-6574926Y-9000618D01*
X-6650944Y-8977558D01*
X-6730000Y-8969772D01*
X-8361215Y-8969772D01*
X-8570587Y-8760400D01*
X-8535074Y-8779382D01*
X-8459056Y-8802442D01*
X-8380000Y-8810228D01*
X-6730000Y-8810228D01*
X-6650944Y-8802442D01*
X-6574926Y-8779382D01*
X-6504867Y-8741935D01*
X-6443461Y-8691539D01*
X-6393065Y-8630133D01*
X-6355618Y-8560074D01*
X-6332558Y-8484056D01*
X-6324772Y-8405000D01*
X-6324772Y-8105000D01*
X-6332558Y-8025944D01*
X-6355618Y-7949926D01*
X-6393065Y-7879867D01*
X-6443461Y-7818461D01*
X-6504867Y-7768065D01*
X-6574926Y-7730618D01*
X-6650944Y-7707558D01*
X-6730000Y-7699772D01*
X-8380000Y-7699772D01*
X-8459056Y-7707558D01*
X-8535074Y-7730618D01*
X-8605133Y-7768065D01*
X-8666539Y-7818461D01*
X-8716935Y-7879867D01*
X-8754382Y-7949926D01*
X-8777442Y-8025944D01*
X-8785228Y-8105000D01*
X-8785228Y-8405000D01*
X-8777442Y-8484056D01*
X-8754382Y-8560074D01*
X-8735400Y-8595588D01*
X-9465270Y-7865718D01*
X-9438879Y-7778719D01*
X-9429772Y-7686250D01*
X-9429772Y-7248750D01*
X-9438879Y-7156281D01*
X-9465851Y-7067366D01*
X-9509652Y-6985422D01*
X-9568597Y-6913597D01*
X-9640422Y-6854652D01*
X-9722366Y-6810851D01*
X-9811281Y-6783879D01*
X-9903750Y-6774772D01*
X-10416250Y-6774772D01*
X-10508719Y-6783879D01*
X-10597634Y-6810851D01*
X-10679578Y-6854652D01*
X-10751403Y-6913597D01*
X-10810348Y-6985422D01*
X-10854149Y-7067366D01*
X-10881121Y-7156281D01*
X-10890228Y-7248750D01*
X-10890228Y-7686250D01*
X-10881121Y-7778719D01*
X-10854730Y-7865718D01*
X-11038985Y-8049973D01*
X-11051102Y-8059917D01*
X-11090778Y-8108263D01*
X-11103953Y-8132911D01*
X-11120261Y-8163421D01*
X-11135620Y-8214051D01*
X-11165537Y-8250506D01*
X-11224502Y-8360820D01*
X-11260812Y-8480518D01*
X-11273072Y-8605000D01*
X-13607872Y-8605000D01*
X-13601232Y-8563081D01*
X-13687943Y-8438507D01*
X-13771030Y-8345005D01*
X-13870762Y-8269510D01*
X-13983307Y-8214923D01*
X-14104338Y-8183340D01*
X-14229204Y-8175976D01*
X-14353109Y-8193114D01*
X-14471289Y-8234095D01*
X-14579203Y-8297345D01*
X-14730504Y-8411069D01*
X-14765625Y-8632811D01*
X-16651541Y-8632811D01*
X-16858755Y-8254260D01*
X-17539507Y-6687013D01*
X-18074920Y-5064355D01*
X-18460560Y-3399732D01*
X-18693229Y-1706938D01*
X-18771000Y0D01*
X-18755054Y350000D01*
X-18258072Y350000D01*
X-18245812Y225518D01*
X-18209502Y105820D01*
X-18150537Y-4494D01*
X-18071185Y-101185D01*
X-17974494Y-180537D01*
X-17864180Y-239502D01*
X-17765753Y-269360D01*
X-17795348Y-305422D01*
X-17839149Y-387366D01*
X-17866121Y-476281D01*
X-17875228Y-568750D01*
X-17875228Y-1006250D01*
X-17866121Y-1098719D01*
X-17839149Y-1187634D01*
X-17795348Y-1269578D01*
X-17736403Y-1341403D01*
X-17664578Y-1400348D01*
X-17582634Y-1444149D01*
X-17493719Y-1471121D01*
X-17462499Y-1474196D01*
X-17462500Y-1711588D01*
X-17561900Y-1778005D01*
X-17652995Y-1869100D01*
X-17724567Y-1976215D01*
X-17773867Y-2095235D01*
X-17799000Y-2221587D01*
X-17799000Y-2350413D01*
X-17773867Y-2476765D01*
X-17724567Y-2595785D01*
X-17652995Y-2702900D01*
X-17561900Y-2793995D01*
X-17454785Y-2865567D01*
X-17335765Y-2914867D01*
X-17209413Y-2940000D01*
X-17080587Y-2940000D01*
X-16954235Y-2914867D01*
X-16835215Y-2865567D01*
X-16728100Y-2793995D01*
X-16637005Y-2702900D01*
X-16565433Y-2595785D01*
X-16516133Y-2476765D01*
X-16491000Y-2350413D01*
X-16491000Y-2221587D01*
X-16516133Y-2095235D01*
X-16565433Y-1976215D01*
X-16637005Y-1869100D01*
X-16728100Y-1778005D01*
X-16827500Y-1711588D01*
X-16827500Y-1474196D01*
X-16796281Y-1471121D01*
X-16707366Y-1444149D01*
X-16625422Y-1400348D01*
X-16553597Y-1341403D01*
X-16494652Y-1269578D01*
X-16450851Y-1187634D01*
X-16423879Y-1098719D01*
X-16414772Y-1006250D01*
X-16414772Y-976982D01*
X-16404731Y-964747D01*
X-16375249Y-909590D01*
X-16357094Y-849741D01*
X-16350964Y-787500D01*
X-16357094Y-725259D01*
X-16375249Y-665410D01*
X-16404731Y-610253D01*
X-16414772Y-598018D01*
X-16414772Y-568750D01*
X-16423879Y-476281D01*
X-16450851Y-387366D01*
X-16494652Y-305422D01*
X-16524247Y-269360D01*
X-16425820Y-239502D01*
X-16315506Y-180537D01*
X-16218815Y-101185D01*
X-16139463Y-4494D01*
X-16080498Y105820D01*
X-16044188Y225518D01*
X-16031928Y350000D01*
X-16035000Y501750D01*
X-16193750Y660500D01*
X-17018000Y660500D01*
X-17018000Y640500D01*
X-17272000Y640500D01*
X-17272000Y660500D01*
X-18096250Y660500D01*
X-18255000Y501750D01*
X-18258072Y350000D01*
X-18755054Y350000D01*
X-18715188Y1225000D01*
X-18258072Y1225000D01*
X-18255000Y1073250D01*
X-18096250Y914500D01*
X-17272000Y914500D01*
X-17272000Y1701250D01*
X-17018000Y1701250D01*
X-17018000Y914500D01*
X-16193750Y914500D01*
X-16035000Y1073250D01*
X-16031928Y1225000D01*
X-16044188Y1349482D01*
X-16080498Y1469180D01*
X-16139463Y1579494D01*
X-16218815Y1676185D01*
X-16315506Y1755537D01*
X-16425820Y1814502D01*
X-16545518Y1850812D01*
X-16670000Y1863072D01*
X-16859250Y1860000D01*
X-17018000Y1701250D01*
X-17272000Y1701250D01*
X-17430750Y1860000D01*
X-17620000Y1863072D01*
X-17744482Y1850812D01*
X-17864180Y1814502D01*
X-17974494Y1755537D01*
X-18071185Y1676185D01*
X-18150537Y1579494D01*
X-18209502Y1469180D01*
X-18245812Y1349482D01*
X-18258072Y1225000D01*
X-18715188Y1225000D01*
X-18693229Y1706938D01*
X-18460560Y3399732D01*
X-18074920Y5064355D01*
X-17539507Y6687013D01*
X-16858755Y8254260D01*
X-16788333Y8382913D01*
X-15754300Y8382913D01*
X-15754300Y8254087D01*
X-15729167Y8127735D01*
X-15679867Y8008715D01*
X-15608295Y7901600D01*
X-15517200Y7810505D01*
X-15410085Y7738933D01*
X-15291065Y7689633D01*
X-15164713Y7664500D01*
X-15035887Y7664500D01*
X-14909535Y7689633D01*
X-14790515Y7738933D01*
X-14683400Y7810505D01*
X-14592305Y7901600D01*
X-14520733Y8008715D01*
X-14471433Y8127735D01*
X-14446300Y8254087D01*
X-14446300Y8382913D01*
X-14469623Y8500165D01*
X-14317836Y8651951D01*
X-14271157Y8645494D01*
X-14178402Y8650964D01*
X-14088497Y8674425D01*
X-14004896Y8714974D01*
X-13930812Y8771054D01*
X-13869092Y8840509D01*
X-13611936Y9194453D01*
X-13564952Y9274616D01*
X-13534510Y9362403D01*
X-13521779Y9454443D01*
X-13524526Y9501015D01*
X-13427347Y9467316D01*
X-13303442Y9450178D01*
X-13178576Y9457542D01*
X-13057545Y9489125D01*
X-12945000Y9543712D01*
X-12845268Y9619207D01*
X-12762181Y9712709D01*
X-12675470Y9837283D01*
X-12710590Y10059025D01*
X-13377423Y10543507D01*
X-13389178Y10527327D01*
X-13594669Y10676624D01*
X-13582913Y10692805D01*
X-13660254Y10748997D01*
X-13228125Y10748997D01*
X-12561293Y10264515D01*
X-12339551Y10299636D01*
X-12247869Y10420599D01*
X-12184619Y10528513D01*
X-12143637Y10646693D01*
X-12126500Y10770598D01*
X-12133864Y10895464D01*
X-12165446Y11016495D01*
X-12220034Y11129040D01*
X-12295529Y11228772D01*
X-12389031Y11311859D01*
X-12543943Y11420612D01*
X-12765685Y11385492D01*
X-13228125Y10748997D01*
X-13660254Y10748997D01*
X-14249745Y11177287D01*
X-14471487Y11142166D01*
X-14563169Y11021203D01*
X-14626419Y10913289D01*
X-14667401Y10795109D01*
X-14684538Y10671204D01*
X-14677174Y10546338D01*
X-14645592Y10425307D01*
X-14591004Y10312762D01*
X-14528925Y10230753D01*
X-14574065Y10218973D01*
X-14657666Y10178424D01*
X-14731750Y10122344D01*
X-14793470Y10052889D01*
X-15050626Y9698945D01*
X-15097610Y9618782D01*
X-15128052Y9530995D01*
X-15140783Y9438955D01*
X-15135312Y9346200D01*
X-15111852Y9256295D01*
X-15071302Y9172694D01*
X-15015222Y9098610D01*
X-14945767Y9036891D01*
X-14879249Y8988563D01*
X-14918635Y8949177D01*
X-15035887Y8972500D01*
X-15164713Y8972500D01*
X-15291065Y8947367D01*
X-15410085Y8898067D01*
X-15517200Y8826495D01*
X-15608295Y8735400D01*
X-15679867Y8628285D01*
X-15729167Y8509265D01*
X-15754300Y8382913D01*
X-16788333Y8382913D01*
X-16038307Y9753110D01*
X-15084960Y11171143D01*
X-14732383Y11604519D01*
X-14135568Y11604519D01*
X-14100448Y11382777D01*
X-13433615Y10898295D01*
X-12971175Y11534789D01*
X-13006296Y11756531D01*
X-13157597Y11870255D01*
X-13265511Y11933505D01*
X-13383691Y11974486D01*
X-13507596Y11991624D01*
X-13632462Y11984260D01*
X-13753493Y11952677D01*
X-13866038Y11898090D01*
X-13965770Y11822595D01*
X-14048857Y11729093D01*
X-14135568Y11604519D01*
X-14732383Y11604519D01*
X-14006614Y12496608D01*
X-12812205Y13718522D01*
X-11511630Y14826760D01*
X-10511098Y15533013D01*
X-8274000Y15533013D01*
X-8274000Y15404187D01*
X-8248867Y15277835D01*
X-8199567Y15158815D01*
X-8127995Y15051700D01*
X-8036900Y14960605D01*
X-7929785Y14889033D01*
X-7810765Y14839733D01*
X-7684413Y14814600D01*
X-7555587Y14814600D01*
X-7429235Y14839733D01*
X-7310215Y14889033D01*
X-7203100Y14960605D01*
X-7112005Y15051700D01*
X-7046072Y15150376D01*
X-7038719Y15151100D01*
X-6992074Y15155694D01*
X-6932225Y15173849D01*
X-6877068Y15203331D01*
X-6828722Y15243007D01*
X-6818773Y15255130D01*
X-6580818Y15493084D01*
X-6546831Y15444319D01*
X-6479852Y15379920D01*
X-6401596Y15329825D01*
X-6315072Y15295960D01*
X-6223603Y15279626D01*
X-6130705Y15281450D01*
X-6039948Y15301363D01*
X-5623861Y15436558D01*
X-5538733Y15473794D01*
X-5462504Y15526922D01*
X-5398105Y15593901D01*
X-5372953Y15633192D01*
X-5314141Y15548809D01*
X-5223973Y15462115D01*
X-5118626Y15394678D01*
X-5002146Y15349089D01*
X-4879010Y15327099D01*
X-4753950Y15329555D01*
X-4631772Y15356362D01*
X-4488399Y15406177D01*
X-4480030Y15422603D01*
X-1854000Y15422603D01*
X-1854000Y15057397D01*
X-1782752Y14699208D01*
X-1642994Y14361802D01*
X-1440096Y14058144D01*
X-1181856Y13799904D01*
X-878198Y13597006D01*
X-540792Y13457248D01*
X-182603Y13386000D01*
X182603Y13386000D01*
X540792Y13457248D01*
X878198Y13597006D01*
X1181856Y13799904D01*
X1440096Y14058144D01*
X1593956Y14288413D01*
X3791000Y14288413D01*
X3791000Y14159587D01*
X3816133Y14033235D01*
X3865433Y13914215D01*
X3937005Y13807100D01*
X4028100Y13716005D01*
X4135215Y13644433D01*
X4254235Y13595133D01*
X4380587Y13570000D01*
X4509413Y13570000D01*
X4635765Y13595133D01*
X4754785Y13644433D01*
X4861900Y13716005D01*
X4952995Y13807100D01*
X5024567Y13914215D01*
X5073867Y14033235D01*
X5099000Y14159587D01*
X5099000Y14288413D01*
X5073867Y14414765D01*
X5024567Y14533785D01*
X4952995Y14640900D01*
X4861900Y14731995D01*
X4762500Y14798412D01*
X4762500Y15772901D01*
X4817158Y15782662D01*
X4860601Y15799665D01*
X4858581Y15696829D01*
X4880571Y15573693D01*
X4926160Y15457213D01*
X4993598Y15351866D01*
X5080292Y15261698D01*
X5182911Y15190177D01*
X5297512Y15140050D01*
X5442784Y15096078D01*
X5488773Y15119511D01*
X5884389Y15119511D01*
X5986313Y14919475D01*
X6129686Y14869660D01*
X6251864Y14842853D01*
X6376924Y14840397D01*
X6500060Y14862387D01*
X6616540Y14907976D01*
X6721887Y14975413D01*
X6812055Y15062107D01*
X6883577Y15164726D01*
X6933704Y15279327D01*
X6989264Y15460264D01*
X6887340Y15660301D01*
X6139096Y15903420D01*
X5884389Y15119511D01*
X5488773Y15119511D01*
X5642820Y15198002D01*
X5897528Y15981910D01*
X5878507Y15988090D01*
X5929485Y16144988D01*
X6217586Y16144988D01*
X6965830Y15901869D01*
X7165867Y16003793D01*
X7227270Y16182831D01*
X7254077Y16305009D01*
X7256533Y16430069D01*
X7234543Y16553205D01*
X7188954Y16669685D01*
X7121516Y16775032D01*
X7034822Y16865200D01*
X6932203Y16936721D01*
X6817602Y16986848D01*
X6672330Y17030820D01*
X6472294Y16928896D01*
X6217586Y16144988D01*
X5929485Y16144988D01*
X5956996Y16229659D01*
X5976018Y16223478D01*
X6230725Y17007387D01*
X6128801Y17207423D01*
X5985428Y17257238D01*
X5863250Y17284045D01*
X5738190Y17286501D01*
X5615054Y17264511D01*
X5498574Y17218922D01*
X5393227Y17151485D01*
X5303059Y17064791D01*
X5244247Y16980408D01*
X5219095Y17019699D01*
X5154696Y17086678D01*
X5078468Y17139806D01*
X4993339Y17177042D01*
X4577252Y17312237D01*
X4486495Y17332150D01*
X4393597Y17333974D01*
X4302128Y17317640D01*
X4215603Y17283774D01*
X4137348Y17233680D01*
X4070369Y17169281D01*
X4017241Y17093052D01*
X3980005Y17007924D01*
X3821634Y16520507D01*
X3801721Y16429750D01*
X3799897Y16336852D01*
X3816231Y16245383D01*
X3850096Y16158859D01*
X3900191Y16080603D01*
X3964590Y16013624D01*
X4040818Y15960496D01*
X4125947Y15923260D01*
X4127501Y15922755D01*
X4127500Y14798412D01*
X4028100Y14731995D01*
X3937005Y14640900D01*
X3865433Y14533785D01*
X3816133Y14414765D01*
X3791000Y14288413D01*
X1593956Y14288413D01*
X1642994Y14361802D01*
X1782752Y14699208D01*
X1854000Y15057397D01*
X1854000Y15422603D01*
X1782752Y15780792D01*
X1642994Y16118198D01*
X1440096Y16421856D01*
X1181856Y16680096D01*
X878198Y16882994D01*
X540792Y17022752D01*
X182603Y17094000D01*
X-182603Y17094000D01*
X-540792Y17022752D01*
X-878198Y16882994D01*
X-1181856Y16680096D01*
X-1440096Y16421856D01*
X-1642994Y16118198D01*
X-1782752Y15780792D01*
X-1854000Y15422603D01*
X-4480030Y15422603D01*
X-4386475Y15606213D01*
X-4641182Y16390122D01*
X-4660204Y16383941D01*
X-4687714Y16468612D01*
X-4399614Y16468612D01*
X-4144906Y15684704D01*
X-3944870Y15582780D01*
X-3799598Y15626752D01*
X-3684997Y15676879D01*
X-3582378Y15748400D01*
X-3495684Y15838568D01*
X-3428246Y15943915D01*
X-3382657Y16060395D01*
X-3360667Y16183531D01*
X-3363123Y16308591D01*
X-3389930Y16430769D01*
X-3451333Y16609807D01*
X-3651370Y16711731D01*
X-4399614Y16468612D01*
X-4687714Y16468612D01*
X-4738693Y16625510D01*
X-4719672Y16631690D01*
X-4974380Y17415598D01*
X-5128426Y17494089D01*
X-4732811Y17494089D01*
X-4478104Y16710180D01*
X-3729860Y16953299D01*
X-3627936Y17153336D01*
X-3683496Y17334273D01*
X-3733623Y17448874D01*
X-3805145Y17551493D01*
X-3895313Y17638187D01*
X-4000660Y17705624D01*
X-4117140Y17751213D01*
X-4240276Y17773203D01*
X-4365336Y17770747D01*
X-4487514Y17743940D01*
X-4630887Y17694125D01*
X-4732811Y17494089D01*
X-5128426Y17494089D01*
X-5174416Y17517522D01*
X-5319688Y17473550D01*
X-5434289Y17423423D01*
X-5536908Y17351902D01*
X-5623602Y17261734D01*
X-5691040Y17156387D01*
X-5736629Y17039907D01*
X-5758619Y16916771D01*
X-5756599Y16813935D01*
X-5800042Y16830938D01*
X-5891511Y16847272D01*
X-5984409Y16845448D01*
X-6075166Y16825535D01*
X-6491253Y16690340D01*
X-6576381Y16653104D01*
X-6652610Y16599976D01*
X-6717009Y16532997D01*
X-6767103Y16454742D01*
X-6800969Y16368217D01*
X-6817303Y16276748D01*
X-6815479Y16183850D01*
X-6810549Y16161379D01*
X-7101760Y15870167D01*
X-7112005Y15885500D01*
X-7203100Y15976595D01*
X-7310215Y16048167D01*
X-7429235Y16097467D01*
X-7555587Y16122600D01*
X-7684413Y16122600D01*
X-7810765Y16097467D01*
X-7929785Y16048167D01*
X-8036900Y15976595D01*
X-8127995Y15885500D01*
X-8199567Y15778385D01*
X-8248867Y15659365D01*
X-8274000Y15533013D01*
X-10511098Y15533013D01*
X-10115666Y15812139D01*
X-8635881Y16666493D01*
X-7084536Y17382744D01*
X-5474486Y17954956D01*
X-3819073Y18378387D01*
X-2132014Y18649530D01*
X-427288Y18766136D01*
X1280978Y18727240D01*
G37*
X1280978Y18727240D02*
X2978630Y18533165D01*
X4651600Y18185518D01*
X6286025Y17687180D01*
X7868362Y17042280D01*
X9385500Y16256163D01*
X10824866Y15335342D01*
X12174534Y14287447D01*
X13423320Y13121163D01*
X14560877Y11846152D01*
X15577777Y10472980D01*
X16465595Y9013026D01*
X17216973Y7478387D01*
X17825687Y5881780D01*
X18286691Y4236434D01*
X18596166Y2555984D01*
X18751547Y854355D01*
X18751547Y-854355D01*
X18596166Y-2555984D01*
X18286691Y-4236434D01*
X17825687Y-5881780D01*
X17216973Y-7478387D01*
X16465595Y-9013026D01*
X15577777Y-10472980D01*
X14560877Y-11846152D01*
X13423320Y-13121163D01*
X12174534Y-14287447D01*
X10824866Y-15335342D01*
X9385500Y-16256163D01*
X7868362Y-17042280D01*
X6286025Y-17687180D01*
X4651600Y-18185518D01*
X2978630Y-18533165D01*
X1280978Y-18727240D01*
X-427288Y-18766136D01*
X-2132014Y-18649530D01*
X-3819073Y-18378387D01*
X-5474486Y-17954956D01*
X-7084536Y-17382744D01*
X-8635881Y-16666493D01*
X-9045379Y-16430069D01*
X-7256533Y-16430069D01*
X-7234543Y-16553205D01*
X-7188954Y-16669685D01*
X-7121516Y-16775032D01*
X-7034822Y-16865200D01*
X-6932203Y-16936721D01*
X-6817602Y-16986848D01*
X-6672330Y-17030820D01*
X-6472294Y-16928896D01*
X-6217586Y-16144988D01*
X-6965830Y-15901869D01*
X-7165867Y-16003793D01*
X-7227270Y-16182831D01*
X-7254077Y-16305009D01*
X-7256533Y-16430069D01*
X-9045379Y-16430069D01*
X-10115666Y-15812139D01*
X-10614159Y-15460264D01*
X-6989264Y-15460264D01*
X-6887340Y-15660301D01*
X-6139096Y-15903420D01*
X-5884389Y-15119511D01*
X-5986313Y-14919475D01*
X-6129686Y-14869660D01*
X-6251864Y-14842853D01*
X-6376924Y-14840397D01*
X-6500060Y-14862387D01*
X-6616540Y-14907976D01*
X-6721887Y-14975413D01*
X-6812055Y-15062107D01*
X-6883577Y-15164726D01*
X-6933704Y-15279327D01*
X-6989264Y-15460264D01*
X-10614159Y-15460264D01*
X-11511630Y-14826760D01*
X-12812205Y-13718522D01*
X-14006614Y-12496608D01*
X-15084960Y-11171143D01*
X-15650249Y-10330317D01*
X-15061330Y-10330317D01*
X-14974619Y-10454891D01*
X-14891532Y-10548393D01*
X-14791800Y-10623888D01*
X-14679255Y-10678475D01*
X-14558224Y-10710058D01*
X-14433358Y-10717422D01*
X-14309453Y-10700284D01*
X-14212275Y-10666586D01*
X-14215021Y-10713158D01*
X-14202290Y-10805198D01*
X-14171848Y-10892985D01*
X-14124864Y-10973147D01*
X-13867708Y-11327091D01*
X-13805989Y-11396545D01*
X-13731905Y-11452625D01*
X-13648304Y-11493175D01*
X-13558399Y-11516635D01*
X-13465644Y-11522106D01*
X-13373604Y-11509375D01*
X-13336503Y-11496510D01*
X-13259973Y-11573040D01*
X-13238268Y-11613647D01*
X-13203847Y-11655590D01*
X-13227000Y-11771987D01*
X-13227000Y-11900813D01*
X-13201867Y-12027165D01*
X-13152567Y-12146185D01*
X-13080995Y-12253300D01*
X-12989900Y-12344395D01*
X-12882785Y-12415967D01*
X-12763765Y-12465267D01*
X-12637413Y-12490400D01*
X-12508587Y-12490400D01*
X-12382235Y-12465267D01*
X-12263215Y-12415967D01*
X-12156100Y-12344395D01*
X-12065005Y-12253300D01*
X-11993433Y-12146185D01*
X-11944133Y-12027165D01*
X-11919000Y-11900813D01*
X-11919000Y-11771987D01*
X-11944133Y-11645635D01*
X-11993433Y-11526615D01*
X-12065005Y-11419500D01*
X-12156100Y-11328405D01*
X-12263215Y-11256833D01*
X-12382235Y-11207533D01*
X-12508587Y-11182400D01*
X-12637413Y-11182400D01*
X-12734093Y-11201631D01*
X-12737465Y-11197522D01*
X-12747406Y-11185408D01*
X-12759523Y-11175464D01*
X-12798704Y-11136283D01*
X-12791033Y-11130709D01*
X-12721577Y-11068989D01*
X-12665497Y-10994905D01*
X-12624948Y-10911304D01*
X-12601487Y-10821399D01*
X-12596017Y-10728644D01*
X-12608748Y-10636604D01*
X-12639190Y-10548817D01*
X-12686174Y-10468655D01*
X-12943330Y-10114711D01*
X-13005049Y-10045257D01*
X-13079133Y-9989177D01*
X-13162734Y-9948627D01*
X-13207876Y-9936848D01*
X-13145796Y-9854838D01*
X-13091208Y-9742293D01*
X-13059626Y-9621262D01*
X-13052262Y-9496396D01*
X-13069399Y-9372491D01*
X-13110381Y-9254311D01*
X-13173631Y-9146397D01*
X-13265313Y-9025434D01*
X-13487055Y-8990313D01*
X-14153887Y-9474795D01*
X-14142131Y-9490976D01*
X-14347622Y-9640273D01*
X-14359377Y-9624093D01*
X-15026210Y-10108575D01*
X-15061330Y-10330317D01*
X-15650249Y-10330317D01*
X-16038307Y-9753110D01*
X-16233235Y-9397002D01*
X-15610300Y-9397002D01*
X-15593163Y-9520907D01*
X-15552181Y-9639087D01*
X-15488931Y-9747001D01*
X-15397249Y-9867964D01*
X-15175507Y-9903085D01*
X-14508675Y-9418603D01*
X-14971115Y-8782108D01*
X-15192857Y-8746988D01*
X-15347769Y-8855741D01*
X-15441271Y-8938828D01*
X-15516766Y-9038560D01*
X-15571354Y-9151105D01*
X-15602936Y-9272136D01*
X-15610300Y-9397002D01*
X-16233235Y-9397002D01*
X-16651541Y-8632811D01*
X-14765625Y-8632811D01*
X-14303185Y-9269305D01*
X-13636352Y-8784823D01*
X-13607872Y-8605000D01*
X-11273072Y-8605000D01*
X-11270000Y-8756750D01*
X-11143009Y-8883741D01*
X-11143009Y-9201259D01*
X-11270000Y-9328250D01*
X-11273072Y-9480000D01*
X-11260812Y-9604482D01*
X-11224502Y-9724180D01*
X-11165537Y-9834494D01*
X-11158967Y-9842500D01*
X-11165537Y-9850506D01*
X-11224502Y-9960820D01*
X-11260812Y-10080518D01*
X-11273072Y-10205000D01*
X-11270000Y-10356750D01*
X-11143010Y-10483740D01*
X-11143010Y-10801260D01*
X-11270000Y-10928250D01*
X-11273072Y-11080000D01*
X-11260812Y-11204482D01*
X-11224502Y-11324180D01*
X-11165537Y-11434494D01*
X-11143010Y-11461944D01*
X-11143010Y-12590178D01*
X-11144546Y-12605774D01*
X-11140329Y-12648595D01*
X-11138416Y-12668014D01*
X-11120261Y-12727863D01*
X-11090779Y-12783020D01*
X-11051103Y-12831367D01*
X-11038980Y-12841316D01*
X-9252311Y-14627986D01*
X-9242367Y-14640103D01*
X-9194378Y-14679486D01*
X-9194021Y-14679779D01*
X-9138864Y-14709261D01*
X-9079015Y-14727416D01*
X-9016774Y-14733546D01*
X-9001178Y-14732010D01*
X-4112283Y-14732010D01*
X-4141797Y-14747786D01*
X-4180473Y-14779527D01*
X-4212214Y-14818203D01*
X-4235800Y-14862328D01*
X-4250324Y-14910207D01*
X-4255228Y-14960000D01*
X-4255228Y-15860000D01*
X-4253066Y-15881957D01*
X-4542034Y-15788065D01*
X-4632791Y-15768152D01*
X-4725689Y-15766328D01*
X-4817158Y-15782662D01*
X-4860601Y-15799665D01*
X-4858581Y-15696829D01*
X-4880571Y-15573693D01*
X-4926160Y-15457213D01*
X-4993598Y-15351866D01*
X-5080292Y-15261698D01*
X-5182911Y-15190177D01*
X-5297512Y-15140050D01*
X-5442784Y-15096078D01*
X-5642820Y-15198002D01*
X-5897528Y-15981910D01*
X-5878507Y-15988090D01*
X-5956996Y-16229659D01*
X-5976018Y-16223478D01*
X-6230725Y-17007387D01*
X-6128801Y-17207423D01*
X-5985428Y-17257238D01*
X-5863250Y-17284045D01*
X-5738190Y-17286501D01*
X-5615054Y-17264511D01*
X-5498574Y-17218922D01*
X-5393227Y-17151485D01*
X-5303059Y-17064791D01*
X-5244247Y-16980408D01*
X-5219095Y-17019699D01*
X-5154696Y-17086678D01*
X-5078468Y-17139806D01*
X-4993339Y-17177042D01*
X-4577252Y-17312237D01*
X-4486495Y-17332150D01*
X-4393597Y-17333974D01*
X-4302128Y-17317640D01*
X-4255228Y-17299283D01*
X-4255228Y-18060000D01*
X-4250324Y-18109793D01*
X-4235800Y-18157672D01*
X-4212214Y-18201797D01*
X-4180473Y-18240473D01*
X-4141797Y-18272214D01*
X-4097672Y-18295800D01*
X-4049793Y-18310324D01*
X-4000000Y-18315228D01*
X-3200000Y-18315228D01*
X-3150207Y-18310324D01*
X-3102328Y-18295800D01*
X-3058203Y-18272214D01*
X-3019527Y-18240473D01*
X-2987786Y-18201797D01*
X-2964200Y-18157672D01*
X-2949676Y-18109793D01*
X-2944772Y-18060000D01*
X-2944772Y-17160000D01*
X-2949676Y-17110207D01*
X-2964200Y-17062328D01*
X-2987786Y-17018203D01*
X-3019527Y-16979527D01*
X-3058203Y-16947786D01*
X-3102328Y-16924200D01*
X-3150207Y-16909676D01*
X-3200000Y-16904772D01*
X-3946489Y-16904772D01*
X-3934428Y-16867651D01*
X-3012845Y-16867651D01*
X-2997249Y-16869187D01*
X-2981653Y-16867651D01*
X-2935008Y-16863057D01*
X-2875159Y-16844902D01*
X-2820002Y-16815420D01*
X-2771656Y-16775744D01*
X-2761707Y-16763621D01*
X-2185084Y-16186999D01*
X-2128212Y-16186999D01*
X-2176945Y-16304651D01*
X-2204000Y-16440662D01*
X-2204000Y-16579338D01*
X-2176945Y-16715349D01*
X-2123876Y-16843469D01*
X-2046832Y-16958774D01*
X-1948774Y-17056832D01*
X-1833469Y-17133876D01*
X-1705349Y-17186945D01*
X-1569338Y-17214000D01*
X-1430662Y-17214000D01*
X-1294651Y-17186945D01*
X-1166531Y-17133876D01*
X-1051226Y-17056832D01*
X-953168Y-16958774D01*
X-876124Y-16843469D01*
X-823055Y-16715349D01*
X-796000Y-16579338D01*
X-796000Y-16440662D01*
X-823055Y-16304651D01*
X-871788Y-16186999D01*
X871788Y-16186999D01*
X823055Y-16304651D01*
X796000Y-16440662D01*
X796000Y-16579338D01*
X823055Y-16715349D01*
X876124Y-16843469D01*
X953168Y-16958774D01*
X1051226Y-17056832D01*
X1166531Y-17133876D01*
X1294651Y-17186945D01*
X1430662Y-17214000D01*
X1569338Y-17214000D01*
X1705349Y-17186945D01*
X1770400Y-17160000D01*
X2944772Y-17160000D01*
X2944772Y-18060000D01*
X2949676Y-18109793D01*
X2964200Y-18157672D01*
X2987786Y-18201797D01*
X3019527Y-18240473D01*
X3058203Y-18272214D01*
X3102328Y-18295800D01*
X3150207Y-18310324D01*
X3200000Y-18315228D01*
X4000000Y-18315228D01*
X4049793Y-18310324D01*
X4097672Y-18295800D01*
X4141797Y-18272214D01*
X4180473Y-18240473D01*
X4212214Y-18201797D01*
X4235800Y-18157672D01*
X4250324Y-18109793D01*
X4255228Y-18060000D01*
X4255228Y-17772909D01*
X4365336Y-17770747D01*
X4487514Y-17743940D01*
X4630887Y-17694125D01*
X4732811Y-17494089D01*
X4478104Y-16710180D01*
X3879211Y-16904772D01*
X3200000Y-16904772D01*
X3150207Y-16909676D01*
X3102328Y-16924200D01*
X3058203Y-16947786D01*
X3019527Y-16979527D01*
X2987786Y-17018203D01*
X2964200Y-17062328D01*
X2949676Y-17110207D01*
X2944772Y-17160000D01*
X1770400Y-17160000D01*
X1833469Y-17133876D01*
X1948774Y-17056832D01*
X2046832Y-16958774D01*
X2123876Y-16843469D01*
X2176945Y-16715349D01*
X2204000Y-16579338D01*
X2204000Y-16440662D01*
X2176945Y-16304651D01*
X2128212Y-16186999D01*
X2772903Y-16186999D01*
X2788499Y-16188535D01*
X2804095Y-16186999D01*
X2850740Y-16182405D01*
X2910589Y-16164250D01*
X2965746Y-16134768D01*
X3014092Y-16095092D01*
X3024041Y-16082969D01*
X3045347Y-16061663D01*
X3058203Y-16072214D01*
X3102328Y-16095800D01*
X3150207Y-16110324D01*
X3200000Y-16115228D01*
X3372865Y-16115228D01*
X3360667Y-16183531D01*
X3363123Y-16308591D01*
X3389930Y-16430769D01*
X3451333Y-16609807D01*
X3651370Y-16711731D01*
X4399614Y-16468612D01*
X4393433Y-16449590D01*
X4635002Y-16371101D01*
X4641182Y-16390122D01*
X4660204Y-16383941D01*
X4738693Y-16625510D01*
X4719672Y-16631690D01*
X4974380Y-17415598D01*
X5174416Y-17517522D01*
X5319688Y-17473550D01*
X5434289Y-17423423D01*
X5536908Y-17351902D01*
X5623602Y-17261734D01*
X5691040Y-17156387D01*
X5736629Y-17039907D01*
X5758619Y-16916771D01*
X5756599Y-16813935D01*
X5800042Y-16830938D01*
X5891511Y-16847272D01*
X5984409Y-16845448D01*
X6075166Y-16825535D01*
X6491253Y-16690340D01*
X6576381Y-16653104D01*
X6652610Y-16599976D01*
X6717009Y-16532997D01*
X6767103Y-16454742D01*
X6800969Y-16368217D01*
X6817303Y-16276748D01*
X6815479Y-16183850D01*
X6795566Y-16093093D01*
X6717424Y-15852595D01*
X8958987Y-13611032D01*
X8971103Y-13601089D01*
X9010779Y-13552743D01*
X9040261Y-13497586D01*
X9058416Y-13437737D01*
X9063010Y-13391092D01*
X9063010Y-13391091D01*
X9064546Y-13375496D01*
X9063010Y-13359900D01*
X9063010Y-13080528D01*
X9088461Y-13111539D01*
X9149867Y-13161935D01*
X9219926Y-13199382D01*
X9295944Y-13222442D01*
X9375000Y-13230228D01*
X9675000Y-13230228D01*
X9754056Y-13222442D01*
X9830074Y-13199382D01*
X9889807Y-13167454D01*
X9905498Y-13219180D01*
X9964463Y-13329494D01*
X10043815Y-13426185D01*
X10140506Y-13505537D01*
X10250820Y-13564502D01*
X10370518Y-13600812D01*
X10495000Y-13613072D01*
X10509250Y-13610000D01*
X10668000Y-13451250D01*
X10668000Y-12127000D01*
X10922000Y-12127000D01*
X10922000Y-13451250D01*
X11080750Y-13610000D01*
X11095000Y-13613072D01*
X11219482Y-13600812D01*
X11339180Y-13564502D01*
X11449494Y-13505537D01*
X11546185Y-13426185D01*
X11625537Y-13329494D01*
X11684502Y-13219180D01*
X11720812Y-13099482D01*
X11733072Y-12975000D01*
X11730000Y-12285750D01*
X11571250Y-12127000D01*
X10922000Y-12127000D01*
X10668000Y-12127000D01*
X10648000Y-12127000D01*
X10648000Y-11873000D01*
X10668000Y-11873000D01*
X10668000Y-10548750D01*
X10922000Y-10548750D01*
X10922000Y-11873000D01*
X11571250Y-11873000D01*
X11730000Y-11714250D01*
X11730799Y-11534789D01*
X12971175Y-11534789D01*
X13006296Y-11756531D01*
X13157597Y-11870255D01*
X13265511Y-11933505D01*
X13383691Y-11974486D01*
X13507596Y-11991624D01*
X13632462Y-11984260D01*
X13753493Y-11952677D01*
X13866038Y-11898090D01*
X13965770Y-11822595D01*
X14048857Y-11729093D01*
X14135568Y-11604519D01*
X14100448Y-11382777D01*
X13433615Y-10898295D01*
X12971175Y-11534789D01*
X11730799Y-11534789D01*
X11733072Y-11025000D01*
X11720812Y-10900518D01*
X11684502Y-10780820D01*
X11679039Y-10770598D01*
X12126500Y-10770598D01*
X12133864Y-10895464D01*
X12165446Y-11016495D01*
X12220034Y-11129040D01*
X12295529Y-11228772D01*
X12389031Y-11311859D01*
X12543943Y-11420612D01*
X12765685Y-11385492D01*
X13228125Y-10748997D01*
X12561293Y-10264515D01*
X12339551Y-10299636D01*
X12247869Y-10420599D01*
X12184619Y-10528513D01*
X12143637Y-10646693D01*
X12126500Y-10770598D01*
X11679039Y-10770598D01*
X11625537Y-10670506D01*
X11546185Y-10573815D01*
X11449494Y-10494463D01*
X11339180Y-10435498D01*
X11219482Y-10399188D01*
X11095000Y-10386928D01*
X11080750Y-10390000D01*
X10922000Y-10548750D01*
X10668000Y-10548750D01*
X10559131Y-10439881D01*
X11156513Y-9842500D01*
X12676296Y-9842500D01*
X12710590Y-10059025D01*
X13377423Y-10543507D01*
X13389178Y-10527327D01*
X13594669Y-10676624D01*
X13582913Y-10692805D01*
X14249745Y-11177287D01*
X14471487Y-11142166D01*
X14563169Y-11021203D01*
X14626419Y-10913289D01*
X14667401Y-10795109D01*
X14684538Y-10671204D01*
X14677174Y-10546338D01*
X14645592Y-10425307D01*
X14591004Y-10312762D01*
X14528925Y-10230753D01*
X14574065Y-10218973D01*
X14657666Y-10178424D01*
X14731750Y-10122344D01*
X14793470Y-10052889D01*
X15050626Y-9698945D01*
X15097610Y-9618782D01*
X15128052Y-9530995D01*
X15140783Y-9438955D01*
X15135312Y-9346200D01*
X15111852Y-9256295D01*
X15071302Y-9172694D01*
X15015222Y-9098610D01*
X14945767Y-9036891D01*
X14531145Y-8735651D01*
X14450984Y-8688667D01*
X14363197Y-8658225D01*
X14271157Y-8645494D01*
X14178402Y-8650964D01*
X14088497Y-8674425D01*
X14004896Y-8714974D01*
X13930812Y-8771054D01*
X13869092Y-8840509D01*
X13611936Y-9194453D01*
X13604289Y-9207500D01*
X11040592Y-9207500D01*
X11024999Y-9205964D01*
X11009406Y-9207500D01*
X11009404Y-9207500D01*
X10962759Y-9212094D01*
X10902910Y-9230249D01*
X10847753Y-9259731D01*
X10799407Y-9299407D01*
X10789465Y-9311522D01*
X9326433Y-10774555D01*
X9295944Y-10777558D01*
X9219926Y-10800618D01*
X9149867Y-10838065D01*
X9088461Y-10888461D01*
X9063010Y-10919472D01*
X9063010Y-9858524D01*
X9067805Y-9865700D01*
X9158900Y-9956795D01*
X9266015Y-10028367D01*
X9385035Y-10077667D01*
X9511387Y-10102800D01*
X9640213Y-10102800D01*
X9766565Y-10077667D01*
X9885585Y-10028367D01*
X9992700Y-9956795D01*
X10083795Y-9865700D01*
X10155367Y-9758585D01*
X10204667Y-9639565D01*
X10229800Y-9513213D01*
X10229800Y-9384387D01*
X10204667Y-9258035D01*
X10155367Y-9139015D01*
X10145205Y-9123807D01*
X10993568Y-8275445D01*
X11024056Y-8272442D01*
X11100074Y-8249382D01*
X11170133Y-8211935D01*
X11231539Y-8161539D01*
X11281935Y-8100133D01*
X11319382Y-8030074D01*
X11342442Y-7954056D01*
X11350228Y-7875000D01*
X11350228Y-6225000D01*
X11342442Y-6145944D01*
X11319382Y-6069926D01*
X11281935Y-5999867D01*
X11231539Y-5938461D01*
X11170133Y-5888065D01*
X11100074Y-5850618D01*
X11024056Y-5827558D01*
X10945000Y-5819772D01*
X10645000Y-5819772D01*
X10565944Y-5827558D01*
X10489926Y-5850618D01*
X10419867Y-5888065D01*
X10358461Y-5938461D01*
X10308065Y-5999867D01*
X10270618Y-6069926D01*
X10247558Y-6145944D01*
X10239772Y-6225000D01*
X10239772Y-7875000D01*
X10247558Y-7954056D01*
X10270618Y-8030074D01*
X10295104Y-8075884D01*
X9576188Y-8794800D01*
X9511387Y-8794800D01*
X9415050Y-8813963D01*
X9738477Y-8490536D01*
X9750593Y-8480593D01*
X9790269Y-8432247D01*
X9819751Y-8377090D01*
X9837906Y-8317241D01*
X9842500Y-8270596D01*
X9842500Y-8270594D01*
X9844036Y-8255001D01*
X9842812Y-8242574D01*
X9900133Y-8211935D01*
X9961539Y-8161539D01*
X10011935Y-8100133D01*
X10049382Y-8030074D01*
X10072442Y-7954056D01*
X10080228Y-7875000D01*
X10080228Y-6225000D01*
X10072442Y-6145944D01*
X10049382Y-6069926D01*
X10011935Y-5999867D01*
X9961539Y-5938461D01*
X9900133Y-5888065D01*
X9830074Y-5850618D01*
X9754056Y-5827558D01*
X9741167Y-5826289D01*
X14342456Y-1225000D01*
X16031928Y-1225000D01*
X16044188Y-1349482D01*
X16080498Y-1469180D01*
X16139463Y-1579494D01*
X16218815Y-1676185D01*
X16315506Y-1755537D01*
X16425820Y-1814502D01*
X16545518Y-1850812D01*
X16670000Y-1863072D01*
X16859250Y-1860000D01*
X17018000Y-1701250D01*
X17018000Y-914500D01*
X17272000Y-914500D01*
X17272000Y-1701250D01*
X17430750Y-1860000D01*
X17620000Y-1863072D01*
X17744482Y-1850812D01*
X17864180Y-1814502D01*
X17974494Y-1755537D01*
X18071185Y-1676185D01*
X18150537Y-1579494D01*
X18209502Y-1469180D01*
X18245812Y-1349482D01*
X18258072Y-1225000D01*
X18255000Y-1073250D01*
X18096250Y-914500D01*
X17272000Y-914500D01*
X17018000Y-914500D01*
X16193750Y-914500D01*
X16035000Y-1073250D01*
X16031928Y-1225000D01*
X14342456Y-1225000D01*
X16011957Y444500D01*
X16433520Y444500D01*
X16450851Y387366D01*
X16494652Y305422D01*
X16524247Y269360D01*
X16425820Y239502D01*
X16315506Y180537D01*
X16218815Y101185D01*
X16139463Y4494D01*
X16080498Y-105820D01*
X16044188Y-225518D01*
X16031928Y-350000D01*
X16035000Y-501750D01*
X16193750Y-660500D01*
X17018000Y-660500D01*
X17018000Y-640500D01*
X17272000Y-640500D01*
X17272000Y-660500D01*
X18096250Y-660500D01*
X18255000Y-501750D01*
X18258072Y-350000D01*
X18245812Y-225518D01*
X18209502Y-105820D01*
X18150537Y4494D01*
X18071185Y101185D01*
X17974494Y180537D01*
X17864180Y239502D01*
X17765753Y269360D01*
X17795348Y305422D01*
X17839149Y387366D01*
X17866121Y476281D01*
X17875228Y568750D01*
X17875228Y1006250D01*
X17866121Y1098719D01*
X17839149Y1187634D01*
X17795348Y1269578D01*
X17736403Y1341403D01*
X17664578Y1400348D01*
X17582634Y1444149D01*
X17493719Y1471121D01*
X17401250Y1480228D01*
X16888750Y1480228D01*
X16796281Y1471121D01*
X16707366Y1444149D01*
X16625422Y1400348D01*
X16553597Y1341403D01*
X16494652Y1269578D01*
X16450851Y1187634D01*
X16423879Y1098719D01*
X16421986Y1079500D01*
X15896040Y1079500D01*
X15880444Y1081036D01*
X15864848Y1079500D01*
X15818203Y1074906D01*
X15758354Y1056751D01*
X15703197Y1027269D01*
X15654851Y987593D01*
X15644907Y975476D01*
X8821015Y-5848417D01*
X8808898Y-5858361D01*
X8769222Y-5906707D01*
X8759139Y-5925571D01*
X8739739Y-5961865D01*
X8731915Y-5987658D01*
X8691539Y-5938461D01*
X8630133Y-5888065D01*
X8560074Y-5850618D01*
X8484056Y-5827558D01*
X8405000Y-5819772D01*
X8105000Y-5819772D01*
X8025944Y-5827558D01*
X7949926Y-5850618D01*
X7879867Y-5888065D01*
X7818461Y-5938461D01*
X7768065Y-5999867D01*
X7730618Y-6069926D01*
X7707558Y-6145944D01*
X7699772Y-6225000D01*
X7699772Y-7875000D01*
X7707558Y-7954056D01*
X7730618Y-8030074D01*
X7755104Y-8075884D01*
X7029888Y-8801100D01*
X6695812Y-8801100D01*
X6629395Y-8701700D01*
X6538300Y-8610605D01*
X6431185Y-8539033D01*
X6403552Y-8527587D01*
X6466185Y-8476185D01*
X6545537Y-8379494D01*
X6604502Y-8269180D01*
X6620193Y-8217454D01*
X6679926Y-8249382D01*
X6755944Y-8272442D01*
X6835000Y-8280228D01*
X7135000Y-8280228D01*
X7214056Y-8272442D01*
X7290074Y-8249382D01*
X7360133Y-8211935D01*
X7421539Y-8161539D01*
X7471935Y-8100133D01*
X7509382Y-8030074D01*
X7532442Y-7954056D01*
X7540228Y-7875000D01*
X7540228Y-6225000D01*
X7532442Y-6145944D01*
X7509382Y-6069926D01*
X7471935Y-5999867D01*
X7421539Y-5938461D01*
X7360133Y-5888065D01*
X7290074Y-5850618D01*
X7214056Y-5827558D01*
X7135000Y-5819772D01*
X6835000Y-5819772D01*
X6755944Y-5827558D01*
X6679926Y-5850618D01*
X6620193Y-5882546D01*
X6604502Y-5830820D01*
X6545537Y-5720506D01*
X6466185Y-5623815D01*
X6369494Y-5544463D01*
X6259180Y-5485498D01*
X6139482Y-5449188D01*
X6015000Y-5436928D01*
X6000750Y-5440000D01*
X5842000Y-5598750D01*
X5842000Y-6923000D01*
X5862000Y-6923000D01*
X5862000Y-7177000D01*
X5842000Y-7177000D01*
X5842000Y-7197000D01*
X5588000Y-7197000D01*
X5588000Y-7177000D01*
X5568000Y-7177000D01*
X5568000Y-6923000D01*
X5588000Y-6923000D01*
X5588000Y-5598750D01*
X5524500Y-5535250D01*
X5524500Y2104259D01*
X11943819Y8563081D01*
X13601232Y8563081D01*
X13687943Y8438507D01*
X13771030Y8345005D01*
X13870762Y8269510D01*
X13983307Y8214923D01*
X14104338Y8183340D01*
X14229204Y8175976D01*
X14353109Y8193114D01*
X14471289Y8234095D01*
X14579203Y8297345D01*
X14730504Y8411069D01*
X14765625Y8632811D01*
X14303185Y9269305D01*
X13636352Y8784823D01*
X13601232Y8563081D01*
X11943819Y8563081D01*
X13082446Y9708714D01*
X13059626Y9621262D01*
X13052262Y9496396D01*
X13069399Y9372491D01*
X13110381Y9254311D01*
X13173631Y9146397D01*
X13265313Y9025434D01*
X13487055Y8990313D01*
X14076545Y9418603D01*
X14508675Y9418603D01*
X14971115Y8782108D01*
X15192857Y8746988D01*
X15347769Y8855741D01*
X15441271Y8938828D01*
X15516766Y9038560D01*
X15571354Y9151105D01*
X15602936Y9272136D01*
X15610300Y9397002D01*
X15593163Y9520907D01*
X15552181Y9639087D01*
X15488931Y9747001D01*
X15397249Y9867964D01*
X15175507Y9903085D01*
X14508675Y9418603D01*
X14076545Y9418603D01*
X14153887Y9474795D01*
X14142131Y9490976D01*
X14347622Y9640273D01*
X14359377Y9624093D01*
X15026210Y10108575D01*
X15061330Y10330317D01*
X14974619Y10454891D01*
X14891532Y10548393D01*
X14791800Y10623888D01*
X14679255Y10678475D01*
X14558224Y10710058D01*
X14433358Y10717422D01*
X14309453Y10700284D01*
X14212275Y10666586D01*
X14215021Y10713158D01*
X14202290Y10805198D01*
X14171848Y10892985D01*
X14124864Y10973147D01*
X13867708Y11327091D01*
X13805989Y11396545D01*
X13731905Y11452625D01*
X13648304Y11493175D01*
X13558399Y11516635D01*
X13465644Y11522106D01*
X13373604Y11509375D01*
X13285817Y11478933D01*
X13205655Y11431949D01*
X12791033Y11130709D01*
X12721577Y11068989D01*
X12665497Y10994905D01*
X12624948Y10911304D01*
X12601487Y10821399D01*
X12596017Y10728644D01*
X12608748Y10636604D01*
X12639190Y10548817D01*
X12686174Y10468655D01*
X12794403Y10319691D01*
X4993149Y2470428D01*
X4981408Y2460793D01*
X4971153Y2448297D01*
X4970812Y2447954D01*
X4961308Y2436301D01*
X4941732Y2412447D01*
X4941501Y2412014D01*
X4941189Y2411632D01*
X4926692Y2384309D01*
X4912250Y2357290D01*
X4912108Y2356823D01*
X4911876Y2356385D01*
X4902982Y2326737D01*
X4894095Y2297441D01*
X4894047Y2296953D01*
X4893905Y2296480D01*
X4890950Y2265513D01*
X4889501Y2250796D01*
X4889501Y2250321D01*
X4887965Y2234222D01*
X4889501Y2219105D01*
X4889500Y-5588932D01*
X4771588Y-5471019D01*
X4761639Y-5458897D01*
X4713293Y-5419221D01*
X4658136Y-5389739D01*
X4598287Y-5371584D01*
X4551642Y-5366990D01*
X4536046Y-5365454D01*
X4520450Y-5366990D01*
X-2620898Y-5366990D01*
X-2636491Y-5365454D01*
X-2652084Y-5366990D01*
X-2652086Y-5366990D01*
X-2698731Y-5371584D01*
X-2758580Y-5389739D01*
X-2813737Y-5419221D01*
X-2862083Y-5458897D01*
X-2872027Y-5471014D01*
X-3028671Y-5627659D01*
X-3108750Y-5619772D01*
X-3546250Y-5619772D01*
X-3638719Y-5628879D01*
X-3727634Y-5655851D01*
X-3809578Y-5699652D01*
X-3881403Y-5758597D01*
X-3940348Y-5830422D01*
X-3984149Y-5912366D01*
X-4011121Y-6001281D01*
X-4020228Y-6093750D01*
X-4020228Y-6606250D01*
X-4011121Y-6698719D01*
X-3984149Y-6787634D01*
X-3940348Y-6869578D01*
X-3881403Y-6941403D01*
X-3809578Y-7000348D01*
X-3727634Y-7044149D01*
X-3693513Y-7054500D01*
X-6325947Y-9686935D01*
X-6324772Y-9675000D01*
X-6324772Y-9375000D01*
X-6332558Y-9295944D01*
X-6355618Y-9219926D01*
X-6393065Y-9149867D01*
X-6443461Y-9088461D01*
X-6504867Y-9038065D01*
X-6574926Y-9000618D01*
X-6650944Y-8977558D01*
X-6730000Y-8969772D01*
X-8361215Y-8969772D01*
X-8570587Y-8760400D01*
X-8535074Y-8779382D01*
X-8459056Y-8802442D01*
X-8380000Y-8810228D01*
X-6730000Y-8810228D01*
X-6650944Y-8802442D01*
X-6574926Y-8779382D01*
X-6504867Y-8741935D01*
X-6443461Y-8691539D01*
X-6393065Y-8630133D01*
X-6355618Y-8560074D01*
X-6332558Y-8484056D01*
X-6324772Y-8405000D01*
X-6324772Y-8105000D01*
X-6332558Y-8025944D01*
X-6355618Y-7949926D01*
X-6393065Y-7879867D01*
X-6443461Y-7818461D01*
X-6504867Y-7768065D01*
X-6574926Y-7730618D01*
X-6650944Y-7707558D01*
X-6730000Y-7699772D01*
X-8380000Y-7699772D01*
X-8459056Y-7707558D01*
X-8535074Y-7730618D01*
X-8605133Y-7768065D01*
X-8666539Y-7818461D01*
X-8716935Y-7879867D01*
X-8754382Y-7949926D01*
X-8777442Y-8025944D01*
X-8785228Y-8105000D01*
X-8785228Y-8405000D01*
X-8777442Y-8484056D01*
X-8754382Y-8560074D01*
X-8735400Y-8595588D01*
X-9465270Y-7865718D01*
X-9438879Y-7778719D01*
X-9429772Y-7686250D01*
X-9429772Y-7248750D01*
X-9438879Y-7156281D01*
X-9465851Y-7067366D01*
X-9509652Y-6985422D01*
X-9568597Y-6913597D01*
X-9640422Y-6854652D01*
X-9722366Y-6810851D01*
X-9811281Y-6783879D01*
X-9903750Y-6774772D01*
X-10416250Y-6774772D01*
X-10508719Y-6783879D01*
X-10597634Y-6810851D01*
X-10679578Y-6854652D01*
X-10751403Y-6913597D01*
X-10810348Y-6985422D01*
X-10854149Y-7067366D01*
X-10881121Y-7156281D01*
X-10890228Y-7248750D01*
X-10890228Y-7686250D01*
X-10881121Y-7778719D01*
X-10854730Y-7865718D01*
X-11038985Y-8049973D01*
X-11051102Y-8059917D01*
X-11090778Y-8108263D01*
X-11103953Y-8132911D01*
X-11120261Y-8163421D01*
X-11135620Y-8214051D01*
X-11165537Y-8250506D01*
X-11224502Y-8360820D01*
X-11260812Y-8480518D01*
X-11273072Y-8605000D01*
X-13607872Y-8605000D01*
X-13601232Y-8563081D01*
X-13687943Y-8438507D01*
X-13771030Y-8345005D01*
X-13870762Y-8269510D01*
X-13983307Y-8214923D01*
X-14104338Y-8183340D01*
X-14229204Y-8175976D01*
X-14353109Y-8193114D01*
X-14471289Y-8234095D01*
X-14579203Y-8297345D01*
X-14730504Y-8411069D01*
X-14765625Y-8632811D01*
X-16651541Y-8632811D01*
X-16858755Y-8254260D01*
X-17539507Y-6687013D01*
X-18074920Y-5064355D01*
X-18460560Y-3399732D01*
X-18693229Y-1706938D01*
X-18771000Y0D01*
X-18755054Y350000D01*
X-18258072Y350000D01*
X-18245812Y225518D01*
X-18209502Y105820D01*
X-18150537Y-4494D01*
X-18071185Y-101185D01*
X-17974494Y-180537D01*
X-17864180Y-239502D01*
X-17765753Y-269360D01*
X-17795348Y-305422D01*
X-17839149Y-387366D01*
X-17866121Y-476281D01*
X-17875228Y-568750D01*
X-17875228Y-1006250D01*
X-17866121Y-1098719D01*
X-17839149Y-1187634D01*
X-17795348Y-1269578D01*
X-17736403Y-1341403D01*
X-17664578Y-1400348D01*
X-17582634Y-1444149D01*
X-17493719Y-1471121D01*
X-17462499Y-1474196D01*
X-17462500Y-1711588D01*
X-17561900Y-1778005D01*
X-17652995Y-1869100D01*
X-17724567Y-1976215D01*
X-17773867Y-2095235D01*
X-17799000Y-2221587D01*
X-17799000Y-2350413D01*
X-17773867Y-2476765D01*
X-17724567Y-2595785D01*
X-17652995Y-2702900D01*
X-17561900Y-2793995D01*
X-17454785Y-2865567D01*
X-17335765Y-2914867D01*
X-17209413Y-2940000D01*
X-17080587Y-2940000D01*
X-16954235Y-2914867D01*
X-16835215Y-2865567D01*
X-16728100Y-2793995D01*
X-16637005Y-2702900D01*
X-16565433Y-2595785D01*
X-16516133Y-2476765D01*
X-16491000Y-2350413D01*
X-16491000Y-2221587D01*
X-16516133Y-2095235D01*
X-16565433Y-1976215D01*
X-16637005Y-1869100D01*
X-16728100Y-1778005D01*
X-16827500Y-1711588D01*
X-16827500Y-1474196D01*
X-16796281Y-1471121D01*
X-16707366Y-1444149D01*
X-16625422Y-1400348D01*
X-16553597Y-1341403D01*
X-16494652Y-1269578D01*
X-16450851Y-1187634D01*
X-16423879Y-1098719D01*
X-16414772Y-1006250D01*
X-16414772Y-976982D01*
X-16404731Y-964747D01*
X-16375249Y-909590D01*
X-16357094Y-849741D01*
X-16350964Y-787500D01*
X-16357094Y-725259D01*
X-16375249Y-665410D01*
X-16404731Y-610253D01*
X-16414772Y-598018D01*
X-16414772Y-568750D01*
X-16423879Y-476281D01*
X-16450851Y-387366D01*
X-16494652Y-305422D01*
X-16524247Y-269360D01*
X-16425820Y-239502D01*
X-16315506Y-180537D01*
X-16218815Y-101185D01*
X-16139463Y-4494D01*
X-16080498Y105820D01*
X-16044188Y225518D01*
X-16031928Y350000D01*
X-16035000Y501750D01*
X-16193750Y660500D01*
X-17018000Y660500D01*
X-17018000Y640500D01*
X-17272000Y640500D01*
X-17272000Y660500D01*
X-18096250Y660500D01*
X-18255000Y501750D01*
X-18258072Y350000D01*
X-18755054Y350000D01*
X-18715188Y1225000D01*
X-18258072Y1225000D01*
X-18255000Y1073250D01*
X-18096250Y914500D01*
X-17272000Y914500D01*
X-17272000Y1701250D01*
X-17018000Y1701250D01*
X-17018000Y914500D01*
X-16193750Y914500D01*
X-16035000Y1073250D01*
X-16031928Y1225000D01*
X-16044188Y1349482D01*
X-16080498Y1469180D01*
X-16139463Y1579494D01*
X-16218815Y1676185D01*
X-16315506Y1755537D01*
X-16425820Y1814502D01*
X-16545518Y1850812D01*
X-16670000Y1863072D01*
X-16859250Y1860000D01*
X-17018000Y1701250D01*
X-17272000Y1701250D01*
X-17430750Y1860000D01*
X-17620000Y1863072D01*
X-17744482Y1850812D01*
X-17864180Y1814502D01*
X-17974494Y1755537D01*
X-18071185Y1676185D01*
X-18150537Y1579494D01*
X-18209502Y1469180D01*
X-18245812Y1349482D01*
X-18258072Y1225000D01*
X-18715188Y1225000D01*
X-18693229Y1706938D01*
X-18460560Y3399732D01*
X-18074920Y5064355D01*
X-17539507Y6687013D01*
X-16858755Y8254260D01*
X-16788333Y8382913D01*
X-15754300Y8382913D01*
X-15754300Y8254087D01*
X-15729167Y8127735D01*
X-15679867Y8008715D01*
X-15608295Y7901600D01*
X-15517200Y7810505D01*
X-15410085Y7738933D01*
X-15291065Y7689633D01*
X-15164713Y7664500D01*
X-15035887Y7664500D01*
X-14909535Y7689633D01*
X-14790515Y7738933D01*
X-14683400Y7810505D01*
X-14592305Y7901600D01*
X-14520733Y8008715D01*
X-14471433Y8127735D01*
X-14446300Y8254087D01*
X-14446300Y8382913D01*
X-14469623Y8500165D01*
X-14317836Y8651951D01*
X-14271157Y8645494D01*
X-14178402Y8650964D01*
X-14088497Y8674425D01*
X-14004896Y8714974D01*
X-13930812Y8771054D01*
X-13869092Y8840509D01*
X-13611936Y9194453D01*
X-13564952Y9274616D01*
X-13534510Y9362403D01*
X-13521779Y9454443D01*
X-13524526Y9501015D01*
X-13427347Y9467316D01*
X-13303442Y9450178D01*
X-13178576Y9457542D01*
X-13057545Y9489125D01*
X-12945000Y9543712D01*
X-12845268Y9619207D01*
X-12762181Y9712709D01*
X-12675470Y9837283D01*
X-12710590Y10059025D01*
X-13377423Y10543507D01*
X-13389178Y10527327D01*
X-13594669Y10676624D01*
X-13582913Y10692805D01*
X-13660254Y10748997D01*
X-13228125Y10748997D01*
X-12561293Y10264515D01*
X-12339551Y10299636D01*
X-12247869Y10420599D01*
X-12184619Y10528513D01*
X-12143637Y10646693D01*
X-12126500Y10770598D01*
X-12133864Y10895464D01*
X-12165446Y11016495D01*
X-12220034Y11129040D01*
X-12295529Y11228772D01*
X-12389031Y11311859D01*
X-12543943Y11420612D01*
X-12765685Y11385492D01*
X-13228125Y10748997D01*
X-13660254Y10748997D01*
X-14249745Y11177287D01*
X-14471487Y11142166D01*
X-14563169Y11021203D01*
X-14626419Y10913289D01*
X-14667401Y10795109D01*
X-14684538Y10671204D01*
X-14677174Y10546338D01*
X-14645592Y10425307D01*
X-14591004Y10312762D01*
X-14528925Y10230753D01*
X-14574065Y10218973D01*
X-14657666Y10178424D01*
X-14731750Y10122344D01*
X-14793470Y10052889D01*
X-15050626Y9698945D01*
X-15097610Y9618782D01*
X-15128052Y9530995D01*
X-15140783Y9438955D01*
X-15135312Y9346200D01*
X-15111852Y9256295D01*
X-15071302Y9172694D01*
X-15015222Y9098610D01*
X-14945767Y9036891D01*
X-14879249Y8988563D01*
X-14918635Y8949177D01*
X-15035887Y8972500D01*
X-15164713Y8972500D01*
X-15291065Y8947367D01*
X-15410085Y8898067D01*
X-15517200Y8826495D01*
X-15608295Y8735400D01*
X-15679867Y8628285D01*
X-15729167Y8509265D01*
X-15754300Y8382913D01*
X-16788333Y8382913D01*
X-16038307Y9753110D01*
X-15084960Y11171143D01*
X-14732383Y11604519D01*
X-14135568Y11604519D01*
X-14100448Y11382777D01*
X-13433615Y10898295D01*
X-12971175Y11534789D01*
X-13006296Y11756531D01*
X-13157597Y11870255D01*
X-13265511Y11933505D01*
X-13383691Y11974486D01*
X-13507596Y11991624D01*
X-13632462Y11984260D01*
X-13753493Y11952677D01*
X-13866038Y11898090D01*
X-13965770Y11822595D01*
X-14048857Y11729093D01*
X-14135568Y11604519D01*
X-14732383Y11604519D01*
X-14006614Y12496608D01*
X-12812205Y13718522D01*
X-11511630Y14826760D01*
X-10511098Y15533013D01*
X-8274000Y15533013D01*
X-8274000Y15404187D01*
X-8248867Y15277835D01*
X-8199567Y15158815D01*
X-8127995Y15051700D01*
X-8036900Y14960605D01*
X-7929785Y14889033D01*
X-7810765Y14839733D01*
X-7684413Y14814600D01*
X-7555587Y14814600D01*
X-7429235Y14839733D01*
X-7310215Y14889033D01*
X-7203100Y14960605D01*
X-7112005Y15051700D01*
X-7046072Y15150376D01*
X-7038719Y15151100D01*
X-6992074Y15155694D01*
X-6932225Y15173849D01*
X-6877068Y15203331D01*
X-6828722Y15243007D01*
X-6818773Y15255130D01*
X-6580818Y15493084D01*
X-6546831Y15444319D01*
X-6479852Y15379920D01*
X-6401596Y15329825D01*
X-6315072Y15295960D01*
X-6223603Y15279626D01*
X-6130705Y15281450D01*
X-6039948Y15301363D01*
X-5623861Y15436558D01*
X-5538733Y15473794D01*
X-5462504Y15526922D01*
X-5398105Y15593901D01*
X-5372953Y15633192D01*
X-5314141Y15548809D01*
X-5223973Y15462115D01*
X-5118626Y15394678D01*
X-5002146Y15349089D01*
X-4879010Y15327099D01*
X-4753950Y15329555D01*
X-4631772Y15356362D01*
X-4488399Y15406177D01*
X-4480030Y15422603D01*
X-1854000Y15422603D01*
X-1854000Y15057397D01*
X-1782752Y14699208D01*
X-1642994Y14361802D01*
X-1440096Y14058144D01*
X-1181856Y13799904D01*
X-878198Y13597006D01*
X-540792Y13457248D01*
X-182603Y13386000D01*
X182603Y13386000D01*
X540792Y13457248D01*
X878198Y13597006D01*
X1181856Y13799904D01*
X1440096Y14058144D01*
X1593956Y14288413D01*
X3791000Y14288413D01*
X3791000Y14159587D01*
X3816133Y14033235D01*
X3865433Y13914215D01*
X3937005Y13807100D01*
X4028100Y13716005D01*
X4135215Y13644433D01*
X4254235Y13595133D01*
X4380587Y13570000D01*
X4509413Y13570000D01*
X4635765Y13595133D01*
X4754785Y13644433D01*
X4861900Y13716005D01*
X4952995Y13807100D01*
X5024567Y13914215D01*
X5073867Y14033235D01*
X5099000Y14159587D01*
X5099000Y14288413D01*
X5073867Y14414765D01*
X5024567Y14533785D01*
X4952995Y14640900D01*
X4861900Y14731995D01*
X4762500Y14798412D01*
X4762500Y15772901D01*
X4817158Y15782662D01*
X4860601Y15799665D01*
X4858581Y15696829D01*
X4880571Y15573693D01*
X4926160Y15457213D01*
X4993598Y15351866D01*
X5080292Y15261698D01*
X5182911Y15190177D01*
X5297512Y15140050D01*
X5442784Y15096078D01*
X5488773Y15119511D01*
X5884389Y15119511D01*
X5986313Y14919475D01*
X6129686Y14869660D01*
X6251864Y14842853D01*
X6376924Y14840397D01*
X6500060Y14862387D01*
X6616540Y14907976D01*
X6721887Y14975413D01*
X6812055Y15062107D01*
X6883577Y15164726D01*
X6933704Y15279327D01*
X6989264Y15460264D01*
X6887340Y15660301D01*
X6139096Y15903420D01*
X5884389Y15119511D01*
X5488773Y15119511D01*
X5642820Y15198002D01*
X5897528Y15981910D01*
X5878507Y15988090D01*
X5929485Y16144988D01*
X6217586Y16144988D01*
X6965830Y15901869D01*
X7165867Y16003793D01*
X7227270Y16182831D01*
X7254077Y16305009D01*
X7256533Y16430069D01*
X7234543Y16553205D01*
X7188954Y16669685D01*
X7121516Y16775032D01*
X7034822Y16865200D01*
X6932203Y16936721D01*
X6817602Y16986848D01*
X6672330Y17030820D01*
X6472294Y16928896D01*
X6217586Y16144988D01*
X5929485Y16144988D01*
X5956996Y16229659D01*
X5976018Y16223478D01*
X6230725Y17007387D01*
X6128801Y17207423D01*
X5985428Y17257238D01*
X5863250Y17284045D01*
X5738190Y17286501D01*
X5615054Y17264511D01*
X5498574Y17218922D01*
X5393227Y17151485D01*
X5303059Y17064791D01*
X5244247Y16980408D01*
X5219095Y17019699D01*
X5154696Y17086678D01*
X5078468Y17139806D01*
X4993339Y17177042D01*
X4577252Y17312237D01*
X4486495Y17332150D01*
X4393597Y17333974D01*
X4302128Y17317640D01*
X4215603Y17283774D01*
X4137348Y17233680D01*
X4070369Y17169281D01*
X4017241Y17093052D01*
X3980005Y17007924D01*
X3821634Y16520507D01*
X3801721Y16429750D01*
X3799897Y16336852D01*
X3816231Y16245383D01*
X3850096Y16158859D01*
X3900191Y16080603D01*
X3964590Y16013624D01*
X4040818Y15960496D01*
X4125947Y15923260D01*
X4127501Y15922755D01*
X4127500Y14798412D01*
X4028100Y14731995D01*
X3937005Y14640900D01*
X3865433Y14533785D01*
X3816133Y14414765D01*
X3791000Y14288413D01*
X1593956Y14288413D01*
X1642994Y14361802D01*
X1782752Y14699208D01*
X1854000Y15057397D01*
X1854000Y15422603D01*
X1782752Y15780792D01*
X1642994Y16118198D01*
X1440096Y16421856D01*
X1181856Y16680096D01*
X878198Y16882994D01*
X540792Y17022752D01*
X182603Y17094000D01*
X-182603Y17094000D01*
X-540792Y17022752D01*
X-878198Y16882994D01*
X-1181856Y16680096D01*
X-1440096Y16421856D01*
X-1642994Y16118198D01*
X-1782752Y15780792D01*
X-1854000Y15422603D01*
X-4480030Y15422603D01*
X-4386475Y15606213D01*
X-4641182Y16390122D01*
X-4660204Y16383941D01*
X-4687714Y16468612D01*
X-4399614Y16468612D01*
X-4144906Y15684704D01*
X-3944870Y15582780D01*
X-3799598Y15626752D01*
X-3684997Y15676879D01*
X-3582378Y15748400D01*
X-3495684Y15838568D01*
X-3428246Y15943915D01*
X-3382657Y16060395D01*
X-3360667Y16183531D01*
X-3363123Y16308591D01*
X-3389930Y16430769D01*
X-3451333Y16609807D01*
X-3651370Y16711731D01*
X-4399614Y16468612D01*
X-4687714Y16468612D01*
X-4738693Y16625510D01*
X-4719672Y16631690D01*
X-4974380Y17415598D01*
X-5128426Y17494089D01*
X-4732811Y17494089D01*
X-4478104Y16710180D01*
X-3729860Y16953299D01*
X-3627936Y17153336D01*
X-3683496Y17334273D01*
X-3733623Y17448874D01*
X-3805145Y17551493D01*
X-3895313Y17638187D01*
X-4000660Y17705624D01*
X-4117140Y17751213D01*
X-4240276Y17773203D01*
X-4365336Y17770747D01*
X-4487514Y17743940D01*
X-4630887Y17694125D01*
X-4732811Y17494089D01*
X-5128426Y17494089D01*
X-5174416Y17517522D01*
X-5319688Y17473550D01*
X-5434289Y17423423D01*
X-5536908Y17351902D01*
X-5623602Y17261734D01*
X-5691040Y17156387D01*
X-5736629Y17039907D01*
X-5758619Y16916771D01*
X-5756599Y16813935D01*
X-5800042Y16830938D01*
X-5891511Y16847272D01*
X-5984409Y16845448D01*
X-6075166Y16825535D01*
X-6491253Y16690340D01*
X-6576381Y16653104D01*
X-6652610Y16599976D01*
X-6717009Y16532997D01*
X-6767103Y16454742D01*
X-6800969Y16368217D01*
X-6817303Y16276748D01*
X-6815479Y16183850D01*
X-6810549Y16161379D01*
X-7101760Y15870167D01*
X-7112005Y15885500D01*
X-7203100Y15976595D01*
X-7310215Y16048167D01*
X-7429235Y16097467D01*
X-7555587Y16122600D01*
X-7684413Y16122600D01*
X-7810765Y16097467D01*
X-7929785Y16048167D01*
X-8036900Y15976595D01*
X-8127995Y15885500D01*
X-8199567Y15778385D01*
X-8248867Y15659365D01*
X-8274000Y15533013D01*
X-10511098Y15533013D01*
X-10115666Y15812139D01*
X-8635881Y16666493D01*
X-7084536Y17382744D01*
X-5474486Y17954956D01*
X-3819073Y18378387D01*
X-2132014Y18649530D01*
X-427288Y18766136D01*
X1280978Y18727240D01*
G36*
X1543001Y-9246072D02*
G01*
X1543001Y-9337905D01*
X1541465Y-9353501D01*
X1543001Y-9369096D01*
X1547595Y-9415741D01*
X1565750Y-9475590D01*
X1595232Y-9530747D01*
X1634908Y-9579094D01*
X1647031Y-9589043D01*
X1669458Y-9611470D01*
X1679407Y-9623593D01*
X1727753Y-9663269D01*
X1782910Y-9692751D01*
X1842759Y-9710906D01*
X1904999Y-9717036D01*
X1920595Y-9715500D01*
X2283931Y-9715500D01*
X438251Y-11561181D01*
X437634Y-11560851D01*
X348719Y-11533879D01*
X256250Y-11524772D01*
X189482Y-11524772D01*
X177247Y-11514731D01*
X122090Y-11485249D01*
X62241Y-11467094D01*
X0Y-11460964D01*
X-62240Y-11467094D01*
X-122089Y-11485249D01*
X-177246Y-11514731D01*
X-189481Y-11524772D01*
X-256250Y-11524772D01*
X-348719Y-11533879D01*
X-437634Y-11560851D01*
X-519578Y-11604652D01*
X-591403Y-11663597D01*
X-650348Y-11735422D01*
X-694149Y-11817366D01*
X-721121Y-11906281D01*
X-730228Y-11998750D01*
X-730228Y-12436250D01*
X-721121Y-12528719D01*
X-694149Y-12617634D01*
X-650348Y-12699578D01*
X-591403Y-12771403D01*
X-519578Y-12830348D01*
X-437634Y-12874149D01*
X-348719Y-12901121D01*
X-256250Y-12910228D01*
X256250Y-12910228D01*
X348719Y-12901121D01*
X437634Y-12874149D01*
X519578Y-12830348D01*
X591403Y-12771403D01*
X650348Y-12699578D01*
X694149Y-12617634D01*
X721121Y-12528719D01*
X730228Y-12436250D01*
X730228Y-12406982D01*
X740269Y-12394747D01*
X769751Y-12339590D01*
X787906Y-12279741D01*
X794036Y-12217500D01*
X787906Y-12155259D01*
X777268Y-12120189D01*
X1349772Y-11547684D01*
X1349772Y-12825000D01*
X1357558Y-12904056D01*
X1380618Y-12980074D01*
X1418065Y-13050133D01*
X1468461Y-13111539D01*
X1529867Y-13161935D01*
X1599926Y-13199382D01*
X1675944Y-13222442D01*
X1755000Y-13230228D01*
X2055000Y-13230228D01*
X2063300Y-13229411D01*
X2338661Y-13504772D01*
X1800000Y-13504772D01*
X1750207Y-13509676D01*
X1702328Y-13524200D01*
X1658203Y-13547786D01*
X1619527Y-13579527D01*
X1587786Y-13618203D01*
X1564200Y-13662328D01*
X1549676Y-13710207D01*
X1544772Y-13760000D01*
X1544772Y-15010000D01*
X1549676Y-15059793D01*
X1564200Y-15107672D01*
X1587786Y-15151797D01*
X1619527Y-15190473D01*
X1658203Y-15222214D01*
X1702328Y-15245800D01*
X1750207Y-15260324D01*
X1800000Y-15265228D01*
X2534902Y-15265228D01*
X2534901Y-15551999D01*
X-2301005Y-15551999D01*
X-2316598Y-15550463D01*
X-2332191Y-15551999D01*
X-2332193Y-15551999D01*
X-2378838Y-15556593D01*
X-2438687Y-15574748D01*
X-2493844Y-15604230D01*
X-2542190Y-15643906D01*
X-2552132Y-15656021D01*
X-3128761Y-16232651D01*
X-3821214Y-16232651D01*
X-3850096Y-16158859D01*
X-3878026Y-16115228D01*
X-3200000Y-16115228D01*
X-3150207Y-16110324D01*
X-3102328Y-16095800D01*
X-3058203Y-16072214D01*
X-3019527Y-16040473D01*
X-2987786Y-16001797D01*
X-2964200Y-15957672D01*
X-2949676Y-15909793D01*
X-2944772Y-15860000D01*
X-2944772Y-15504267D01*
X-2914642Y-15513407D01*
X-2867997Y-15518001D01*
X-2867995Y-15518001D01*
X-2852402Y-15519537D01*
X-2836809Y-15518001D01*
X-1663195Y-15518001D01*
X-1647599Y-15519537D01*
X-1632003Y-15518001D01*
X-1585358Y-15513407D01*
X-1525509Y-15495252D01*
X-1470352Y-15465770D01*
X-1422006Y-15426094D01*
X-1412057Y-15413971D01*
X-1226020Y-15227934D01*
X-1213897Y-15217985D01*
X-1174221Y-15169639D01*
X-1144739Y-15114482D01*
X-1126584Y-15054633D01*
X-1121990Y-15007988D01*
X-1120454Y-14992392D01*
X-1121990Y-14976796D01*
X-1121990Y-14908303D01*
X-1037785Y-14964567D01*
X-918765Y-15013867D01*
X-792413Y-15039000D01*
X-663587Y-15039000D01*
X-537235Y-15013867D01*
X-418215Y-14964567D01*
X-311107Y-14893000D01*
X44772Y-14893000D01*
X44772Y-15010000D01*
X49676Y-15059793D01*
X64200Y-15107672D01*
X87786Y-15151797D01*
X119527Y-15190473D01*
X158203Y-15222214D01*
X202328Y-15245800D01*
X250207Y-15260324D01*
X300000Y-15265228D01*
X1200000Y-15265228D01*
X1249793Y-15260324D01*
X1297672Y-15245800D01*
X1341797Y-15222214D01*
X1380473Y-15190473D01*
X1412214Y-15151797D01*
X1435800Y-15107672D01*
X1450324Y-15059793D01*
X1455228Y-15010000D01*
X1455228Y-13760000D01*
X1450324Y-13710207D01*
X1435800Y-13662328D01*
X1412214Y-13618203D01*
X1380473Y-13579527D01*
X1341797Y-13547786D01*
X1297672Y-13524200D01*
X1249793Y-13509676D01*
X1200000Y-13504772D01*
X300000Y-13504772D01*
X250207Y-13509676D01*
X202328Y-13524200D01*
X158203Y-13547786D01*
X119527Y-13579527D01*
X87786Y-13618203D01*
X64200Y-13662328D01*
X49676Y-13710207D01*
X44772Y-13760000D01*
X44772Y-13877000D01*
X-311107Y-13877000D01*
X-418215Y-13805433D01*
X-537235Y-13756133D01*
X-663587Y-13731000D01*
X-792413Y-13731000D01*
X-918765Y-13756133D01*
X-1037785Y-13805433D01*
X-1121990Y-13861697D01*
X-1121990Y-12746943D01*
X-1099463Y-12719494D01*
X-1040498Y-12609180D01*
X-1004188Y-12489482D01*
X-991928Y-12365000D01*
X-995000Y-12350750D01*
X-1121990Y-12223760D01*
X-1121990Y-11906240D01*
X-995000Y-11779250D01*
X-991928Y-11765000D01*
X-1004188Y-11640518D01*
X-1040498Y-11520820D01*
X-1099463Y-11410506D01*
X-1178815Y-11313815D01*
X-1275506Y-11234463D01*
X-1385820Y-11175498D01*
X-1437546Y-11159807D01*
X-1405618Y-11100074D01*
X-1382558Y-11024056D01*
X-1376249Y-10960000D01*
X-719216Y-10960000D01*
X-694149Y-11042634D01*
X-650348Y-11124578D01*
X-591403Y-11196403D01*
X-519578Y-11255348D01*
X-437634Y-11299149D01*
X-348719Y-11326121D01*
X-256250Y-11335228D01*
X256250Y-11335228D01*
X348719Y-11326121D01*
X437634Y-11299149D01*
X519578Y-11255348D01*
X591403Y-11196403D01*
X650348Y-11124578D01*
X694149Y-11042634D01*
X721121Y-10953719D01*
X730228Y-10861250D01*
X730228Y-10423750D01*
X721121Y-10331281D01*
X694149Y-10242366D01*
X650348Y-10160422D01*
X604325Y-10104343D01*
X719180Y-10069502D01*
X829494Y-10010537D01*
X926185Y-9931185D01*
X1005537Y-9834494D01*
X1064502Y-9724180D01*
X1100812Y-9604482D01*
X1113072Y-9480000D01*
X1110000Y-9328250D01*
X951250Y-9169500D01*
X127000Y-9169500D01*
X127000Y-9189500D01*
X-127000Y-9189500D01*
X-127000Y-9169500D01*
X-147000Y-9169500D01*
X-147000Y-8915500D01*
X-127000Y-8915500D01*
X-127000Y-8895500D01*
X127000Y-8895500D01*
X127000Y-8915500D01*
X951250Y-8915500D01*
X1065650Y-8801100D01*
X1098030Y-8801100D01*
X1543001Y-9246072D01*
G37*
X1543001Y-9246072D02*
X1543001Y-9337905D01*
X1541465Y-9353501D01*
X1543001Y-9369096D01*
X1547595Y-9415741D01*
X1565750Y-9475590D01*
X1595232Y-9530747D01*
X1634908Y-9579094D01*
X1647031Y-9589043D01*
X1669458Y-9611470D01*
X1679407Y-9623593D01*
X1727753Y-9663269D01*
X1782910Y-9692751D01*
X1842759Y-9710906D01*
X1904999Y-9717036D01*
X1920595Y-9715500D01*
X2283931Y-9715500D01*
X438251Y-11561181D01*
X437634Y-11560851D01*
X348719Y-11533879D01*
X256250Y-11524772D01*
X189482Y-11524772D01*
X177247Y-11514731D01*
X122090Y-11485249D01*
X62241Y-11467094D01*
X0Y-11460964D01*
X-62240Y-11467094D01*
X-122089Y-11485249D01*
X-177246Y-11514731D01*
X-189481Y-11524772D01*
X-256250Y-11524772D01*
X-348719Y-11533879D01*
X-437634Y-11560851D01*
X-519578Y-11604652D01*
X-591403Y-11663597D01*
X-650348Y-11735422D01*
X-694149Y-11817366D01*
X-721121Y-11906281D01*
X-730228Y-11998750D01*
X-730228Y-12436250D01*
X-721121Y-12528719D01*
X-694149Y-12617634D01*
X-650348Y-12699578D01*
X-591403Y-12771403D01*
X-519578Y-12830348D01*
X-437634Y-12874149D01*
X-348719Y-12901121D01*
X-256250Y-12910228D01*
X256250Y-12910228D01*
X348719Y-12901121D01*
X437634Y-12874149D01*
X519578Y-12830348D01*
X591403Y-12771403D01*
X650348Y-12699578D01*
X694149Y-12617634D01*
X721121Y-12528719D01*
X730228Y-12436250D01*
X730228Y-12406982D01*
X740269Y-12394747D01*
X769751Y-12339590D01*
X787906Y-12279741D01*
X794036Y-12217500D01*
X787906Y-12155259D01*
X777268Y-12120189D01*
X1349772Y-11547684D01*
X1349772Y-12825000D01*
X1357558Y-12904056D01*
X1380618Y-12980074D01*
X1418065Y-13050133D01*
X1468461Y-13111539D01*
X1529867Y-13161935D01*
X1599926Y-13199382D01*
X1675944Y-13222442D01*
X1755000Y-13230228D01*
X2055000Y-13230228D01*
X2063300Y-13229411D01*
X2338661Y-13504772D01*
X1800000Y-13504772D01*
X1750207Y-13509676D01*
X1702328Y-13524200D01*
X1658203Y-13547786D01*
X1619527Y-13579527D01*
X1587786Y-13618203D01*
X1564200Y-13662328D01*
X1549676Y-13710207D01*
X1544772Y-13760000D01*
X1544772Y-15010000D01*
X1549676Y-15059793D01*
X1564200Y-15107672D01*
X1587786Y-15151797D01*
X1619527Y-15190473D01*
X1658203Y-15222214D01*
X1702328Y-15245800D01*
X1750207Y-15260324D01*
X1800000Y-15265228D01*
X2534902Y-15265228D01*
X2534901Y-15551999D01*
X-2301005Y-15551999D01*
X-2316598Y-15550463D01*
X-2332191Y-15551999D01*
X-2332193Y-15551999D01*
X-2378838Y-15556593D01*
X-2438687Y-15574748D01*
X-2493844Y-15604230D01*
X-2542190Y-15643906D01*
X-2552132Y-15656021D01*
X-3128761Y-16232651D01*
X-3821214Y-16232651D01*
X-3850096Y-16158859D01*
X-3878026Y-16115228D01*
X-3200000Y-16115228D01*
X-3150207Y-16110324D01*
X-3102328Y-16095800D01*
X-3058203Y-16072214D01*
X-3019527Y-16040473D01*
X-2987786Y-16001797D01*
X-2964200Y-15957672D01*
X-2949676Y-15909793D01*
X-2944772Y-15860000D01*
X-2944772Y-15504267D01*
X-2914642Y-15513407D01*
X-2867997Y-15518001D01*
X-2867995Y-15518001D01*
X-2852402Y-15519537D01*
X-2836809Y-15518001D01*
X-1663195Y-15518001D01*
X-1647599Y-15519537D01*
X-1632003Y-15518001D01*
X-1585358Y-15513407D01*
X-1525509Y-15495252D01*
X-1470352Y-15465770D01*
X-1422006Y-15426094D01*
X-1412057Y-15413971D01*
X-1226020Y-15227934D01*
X-1213897Y-15217985D01*
X-1174221Y-15169639D01*
X-1144739Y-15114482D01*
X-1126584Y-15054633D01*
X-1121990Y-15007988D01*
X-1120454Y-14992392D01*
X-1121990Y-14976796D01*
X-1121990Y-14908303D01*
X-1037785Y-14964567D01*
X-918765Y-15013867D01*
X-792413Y-15039000D01*
X-663587Y-15039000D01*
X-537235Y-15013867D01*
X-418215Y-14964567D01*
X-311107Y-14893000D01*
X44772Y-14893000D01*
X44772Y-15010000D01*
X49676Y-15059793D01*
X64200Y-15107672D01*
X87786Y-15151797D01*
X119527Y-15190473D01*
X158203Y-15222214D01*
X202328Y-15245800D01*
X250207Y-15260324D01*
X300000Y-15265228D01*
X1200000Y-15265228D01*
X1249793Y-15260324D01*
X1297672Y-15245800D01*
X1341797Y-15222214D01*
X1380473Y-15190473D01*
X1412214Y-15151797D01*
X1435800Y-15107672D01*
X1450324Y-15059793D01*
X1455228Y-15010000D01*
X1455228Y-13760000D01*
X1450324Y-13710207D01*
X1435800Y-13662328D01*
X1412214Y-13618203D01*
X1380473Y-13579527D01*
X1341797Y-13547786D01*
X1297672Y-13524200D01*
X1249793Y-13509676D01*
X1200000Y-13504772D01*
X300000Y-13504772D01*
X250207Y-13509676D01*
X202328Y-13524200D01*
X158203Y-13547786D01*
X119527Y-13579527D01*
X87786Y-13618203D01*
X64200Y-13662328D01*
X49676Y-13710207D01*
X44772Y-13760000D01*
X44772Y-13877000D01*
X-311107Y-13877000D01*
X-418215Y-13805433D01*
X-537235Y-13756133D01*
X-663587Y-13731000D01*
X-792413Y-13731000D01*
X-918765Y-13756133D01*
X-1037785Y-13805433D01*
X-1121990Y-13861697D01*
X-1121990Y-12746943D01*
X-1099463Y-12719494D01*
X-1040498Y-12609180D01*
X-1004188Y-12489482D01*
X-991928Y-12365000D01*
X-995000Y-12350750D01*
X-1121990Y-12223760D01*
X-1121990Y-11906240D01*
X-995000Y-11779250D01*
X-991928Y-11765000D01*
X-1004188Y-11640518D01*
X-1040498Y-11520820D01*
X-1099463Y-11410506D01*
X-1178815Y-11313815D01*
X-1275506Y-11234463D01*
X-1385820Y-11175498D01*
X-1437546Y-11159807D01*
X-1405618Y-11100074D01*
X-1382558Y-11024056D01*
X-1376249Y-10960000D01*
X-719216Y-10960000D01*
X-694149Y-11042634D01*
X-650348Y-11124578D01*
X-591403Y-11196403D01*
X-519578Y-11255348D01*
X-437634Y-11299149D01*
X-348719Y-11326121D01*
X-256250Y-11335228D01*
X256250Y-11335228D01*
X348719Y-11326121D01*
X437634Y-11299149D01*
X519578Y-11255348D01*
X591403Y-11196403D01*
X650348Y-11124578D01*
X694149Y-11042634D01*
X721121Y-10953719D01*
X730228Y-10861250D01*
X730228Y-10423750D01*
X721121Y-10331281D01*
X694149Y-10242366D01*
X650348Y-10160422D01*
X604325Y-10104343D01*
X719180Y-10069502D01*
X829494Y-10010537D01*
X926185Y-9931185D01*
X1005537Y-9834494D01*
X1064502Y-9724180D01*
X1100812Y-9604482D01*
X1113072Y-9480000D01*
X1110000Y-9328250D01*
X951250Y-9169500D01*
X127000Y-9169500D01*
X127000Y-9189500D01*
X-127000Y-9189500D01*
X-127000Y-9169500D01*
X-147000Y-9169500D01*
X-147000Y-8915500D01*
X-127000Y-8915500D01*
X-127000Y-8895500D01*
X127000Y-8895500D01*
X127000Y-8915500D01*
X951250Y-8915500D01*
X1065650Y-8801100D01*
X1098030Y-8801100D01*
X1543001Y-9246072D01*
G36*
X-1110000Y-9169502D02*
G01*
X-951252Y-9169502D01*
X-1110000Y-9328250D01*
X-1113072Y-9480000D01*
X-1100812Y-9604482D01*
X-1064502Y-9724180D01*
X-1005537Y-9834494D01*
X-926185Y-9931185D01*
X-829494Y-10010537D01*
X-719180Y-10069502D01*
X-604325Y-10104343D01*
X-650348Y-10160422D01*
X-694149Y-10242366D01*
X-719216Y-10325000D01*
X-1534232Y-10325000D01*
X-1554867Y-10308065D01*
X-1624926Y-10270618D01*
X-1700944Y-10247558D01*
X-1780000Y-10239772D01*
X-3430000Y-10239772D01*
X-3509056Y-10247558D01*
X-3585074Y-10270618D01*
X-3655133Y-10308065D01*
X-3716539Y-10358461D01*
X-3766935Y-10419867D01*
X-3804382Y-10489926D01*
X-3827442Y-10565944D01*
X-3835228Y-10645000D01*
X-3835228Y-10945000D01*
X-3827442Y-11024056D01*
X-3804382Y-11100074D01*
X-3772454Y-11159807D01*
X-3824180Y-11175498D01*
X-3934494Y-11234463D01*
X-4031185Y-11313815D01*
X-4110537Y-11410506D01*
X-4169502Y-11520820D01*
X-4205812Y-11640518D01*
X-4218072Y-11765000D01*
X-4215000Y-11779250D01*
X-4056250Y-11938000D01*
X-2732000Y-11938000D01*
X-2732000Y-11918000D01*
X-2478000Y-11918000D01*
X-2478000Y-11938000D01*
X-1756990Y-11938000D01*
X-1756990Y-12192000D01*
X-2478000Y-12192000D01*
X-2478000Y-12841250D01*
X-2319250Y-13000000D01*
X-1756990Y-13002506D01*
X-1756989Y-13509008D01*
X-1800000Y-13504772D01*
X-2078734Y-13504772D01*
X-2090657Y-13498399D01*
X-2186415Y-13469351D01*
X-2261053Y-13462000D01*
X-4701000Y-13462000D01*
X-4701000Y-12365000D01*
X-4218072Y-12365000D01*
X-4205812Y-12489482D01*
X-4169502Y-12609180D01*
X-4110537Y-12719494D01*
X-4031185Y-12816185D01*
X-3934494Y-12895537D01*
X-3824180Y-12954502D01*
X-3704482Y-12990812D01*
X-3580000Y-13003072D01*
X-2890750Y-13000000D01*
X-2732000Y-12841250D01*
X-2732000Y-12192000D01*
X-4056250Y-12192000D01*
X-4215000Y-12350750D01*
X-4218072Y-12365000D01*
X-4701000Y-12365000D01*
X-4701000Y-10613456D01*
X-3828711Y-9741167D01*
X-3827442Y-9754056D01*
X-3804382Y-9830074D01*
X-3766935Y-9900133D01*
X-3716539Y-9961539D01*
X-3655133Y-10011935D01*
X-3585074Y-10049382D01*
X-3509056Y-10072442D01*
X-3430000Y-10080228D01*
X-1780000Y-10080228D01*
X-1700944Y-10072442D01*
X-1624926Y-10049382D01*
X-1554867Y-10011935D01*
X-1493461Y-9961539D01*
X-1443065Y-9900133D01*
X-1405618Y-9830074D01*
X-1382558Y-9754056D01*
X-1374772Y-9675000D01*
X-1374772Y-9375000D01*
X-1377714Y-9345126D01*
X-1110000Y-9077412D01*
X-1110000Y-9169502D01*
G37*
X-1110000Y-9169502D02*
X-951252Y-9169502D01*
X-1110000Y-9328250D01*
X-1113072Y-9480000D01*
X-1100812Y-9604482D01*
X-1064502Y-9724180D01*
X-1005537Y-9834494D01*
X-926185Y-9931185D01*
X-829494Y-10010537D01*
X-719180Y-10069502D01*
X-604325Y-10104343D01*
X-650348Y-10160422D01*
X-694149Y-10242366D01*
X-719216Y-10325000D01*
X-1534232Y-10325000D01*
X-1554867Y-10308065D01*
X-1624926Y-10270618D01*
X-1700944Y-10247558D01*
X-1780000Y-10239772D01*
X-3430000Y-10239772D01*
X-3509056Y-10247558D01*
X-3585074Y-10270618D01*
X-3655133Y-10308065D01*
X-3716539Y-10358461D01*
X-3766935Y-10419867D01*
X-3804382Y-10489926D01*
X-3827442Y-10565944D01*
X-3835228Y-10645000D01*
X-3835228Y-10945000D01*
X-3827442Y-11024056D01*
X-3804382Y-11100074D01*
X-3772454Y-11159807D01*
X-3824180Y-11175498D01*
X-3934494Y-11234463D01*
X-4031185Y-11313815D01*
X-4110537Y-11410506D01*
X-4169502Y-11520820D01*
X-4205812Y-11640518D01*
X-4218072Y-11765000D01*
X-4215000Y-11779250D01*
X-4056250Y-11938000D01*
X-2732000Y-11938000D01*
X-2732000Y-11918000D01*
X-2478000Y-11918000D01*
X-2478000Y-11938000D01*
X-1756990Y-11938000D01*
X-1756990Y-12192000D01*
X-2478000Y-12192000D01*
X-2478000Y-12841250D01*
X-2319250Y-13000000D01*
X-1756990Y-13002506D01*
X-1756989Y-13509008D01*
X-1800000Y-13504772D01*
X-2078734Y-13504772D01*
X-2090657Y-13498399D01*
X-2186415Y-13469351D01*
X-2261053Y-13462000D01*
X-4701000Y-13462000D01*
X-4701000Y-12365000D01*
X-4218072Y-12365000D01*
X-4205812Y-12489482D01*
X-4169502Y-12609180D01*
X-4110537Y-12719494D01*
X-4031185Y-12816185D01*
X-3934494Y-12895537D01*
X-3824180Y-12954502D01*
X-3704482Y-12990812D01*
X-3580000Y-13003072D01*
X-2890750Y-13000000D01*
X-2732000Y-12841250D01*
X-2732000Y-12192000D01*
X-4056250Y-12192000D01*
X-4215000Y-12350750D01*
X-4218072Y-12365000D01*
X-4701000Y-12365000D01*
X-4701000Y-10613456D01*
X-3828711Y-9741167D01*
X-3827442Y-9754056D01*
X-3804382Y-9830074D01*
X-3766935Y-9900133D01*
X-3716539Y-9961539D01*
X-3655133Y-10011935D01*
X-3585074Y-10049382D01*
X-3509056Y-10072442D01*
X-3430000Y-10080228D01*
X-1780000Y-10080228D01*
X-1700944Y-10072442D01*
X-1624926Y-10049382D01*
X-1554867Y-10011935D01*
X-1493461Y-9961539D01*
X-1443065Y-9900133D01*
X-1405618Y-9830074D01*
X-1382558Y-9754056D01*
X-1374772Y-9675000D01*
X-1374772Y-9375000D01*
X-1377714Y-9345126D01*
X-1110000Y-9077412D01*
X-1110000Y-9169502D01*
G36*
X-3835228Y-8105000D02*
G01*
X-3835228Y-8310844D01*
X-5550570Y-10026186D01*
X-5569947Y-10042088D01*
X-5585849Y-10061465D01*
X-5585850Y-10061466D01*
X-5633429Y-10119441D01*
X-5679017Y-10204731D01*
X-5680600Y-10207693D01*
X-5708490Y-10299636D01*
X-5709648Y-10303452D01*
X-5719457Y-10403036D01*
X-5716999Y-10427990D01*
X-5717000Y-12741580D01*
X-6324772Y-12133808D01*
X-6324772Y-11915000D01*
X-6332558Y-11835944D01*
X-6355618Y-11759926D01*
X-6393065Y-11689867D01*
X-6443461Y-11628461D01*
X-6504867Y-11578065D01*
X-6574926Y-11540618D01*
X-6650944Y-11517558D01*
X-6730000Y-11509772D01*
X-6959011Y-11509772D01*
X-6960089Y-11508887D01*
X-7048341Y-11461716D01*
X-7144100Y-11432668D01*
X-7243684Y-11422859D01*
X-7343268Y-11432668D01*
X-7439027Y-11461716D01*
X-7527279Y-11508887D01*
X-7528357Y-11509772D01*
X-8380000Y-11509772D01*
X-8459056Y-11517558D01*
X-8535074Y-11540618D01*
X-8605133Y-11578065D01*
X-8666539Y-11628461D01*
X-8716935Y-11689867D01*
X-8754382Y-11759926D01*
X-8777442Y-11835944D01*
X-8779516Y-11857000D01*
X-9453828Y-11857000D01*
X-9465851Y-11817366D01*
X-9509652Y-11735422D01*
X-9539247Y-11699360D01*
X-9440820Y-11669502D01*
X-9330506Y-11610537D01*
X-9233815Y-11531185D01*
X-9154463Y-11434494D01*
X-9095498Y-11324180D01*
X-9059188Y-11204482D01*
X-9046928Y-11080000D01*
X-9050000Y-10928250D01*
X-9208750Y-10769500D01*
X-10033000Y-10769500D01*
X-10033000Y-10789500D01*
X-10287000Y-10789500D01*
X-10287000Y-10769500D01*
X-10508010Y-10769500D01*
X-10508010Y-10515500D01*
X-10287000Y-10515500D01*
X-10287000Y-9169500D01*
X-10508010Y-9169500D01*
X-10508010Y-8915500D01*
X-10287000Y-8915500D01*
X-10287000Y-8895500D01*
X-10033000Y-8895500D01*
X-10033000Y-8915500D01*
X-10013000Y-8915500D01*
X-10013000Y-9169500D01*
X-10033000Y-9169500D01*
X-10033000Y-10515500D01*
X-9208750Y-10515500D01*
X-9050000Y-10356750D01*
X-9046928Y-10205000D01*
X-9059188Y-10080518D01*
X-9095498Y-9960820D01*
X-9154463Y-9850506D01*
X-9161033Y-9842500D01*
X-9154463Y-9834494D01*
X-9095498Y-9724180D01*
X-9059188Y-9604482D01*
X-9046928Y-9480000D01*
X-9050000Y-9328250D01*
X-9208748Y-9169502D01*
X-9059511Y-9169502D01*
X-8785228Y-9443785D01*
X-8785228Y-9675000D01*
X-8777442Y-9754056D01*
X-8754382Y-9830074D01*
X-8716935Y-9900133D01*
X-8666539Y-9961539D01*
X-8605133Y-10011935D01*
X-8535074Y-10049382D01*
X-8459056Y-10072442D01*
X-8380000Y-10080228D01*
X-6730000Y-10080228D01*
X-6718065Y-10079053D01*
X-6878784Y-10239772D01*
X-8380000Y-10239772D01*
X-8459056Y-10247558D01*
X-8535074Y-10270618D01*
X-8605133Y-10308065D01*
X-8666539Y-10358461D01*
X-8716935Y-10419867D01*
X-8754382Y-10489926D01*
X-8777442Y-10565944D01*
X-8785228Y-10645000D01*
X-8785228Y-10945000D01*
X-8777442Y-11024056D01*
X-8754382Y-11100074D01*
X-8716935Y-11170133D01*
X-8666539Y-11231539D01*
X-8605133Y-11281935D01*
X-8535074Y-11319382D01*
X-8459056Y-11342442D01*
X-8380000Y-11350228D01*
X-6730000Y-11350228D01*
X-6650944Y-11342442D01*
X-6574926Y-11319382D01*
X-6504867Y-11281935D01*
X-6443461Y-11231539D01*
X-6393065Y-11170133D01*
X-6355618Y-11100074D01*
X-6332558Y-11024056D01*
X-6324772Y-10945000D01*
X-6324772Y-10645000D01*
X-6330260Y-10589273D01*
X-3834053Y-8093065D01*
X-3835228Y-8105000D01*
G37*
X-3835228Y-8105000D02*
X-3835228Y-8310844D01*
X-5550570Y-10026186D01*
X-5569947Y-10042088D01*
X-5585849Y-10061465D01*
X-5585850Y-10061466D01*
X-5633429Y-10119441D01*
X-5679017Y-10204731D01*
X-5680600Y-10207693D01*
X-5708490Y-10299636D01*
X-5709648Y-10303452D01*
X-5719457Y-10403036D01*
X-5716999Y-10427990D01*
X-5717000Y-12741580D01*
X-6324772Y-12133808D01*
X-6324772Y-11915000D01*
X-6332558Y-11835944D01*
X-6355618Y-11759926D01*
X-6393065Y-11689867D01*
X-6443461Y-11628461D01*
X-6504867Y-11578065D01*
X-6574926Y-11540618D01*
X-6650944Y-11517558D01*
X-6730000Y-11509772D01*
X-6959011Y-11509772D01*
X-6960089Y-11508887D01*
X-7048341Y-11461716D01*
X-7144100Y-11432668D01*
X-7243684Y-11422859D01*
X-7343268Y-11432668D01*
X-7439027Y-11461716D01*
X-7527279Y-11508887D01*
X-7528357Y-11509772D01*
X-8380000Y-11509772D01*
X-8459056Y-11517558D01*
X-8535074Y-11540618D01*
X-8605133Y-11578065D01*
X-8666539Y-11628461D01*
X-8716935Y-11689867D01*
X-8754382Y-11759926D01*
X-8777442Y-11835944D01*
X-8779516Y-11857000D01*
X-9453828Y-11857000D01*
X-9465851Y-11817366D01*
X-9509652Y-11735422D01*
X-9539247Y-11699360D01*
X-9440820Y-11669502D01*
X-9330506Y-11610537D01*
X-9233815Y-11531185D01*
X-9154463Y-11434494D01*
X-9095498Y-11324180D01*
X-9059188Y-11204482D01*
X-9046928Y-11080000D01*
X-9050000Y-10928250D01*
X-9208750Y-10769500D01*
X-10033000Y-10769500D01*
X-10033000Y-10789500D01*
X-10287000Y-10789500D01*
X-10287000Y-10769500D01*
X-10508010Y-10769500D01*
X-10508010Y-10515500D01*
X-10287000Y-10515500D01*
X-10287000Y-9169500D01*
X-10508010Y-9169500D01*
X-10508010Y-8915500D01*
X-10287000Y-8915500D01*
X-10287000Y-8895500D01*
X-10033000Y-8895500D01*
X-10033000Y-8915500D01*
X-10013000Y-8915500D01*
X-10013000Y-9169500D01*
X-10033000Y-9169500D01*
X-10033000Y-10515500D01*
X-9208750Y-10515500D01*
X-9050000Y-10356750D01*
X-9046928Y-10205000D01*
X-9059188Y-10080518D01*
X-9095498Y-9960820D01*
X-9154463Y-9850506D01*
X-9161033Y-9842500D01*
X-9154463Y-9834494D01*
X-9095498Y-9724180D01*
X-9059188Y-9604482D01*
X-9046928Y-9480000D01*
X-9050000Y-9328250D01*
X-9208748Y-9169502D01*
X-9059511Y-9169502D01*
X-8785228Y-9443785D01*
X-8785228Y-9675000D01*
X-8777442Y-9754056D01*
X-8754382Y-9830074D01*
X-8716935Y-9900133D01*
X-8666539Y-9961539D01*
X-8605133Y-10011935D01*
X-8535074Y-10049382D01*
X-8459056Y-10072442D01*
X-8380000Y-10080228D01*
X-6730000Y-10080228D01*
X-6718065Y-10079053D01*
X-6878784Y-10239772D01*
X-8380000Y-10239772D01*
X-8459056Y-10247558D01*
X-8535074Y-10270618D01*
X-8605133Y-10308065D01*
X-8666539Y-10358461D01*
X-8716935Y-10419867D01*
X-8754382Y-10489926D01*
X-8777442Y-10565944D01*
X-8785228Y-10645000D01*
X-8785228Y-10945000D01*
X-8777442Y-11024056D01*
X-8754382Y-11100074D01*
X-8716935Y-11170133D01*
X-8666539Y-11231539D01*
X-8605133Y-11281935D01*
X-8535074Y-11319382D01*
X-8459056Y-11342442D01*
X-8380000Y-11350228D01*
X-6730000Y-11350228D01*
X-6650944Y-11342442D01*
X-6574926Y-11319382D01*
X-6504867Y-11281935D01*
X-6443461Y-11231539D01*
X-6393065Y-11170133D01*
X-6355618Y-11100074D01*
X-6332558Y-11024056D01*
X-6324772Y-10945000D01*
X-6324772Y-10645000D01*
X-6330260Y-10589273D01*
X-3834053Y-8093065D01*
X-3835228Y-8105000D01*
G36*
X1349772Y-7275192D02*
G01*
X1349772Y-7875000D01*
X1357558Y-7954056D01*
X1380618Y-8030074D01*
X1418065Y-8100133D01*
X1468461Y-8161539D01*
X1529867Y-8211935D01*
X1599926Y-8249382D01*
X1675944Y-8272442D01*
X1755000Y-8280228D01*
X2055000Y-8280228D01*
X2134056Y-8272442D01*
X2210074Y-8249382D01*
X2269807Y-8217454D01*
X2285498Y-8269180D01*
X2344463Y-8379494D01*
X2423815Y-8476185D01*
X2520506Y-8555537D01*
X2630820Y-8614502D01*
X2720332Y-8641655D01*
X2281488Y-9080500D01*
X2176183Y-9080500D01*
X2173407Y-9052318D01*
X2155252Y-8992469D01*
X2125770Y-8937312D01*
X2119974Y-8930249D01*
X2086094Y-8888966D01*
X2073977Y-8879022D01*
X1465084Y-8270130D01*
X1455135Y-8258007D01*
X1406789Y-8218331D01*
X1351632Y-8188849D01*
X1291783Y-8170694D01*
X1245138Y-8166100D01*
X1229542Y-8164564D01*
X1213946Y-8166100D01*
X1147513Y-8166100D01*
X724619Y-7743206D01*
X730228Y-7686250D01*
X730228Y-7248750D01*
X721121Y-7156281D01*
X694149Y-7067366D01*
X650348Y-6985422D01*
X591403Y-6913597D01*
X523658Y-6858000D01*
X932580Y-6858000D01*
X1349772Y-7275192D01*
G37*
X1349772Y-7275192D02*
X1349772Y-7875000D01*
X1357558Y-7954056D01*
X1380618Y-8030074D01*
X1418065Y-8100133D01*
X1468461Y-8161539D01*
X1529867Y-8211935D01*
X1599926Y-8249382D01*
X1675944Y-8272442D01*
X1755000Y-8280228D01*
X2055000Y-8280228D01*
X2134056Y-8272442D01*
X2210074Y-8249382D01*
X2269807Y-8217454D01*
X2285498Y-8269180D01*
X2344463Y-8379494D01*
X2423815Y-8476185D01*
X2520506Y-8555537D01*
X2630820Y-8614502D01*
X2720332Y-8641655D01*
X2281488Y-9080500D01*
X2176183Y-9080500D01*
X2173407Y-9052318D01*
X2155252Y-8992469D01*
X2125770Y-8937312D01*
X2119974Y-8930249D01*
X2086094Y-8888966D01*
X2073977Y-8879022D01*
X1465084Y-8270130D01*
X1455135Y-8258007D01*
X1406789Y-8218331D01*
X1351632Y-8188849D01*
X1291783Y-8170694D01*
X1245138Y-8166100D01*
X1229542Y-8164564D01*
X1213946Y-8166100D01*
X1147513Y-8166100D01*
X724619Y-7743206D01*
X730228Y-7686250D01*
X730228Y-7248750D01*
X721121Y-7156281D01*
X694149Y-7067366D01*
X650348Y-6985422D01*
X591403Y-6913597D01*
X523658Y-6858000D01*
X932580Y-6858000D01*
X1349772Y-7275192D01*
G36*
X3302000Y-6923000D02*
G01*
X3322000Y-6923000D01*
X3322000Y-7177000D01*
X3302000Y-7177000D01*
X3302000Y-7197000D01*
X3048000Y-7197000D01*
X3048000Y-7177000D01*
X3028000Y-7177000D01*
X3028000Y-6923000D01*
X3048000Y-6923000D01*
X3048000Y-6903000D01*
X3302000Y-6903000D01*
X3302000Y-6923000D01*
G37*
X3302000Y-6923000D02*
X3322000Y-6923000D01*
X3322000Y-7177000D01*
X3302000Y-7177000D01*
X3302000Y-7197000D01*
X3048000Y-7197000D01*
X3048000Y-7177000D01*
X3028000Y-7177000D01*
X3028000Y-6923000D01*
X3048000Y-6923000D01*
X3048000Y-6903000D01*
X3302000Y-6903000D01*
X3302000Y-6923000D01*
M02*
